<svg width="688" height="530" viewBox="0 0 688 530" fill="none" xmlns="http://www.w3.org/2000/svg">
<ellipse cx="344" cy="505.012" rx="344" ry="24" fill="#F2E7F4"/>
<path d="M504.165 300.39V300.538C504.165 300.78 504.218 301.036 504.326 301.306C504.929 304.258 505.378 307.239 505.674 310.238C505.929 312.811 506.132 315.748 506.185 319.022C506.313 326.588 505.795 334.151 504.636 341.629C504.34 343.596 503.989 345.67 503.572 347.745C502.912 351.167 502.103 354.751 501.106 358.456C500.662 360.18 500.15 361.945 499.611 363.723L498.978 365.892C498.735 366.768 498.493 367.644 498.264 368.587C496.715 374.572 495.478 380.634 494.559 386.748C493.414 394.36 492.7 401.918 492.309 409.071C491.784 418.61 491.81 427.421 492.039 434.669C492.033 434.79 492.033 434.911 492.039 435.033C492.282 442.402 492.74 448.182 493.05 451.469C493.225 453.395 493.346 454.487 493.36 454.554" stroke="#263238" stroke-width="0.85542" stroke-linecap="round" stroke-linejoin="round"/>
<path d="M504.205 300.578C502.188 298.786 499.758 297.522 497.132 296.9L504.205 300.578Z" fill="white"/>
<path d="M504.205 300.578C502.188 298.786 499.758 297.522 497.132 296.9" stroke="#263238" stroke-width="0.85542" stroke-linecap="round" stroke-linejoin="round"/>
<path d="M505.714 310.278L509.298 307.032" stroke="#263238" stroke-width="0.85542" stroke-linecap="round" stroke-linejoin="round"/>
<path d="M501.147 358.469C500.959 357.523 500.68 356.598 500.312 355.707C499.781 354.4 499.059 353.179 498.17 352.083C497.506 351.26 496.751 350.514 495.92 349.86" stroke="#263238" stroke-width="0.85542" stroke-linecap="round" stroke-linejoin="round"/>
<path d="M498.277 368.573C498.785 367.315 499.545 366.175 500.512 365.222C501.478 364.27 502.629 363.526 503.895 363.036" stroke="#263238" stroke-width="0.85542" stroke-linecap="round" stroke-linejoin="round"/>
<path d="M492.053 418.691C493.252 417.236 494.154 411.725 494.639 408.761C494.761 408.061 494.855 407.414 494.949 407.024" fill="white"/>
<path d="M492.053 418.691C493.252 417.236 494.154 411.725 494.639 408.761C494.761 408.061 494.855 407.414 494.949 407.024" stroke="#263238" stroke-width="0.85542" stroke-linecap="round" stroke-linejoin="round"/>
<path d="M482.825 428.687C483.223 428.647 483.625 428.647 484.024 428.687C485.788 428.859 487.473 429.507 488.897 430.563C490.321 431.62 491.431 433.043 492.107 434.682" fill="white"/>
<path d="M482.825 428.687C483.223 428.647 483.625 428.647 484.024 428.687C485.788 428.859 487.473 429.507 488.897 430.563C490.321 431.62 491.431 433.043 492.107 434.682" stroke="#263238" stroke-width="0.85542" stroke-linecap="round" stroke-linejoin="round"/>
<path d="M503.612 347.853C503.612 347.853 504.245 325.987 492.241 318.052" stroke="#263238" stroke-width="0.85542" stroke-linecap="round" stroke-linejoin="round"/>
<path d="M504.636 394.723C506.212 399.829 495.205 409.543 495.205 409.543C495.205 409.543 480.669 407.724 479.038 402.632C477.408 397.539 481.14 389.159 488.2 387.004C495.259 384.848 503.113 389.617 504.636 394.723Z" fill="#583D88"/>
<path d="M516.882 332.845C515.535 338.234 505.08 342.1 505.08 342.1C505.08 342.1 497.9 333.707 499.247 328.291C500.594 322.875 506.401 316.92 511.278 318.173C516.155 319.426 518.283 327.429 516.882 332.845Z" fill="#583D88"/>
<path d="M475.132 413.773C481.666 416.306 485.667 427.865 485.667 427.865C485.667 427.865 474.889 433.672 468.369 431.126C461.848 428.579 454.896 421.412 456.782 416.629C458.669 411.847 468.598 411.173 475.132 413.773Z" fill="#583D88"/>
<path d="M489.453 350.184C490.775 351.296 492.291 352.154 493.925 352.716C494.746 352.982 495.623 353.017 496.462 352.817C497.301 352.618 498.068 352.191 498.681 351.585C500.028 349.981 499.705 347.543 498.829 345.536C497.078 341.696 490.638 335.162 485.694 337.035C478.553 339.769 486.273 347.853 489.453 350.184Z" fill="#583D88"/>
<path d="M504.07 359.978C503.127 361.137 502.13 362.605 502.656 364.02C502.949 364.614 503.43 365.095 504.024 365.387C504.619 365.679 505.293 365.767 505.943 365.636C507.235 365.33 508.442 364.736 509.473 363.898C511.992 362.147 517.165 358.509 513.865 355.047C510.564 351.585 505.983 357.539 504.07 359.978Z" fill="#583D88"/>
<path d="M482.986 311.114C482.443 311.145 481.922 311.347 481.499 311.69C481.076 312.034 480.772 312.501 480.629 313.027C480.413 314.28 481.451 315.371 482.448 316.139C484.953 318.079 492.484 323.279 494.155 318.254C495.745 313.512 486.301 310.75 482.986 311.114Z" fill="#583D88"/>
<path d="M496.849 294.597C495.3 294.745 493.751 294.179 492.188 294.273C490.625 294.368 488.914 295.62 489.251 297.156C489.588 298.692 491.326 299.029 492.754 299.11C495.212 299.268 497.681 299.1 500.096 298.611C500.668 298.557 501.198 298.287 501.578 297.857C502.211 296.927 501.214 295.688 500.137 295.365C499.03 295.217 497.942 294.955 496.89 294.583L496.849 294.597Z" fill="#583D88"/>
<path d="M512.019 305.28C513.568 305.28 515.077 304.66 516.64 304.647C518.202 304.633 520.008 305.779 519.752 307.341C519.496 308.904 517.825 309.349 516.397 309.524C513.956 309.847 511.482 309.847 509.041 309.524C508.463 309.511 507.913 309.274 507.505 308.864C506.818 307.988 507.734 306.681 508.772 306.277C509.87 306.072 510.941 305.742 511.965 305.294L512.019 305.28Z" fill="#583D88"/>
<path d="M510.483 420.092C510.84 419.719 511.317 419.486 511.83 419.432C512.176 419.465 512.5 419.617 512.746 419.863C512.992 420.109 513.144 420.433 513.177 420.779C513.252 421.444 513.169 422.118 512.935 422.746C511.871 426.289 500.015 451.873 497.28 447.279C495.677 444.585 499.638 435.572 500.81 433.025C503.046 428.057 506.349 423.641 510.483 420.092Z" fill="#583D88"/>
<path d="M504.704 302.047C504.704 302.047 503.99 295.836 505.485 295.311" stroke="#263238" stroke-width="0.85542" stroke-linecap="round" stroke-linejoin="round"/>
<path d="M503.383 295.567C504.147 293.373 505.465 291.415 507.209 289.881C509.082 288.534 512.086 288.426 513.447 290.299C514.97 292.387 513.447 295.553 511.116 296.671C508.786 297.79 506.037 297.453 503.478 297.089C503.478 296.712 503.478 296.335 503.478 295.957L503.383 295.567Z" fill="#583D88"/>
<path d="M509.769 495.523C497.069 497.665 484.1 497.665 471.4 495.523L456.472 451.482H524.696L509.769 495.523Z" fill="white" stroke="#263238" stroke-width="0.85542" stroke-linecap="round" stroke-linejoin="round"/>
<path d="M249.402 177.333V177.481C249.456 177.724 249.51 177.98 249.564 178.249C250.174 181.2 250.624 184.182 250.911 187.182C251.167 189.755 251.356 192.692 251.423 195.965C251.561 203.512 251.057 211.057 249.914 218.518C249.618 220.485 249.268 222.56 248.85 224.635C248.19 228.057 247.368 231.64 246.385 235.345C245.927 237.07 245.428 238.835 244.889 240.613C244.674 241.34 244.458 242.054 244.256 242.782C244.054 243.509 243.757 244.533 243.528 245.476C241.981 251.462 240.744 257.524 239.824 263.637C238.678 271.249 237.978 278.807 237.587 285.961C237.062 295.499 237.075 304.31 237.318 311.558V311.922C237.574 319.291 238.018 325.071 238.342 328.372C238.503 330.285 238.638 331.376 238.638 331.444" stroke="#263238" stroke-width="0.85542" stroke-linecap="round" stroke-linejoin="round"/>
<path d="M249.429 177.522C248.463 176.676 247.405 175.939 246.277 175.326C245.032 174.67 243.711 174.172 242.343 173.844" fill="white"/>
<path d="M249.429 177.522C248.463 176.676 247.405 175.939 246.277 175.326C245.032 174.67 243.711 174.172 242.343 173.844" stroke="#263238" stroke-width="0.85542" stroke-linecap="round" stroke-linejoin="round"/>
<path d="M250.938 187.222L254.535 183.975" stroke="#263238" stroke-width="0.85542" stroke-linecap="round" stroke-linejoin="round"/>
<path d="M246.384 235.413C246.192 234.466 245.908 233.542 245.536 232.651C245.004 231.344 244.283 230.122 243.393 229.027C242.73 228.203 241.975 227.458 241.144 226.804" stroke="#263238" stroke-width="0.85542" stroke-linecap="round" stroke-linejoin="round"/>
<path d="M243.515 245.463C244.018 244.204 244.775 243.062 245.74 242.11C246.704 241.157 247.855 240.413 249.12 239.926" stroke="#263238" stroke-width="0.85542" stroke-linecap="round" stroke-linejoin="round"/>
<path d="M237.277 295.634C238.476 294.179 239.392 288.669 239.877 285.705C239.985 285.004 240.093 284.358 240.173 283.967" fill="white"/>
<path d="M237.277 295.634C238.476 294.179 239.392 288.669 239.877 285.705C239.985 285.004 240.093 284.358 240.173 283.967" stroke="#263238" stroke-width="0.85542" stroke-linecap="round" stroke-linejoin="round"/>
<path d="M228.048 305.577C228.452 305.536 228.858 305.536 229.261 305.577C231.024 305.752 232.707 306.403 234.13 307.458C235.553 308.514 236.664 309.936 237.344 311.572" fill="white"/>
<path d="M228.048 305.577C228.452 305.536 228.858 305.536 229.261 305.577C231.024 305.752 232.707 306.403 234.13 307.458C235.553 308.514 236.664 309.936 237.344 311.572" stroke="#263238" stroke-width="0.85542" stroke-linecap="round" stroke-linejoin="round"/>
<path d="M248.836 224.742C248.836 224.742 249.483 202.877 237.466 194.942" stroke="#263238" stroke-width="0.85542" stroke-linecap="round" stroke-linejoin="round"/>
<path d="M249.928 271.667C251.491 276.773 240.497 286.486 240.497 286.486C240.497 286.486 225.947 284.668 224.33 279.575C222.714 274.482 226.446 266.103 233.492 263.947C240.538 261.791 248.352 266.574 249.928 271.667Z" fill="#583D88"/>
<path d="M262.134 209.788C260.787 215.177 250.332 219.044 250.332 219.044C250.332 219.044 243.07 210.65 244.471 205.234C245.873 199.819 251.612 193.864 256.489 195.117C261.366 196.37 263.481 204.372 262.134 209.788Z" fill="#583D88"/>
<path d="M220.37 290.717C226.904 293.263 230.918 304.809 230.918 304.809C230.918 304.809 220.14 310.615 213.606 308.069C207.072 305.523 200.134 298.355 202.034 293.573C203.933 288.79 213.822 288.17 220.37 290.717Z" fill="#583D88"/>
<path d="M234.691 227.127C236.009 228.239 237.52 229.097 239.15 229.66C239.97 229.925 240.848 229.96 241.687 229.761C242.525 229.561 243.293 229.135 243.906 228.528C245.253 226.925 244.93 224.486 244.054 222.479C242.303 218.639 235.876 212.105 230.919 213.978C223.792 216.686 231.498 224.769 234.691 227.127Z" fill="#583D88"/>
<path d="M249.295 236.935C248.365 238.094 247.368 239.629 247.88 240.977C248.173 241.571 248.654 242.052 249.249 242.344C249.843 242.636 250.518 242.724 251.167 242.593C252.46 242.289 253.667 241.695 254.697 240.855C257.216 239.117 262.39 235.466 259.089 232.004C255.788 228.542 251.275 234.483 249.295 236.935Z" fill="#583D88"/>
<path d="M228.21 188.057C227.666 188.091 227.147 188.293 226.724 188.636C226.302 188.979 225.997 189.446 225.852 189.97C225.636 191.223 226.674 192.314 227.684 193.082C230.19 195.022 237.708 200.223 239.392 195.197C240.968 190.455 231.537 187.693 228.21 188.057Z" fill="#583D88"/>
<path d="M242.073 171.54C240.524 171.688 238.974 171.122 237.425 171.217C235.876 171.311 234.138 172.564 234.488 174.1C234.838 175.636 236.549 175.972 237.991 176.053C240.445 176.211 242.909 176.043 245.32 175.555C245.896 175.501 246.43 175.232 246.815 174.8C247.435 173.871 246.438 172.631 245.374 172.308C244.263 172.161 243.17 171.899 242.113 171.527L242.073 171.54Z" fill="#583D88"/>
<path d="M257.243 182.224C258.806 182.224 260.315 181.604 261.864 181.59C263.413 181.577 265.232 182.722 264.99 184.285C264.747 185.848 263.049 186.292 261.621 186.467C259.18 186.791 256.707 186.791 254.266 186.467C253.687 186.454 253.137 186.218 252.73 185.807C252.043 184.932 252.959 183.625 254.01 183.221C255.107 183.012 256.178 182.682 257.202 182.237L257.243 182.224Z" fill="#583D88"/>
<path d="M255.707 297.035C256.066 296.665 256.542 296.431 257.055 296.375C257.398 296.415 257.718 296.57 257.962 296.814C258.207 297.059 258.362 297.379 258.402 297.722C258.471 298.389 258.384 299.063 258.146 299.689C257.095 303.232 245.226 328.816 242.504 324.222C240.888 321.528 244.849 312.515 246.021 309.969C248.261 304.999 251.568 300.583 255.707 297.035Z" fill="#583D88"/>
<path d="M249.928 179.017C249.928 179.017 249.214 172.806 250.722 172.281" stroke="#263238" stroke-width="0.85542" stroke-linecap="round" stroke-linejoin="round"/>
<path d="M248.661 172.51C249.415 170.312 250.735 168.351 252.487 166.825C254.36 165.478 257.351 165.37 258.712 167.242C260.234 169.331 258.712 172.497 256.381 173.615C254.05 174.733 251.315 174.396 248.755 174.032C248.755 173.655 248.755 173.278 248.755 172.901L248.661 172.51Z" fill="#583D88"/>
<path d="M78.707 326.257V193.136" stroke="#263238" stroke-width="0.85542" stroke-linecap="round" stroke-linejoin="round"/>
<path d="M494.329 326.257H477.879" stroke="#263238" stroke-width="0.85542" stroke-linecap="round" stroke-linejoin="round"/>
<path d="M623.326 326.257H589.82" stroke="#263238" stroke-width="0.85542" stroke-linecap="round" stroke-linejoin="round"/>
<path d="M476.371 124.023H535.744V67.4661" stroke="#263238" stroke-width="0.85542" stroke-linecap="round" stroke-linejoin="round"/>
<path d="M130.32 106.751H193.397V152.76H262.538" stroke="#263238" stroke-width="0.85542" stroke-linecap="round" stroke-linejoin="round"/>
<path d="M93.1089 262.559V160.897" stroke="#263238" stroke-width="0.85542" stroke-linecap="round" stroke-linejoin="round"/>
<path d="M121.293 116.775V196.45" stroke="#263238" stroke-width="0.85542" stroke-linecap="round" stroke-linejoin="round"/>
<path d="M149.464 116.775V187.208" stroke="#263238" stroke-width="0.85542" stroke-linecap="round" stroke-linejoin="round"/>
<path d="M177.634 116.775V239.98" stroke="#263238" stroke-width="0.85542" stroke-linecap="round" stroke-linejoin="round"/>
<path d="M312.587 99.3012V18.2919H427.277V99.3012" stroke="#263238" stroke-width="0.85542" stroke-linecap="round" stroke-linejoin="round"/>
<path d="M320.994 58.5339V27.9112H342.199" stroke="#263238" stroke-width="0.85542" stroke-linecap="round" stroke-linejoin="round"/>
<path d="M346.861 58.5339V27.9112H368.067" stroke="#263238" stroke-width="0.85542" stroke-linecap="round" stroke-linejoin="round"/>
<path d="M372.728 58.5339V27.9112H393.934" stroke="#263238" stroke-width="0.85542" stroke-linecap="round" stroke-linejoin="round"/>
<path d="M398.595 58.5339V27.9112H419.8" stroke="#263238" stroke-width="0.85542" stroke-linecap="round" stroke-linejoin="round"/>
<path d="M320.994 99.3013V68.6786H342.199" stroke="#263238" stroke-width="0.85542" stroke-linecap="round" stroke-linejoin="round"/>
<path d="M346.861 99.3013V68.6786H368.067" stroke="#263238" stroke-width="0.85542" stroke-linecap="round" stroke-linejoin="round"/>
<path d="M372.728 99.3013V68.6786H393.934" stroke="#263238" stroke-width="0.85542" stroke-linecap="round" stroke-linejoin="round"/>
<path d="M398.595 99.3013V68.6786H419.8" stroke="#263238" stroke-width="0.85542" stroke-linecap="round" stroke-linejoin="round"/>
<path d="M544.932 74.4717V175.986" stroke="#263238" stroke-width="0.85542" stroke-linecap="round" stroke-linejoin="round"/>
<path d="M586.575 318.82H589.822" stroke="#263238" stroke-width="0.85542" stroke-linecap="round" stroke-linejoin="round"/>
<path d="M569.896 103.626V217.279" stroke="#263238" stroke-width="0.85542" stroke-linecap="round" stroke-linejoin="round"/>
<path d="M594.873 289.801V318.82H614.799" stroke="#263238" stroke-width="0.85542" stroke-linecap="round" stroke-linejoin="round"/>
<path d="M594.873 140.675V217.858" stroke="#263238" stroke-width="0.85542" stroke-linecap="round" stroke-linejoin="round"/>
<path d="M619.838 199.239V318.82H624.378" stroke="#263238" stroke-width="0.85542" stroke-linecap="round" stroke-linejoin="round"/>
<path d="M315.605 328.695H58.2832V495.833H315.605V328.695Z" fill="white" stroke="#263238" stroke-width="0.85542" stroke-linecap="round" stroke-linejoin="round"/>
<path d="M58.2832 328.695L186.944 412.264L315.605 328.695H58.2832Z" fill="white" stroke="#263238" stroke-width="0.85542" stroke-linecap="round" stroke-linejoin="round"/>
<path d="M148.265 387.138L58.2832 495.833" stroke="#263238" stroke-width="0.85542" stroke-linecap="round" stroke-linejoin="round"/>
<path d="M226.324 387.138L316.306 495.833" stroke="#263238" stroke-width="0.85542" stroke-linecap="round" stroke-linejoin="round"/>
<path d="M453.306 115.428H393.489C391.766 115.43 390.075 115.893 388.592 116.77C387.109 117.646 385.888 118.904 385.055 120.412C383.585 123.065 381.432 125.276 378.819 126.816C376.206 128.355 373.228 129.167 370.195 129.167C367.162 129.167 364.185 128.355 361.571 126.816C358.958 125.276 356.805 123.065 355.335 120.412C354.509 118.885 353.286 117.609 351.794 116.719C350.302 115.83 348.598 115.36 346.861 115.36H287.111C285.471 115.339 283.843 115.641 282.319 116.249C280.796 116.857 279.407 117.759 278.232 118.904C277.058 120.048 276.12 121.413 275.473 122.92C274.826 124.428 274.482 126.047 274.46 127.688V465.062C274.507 468.374 275.865 471.531 278.236 473.842C280.608 476.153 283.8 477.429 287.111 477.39H453.306C456.619 477.429 459.812 476.154 462.186 473.843C464.559 471.533 465.92 468.375 465.97 465.062V127.755C465.924 124.441 464.564 121.282 462.19 118.97C459.815 116.659 456.62 115.385 453.306 115.428Z" fill="#7E57C2"/>
<path d="M471.804 124.023C471.811 121.75 471.369 119.499 470.504 117.397C469.64 115.295 468.369 113.385 466.764 111.775C465.16 110.166 463.253 108.889 461.154 108.017C459.055 107.146 456.805 106.698 454.532 106.698H285.899C283.631 106.696 281.385 107.141 279.29 108.007C277.195 108.874 275.29 110.145 273.686 111.748C272.082 113.35 270.81 115.253 269.942 117.348C269.074 119.443 268.627 121.688 268.627 123.956V478.535C268.627 483.112 270.445 487.502 273.682 490.738C276.918 493.975 281.308 495.793 285.885 495.793H454.532C459.11 495.793 463.502 493.975 466.74 490.739C469.979 487.503 471.8 483.113 471.804 478.535V124.023ZM465.97 465.062C465.92 468.375 464.559 471.533 462.186 473.843C459.812 476.154 456.619 477.429 453.306 477.39H287.111C283.8 477.429 280.608 476.153 278.236 473.842C275.865 471.531 274.507 468.374 274.46 465.062V127.755C274.482 126.115 274.826 124.495 275.473 122.988C276.12 121.481 277.058 120.116 278.232 118.971C279.407 117.826 280.796 116.924 282.319 116.316C283.843 115.708 285.471 115.406 287.111 115.428H346.888C348.623 115.427 350.326 115.897 351.815 116.786C353.305 117.676 354.526 118.952 355.349 120.48C356.818 123.133 358.972 125.344 361.585 126.883C364.198 128.423 367.176 129.235 370.209 129.235C373.241 129.235 376.219 128.423 378.832 126.883C381.445 125.344 383.599 123.133 385.069 120.48C385.899 118.97 387.12 117.71 388.603 116.833C390.087 115.956 391.779 115.494 393.502 115.495H453.32C454.96 115.474 456.588 115.776 458.111 116.384C459.635 116.991 461.023 117.894 462.198 119.038C463.373 120.183 464.311 121.548 464.958 123.055C465.605 124.562 465.949 126.182 465.97 127.822V465.062Z" fill="#263238"/>
<path opacity="0.2" d="M414.506 106.751L302.483 495.82L346.969 495.779L454.842 106.751H414.506Z" fill="white"/>
<path opacity="0.2" d="M397.8 106.751L279.365 495.833L285.845 495.793L402.058 106.751H397.8Z" fill="white"/>
<path d="M400.427 395.99C400.51 399.846 399.82 403.68 398.398 407.266C396.977 410.852 394.852 414.117 392.149 416.869C389.446 419.621 386.219 421.804 382.659 423.29C379.1 424.776 375.279 425.535 371.421 425.521C363.551 425.491 356.003 422.386 350.39 416.869C344.777 411.351 341.543 403.859 341.378 395.99C341.297 392.134 341.988 388.302 343.411 384.717C344.833 381.133 346.959 377.87 349.662 375.119C352.364 372.369 355.59 370.187 359.149 368.702C362.708 367.216 366.528 366.458 370.384 366.472C378.253 366.498 385.801 369.6 391.414 375.115C397.027 380.631 400.262 388.122 400.427 395.99Z" fill="white" stroke="#263238" stroke-width="0.85542" stroke-linecap="round" stroke-linejoin="round"/>
<path d="M361.222 418.03C358.48 417.016 355.966 415.468 353.826 413.477C351.669 411.404 349.998 408.878 348.936 406.08C347.725 402.945 347.126 399.607 347.171 396.246C347.154 393.38 347.661 390.536 348.666 387.852C349.58 385.374 350.951 383.089 352.708 381.116C356.171 377.328 360.644 374.608 365.601 373.275C368.035 372.619 370.544 372.289 373.065 372.292C375.158 372.282 377.244 372.531 379.275 373.033C381.236 373.514 383.112 374.291 384.84 375.336C386.55 376.364 388.083 377.66 389.38 379.176C390.731 380.811 391.764 382.684 392.424 384.7C393.18 386.999 393.553 389.407 393.529 391.827C393.501 396.504 391.816 401.019 388.773 404.572C387.465 406.055 385.917 407.307 384.193 408.276C382.707 409.129 381.029 409.593 379.316 409.624C378.133 409.639 376.978 409.265 376.029 408.559C375.552 408.207 375.164 407.748 374.895 407.22C374.626 406.691 374.484 406.107 374.479 405.515C373.595 406.858 372.382 407.954 370.956 408.696C369.529 409.439 367.936 409.805 366.329 409.758C365.064 409.815 363.802 409.588 362.637 409.093C361.471 408.599 360.431 407.851 359.592 406.902C357.91 404.947 357.021 402.434 357.1 399.856C357.111 397.735 357.48 395.631 358.191 393.632C358.899 391.618 359.903 389.72 361.169 388.001C362.43 386.311 364.038 384.91 365.884 383.891C367.729 382.85 369.814 382.307 371.933 382.315C373.406 382.3 374.86 382.652 376.163 383.339C377.429 384.014 378.455 385.063 379.1 386.343L379.37 385.441C379.584 384.809 380.041 384.287 380.64 383.992C381.239 383.696 381.93 383.651 382.563 383.865C382.807 383.948 383.039 384.066 383.25 384.215C383.451 384.375 383.61 384.581 383.716 384.815C383.821 385.049 383.869 385.305 383.856 385.562C383.856 385.814 383.815 386.064 383.735 386.303L379.37 400.826C378.985 401.933 378.736 403.082 378.629 404.248C378.589 404.466 378.603 404.69 378.67 404.901C378.737 405.112 378.855 405.303 379.013 405.458C379.172 405.612 379.366 405.725 379.578 405.787C379.791 405.848 380.015 405.857 380.232 405.811C381.777 405.712 383.224 405.022 384.274 403.884C385.729 402.446 386.847 400.702 387.547 398.778C388.384 396.678 388.813 394.438 388.814 392.177C388.832 390.186 388.541 388.205 387.952 386.303C387.456 384.663 386.672 383.126 385.634 381.763C384.652 380.522 383.462 379.46 382.118 378.624C380.778 377.778 379.314 377.147 377.78 376.751C376.206 376.337 374.585 376.129 372.957 376.131C370.892 376.134 368.838 376.425 366.854 376.994C364.81 377.572 362.863 378.449 361.074 379.594C359.271 380.732 357.638 382.12 356.224 383.716C354.768 385.398 353.635 387.335 352.883 389.429C352.037 391.709 351.612 394.124 351.63 396.555C351.586 399.436 352.108 402.297 353.166 404.976C354.079 407.295 355.518 409.37 357.369 411.038C359.159 412.591 361.225 413.793 363.459 414.581C365.816 415.415 368.301 415.835 370.801 415.821C373.474 415.821 376.131 415.417 378.683 414.622C378.938 414.53 379.207 414.485 379.478 414.487C379.73 414.483 379.981 414.533 380.213 414.633C380.445 414.733 380.654 414.88 380.825 415.067C380.997 415.245 381.132 415.457 381.222 415.688C381.312 415.919 381.356 416.166 381.35 416.414C381.383 416.806 381.272 417.196 381.039 417.513C380.807 417.83 380.467 418.052 380.084 418.138C376.904 419.11 373.601 419.619 370.276 419.647C367.187 419.643 364.122 419.096 361.222 418.03ZM372.351 404.06C373.683 403.103 374.67 401.742 375.166 400.18L377.982 390.277L377.794 389.873C377.618 389.549 377.406 389.246 377.16 388.971C376.823 388.581 376.453 388.221 376.056 387.893C375.551 387.49 374.981 387.176 374.372 386.963C372.777 386.406 371.032 386.469 369.481 387.138C368.632 387.498 367.852 388.004 367.177 388.634C366.476 389.288 365.852 390.02 365.318 390.816C364.783 391.645 364.332 392.525 363.971 393.443C363.592 394.362 363.299 395.314 363.095 396.286C362.892 397.211 362.788 398.155 362.785 399.102C362.773 399.71 362.809 400.318 362.893 400.921C362.955 401.457 363.073 401.985 363.243 402.497C363.391 402.973 363.604 403.426 363.877 403.844C364.12 404.22 364.431 404.549 364.793 404.814C365.178 405.093 365.612 405.299 366.073 405.42C366.61 405.578 367.169 405.651 367.73 405.636C369.415 405.657 371.06 405.116 372.405 404.1L372.351 404.06Z" fill="#7E57C2" stroke="#263238" stroke-width="0.85542" stroke-linecap="round" stroke-linejoin="round"/>
<path d="M399.767 294.772C399.848 298.627 399.157 302.46 397.734 306.044C396.312 309.628 394.186 312.892 391.484 315.642C388.781 318.393 385.555 320.575 381.996 322.06C378.437 323.545 374.617 324.303 370.761 324.29C362.892 324.263 355.345 321.161 349.731 315.646C344.118 310.131 340.883 302.639 340.718 294.772C340.633 290.915 341.322 287.08 342.743 283.493C344.164 279.907 346.289 276.641 348.992 273.888C351.696 271.136 354.923 268.953 358.484 267.468C362.044 265.982 365.866 265.225 369.724 265.24C377.594 265.27 385.142 268.375 390.755 273.893C396.368 279.41 399.602 286.903 399.767 294.772Z" fill="white" stroke="#263238" stroke-width="0.85542" stroke-linecap="round" stroke-linejoin="round"/>
<path d="M388.774 292.077C379.518 286.015 361.371 286.015 352.547 292.077C350.933 292.38 349.481 293.253 348.458 294.536C347.434 295.82 346.905 297.429 346.969 299.069C347.104 302.99 363.392 302.99 363.257 299.069C363.178 297.43 362.552 295.865 361.479 294.624C367.588 293.303 373.908 293.303 380.017 294.624C379.023 295.888 378.507 297.462 378.562 299.069C378.696 302.99 394.985 302.99 394.836 299.069C394.76 297.392 394.12 295.789 393.02 294.52C391.919 293.252 390.424 292.391 388.774 292.077Z" fill="#7E57C2" stroke="#263238" stroke-width="0.85542" stroke-linecap="round" stroke-linejoin="round"/>
<path d="M399.767 196.45C399.929 203.712 395.968 210.206 389.609 214.53V232.166L376.959 219.502C374.913 219.867 372.839 220.048 370.761 220.041C354.46 220.041 341.001 209.478 340.718 196.45C340.435 183.423 353.409 172.874 369.724 172.874C386.039 172.874 399.552 183.49 399.767 196.45Z" fill="white" stroke="#263238" stroke-width="0.85542" stroke-linecap="round" stroke-linejoin="round"/>
<path d="M357.666 196.45C357.669 197.208 357.446 197.949 357.028 198.58C356.609 199.211 356.012 199.703 355.313 199.995C354.614 200.287 353.845 200.364 353.102 200.218C352.359 200.072 351.676 199.709 351.139 199.174C350.603 198.64 350.237 197.958 350.088 197.215C349.939 196.473 350.014 195.703 350.304 195.003C350.593 194.303 351.083 193.705 351.713 193.284C352.342 192.863 353.082 192.638 353.84 192.638C354.852 192.638 355.823 193.039 356.541 193.754C357.258 194.468 357.662 195.438 357.666 196.45Z" fill="#7E57C2" stroke="#263238" stroke-width="0.85542" stroke-linecap="round" stroke-linejoin="round"/>
<path d="M374.035 196.45C374.037 197.208 373.815 197.949 373.396 198.58C372.978 199.211 372.381 199.703 371.682 199.995C370.983 200.287 370.213 200.364 369.47 200.218C368.727 200.072 368.044 199.709 367.508 199.174C366.971 198.64 366.606 197.958 366.457 197.215C366.308 196.473 366.383 195.703 366.672 195.003C366.961 194.303 367.452 193.705 368.081 193.284C368.711 192.863 369.451 192.638 370.208 192.638C371.221 192.638 372.192 193.039 372.909 193.754C373.626 194.468 374.031 195.438 374.035 196.45Z" fill="#7E57C2" stroke="#263238" stroke-width="0.85542" stroke-linecap="round" stroke-linejoin="round"/>
<path d="M390.404 196.45C390.407 197.208 390.185 197.949 389.766 198.58C389.347 199.211 388.751 199.703 388.052 199.995C387.353 200.287 386.583 200.364 385.84 200.218C385.097 200.072 384.414 199.709 383.877 199.174C383.341 198.64 382.975 197.958 382.826 197.215C382.678 196.473 382.753 195.703 383.042 195.003C383.331 194.303 383.821 193.705 384.451 193.284C385.08 192.863 385.821 192.638 386.578 192.638C387.59 192.638 388.562 193.039 389.279 193.754C389.996 194.468 390.401 195.438 390.404 196.45Z" fill="#7E57C2" stroke="#263238" stroke-width="0.85542" stroke-linecap="round" stroke-linejoin="round"/>
<path d="M205.28 250.219C204.802 251.108 204.112 251.867 203.273 252.428C197.057 257.386 190.698 262.142 184.196 266.695C181.811 268.366 179.332 270.09 177.028 271.963C163.179 281.232 171.639 283.495 163.179 303.111C161.185 307.8 161.549 330.77 161.549 330.77H160.862C159.24 329.169 157.516 327.675 155.702 326.297C155.451 326.128 155.19 325.975 154.92 325.839C154.667 325.709 154.394 325.622 154.112 325.583C152.765 325.502 147.632 326.122 142.445 325.785L141.098 325.677C140.343 325.597 139.602 325.502 138.861 325.368C138.12 325.233 137.406 325.085 136.719 324.896C131.797 323.318 126.97 321.455 122.263 319.318L119.919 318.308L118.76 317.81L117.71 317.351L116.955 317.028L116.228 316.718C115.002 316.206 113.856 315.735 112.806 315.371C112.324 315.198 111.834 315.05 111.337 314.926C111.337 316.031 111.162 317.163 111.014 318.268C110.367 323.535 108.926 328.399 106.352 329.045C106.299 329.059 106.244 329.059 106.191 329.045C105.964 329.088 105.734 329.11 105.504 329.113H105.301C104.731 329.101 104.167 328.997 103.631 328.803C101.296 327.806 99.3871 326.017 98.242 323.751C97.7303 322.795 97.4445 321.735 97.4067 320.652C97.4067 316.732 96.3154 293.6 96.3154 286.864C96.3154 280.127 97.6627 268.339 101.017 263.96C102.328 262.104 103.984 260.517 105.894 259.286C108.352 257.237 111.171 255.665 114.207 254.651C117.79 253.479 125.806 250.488 131.397 248.373L122.95 251.633C125.092 255.298 129.686 261.064 137.972 261.805C145.759 262.465 150.582 255.419 153.048 250.273C153.263 250.353 166.816 247.78 169.955 247.928C180.181 248.373 188.52 242.836 192.293 240.64C193.43 239.96 194.707 239.546 196.027 239.429C197.348 239.312 198.678 239.495 199.917 239.964C201.157 240.433 202.275 241.176 203.187 242.137C204.099 243.099 204.783 244.254 205.186 245.517V245.638C205.775 247.102 205.809 248.731 205.28 250.219Z" fill="#B291EC" stroke="#263238" stroke-width="0.85542" stroke-linecap="round" stroke-linejoin="round"/>
<path d="M152.899 250.353L152.279 250.138" stroke="#263238" stroke-width="0.85542" stroke-linecap="round" stroke-linejoin="round"/>
<path d="M164.391 336.698C164.397 336.751 164.397 336.806 164.391 336.859C164.336 336.99 164.253 337.106 164.147 337.199C164.042 337.293 163.916 337.362 163.781 337.401C163.645 337.44 163.502 337.447 163.363 337.424C163.224 337.4 163.092 337.345 162.976 337.264C162.357 336.913 161.4 334.663 161.4 334.663L160.336 333.559L159.635 332.818C159.743 333.087 160.592 335.148 160.147 336.105C160.125 336.171 160.088 336.23 160.039 336.28C159.742 336.678 159.355 337.001 158.911 337.223C158.467 337.445 157.976 337.56 157.48 337.56C156.9 337.56 155.203 337.762 153.721 337.856H153.559C153.11 337.881 152.661 337.881 152.212 337.856C151.016 337.702 149.862 337.313 148.817 336.711C146.447 336.363 144.112 335.809 141.838 335.054L141.434 334.839L141.07 334.623C140.831 334.479 140.61 334.307 140.41 334.111C139.589 333.427 138.892 332.606 138.349 331.686C138.349 331.686 132.879 331.457 125.537 330.891C122.842 330.689 119.932 330.433 116.914 330.137C112.28 329.665 108.454 329.692 105.449 329.274H105.234C104.641 329.194 104.089 329.086 103.563 328.965C102.281 328.714 101.095 328.107 100.142 327.213C99.1891 326.32 98.507 325.176 98.1743 323.912C97.9979 323.314 97.854 322.707 97.7432 322.094L100.087 318.052C101.309 317.072 102.672 316.282 104.129 315.708C106.39 314.762 108.887 314.531 111.283 315.048C111.78 315.171 112.27 315.319 112.751 315.492C113.802 315.896 114.947 316.368 116.173 316.839L116.914 317.149L117.669 317.473L118.72 317.931C124.715 320.41 131.869 323.603 136.651 324.95C138.088 325.326 139.552 325.587 141.03 325.731L142.377 325.839C147.564 326.176 152.683 325.556 154.044 325.637C155.405 325.718 158.733 328.884 160.861 330.837C161.44 331.376 161.952 331.821 162.303 332.09L162.464 332.225L162.586 332.333C163.357 333.124 163.898 334.112 164.148 335.189C164.254 335.55 164.327 335.919 164.364 336.294C164.388 336.427 164.397 336.562 164.391 336.698Z" fill="white" stroke="#263238" stroke-width="0.85542" stroke-linecap="round" stroke-linejoin="round"/>
<path d="M164.391 336.698C164.398 336.751 164.398 336.806 164.391 336.859C164.335 336.988 164.251 337.103 164.145 337.196C164.038 337.288 163.913 337.355 163.777 337.393C163.641 337.43 163.499 337.437 163.361 337.412C163.222 337.388 163.091 337.332 162.976 337.25C162.31 336.477 161.778 335.598 161.4 334.65L160.336 333.559L159.635 332.831C159.73 333.047 160.605 335.148 160.161 336.118C160.138 336.184 160.101 336.244 160.053 336.294C159.904 336.492 159.732 336.673 159.541 336.832C158.96 337.299 158.238 337.556 157.493 337.56C156.9 337.56 155.216 337.749 153.748 337.856H153.559C153.111 337.881 152.661 337.881 152.212 337.856C151.023 337.698 149.875 337.314 148.831 336.725C146.461 336.37 144.126 335.811 141.852 335.054L141.461 334.865L141.097 334.65C140.864 334.497 140.644 334.325 140.437 334.138C139.604 333.448 138.898 332.618 138.349 331.686C138.349 331.686 133.041 331.457 125.847 330.905C123.152 330.703 120.04 330.433 116.914 330.123C112.657 329.706 109.141 329.584 106.298 329.14L105.423 328.978L104.412 328.749C104.179 327.098 104.35 325.415 104.911 323.845C105.433 322.52 106.243 321.328 107.282 320.354C108.321 319.38 109.563 318.649 110.919 318.214C112.602 317.595 114.326 317.095 116.079 316.718L116.807 317.028L117.561 317.351L118.612 317.81C124.715 320.437 131.788 323.616 136.584 324.923C138.02 325.301 139.484 325.558 140.963 325.691L142.31 325.799C147.497 326.149 152.616 325.529 153.977 325.61C155.338 325.691 158.652 328.843 160.713 330.797C161.181 331.244 161.671 331.666 162.182 332.063L162.343 332.185L162.465 332.292C163.251 333.073 163.794 334.065 164.027 335.148C164.133 335.509 164.206 335.879 164.243 336.253C164.312 336.394 164.362 336.544 164.391 336.698Z" fill="white" stroke="#263238" stroke-width="0.85542" stroke-linecap="round" stroke-linejoin="round"/>
<path d="M148.265 333.114C148.265 333.114 151.323 334.704 152.535 335.256C153.748 335.808 153.64 338.031 153.64 338.031" fill="white"/>
<path d="M148.265 333.114C148.265 333.114 151.323 334.704 152.535 335.256C153.748 335.808 153.64 338.031 153.64 338.031" stroke="#263238" stroke-width="0.85542" stroke-linecap="round" stroke-linejoin="round"/>
<path d="M151.538 330.958C153.462 332.332 155.315 333.802 157.089 335.364C157.348 335.668 157.517 336.039 157.576 336.434C157.636 336.829 157.584 337.233 157.426 337.6" fill="white"/>
<path d="M151.538 330.958C153.462 332.332 155.315 333.802 157.089 335.364C157.348 335.668 157.517 336.039 157.576 336.434C157.636 336.829 157.584 337.233 157.426 337.6" stroke="#263238" stroke-width="0.85542" stroke-linecap="round" stroke-linejoin="round"/>
<path d="M159.595 332.804C158.001 331.096 156.314 329.477 154.543 327.954L159.595 332.804Z" fill="white"/>
<path d="M159.595 332.804C158.001 331.096 156.314 329.477 154.543 327.954" stroke="#263238" stroke-width="0.85542" stroke-linecap="round" stroke-linejoin="round"/>
<path d="M152.886 250.38C150.447 255.513 145.61 262.505 137.823 261.899C129.578 261.199 124.944 255.392 122.802 251.714C125.766 250.582 128.77 249.424 131.235 248.454C131.235 245.948 131.155 242.944 130.885 239.966C130.885 239.319 130.75 238.619 130.683 238.013C130.616 237.406 130.535 236.975 130.454 236.477H146.122C146.122 236.477 146.028 237.097 145.907 238.134C145.813 239.063 145.691 240.303 145.597 241.704C145.476 243.563 145.395 245.746 145.449 247.807C146.203 248.063 146.971 248.346 147.739 248.642L149.221 249.154C149.814 249.37 150.393 249.558 151.013 249.761L152.36 250.165C152.54 250.225 152.715 250.297 152.886 250.38Z" fill="white" stroke="#263238" stroke-width="0.85542" stroke-linecap="round" stroke-linejoin="round"/>
<path d="M130.683 237.959C130.683 237.959 133.607 245.557 137.85 246.851C142.094 248.144 145.934 238.134 145.934 238.134C145.934 238.134 139.952 244.52 137.729 243.523C135.506 242.526 130.71 238.013 130.71 238.013" fill="#263238"/>
<path d="M128.164 195.992C124.205 199.557 121.065 203.937 118.962 208.832C117.036 212.873 115.406 217.521 116.888 221.752C117.775 223.852 119.029 225.777 120.593 227.437C123.503 230.926 127.585 240.667 130.495 244.156C130.683 237.945 125.483 227.908 126.035 222.695C126.704 218.667 128.029 214.775 129.956 211.176C131.916 206.455 134.479 202.008 137.581 197.946C139.346 195.817 145.018 192.031 139.292 191.573C135.493 191.264 131.034 193.635 128.164 195.992Z" fill="#263238" stroke="#263238" stroke-width="0.85542" stroke-linecap="round" stroke-linejoin="round"/>
<path d="M124.5 217.171C124.5 217.171 122.492 213.277 120.377 216.969C118.855 219.663 121.051 223.907 121.994 225.483C122.307 225.932 122.73 226.292 123.224 226.528C123.717 226.764 124.264 226.868 124.809 226.831L124.5 217.171Z" fill="white" stroke="#263238" stroke-width="0.85542" stroke-linecap="round" stroke-linejoin="round"/>
<path d="M150.879 231.236C149.591 233.78 147.914 236.108 145.908 238.134L144.695 239.387C142.189 241.866 139.481 243.833 137.703 243.429C136.154 243.119 134.133 241.529 132.152 239.495C131.654 238.996 131.169 238.457 130.684 237.918C128.527 235.559 126.676 232.939 125.174 230.118C124.756 229.06 124.489 227.949 124.379 226.817C124.039 223.442 123.922 220.049 124.028 216.659C124.028 215.46 124.028 214.503 124.028 213.964C124.028 211.62 132.812 203.47 132.812 203.47C133.049 203.383 133.303 203.355 133.553 203.389C135.064 203.664 136.52 204.182 137.865 204.925C143.186 207.511 150.609 212.644 151.148 214.598C151.97 217.44 151.66 228.703 150.879 231.236Z" fill="white" stroke="#263238" stroke-width="0.85542" stroke-linecap="round" stroke-linejoin="round"/>
<path d="M133.432 220.431C133.432 221.374 133.082 222.142 132.691 222.142C132.3 222.142 131.91 221.401 131.91 220.431C131.91 219.461 132.26 218.693 132.691 218.693C133.122 218.693 133.432 219.488 133.432 220.431Z" fill="#263238"/>
<path d="M143.469 218.707C143.9 218.707 144.25 219.475 144.25 220.431C144.25 221.388 143.9 222.142 143.469 222.142C143.038 222.142 142.688 221.374 142.688 220.431C142.688 219.488 143.038 218.707 143.469 218.707Z" fill="#263238"/>
<path d="M128.42 216.188C128.42 216.188 129.767 213.493 134.536 214.315" stroke="#263238" stroke-width="0.85542" stroke-linecap="round" stroke-linejoin="round"/>
<path d="M147.901 216.188C147.901 216.188 146.553 213.493 141.784 214.315" stroke="#263238" stroke-width="0.85542" stroke-linecap="round" stroke-linejoin="round"/>
<path d="M139.077 227.019C139.561 226.989 140.023 226.804 140.394 226.491C140.765 226.178 141.026 225.754 141.138 225.281C141.138 225.281 138.524 221.24 139.319 217.279" stroke="#263238" stroke-width="0.85542" stroke-linecap="round" stroke-linejoin="round"/>
<path d="M122.802 207.74C121.717 209.213 120.896 210.863 120.377 212.617" stroke="white" stroke-width="0.85542" stroke-linecap="round" stroke-linejoin="round"/>
<path d="M134.064 196.962C134.064 196.962 132.569 199.441 125.981 204.493C125.557 204.8 125.152 205.133 124.769 205.49" stroke="white" stroke-width="0.85542" stroke-linecap="round" stroke-linejoin="round"/>
<path d="M112.94 275.951C112.041 288.759 111.143 301.575 110.245 314.401V313.418" fill="#263238"/>
<path d="M112.94 275.951C112.041 288.759 111.143 301.575 110.245 314.401V313.418" stroke="#263238" stroke-width="0.85542" stroke-linecap="round" stroke-linejoin="round"/>
<path d="M198.045 233.661C199.263 233.185 200.579 233.015 201.877 233.165C203.176 233.316 204.418 233.782 205.495 234.523C207.644 236.045 209.208 238.255 209.928 240.788C210.787 243.31 210.7 246.058 209.685 248.521C209.16 249.735 208.315 250.784 207.24 251.555C206.165 252.326 204.901 252.791 203.582 252.9C201.617 252.875 199.718 252.186 198.193 250.946C193.155 247.174 190.635 236.854 198.045 233.661Z" fill="white" stroke="#263238" stroke-width="0.85542" stroke-linecap="round" stroke-linejoin="round"/>
<path d="M209.2 190.644C209.2 190.806 209.2 191.87 209.294 192.058C209.766 194.133 210.763 199.32 208.244 200.371C209.2 203.779 211.544 226.049 211.234 237.406C211.154 240.801 210.561 244.83 207.516 246.285C202.383 248.723 197.506 242.782 198.085 238.134C198.988 231.788 198.678 225.322 199.433 218.909C200.254 212.254 201.763 205.437 200.106 198.929C199.702 198.485 197.115 193.352 196.267 191.937C195.886 191.333 195.587 190.68 195.377 189.997C195.046 187.672 194.884 185.326 194.892 182.978C195.66 181.523 196.657 182.87 197.183 183.827C197.611 184.993 197.759 186.244 197.614 187.478C197.564 187.78 197.606 188.09 197.735 188.367C197.848 188.526 198.001 188.652 198.179 188.732C198.356 188.813 198.552 188.845 198.746 188.825C200.403 188.583 200.335 187.195 200.308 186.131C200.308 182.56 200.308 178.99 200.308 175.447C200.308 174.854 200.497 173.251 201.063 173.197C201.629 173.143 202.477 173.601 202.558 175.501C202.653 177.643 202.653 184.244 202.653 184.244C202.706 184.299 202.772 184.338 202.845 184.36C202.919 184.381 202.996 184.383 203.07 184.366C203.205 184.366 203.259 184.123 203.313 183.988C204.108 180.674 204.916 177.36 205.711 174.046C205.805 173.655 206.384 172.847 206.802 172.847C207.799 172.847 207.826 174.005 207.88 174.342C208.23 176.121 205.738 183.45 205.32 185.12C205.32 185.417 205.32 185.861 205.63 185.78L209.537 177.899C209.718 177.439 210.003 177.026 210.37 176.694C210.737 176.362 211.176 176.12 211.652 175.986C211.718 175.965 211.788 175.965 211.854 175.986C211.924 176.027 211.981 176.088 212.016 176.161C212.393 176.835 212.016 177.764 211.8 178.505C211.585 179.246 208.661 184.689 207.624 186.885C207.476 187.195 207.233 187.895 207.53 188.232C207.826 188.569 208.365 187.922 208.58 187.478C209.24 186.131 209.86 184.864 210.466 183.544C210.655 183.153 210.938 182.601 211.383 182.695C214.01 183.261 210.278 188.771 209.2 190.644Z" fill="white" stroke="#263238" stroke-width="0.85542" stroke-linecap="round" stroke-linejoin="round"/>
<path d="M201.952 189.485C203.308 190.56 204.486 191.842 205.441 193.284C205.913 194.01 206.228 194.825 206.367 195.678C206.506 196.532 206.466 197.405 206.25 198.242C206.184 198.461 206.099 198.673 205.994 198.875" fill="white"/>
<path d="M201.952 189.485C203.308 190.56 204.486 191.842 205.441 193.284C205.913 194.01 206.228 194.825 206.367 195.678C206.506 196.532 206.466 197.405 206.25 198.242C206.184 198.461 206.099 198.673 205.994 198.875" stroke="#263238" stroke-width="0.85542" stroke-linecap="round" stroke-linejoin="round"/>
<path d="M164.001 273.647C165.427 276.522 166.386 279.605 166.844 282.781C167.234 285.961 167.356 288.453 165.187 297.385" stroke="#263238" stroke-width="0.85542" stroke-linecap="round" stroke-linejoin="round"/>
<path d="M133.594 201.449C133.409 201.999 133.363 202.587 133.459 203.16C133.714 203.881 134.185 204.506 134.806 204.952C139.112 208.725 143.929 211.873 149.114 214.301C149.764 214.471 150.328 214.877 150.694 215.44C151.061 216.003 151.203 216.683 151.094 217.346V227.76C151.16 228.834 151.056 229.912 150.784 230.953C150.03 233.378 148.359 235.332 147.147 237.568C145.914 239.689 145.29 242.108 145.342 244.56C145.005 241.987 154.004 237.002 156.443 226.871C156.78 225.443 163.785 216.942 159.582 206.959C155.54 197.38 149.181 193.258 147.039 192.759C145.585 192.334 144.051 192.261 142.563 192.547C141.075 192.833 139.677 193.469 138.484 194.403C136.13 196.156 134.413 198.63 133.594 201.449Z" fill="#263238" stroke="#263238" stroke-width="0.85542" stroke-linecap="round" stroke-linejoin="round"/>
<path d="M142.418 230.643C141.65 230.805 140.869 230.953 140.088 231.047C137.393 231.384 134.51 230.967 132.745 229C132.88 230.765 134.092 237.433 137.716 237.622C141.34 237.811 142.418 230.643 142.418 230.643Z" stroke="#263238" stroke-width="0.85542" stroke-linecap="round" stroke-linejoin="round"/>
<path d="M138.915 197.38C140.469 200.908 142.945 203.951 146.082 206.191C148.359 207.821 150.959 208.993 153.048 210.852C155.742 213.318 157.507 217.225 156.47 220.768" stroke="white" stroke-width="0.85542" stroke-linecap="round" stroke-linejoin="round"/>
<path d="M167.073 251.808C164.477 253.891 162.768 256.881 162.29 260.175C161.825 263.021 162.176 265.94 163.3 268.595" stroke="#263238" stroke-width="0.85542" stroke-linecap="round" stroke-linejoin="round"/>
<path d="M116.887 274.038C116.672 277.567 114.476 280.626 112.347 283.468L116.887 274.038Z" fill="#263238"/>
<path d="M116.887 274.038C116.672 277.567 114.476 280.626 112.347 283.468" stroke="#263238" stroke-width="0.85542" stroke-linecap="round" stroke-linejoin="round"/>
<path d="M111.634 301.023C112.704 302.814 114.136 304.363 115.839 305.569C117.542 306.776 119.477 307.613 121.522 308.029" stroke="#263238" stroke-width="0.85542" stroke-linecap="round" stroke-linejoin="round"/>
<path d="M163.179 303.125C163.179 303.125 159.554 308.514 147.241 309.645" stroke="#263238" stroke-width="0.85542" stroke-linecap="round" stroke-linejoin="round"/>
<path d="M523.901 255.904C523.901 255.904 476.95 270.454 468.112 258.962L469.311 200.344H476.438L484.818 241.637L523.295 234.591C523.295 234.591 528.226 249.868 523.901 255.904Z" fill="white"/>
<mask id="mask0_226_1356" style="mask-type:luminance" maskUnits="userSpaceOnUse" x="468" y="200" width="58" height="64">
<path d="M523.901 255.904C523.901 255.904 476.95 270.454 468.112 258.962L469.311 200.344H476.438L484.818 241.637L523.295 234.591C523.295 234.591 528.226 249.868 523.901 255.904Z" fill="white"/>
</mask>
<g mask="url(#mask0_226_1356)">
<path d="M504.123 257.952C501.431 259.022 498.861 260.377 496.458 261.993C499.637 263.004 503.032 261.724 506.212 260.714C510.411 259.424 514.691 258.416 519.024 257.696C519.226 256.497 517.677 253.762 517.07 252.698C515.966 250.838 515.723 250.677 513.864 251.593C510.482 253.29 507.599 256.241 504.123 257.952Z" fill="#B291EC"/>
</g>
<path d="M523.901 255.904C523.901 255.904 476.95 270.454 468.112 258.962L469.311 200.344H476.438L484.818 241.637L523.295 234.591C523.295 234.591 528.226 249.868 523.901 255.904Z" stroke="#263238" stroke-width="0.85542" stroke-linecap="round" stroke-linejoin="round"/>
<path d="M519.294 257.44L527.539 308.204C527.323 341.103 543.018 336.159 553.918 336.065C566.514 335.957 585.632 323.468 576.255 304.027L579.865 233.661L557.919 231.991C550.684 231.425 521.045 232.354 518.687 236.14C512.571 245.961 519.294 257.44 519.294 257.44Z" fill="white"/>
<mask id="mask1_226_1356" style="mask-type:luminance" maskUnits="userSpaceOnUse" x="516" y="231" width="64" height="106">
<path d="M519.294 257.44L527.539 308.204C527.323 341.103 543.018 336.159 553.918 336.065C566.514 335.957 585.632 323.468 576.255 304.027L579.865 233.661L557.919 231.991C550.684 231.425 521.045 232.354 518.687 236.14C512.571 245.961 519.294 257.44 519.294 257.44Z" fill="white"/>
</mask>
<g mask="url(#mask1_226_1356)">
<path d="M520.588 261.63C525.484 280.154 537.228 296.13 553.447 306.331C551.691 306.053 549.976 305.56 548.341 304.863C546.696 304.154 544.852 304.054 543.14 304.58C542.727 304.729 542.347 304.958 542.022 305.254C541.697 305.55 541.434 305.907 541.248 306.305C541.061 306.703 540.955 307.134 540.935 307.573C540.916 308.012 540.983 308.451 541.133 308.864C541.526 309.495 542.061 310.026 542.696 310.413C545.371 312.293 548.296 313.79 551.385 314.859C548.676 314.581 545.938 314.791 543.302 315.479C542.817 317.823 545.431 319.521 547.492 320.666C550.781 322.605 553.597 325.251 555.737 328.412C548.503 328.428 541.275 328.842 534.087 329.652C533.139 329.864 532.148 329.77 531.258 329.382C530.325 328.688 529.697 327.66 529.506 326.513C527.904 320.908 526.973 315.133 526.731 309.308C526.596 306.035 526.731 302.734 526.3 299.487C525.953 296.927 525.476 294.387 524.872 291.875C522.779 282.157 521.176 272.363 520.062 262.492C519.564 262.532 520.588 261.63 520.588 261.63Z" fill="#B291EC"/>
<path d="M576.242 257.588C574.424 257.005 572.73 256.091 571.244 254.894C571.661 256.914 574.679 260.404 576.444 261.482C576.808 261.711 577.333 261.899 577.657 261.589C577.98 261.279 578.195 260.485 578.519 260.242L576.242 257.588Z" fill="#B291EC"/>
</g>
<path d="M519.294 257.44L527.539 308.204C527.323 341.103 543.018 336.159 553.918 336.065C566.514 335.957 585.632 323.468 576.255 304.027L579.865 233.661L557.919 231.991C550.684 231.425 521.045 232.354 518.687 236.14C512.571 245.961 519.294 257.44 519.294 257.44Z" stroke="#263238" stroke-width="0.85542" stroke-linecap="round" stroke-linejoin="round"/>
<path d="M535.339 230.953C532.978 235.277 531.841 240.163 532.052 245.086C532.049 245.515 532.132 245.941 532.295 246.339C532.901 247.538 534.558 247.538 535.892 247.686C541.079 248.346 544.299 253.816 549.189 255.648C549.36 255.754 549.551 255.824 549.751 255.854C549.95 255.884 550.153 255.874 550.348 255.823C550.543 255.773 550.726 255.684 550.885 255.561C551.045 255.438 551.178 255.285 551.277 255.109C553.406 252.415 554.16 248.629 557.07 246.891C558.337 246.137 559.94 245.827 560.816 244.641C561.813 243.294 561.368 241.354 560.883 239.71C560.088 237.016 559.199 234.213 557.138 232.341C554.942 230.627 552.244 229.68 549.458 229.646C545.382 229.313 541.278 229.696 537.333 230.778C537.387 231.29 535.339 230.953 535.339 230.953Z" fill="#B291EC" stroke="#263238" stroke-width="0.85542" stroke-linecap="round" stroke-linejoin="round"/>
<path d="M600.546 265.402C597.253 260.608 594.827 255.272 593.379 249.639C592.851 246.817 592.029 244.058 590.927 241.408C589.887 239.36 588.385 237.583 586.541 236.215C584.696 234.847 582.558 233.927 580.297 233.526C579.332 233.314 578.328 233.361 577.387 233.661C575.434 234.402 574.571 236.652 574.181 238.7C573.335 243.098 573.585 247.637 574.908 251.916C575.811 254.826 586.656 275.924 593.77 284.102C593.15 279.979 597.892 266.197 600.546 265.402Z" fill="white"/>
<mask id="mask2_226_1356" style="mask-type:luminance" maskUnits="userSpaceOnUse" x="573" y="233" width="28" height="52">
<path d="M600.546 265.402C597.253 260.608 594.827 255.272 593.378 249.639C592.851 246.817 592.029 244.058 590.926 241.408C589.886 239.36 588.385 237.583 586.54 236.215C584.695 234.847 582.558 233.927 580.297 233.526C579.332 233.314 578.328 233.361 577.387 233.661C575.433 234.402 574.571 236.652 574.18 238.7C573.335 243.098 573.585 247.637 574.908 251.916C575.81 254.826 586.656 275.924 593.769 284.102C593.149 279.979 597.892 266.197 600.546 265.402Z" fill="white"/>
</mask>
<g mask="url(#mask2_226_1356)">
<path d="M579.272 261.266L585.928 273.809C586.884 275.601 587.962 277.514 589.821 278.295C588.651 274.151 587.986 269.881 587.841 265.577C587.914 263.415 587.664 261.253 587.1 259.164C586.83 259.393 586.547 258.423 586.547 258.423C586.251 258.976 585.469 258.989 584.863 258.868C580.512 257.952 577.521 254.072 574.934 250.461C574.597 251.671 574.544 252.942 574.778 254.175C575.011 255.409 575.526 256.572 576.281 257.575C576.281 257.575 579.057 260.848 579.272 261.266Z" fill="#B291EC"/>
</g>
<path d="M600.546 265.402C597.253 260.608 594.827 255.272 593.379 249.639C592.851 246.817 592.029 244.058 590.927 241.408C589.887 239.36 588.385 237.583 586.541 236.215C584.696 234.847 582.558 233.927 580.297 233.526C579.332 233.314 578.328 233.361 577.387 233.661C575.434 234.402 574.571 236.652 574.181 238.7C573.335 243.098 573.585 247.637 574.908 251.916C575.811 254.826 586.656 275.924 593.77 284.102C593.15 279.979 597.892 266.197 600.546 265.402Z" stroke="#263238" stroke-width="0.85542" stroke-linecap="round" stroke-linejoin="round"/>
<path d="M591.196 280.491C583.948 266.601 587.45 234.591 587.235 229.444L596.8 228.932C597.757 228.932 602.189 256.227 605.207 267.558C607.901 277.877 605.315 288.318 600.546 288.318C596.585 288.318 592.718 283.414 591.196 280.491Z" fill="white" stroke="#263238" stroke-width="0.85542" stroke-linecap="round" stroke-linejoin="round"/>
<path d="M504.824 244.426C511.56 234.591 524.777 233.809 524.777 233.809" stroke="#263238" stroke-width="0.85542" stroke-linecap="round" stroke-linejoin="round"/>
<path d="M478.836 249.936C480.874 248.064 482.471 245.763 483.511 243.2L478.836 249.936Z" fill="white"/>
<path d="M478.836 249.936C480.874 248.064 482.471 245.763 483.511 243.2" stroke="#263238" stroke-width="0.85542" stroke-linecap="round" stroke-linejoin="round"/>
<path d="M528.886 296.415C532.725 302.707 557.595 309.43 567.511 307.988" stroke="#263238" stroke-width="0.85542" stroke-linecap="round" stroke-linejoin="round"/>
<path d="M535.918 314.172C543.082 315.404 550.425 315.124 557.474 313.35" stroke="#263238" stroke-width="0.85542" stroke-linecap="round" stroke-linejoin="round"/>
<path d="M568.912 253.129L573.654 259.555C574.301 260.431 575.204 261.414 576.268 261.172" stroke="#263238" stroke-width="0.85542" stroke-linecap="round" stroke-linejoin="round"/>
<path d="M604.156 496.898C603.738 498.609 603.604 500.643 604.83 501.923C606.056 503.203 607.834 503.176 609.491 503.149L615.19 503.041C617.388 503.151 619.584 502.807 621.643 502.031C622.673 501.63 623.555 500.923 624.169 500.005C624.784 499.087 625.101 498.002 625.079 496.898C624.938 496.043 624.666 495.216 624.27 494.446C623.758 493.341 623.247 492.223 622.748 491.118C616.456 477.255 606.851 485.689 604.156 496.898Z" fill="white" stroke="#263238" stroke-width="0.85542" stroke-linecap="round" stroke-linejoin="round"/>
<path d="M596.126 480.556C596.326 486.919 595.792 493.284 594.537 499.525C594.24 500.939 594.537 503.081 595.884 502.947C596.412 502.865 596.892 502.592 597.231 502.179C602.183 497.295 605.725 491.165 607.483 484.436C607.748 483.737 607.871 482.992 607.846 482.245C607.82 481.498 607.647 480.763 607.335 480.084C606.966 479.539 606.511 479.056 605.988 478.656C601.421 475.005 595.709 471.381 596.126 480.556Z" fill="white" stroke="#263238" stroke-width="0.85542" stroke-linecap="round" stroke-linejoin="round"/>
<path d="M580.485 317.715C580.485 317.715 587.585 330.056 589.107 332.926C590.629 335.795 622.788 378.058 628.958 408.829C630.117 414.676 606.392 480.071 606.392 480.071L601.003 477.026C601.003 477.026 604.748 417.384 603.832 412.426C602.916 407.468 579.245 370.877 579.245 370.877C579.245 370.877 566.029 361.164 560.586 349.874L580.485 317.715Z" fill="#263238"/>
<path d="M581.253 348.634C581.253 348.634 577.212 357.634 577.212 358.927C577.212 360.221 599.441 430.465 605.975 446.713C610.107 457.177 613.749 467.883 616.901 478.831C616.901 478.831 619.434 482.159 617.521 485.567C615.608 488.976 607.996 491.212 606.433 488.168C604.87 485.123 589.471 469.306 582.978 453.571C576.484 437.835 567.35 411.537 562.149 401.742C555.338 389.227 549.291 376.31 544.043 363.063C537.508 346.344 530.826 328.318 530.826 328.318C533.54 328.563 536.267 328.639 538.99 328.547C545.404 328.328 551.754 327.203 557.852 325.206C572.052 320.437 578.195 311.302 578.195 311.302C578.195 311.302 581.711 320.827 582.627 322.673L581.253 348.634Z" fill="#263238"/>
<path d="M626.589 414.851C625.197 417.235 623.325 419.304 621.092 420.927" stroke="white" stroke-width="0.85542" stroke-linecap="round" stroke-linejoin="round"/>
<path d="M628.326 410.93C628.124 411.587 627.881 412.23 627.599 412.857" stroke="white" stroke-width="0.85542" stroke-linecap="round" stroke-linejoin="round"/>
<path d="M568.414 327.644C571.998 333.815 575.352 342.693 574.813 349.806C574.525 351.098 574.072 352.348 573.466 353.525" stroke="white" stroke-width="0.85542" stroke-linecap="round" stroke-linejoin="round"/>
<path d="M546.724 334.502C547.114 337.937 547.64 343.649 546.885 347.018C546.248 350.462 544.271 353.514 541.389 355.505" stroke="white" stroke-width="0.85542" stroke-linecap="round" stroke-linejoin="round"/>
<path d="M577.279 321.501C578.062 322.476 578.697 323.561 579.165 324.721C580.078 326.387 581.332 327.841 582.846 328.988C584.36 330.135 586.099 330.949 587.949 331.376" stroke="white" stroke-width="0.85542" stroke-linecap="round" stroke-linejoin="round"/>
<path d="M565.841 335.27C570.597 345.67 574.235 356.098 581.617 373.774" stroke="white" stroke-width="0.85542" stroke-linecap="round" stroke-linejoin="round"/>
<path d="M563.309 329.948C563.713 330.756 564.103 331.565 564.494 332.373" stroke="white" stroke-width="0.85542" stroke-linecap="round" stroke-linejoin="round"/>
<path d="M602.891 409.516C605.071 413.717 607.843 417.582 611.122 420.994" stroke="white" stroke-width="0.85542" stroke-linecap="round" stroke-linejoin="round"/>
<path d="M605.139 413.396C606.566 419.988 609.172 426.268 612.831 431.934" stroke="white" stroke-width="0.85542" stroke-linecap="round" stroke-linejoin="round"/>
<path d="M571.647 413.733C561.152 391.342 549.957 369.126 536.202 335.27" stroke="white" stroke-width="0.85542" stroke-linecap="round" stroke-linejoin="round"/>
<path d="M574.018 420.24C573.762 419.458 573.493 418.677 573.21 417.882" stroke="white" stroke-width="0.85542" stroke-linecap="round" stroke-linejoin="round"/>
<path d="M610.3 489.084C607.605 485.567 587.962 458.097 583.085 445.649C579.839 437.35 577.387 431.489 575.002 423.217" stroke="white" stroke-width="0.85542" stroke-linecap="round" stroke-linejoin="round"/>
<path d="M602.891 436.218L612.227 463.661" stroke="white" stroke-width="0.85542" stroke-linecap="round" stroke-linejoin="round"/>
<path d="M596.599 228.946L593.77 229.175C590.185 229.812 586.503 229.642 582.992 228.676C580.742 228.124 575.528 226.507 574.908 226.399C573.359 226.068 571.795 225.816 570.22 225.645C565.464 225.362 567.876 223.584 569.856 223.665C572.47 223.786 573.345 223.732 575.353 223.88C575.11 223.745 574.369 223.597 574.356 223.018C574.356 221.603 576.215 221.671 576.215 221.671C576.215 221.671 574.181 220.808 574.464 219.744C574.747 218.68 576.107 218.397 576.97 218.478C576.97 218.478 575.824 217.925 575.878 217.333C576.121 215.042 580.823 214.881 580.823 214.881C579.685 214.372 578.621 213.716 577.657 212.927C577.305 212.548 577.058 212.084 576.943 211.58C576.917 211.34 576.957 211.097 577.058 210.878C577.158 210.658 577.316 210.47 577.514 210.332C577.712 210.195 577.944 210.113 578.185 210.095C578.425 210.078 578.666 210.125 578.883 210.233C580.099 211.043 581.273 211.915 582.399 212.846C583.854 213.884 585.538 214.544 587.074 215.473C588.571 216.754 589.778 218.339 590.617 220.121C590.86 220.499 596.599 228.946 596.599 228.946Z" fill="white" stroke="#263238" stroke-width="0.85542" stroke-linecap="round" stroke-linejoin="round"/>
<path d="M469.311 200.344V192.921C469.294 189.196 469.839 185.489 470.928 181.927C471.547 179.96 472.275 178.249 472.935 177.993C474.161 177.549 474.7 182.52 474.7 182.52C473.778 178.534 473.188 174.478 472.935 170.395C472.935 166.07 478.755 184.029 478.755 184.029L476.438 200.344H469.311Z" fill="white" stroke="#263238" stroke-width="0.85542" stroke-linecap="round" stroke-linejoin="round"/>
<path d="M476.344 188.273C477.048 187.729 477.574 186.988 477.853 186.144L476.344 188.273Z" fill="white"/>
<path d="M476.344 188.273C477.048 187.729 477.574 186.988 477.853 186.144" stroke="#263238" stroke-width="0.85542" stroke-linecap="round" stroke-linejoin="round"/>
<path d="M532.766 215.824C535.282 220.06 536.673 224.869 536.807 229.794C537.05 237.986 546.534 249.451 549.242 250.003C551.95 250.555 554.456 237.07 554.335 232.987C554.214 228.905 552.705 217.629 552.705 217.629C552.705 217.629 539.731 207.821 532.766 215.824Z" fill="white" stroke="#263238" stroke-width="0.85542" stroke-linecap="round" stroke-linejoin="round"/>
<path d="M536.579 226.669C536.579 226.669 549.014 243.631 553.891 226.386C558.768 209.141 540.217 231.101 536.579 226.669Z" fill="#263238"/>
<path d="M557.569 214.476C556.909 224.54 552.315 230.199 547.02 231.196C542.183 232.085 535.11 227.154 531.581 219.838C531.311 219.663 527.014 216.686 525.99 215.958C525.455 215.584 525.019 215.086 524.718 214.507C524.418 213.927 524.263 213.283 524.265 212.631C524.299 212.004 524.52 211.403 524.9 210.903C525.279 210.404 525.8 210.029 526.394 209.828H526.515C527.122 209.696 527.753 209.743 528.334 209.963C527.445 206.528 526.717 203.038 526.165 199.522C526.421 191.439 529.102 184.837 537.724 184.191C546.346 183.544 553.554 188.367 553.891 191.843C554.133 194.537 555.009 201.664 555.79 209.034C556.006 210.947 557.717 212.213 557.569 214.476Z" fill="white" stroke="#263238" stroke-width="0.85542" stroke-linecap="round" stroke-linejoin="round"/>
<path d="M553.891 202.836C553.891 202.836 548.34 200.29 549.283 208.562C549.472 210.192 552.503 212.604 552.503 212.604C552.503 212.604 551.722 215.042 550.28 215.042" fill="white"/>
<path d="M553.891 202.836C553.891 202.836 548.34 200.29 549.283 208.562C549.472 210.192 552.503 212.604 552.503 212.604C552.503 212.604 551.722 215.042 550.28 215.042" stroke="#263238" stroke-width="0.85542" stroke-linecap="round" stroke-linejoin="round"/>
<path d="M543.167 205.665C543.167 205.665 540.337 203.941 538.397 205.005C537.386 205.445 536.524 206.171 535.918 207.094" fill="white"/>
<path d="M543.167 205.665C543.167 205.665 540.337 203.941 538.397 205.005C537.386 205.445 536.524 206.171 535.918 207.094" stroke="#263238" stroke-width="0.85542" stroke-linecap="round" stroke-linejoin="round"/>
<path d="M541.55 210.435C541.766 211.432 541.55 212.321 540.971 212.442C540.392 212.563 539.826 211.836 539.624 210.839C539.422 209.842 539.624 208.953 540.217 208.832C540.809 208.71 541.348 209.424 541.55 210.435Z" fill="#263238"/>
<path d="M552.489 207.525C552.705 208.522 552.489 209.411 551.91 209.532C551.33 209.653 550.765 208.926 550.563 207.942C550.36 206.959 550.563 206.043 551.142 205.935C551.721 205.827 552.287 206.541 552.489 207.525Z" fill="#263238"/>
<path d="M525.518 189.081C524.532 190.046 523.849 191.277 523.551 192.624C522.744 195.473 522.511 198.453 522.864 201.393C523.218 204.332 524.152 207.172 525.612 209.748C526.51 209.637 527.42 209.674 528.307 209.855C529.25 210.098 530.462 211.715 530.907 212.55C531.297 213.44 531.52 214.395 531.567 215.366C531.351 212.806 531.149 210.26 530.934 207.7C530.789 206.676 530.835 205.635 531.068 204.628C531.729 202.526 531.001 197.569 531.19 193.136C536.781 199.967 544.905 198.754 547.599 198.525C551.641 198.188 555.09 194.052 554.874 191.102C554.659 188.151 553.864 180.553 540.539 179.772C537.604 179.459 534.645 180.077 532.079 181.537C531.265 182.072 530.575 182.774 530.052 183.596C529.53 184.418 529.187 185.342 529.048 186.306C528.859 187.545 529.33 187.653 528.387 188.259C527.444 188.865 526.447 188.286 525.518 189.081Z" fill="#263238" stroke="#263238" stroke-width="0.85542" stroke-linecap="round" stroke-linejoin="round"/>
<path d="M543.167 219.785C543.167 219.785 545.147 221.967 549.283 220.526L543.167 219.785Z" fill="white"/>
<path d="M543.167 219.785C543.167 219.785 545.147 221.967 549.283 220.526" stroke="#263238" stroke-width="0.85542" stroke-linecap="round" stroke-linejoin="round"/>
</svg>
