<svg width="51" height="49" viewBox="0 0 51 49" fill="none" xmlns="http://www.w3.org/2000/svg">
<path d="M9.44019 38.312C9.44019 39.0593 10.046 39.665 10.7933 39.665C11.5405 39.665 12.1463 39.0593 12.1463 38.312H9.44019ZM9.73392 13.8032V12.4502H9.51377L9.30497 12.52L9.73392 13.8032ZM3.35775 39.3794V38.0263H2.21683L2.02413 39.1509L3.35775 39.3794ZM50.2714 39.3776V38.0245H47.5653V39.3776H50.2714ZM19.1631 38.0245H17.81V40.7306H19.1631V38.0245ZM42.8331 28.7216C42.8331 27.9743 42.2273 27.3685 41.4801 27.3685C40.7328 27.3685 40.127 27.9743 40.127 28.7216H42.8331ZM47.0836 28.7216C47.0836 27.9743 46.4778 27.3685 45.7305 27.3685C44.9832 27.3685 44.3774 27.9743 44.3774 28.7216H47.0836ZM30.9829 16.7126H11.0014V19.4187H30.9829V16.7126ZM9.44019 18.2738V38.312H12.1463V18.2738H9.44019ZM31.6119 12.4502H9.73392V15.1563H31.6119V12.4502ZM9.30497 12.52C8.65472 12.7373 7.7037 13.1803 6.88632 13.8469C6.09092 14.4957 5.19302 15.5519 5.19302 17H7.89914C7.89914 16.7432 8.06386 16.3786 8.59672 15.944C9.10761 15.5273 9.75051 15.2243 10.1629 15.0865L9.30497 12.52ZM5.19302 17V38.312H7.89914V17H5.19302ZM19.1646 38.0263H3.35775V40.7325H19.1646V38.0263ZM3.35775 39.3794C2.02413 39.1509 2.02407 39.1512 2.02401 39.1515C2.02399 39.1517 2.02392 39.1521 2.02387 39.1524C2.02376 39.153 2.02364 39.1537 2.0235 39.1546C2.02321 39.1562 2.02285 39.1584 2.02242 39.161C2.02155 39.1661 2.02039 39.1731 2.01896 39.1818C2.01611 39.1992 2.01218 39.2235 2.00737 39.2544C1.99774 39.316 1.98454 39.4037 1.96926 39.5138C1.93874 39.7337 1.8997 40.0444 1.86425 40.4162C1.79397 41.1531 1.73487 42.1592 1.79293 43.1846C1.84932 44.1805 2.02248 45.3378 2.50993 46.2888C3.03548 47.314 3.99529 48.1898 5.48018 48.1898V45.4837C5.26489 45.4837 5.1093 45.4273 4.91811 45.0543C4.68882 44.607 4.5439 43.9 4.49472 43.0316C4.44722 42.1926 4.49508 41.3344 4.55815 40.6731C4.58937 40.3457 4.62361 40.0738 4.64969 39.8859C4.66271 39.792 4.67365 39.7195 4.68108 39.6719C4.6848 39.6481 4.68763 39.6306 4.68941 39.6198C4.69029 39.6144 4.69092 39.6106 4.69125 39.6087C4.69142 39.6077 4.69151 39.6071 4.69153 39.607C4.69154 39.6069 4.69154 39.607 4.69151 39.6071C4.69149 39.6072 4.69146 39.6074 4.69145 39.6074C4.69141 39.6077 4.69137 39.6079 3.35775 39.3794ZM45.7305 48.1898C46.7357 48.1898 47.4628 47.4831 47.8765 46.974C48.3499 46.3913 48.7631 45.6339 49.1019 44.833C49.7788 43.2328 50.2714 41.1886 50.2714 39.3776H47.5653C47.5653 40.7631 47.1724 42.4485 46.6096 43.7787C46.3285 44.4431 46.0333 44.9512 45.7762 45.2676C45.4593 45.6576 45.4337 45.4837 45.7305 45.4837V48.1898ZM47.986 38.0245H34.172V40.7306H47.986V38.0245ZM34.172 38.0245C33.7723 38.0245 33.3943 38.1471 33.077 38.3825C32.7854 38.5989 32.6083 38.8636 32.5013 39.0579C32.3944 39.252 32.319 39.4485 32.2684 39.5868C32.1995 39.775 32.1861 39.8236 32.1333 39.9625C32.047 40.1896 32.0069 40.2204 32.0238 40.2039C32.0916 40.1383 32.1517 40.1557 32.0468 40.1557V42.8618C32.7919 42.8618 33.4264 42.6129 33.9067 42.1476C34.3362 41.7316 34.5467 41.2296 34.6629 40.9239C34.7113 40.7963 34.7871 40.5786 34.8096 40.517C34.8285 40.4655 34.8429 40.4286 34.8548 40.4005C34.8668 40.3723 34.8725 40.362 34.8718 40.3633C34.8711 40.3644 34.8589 40.3867 34.8323 40.42C34.8049 40.4541 34.7587 40.5045 34.6896 40.5558C34.5294 40.6746 34.3391 40.7306 34.172 40.7306V38.0245ZM32.0468 40.1557H22.4832V42.8618H32.0468V40.1557ZM22.4832 40.1557C22.1437 40.1557 22.1087 40.0812 22.1541 40.1173C22.1611 40.1229 22.1499 40.1169 22.1191 40.0716C22.0822 40.0177 22.043 39.9478 21.9703 39.8103C21.8569 39.5961 21.6071 39.079 21.1391 38.6805C20.6073 38.2275 19.94 38.0245 19.1631 38.0245V40.7306C19.4498 40.7306 19.4472 40.794 19.3846 40.7407C19.3734 40.7312 19.3844 40.7365 19.4187 40.7893C19.4599 40.8526 19.499 40.9261 19.5784 41.076C19.7079 41.3208 19.9672 41.8352 20.4683 42.2342C21.0154 42.6699 21.694 42.8618 22.4832 42.8618V40.1557ZM42.8331 39.3776V28.7216H40.127V39.3776H42.8331ZM47.0836 39.3776V28.7216H44.3774V39.3776H47.0836ZM30.5635 26.5904C30.5635 27.9226 31.6414 29.0091 32.9791 29.0091V26.3029C33.1431 26.3029 33.2696 26.4352 33.2696 26.5904H30.5635ZM47.5653 26.5904C47.5653 26.4352 47.6918 26.3029 47.8557 26.3029V29.0091C49.1935 29.0091 50.2714 27.9226 50.2714 26.5904H47.5653ZM47.8557 3.43473C47.6918 3.43473 47.5653 3.30245 47.5653 3.14726H50.2714C50.2714 1.81505 49.1935 0.728604 47.8557 0.728604V3.43473ZM33.2696 3.14726C33.2696 3.30245 33.1431 3.43473 32.9791 3.43473V0.728604C31.6414 0.728604 30.5635 1.81505 30.5635 3.14726H33.2696ZM40.5465 22.6155C40.566 22.6155 40.5035 22.6136 40.4387 22.5483C40.3898 22.499 40.3689 22.4422 40.3665 22.3867C40.3639 22.3272 40.3832 22.2192 40.4768 22.122C40.582 22.0128 40.6589 22.0406 40.5465 22.0406V24.7467C41.2616 24.7467 41.9359 24.5081 42.426 23.9992C42.9044 23.5024 43.0958 22.8617 43.0701 22.2693C43.0183 21.0778 42.0692 19.9094 40.5465 19.9094V22.6155ZM40.5465 22.0406C40.4341 22.0406 40.5109 22.0128 40.6161 22.122C40.7097 22.2192 40.729 22.3272 40.7264 22.3867C40.724 22.4422 40.7031 22.499 40.6542 22.5483C40.5895 22.6136 40.5269 22.6155 40.5465 22.6155V19.9094C39.0237 19.9094 38.0746 21.0778 38.0228 22.2693C37.9971 22.8617 38.1885 23.5024 38.6669 23.9992C39.157 24.5081 39.8313 24.7467 40.5465 24.7467V22.0406ZM33.2696 26.5904V3.14726H30.5635V26.5904H33.2696ZM32.9791 3.43473H47.8557V0.728604H32.9791V3.43473ZM47.5653 3.14726V26.5904H50.2714V3.14726H47.5653ZM47.8557 26.3029H32.9791V29.0091H47.8557V26.3029ZM5.48018 48.1898H24.6074V45.4837H5.48018V48.1898ZM24.6074 48.1898H45.7305V45.4837H24.6074V48.1898ZM11.0014 16.7126C10.1392 16.7126 9.44019 17.4115 9.44019 18.2738H12.1463C12.1463 18.9061 11.6337 19.4187 11.0014 19.4187V16.7126Z" fill="#7F4BC1"/>
</svg>
