<svg width="599" height="524" viewBox="0 0 599 524" fill="none" xmlns="http://www.w3.org/2000/svg">
<path d="M599 469.225H0V469.525H599V469.225Z" fill="#EBEBEB"/>
<path d="M102.524 488.501H62.8467V488.8H102.524V488.501Z" fill="#EBEBEB"/>
<path d="M215.436 491.76H205.025V492.059H215.436V491.76Z" fill="#EBEBEB"/>
<path d="M134.176 477.384H103.723V477.683H134.176V477.384Z" fill="#EBEBEB"/>
<path d="M538.98 479.396H505.556V479.696H538.98V479.396Z" fill="#EBEBEB"/>
<path d="M494.893 479.396H468.98V479.696H494.893V479.396Z" fill="#EBEBEB"/>
<path d="M393.735 484.452H332.098V484.751H393.735V484.452Z" fill="#EBEBEB"/>
<path d="M283.926 415.794H52.604C50.7918 415.791 49.055 415.069 47.7747 413.787C46.4944 412.504 45.7754 410.766 45.7754 408.954V83.7807C45.7912 81.9789 46.5172 80.2561 47.7957 78.9865C49.0743 77.717 50.8022 77.0031 52.604 77H283.926C285.74 77 287.48 77.7207 288.763 79.0036C290.046 80.2864 290.766 82.0263 290.766 83.8406V408.954C290.766 410.768 290.046 412.508 288.763 413.791C287.48 415.074 285.74 415.794 283.926 415.794ZM52.604 77.2396C50.8713 77.2428 49.2106 77.9333 47.9865 79.1597C46.7624 80.386 46.0749 82.048 46.0749 83.7807V408.954C46.0749 410.687 46.7624 412.349 47.9865 413.575C49.2106 414.801 50.8713 415.492 52.604 415.495H283.926C285.66 415.492 287.322 414.802 288.548 413.576C289.774 412.35 290.464 410.688 290.467 408.954V83.7807C290.464 82.0469 289.774 80.3849 288.548 79.1589C287.322 77.9329 285.66 77.2428 283.926 77.2396H52.604Z" fill="#EBEBEB"/>
<path d="M543.066 415.794H311.732C309.919 415.791 308.181 415.07 306.899 413.787C305.617 412.505 304.895 410.767 304.892 408.954V83.7807C304.911 81.9778 305.639 80.2551 306.92 78.9858C308.2 77.7165 309.929 77.0031 311.732 77H543.066C544.866 77.0062 546.59 77.7215 547.866 78.9908C549.142 80.26 549.867 81.981 549.883 83.7807V408.954C549.883 410.764 549.165 412.5 547.888 413.782C546.61 415.065 544.876 415.788 543.066 415.794ZM311.732 77.2396C309.998 77.2428 308.336 77.9329 307.11 79.1589C305.884 80.3849 305.194 82.0469 305.191 83.7807V408.954C305.194 410.688 305.884 412.35 307.11 413.576C308.336 414.802 309.998 415.492 311.732 415.495H543.066C544.8 415.492 546.462 414.802 547.688 413.576C548.914 412.35 549.604 410.688 549.607 408.954V83.7807C549.604 82.0469 548.914 80.3849 547.688 79.1589C546.462 77.9329 544.8 77.2428 543.066 77.2396H311.732Z" fill="#EBEBEB"/>
<path d="M368.349 97.7614H81.0926C73.4308 97.7614 67.2197 103.972 67.2197 111.634V261.624C67.2197 269.286 73.4308 275.497 81.0926 275.497H368.349C376.011 275.497 382.222 269.286 382.222 261.624V111.634C382.222 103.972 376.011 97.7614 368.349 97.7614Z" fill="#F5EEFF"/>
<path d="M378.747 261.636V111.634C378.747 105.891 374.091 101.236 368.348 101.236L81.08 101.236C75.337 101.236 70.6814 105.891 70.6814 111.634V261.636C70.6814 267.379 75.337 272.034 81.08 272.034H368.348C374.091 272.034 378.747 267.379 378.747 261.636Z" fill="#FEF9FF"/>
<path d="M92.7731 117.9C95.1153 117.9 97.0141 116.001 97.0141 113.659C97.0141 111.317 95.1153 109.418 92.7731 109.418C90.431 109.418 88.5322 111.317 88.5322 113.659C88.5322 116.001 90.431 117.9 92.7731 117.9Z" fill="#EBEBEB"/>
<path d="M109.162 117.9C111.504 117.9 113.403 116.001 113.403 113.659C113.403 111.317 111.504 109.418 109.162 109.418C106.82 109.418 104.921 111.317 104.921 113.659C104.921 116.001 106.82 117.9 109.162 117.9Z" fill="#EBEBEB"/>
<path d="M125.538 117.9C127.88 117.9 129.779 116.001 129.779 113.659C129.779 111.317 127.88 109.418 125.538 109.418C123.196 109.418 121.297 111.317 121.297 113.659C121.297 116.001 123.196 117.9 125.538 117.9Z" fill="#EBEBEB"/>
<path d="M506.682 124.01H341.538C331.011 124.01 322.478 132.543 322.478 143.07V244.612C322.478 255.139 331.011 263.672 341.538 263.672H506.682C517.209 263.672 525.742 255.139 525.742 244.612V143.07C525.742 132.543 517.209 124.01 506.682 124.01Z" fill="white"/>
<path d="M506.683 264.463H341.527C336.265 264.454 331.221 262.359 327.5 258.638C323.78 254.918 321.685 249.874 321.676 244.612V143.058C321.685 137.796 323.78 132.752 327.5 129.032C331.221 125.311 336.265 123.216 341.527 123.207H506.683C511.945 123.216 516.988 125.311 520.709 129.032C524.43 132.752 526.524 137.796 526.534 143.058V244.612C526.524 249.874 524.43 254.918 520.709 258.638C516.988 262.359 511.945 264.454 506.683 264.463ZM341.527 124.8C336.686 124.807 332.046 126.732 328.624 130.155C325.201 133.577 323.275 138.217 323.269 143.058V244.612C323.275 249.452 325.201 254.093 328.624 257.515C332.046 260.938 336.686 262.863 341.527 262.87H506.683C511.523 262.863 516.163 260.938 519.586 257.515C523.008 254.093 524.934 249.452 524.94 244.612V143.058C524.934 138.217 523.008 133.577 519.586 130.155C516.163 126.732 511.523 124.807 506.683 124.8H341.527Z" fill="#B9A5E6"/>
<path d="M402.168 246.253C392.974 242.403 384.952 236.207 378.903 228.283L385.349 223.372C390.532 230.172 397.413 235.488 405.302 238.786C413.19 242.085 421.808 243.249 430.289 242.163C438.77 241.076 446.816 237.777 453.618 232.596C460.42 227.416 465.739 220.537 469.041 212.65L476.516 215.776C470.642 229.63 459.536 240.604 445.613 246.311C431.69 252.019 416.076 251.998 402.168 246.253Z" fill="#B9A5E6"/>
<path d="M476.517 215.752L469.041 212.626C471.514 206.723 472.799 200.391 472.823 193.992C472.847 187.593 471.609 181.252 469.18 175.331C466.751 169.411 463.179 164.027 458.668 159.488C454.156 154.95 448.794 151.345 442.889 148.88L446.027 141.38C459.927 147.197 470.947 158.295 476.664 172.235C482.382 186.175 482.329 201.816 476.517 215.716V215.752Z" fill="#EBEBEB"/>
<path d="M378.903 228.259C371.327 218.313 367.244 206.146 367.286 193.643C367.329 181.14 371.495 169.001 379.139 159.106C386.782 149.212 397.476 142.116 409.563 138.917C421.65 135.719 434.454 136.597 445.991 141.416L442.888 148.88C433.003 144.789 422.046 144.064 411.708 146.817C401.37 149.57 392.226 155.649 385.685 164.115C379.144 172.581 375.571 182.964 375.517 193.663C375.462 204.361 378.93 214.78 385.384 223.312L378.903 228.259Z" fill="#F2E7F4"/>
<path d="M299.5 523.327C427.785 523.327 531.78 517.255 531.78 509.766C531.78 502.276 427.785 496.204 299.5 496.204C171.215 496.204 67.2197 502.276 67.2197 509.766C67.2197 517.255 171.215 523.327 299.5 523.327Z" fill="#F2E7F4"/>
<g opacity="0.3">
<path d="M488.197 131.617H112.648C106.461 131.617 101.446 136.632 101.446 142.818V428.745C101.446 434.931 106.461 439.946 112.648 439.946H488.197C494.383 439.946 499.398 434.931 499.398 428.745V142.818C499.398 136.632 494.383 131.617 488.197 131.617Z" fill="white"/>
<path opacity="0.4" d="M488.197 131.617H112.648C106.461 131.617 101.446 136.632 101.446 142.818V428.745C101.446 434.931 106.461 439.946 112.648 439.946H488.197C494.383 439.946 499.398 434.931 499.398 428.745V142.818C499.398 136.632 494.383 131.617 488.197 131.617Z" fill="#7E57C2"/>
</g>
<path opacity="0.1" d="M482.351 162.381H118.494C117.409 162.381 116.529 163.261 116.529 164.346V283.811C116.529 284.896 117.409 285.775 118.494 285.775H482.351C483.436 285.775 484.315 284.896 484.315 283.811V164.346C484.315 163.261 483.436 162.381 482.351 162.381Z" fill="#7E57C2"/>
<path d="M479.535 159.698H121.309C120.224 159.698 119.345 160.578 119.345 161.663V280.947C119.345 282.033 120.224 282.912 121.309 282.912H479.535C480.62 282.912 481.5 282.033 481.5 280.947V161.663C481.5 160.578 480.62 159.698 479.535 159.698Z" fill="white"/>
<path opacity="0.1" d="M148.516 165.999H146.12V276.623H148.516V165.999Z" fill="#7E57C2"/>
<path opacity="0.1" d="M179.136 165.999H176.74V276.623H179.136V165.999Z" fill="#7E57C2"/>
<path opacity="0.1" d="M209.757 165.999H207.361V276.623H209.757V165.999Z" fill="#7E57C2"/>
<path opacity="0.1" d="M240.378 165.999H237.982V276.623H240.378V165.999Z" fill="#7E57C2"/>
<path opacity="0.1" d="M271 165.999H268.604V276.623H271V165.999Z" fill="#7E57C2"/>
<path opacity="0.1" d="M301.621 165.999H299.225V276.623H301.621V165.999Z" fill="#7E57C2"/>
<path opacity="0.1" d="M332.242 165.999H329.846V276.623H332.242V165.999Z" fill="#7E57C2"/>
<path opacity="0.1" d="M362.863 165.999H360.467V276.623H362.863V165.999Z" fill="#7E57C2"/>
<path opacity="0.1" d="M393.483 165.999H391.087V276.623H393.483V165.999Z" fill="#7E57C2"/>
<path opacity="0.1" d="M424.104 165.999H421.708V276.623H424.104V165.999Z" fill="#7E57C2"/>
<path opacity="0.1" d="M454.725 165.999H452.329V276.623H454.725V165.999Z" fill="#7E57C2"/>
<path d="M341.706 250.614C341.628 250.617 341.55 250.603 341.478 250.574C341.406 250.545 341.341 250.502 341.286 250.446L281.734 195.698L219.15 227.445C218.985 227.511 218.8 227.511 218.635 227.445L195.573 218.508L129.683 243.51C129.526 243.568 129.352 243.562 129.2 243.492C129.047 243.423 128.928 243.296 128.869 243.139C128.838 243.062 128.823 242.979 128.824 242.896C128.826 242.813 128.844 242.732 128.877 242.656C128.911 242.58 128.959 242.511 129.019 242.454C129.08 242.398 129.151 242.353 129.228 242.324L195.382 217.238C195.529 217.184 195.69 217.184 195.837 217.238L218.863 226.151L281.53 194.404C281.645 194.345 281.776 194.322 281.904 194.339C282.033 194.356 282.153 194.412 282.249 194.5L341.885 249.32L414.28 231.961L470.994 182.184C471.121 182.073 471.287 182.017 471.455 182.028C471.624 182.04 471.781 182.117 471.892 182.244C472.003 182.371 472.06 182.537 472.048 182.706C472.037 182.874 471.959 183.032 471.832 183.143L414.999 233.028C414.918 233.09 414.824 233.135 414.724 233.159L341.849 250.638L341.706 250.614Z" fill="#B9A5E6"/>
<path d="M129.384 258.509C129.25 258.512 129.12 258.469 129.013 258.389C128.945 258.341 128.887 258.279 128.844 258.207C128.8 258.136 128.771 258.057 128.759 257.974C128.746 257.891 128.751 257.807 128.772 257.726C128.793 257.645 128.83 257.569 128.881 257.503L158.136 218.364C158.218 218.254 158.334 218.173 158.466 218.134C158.597 218.095 158.738 218.1 158.867 218.148L228.219 244.097L322.634 202.347C322.724 202.299 322.825 202.275 322.927 202.275C323.029 202.275 323.13 202.299 323.221 202.347L358.382 224.102L382.845 207.426C382.929 207.366 383.029 207.333 383.133 207.33L471.425 198.585C471.593 198.572 471.759 198.624 471.889 198.731C472.019 198.839 472.102 198.993 472.12 199.16C472.133 199.328 472.081 199.494 471.973 199.624C471.866 199.754 471.712 199.837 471.545 199.855L383.36 208.612L358.693 225.384C358.591 225.449 358.473 225.484 358.352 225.484C358.231 225.484 358.112 225.449 358.01 225.384L322.777 203.581L228.435 245.307C228.281 245.367 228.11 245.367 227.956 245.307L158.807 219.43L129.935 258.197C129.878 258.292 129.797 258.371 129.7 258.425C129.604 258.48 129.495 258.509 129.384 258.509Z" fill="#7E57C2"/>
<path opacity="0.2" d="M468.669 303.53H371.308C362.667 303.53 355.662 310.535 355.662 319.176V404.138C355.662 412.779 362.667 419.784 371.308 419.784H468.669C477.31 419.784 484.315 412.779 484.315 404.138V319.176C484.315 310.535 477.31 303.53 468.669 303.53Z" fill="#7E57C2"/>
<path opacity="0.4" d="M259.511 404.988L242.667 403.79L240.379 439.934H259.511V404.988Z" fill="#7E57C2"/>
<path d="M362.79 505.608H265.417C261.176 505.554 257.107 503.921 254.006 501.028C250.905 498.135 248.993 494.189 248.645 489.963L242.655 404.988C242.487 402.988 242.74 400.975 243.398 399.078C244.056 397.182 245.103 395.444 246.474 393.977C247.844 392.51 249.506 391.346 251.353 390.56C253.2 389.774 255.191 389.384 257.198 389.414H354.608C358.838 389.464 362.899 391.086 365.999 393.965C369.099 396.844 371.017 400.773 371.38 404.988L377.37 489.963C377.548 491.972 377.302 493.996 376.647 495.904C375.992 497.811 374.943 499.56 373.568 501.035C372.192 502.511 370.522 503.681 368.665 504.469C366.809 505.257 364.807 505.645 362.79 505.608Z" fill="#7E57C2"/>
<path opacity="0.8" d="M354.608 389.355H257.246C255.239 389.324 253.248 389.714 251.401 390.5C249.554 391.286 247.891 392.45 246.521 393.917C245.151 395.384 244.104 397.122 243.446 399.018C242.788 400.915 242.535 402.928 242.702 404.929L247.494 473.694H376.172L371.38 404.929C371.017 400.713 369.099 396.784 365.999 393.905C362.898 391.027 358.838 389.404 354.608 389.355Z" fill="white"/>
<path d="M311.12 463.822C293.354 463.822 277.888 449.362 276.63 431.596C276.267 427.451 276.778 423.277 278.13 419.342C279.482 415.407 281.644 411.799 284.476 408.752C287.309 405.705 290.749 403.286 294.575 401.651C298.401 400.017 302.527 399.203 306.687 399.262C324.454 399.262 339.92 413.722 341.178 431.488C341.542 435.633 341.032 439.808 339.682 443.743C338.332 447.679 336.172 451.287 333.34 454.335C330.508 457.384 327.069 459.804 323.244 461.44C319.418 463.076 315.292 463.892 311.132 463.834L311.12 463.822ZM306.687 400.556C302.706 400.498 298.756 401.277 295.094 402.843C291.432 404.408 288.14 406.724 285.43 409.642C282.72 412.56 280.652 416.015 279.361 419.782C278.07 423.549 277.585 427.545 277.935 431.512C278.636 439.885 282.424 447.699 288.563 453.435C294.702 459.172 302.755 462.421 311.156 462.552C315.138 462.61 319.087 461.831 322.749 460.265C326.411 458.7 329.704 456.384 332.414 453.466C335.124 450.548 337.191 447.094 338.482 443.326C339.773 439.559 340.259 435.563 339.908 431.596C339.208 423.223 335.42 415.409 329.28 409.673C323.141 403.937 315.089 400.687 306.687 400.556Z" fill="white"/>
<path d="M326.395 431.548L297.631 415.591L299.871 447.505L326.395 431.548Z" fill="#7E57C2"/>
<path d="M431.604 500.888H422.056L422.164 478.773H431.712L431.604 500.888Z" fill="#B55B52"/>
<path d="M488.964 500.888H479.416L475.666 478.773H485.214L488.964 500.888Z" fill="#B55B52"/>
<path d="M478.781 499.786H489.563C489.749 499.781 489.931 499.844 490.074 499.963C490.218 500.082 490.313 500.249 490.342 500.433L491.827 508.927C491.858 509.138 491.843 509.354 491.783 509.559C491.723 509.764 491.62 509.954 491.48 510.115C491.34 510.277 491.167 510.406 490.973 510.495C490.778 510.583 490.567 510.629 490.354 510.628C486.604 510.556 484.795 510.341 480.075 510.341C477.176 510.341 469.293 510.64 465.327 510.64C461.362 510.64 460.991 506.675 462.644 506.315C470.083 504.71 474.792 502.494 477.247 500.325C477.68 499.972 478.223 499.782 478.781 499.786Z" fill="#263238"/>
<path d="M422.175 499.786H432.598C432.785 499.783 432.967 499.846 433.111 499.965C433.256 500.083 433.354 500.249 433.388 500.433L434.862 508.927C434.897 509.137 434.885 509.352 434.828 509.557C434.772 509.762 434.671 509.952 434.533 510.114C434.394 510.276 434.223 510.406 434.029 510.495C433.836 510.584 433.625 510.629 433.412 510.628C429.651 510.556 424.224 510.34 419.492 510.34C413.969 510.34 410.926 510.64 404.445 510.64C400.515 510.64 399.653 506.675 401.282 506.315C408.829 504.686 413.19 504.506 419.839 500.529C420.536 500.075 421.343 499.818 422.175 499.786Z" fill="#263238"/>
<path d="M430.682 203.401L417.636 199.579C417.636 199.579 403.763 234.321 400.337 237.915C395.688 242.791 391.016 253.202 383.421 261.875C383.948 263.421 386.464 266.871 387.806 267.434C397.989 260.462 410.568 248.829 413.167 243.198C419.013 230.404 430.682 203.401 430.682 203.401Z" fill="#B55B52"/>
<path d="M434.634 197.435C438.348 205.701 427.351 223.252 427.351 223.252L407.823 214.77C410.198 206.595 413.41 198.686 417.407 191.169C423.421 180.351 430.561 188.414 434.634 197.435Z" fill="#7E57C2"/>
<path opacity="0.4" d="M434.634 197.435C438.348 205.701 427.351 223.252 427.351 223.252L407.823 214.77C410.198 206.595 413.41 198.686 417.407 191.169C423.421 180.351 430.561 188.414 434.634 197.435Z" fill="white"/>
<path d="M386.536 259.348L376.664 264.223L384.535 273.652C384.535 273.652 386.847 272.13 389.483 265.649L386.536 259.348Z" fill="#B55B52"/>
<path d="M372.889 275.592L374.938 277.294C375.61 277.846 376.449 278.155 377.319 278.17C378.189 278.185 379.039 277.906 379.73 277.377L384.522 273.652L376.651 264.223L372.218 270.381C371.654 271.175 371.409 272.152 371.534 273.118C371.658 274.084 372.142 274.968 372.889 275.592Z" fill="#B55B52"/>
<path d="M355.725 241.513L262.5 269.589C254.226 272.081 249.539 280.808 252.03 289.082L276.53 370.435C279.022 378.709 287.749 383.396 296.023 380.904L389.249 352.829C397.523 350.337 402.21 341.61 399.718 333.336L375.218 251.983C372.727 243.709 363.999 239.022 355.725 241.513Z" fill="white"/>
<path opacity="0.5" d="M355.725 241.513L262.5 269.589C254.226 272.081 249.539 280.808 252.03 289.082L276.53 370.435C279.022 378.709 287.749 383.396 296.023 380.904L389.249 352.829C397.523 350.337 402.21 341.61 399.718 333.336L375.218 251.983C372.727 243.709 363.999 239.022 355.725 241.513Z" fill="#7E57C2"/>
<path d="M325.916 311.233L287.58 329.107C283.652 320.672 282.615 311.176 284.632 302.092C286.648 293.008 291.604 284.842 298.732 278.861C305.86 272.879 314.762 269.416 324.058 269.007C333.354 268.598 342.526 271.266 350.151 276.599L325.916 311.233Z" fill="#7E57C2"/>
<path d="M350.715 280.001C351.904 280.947 353.04 281.959 354.117 283.032C358.157 287.08 361.278 291.95 363.27 297.311C365.262 302.672 366.078 308.399 365.662 314.103C365.246 319.807 363.609 325.354 360.86 330.37C358.111 335.385 354.316 339.75 349.732 343.17C345.148 346.589 339.882 348.983 334.291 350.188C328.7 351.393 322.916 351.382 317.33 350.155C311.744 348.928 306.488 346.514 301.917 343.077C297.346 339.639 293.568 335.259 290.839 330.233L326.922 313.461L327.509 313.198L327.881 312.67L350.715 280.061M350.164 276.659L325.916 311.293L287.58 329.167C290.205 334.741 294.018 339.675 298.75 343.621C303.481 347.568 309.019 350.432 314.974 352.014C320.929 353.596 327.158 353.857 333.225 352.779C339.292 351.701 345.049 349.31 350.095 345.773C355.14 342.236 359.352 337.639 362.435 332.304C365.517 326.969 367.396 321.024 367.94 314.887C368.484 308.749 367.68 302.567 365.584 296.772C363.488 290.978 360.151 285.712 355.806 281.343C354.071 279.582 352.182 277.978 350.164 276.551V276.659Z" fill="white"/>
<path opacity="0.2" d="M422.163 478.773L422.104 490.178H431.664L431.723 478.773H422.163Z" fill="black"/>
<path opacity="0.2" d="M485.214 478.773H475.666L477.595 490.178H487.155L485.214 478.773Z" fill="black"/>
<path d="M422.499 186.15C422.499 186.15 409.753 218.975 417.899 272.705H468.994C469.725 264.858 466.706 222.617 476.038 185.659C470.424 184.573 464.746 183.852 459.038 183.502C451.805 183.083 444.552 183.083 437.319 183.502C432.319 184.008 427.365 184.893 422.499 186.15Z" fill="#7E57C2"/>
<path opacity="0.4" d="M422.499 186.15C422.499 186.15 409.753 218.975 417.899 272.705H468.994C469.725 264.858 466.706 222.617 476.038 185.659C470.424 184.573 464.746 183.852 459.038 183.502C451.805 183.083 444.552 183.083 437.319 183.502C432.319 184.008 427.365 184.893 422.499 186.15Z" fill="white"/>
<path opacity="0.2" d="M464.501 194.787C463.303 200.873 464.585 215.417 469.581 232.237C470.176 217.801 472.04 203.446 475.151 189.336V189.265C471.809 188.917 465.591 189.085 464.501 194.787Z" fill="black"/>
<path d="M457.169 163.256C455.468 170.24 454.366 178.902 459.038 183.622C459.038 183.622 455.887 190.714 442.901 190.714C431.041 190.714 437.318 183.622 437.318 183.622C445.201 181.765 445.249 172.121 444.159 166.694L457.169 163.256Z" fill="#B55B52"/>
<path d="M442.913 190.594C450.568 192.248 452.09 195.386 452.09 195.386C452.09 195.386 461.614 191.517 461.254 183.119C461.254 183.119 459.014 181.741 457.66 180.627C457.637 180.675 456.762 187.216 442.913 190.594Z" fill="white"/>
<path d="M442.912 190.594C436.719 190.978 433.844 193.841 433.844 193.841C433.844 193.841 432.286 191.816 434.898 183.502C436.267 182.953 437.677 182.512 439.115 182.184C439.115 182.184 437.869 188.797 442.912 190.594Z" fill="white"/>
<path opacity="0.2" d="M444.147 166.586C444.806 169.761 445.057 174.385 443.548 178.051C444.771 177.869 445.962 177.509 447.082 176.985C451.574 174.913 453.887 171.654 456.378 166.814C456.606 165.616 456.87 164.418 457.169 163.22L444.147 166.586Z" fill="black"/>
<path d="M433.281 158.943C433.624 160.047 434.192 161.068 434.949 161.942C435.705 162.817 436.634 163.525 437.678 164.023C440.481 165.34 442.47 162.825 442.266 159.902C442.038 157.218 440.313 153.301 437.235 153.241C436.555 153.248 435.887 153.418 435.287 153.736C434.687 154.054 434.171 154.512 433.784 155.07C433.397 155.629 433.149 156.272 433.062 156.946C432.974 157.619 433.049 158.304 433.281 158.943Z" fill="#B55B52"/>
<path opacity="0.2" d="M433.281 158.943C433.624 160.047 434.192 161.068 434.949 161.942C435.705 162.817 436.634 163.525 437.678 164.023C440.481 165.34 442.47 162.825 442.266 159.902C442.038 157.218 440.313 153.301 437.235 153.241C436.555 153.248 435.887 153.418 435.287 153.736C434.687 154.054 434.171 154.512 433.784 155.07C433.397 155.629 433.149 156.272 433.062 156.946C432.974 157.619 433.049 158.304 433.281 158.943Z" fill="black"/>
<path d="M443.344 139.296C439.486 137.894 433.281 152.055 441.882 152.869C450.484 153.684 449.142 141.428 443.344 139.296Z" fill="#263238"/>
<path d="M463.243 154.678C460.272 163.831 458.978 169.33 453.132 173.08C444.339 178.734 434.179 172.025 434.407 162.298C434.623 153.528 439.451 140.027 449.346 138.338C459.242 136.648 466.214 145.514 463.243 154.678Z" fill="#B55B52"/>
<path d="M442.913 144.328C435.425 138.649 439.702 127.136 445.608 126.358C453.635 125.351 458.223 141.261 467.531 141.991C476.84 142.722 472.815 157.565 460.727 161.651C456.282 163.172 455.587 157.53 460.02 149.671C457.169 150.425 447.237 147.61 442.913 144.328Z" fill="#263238"/>
<path d="M442.828 164.37C443.721 164.448 444.621 164.348 445.475 164.074C446.328 163.8 447.119 163.359 447.8 162.777C447.822 162.756 447.838 162.73 447.85 162.703C447.862 162.675 447.868 162.645 447.868 162.615C447.868 162.585 447.862 162.555 447.85 162.527C447.838 162.5 447.822 162.474 447.8 162.453C447.756 162.413 447.698 162.39 447.638 162.39C447.579 162.39 447.521 162.413 447.477 162.453C446.728 163.074 445.849 163.516 444.905 163.749C443.961 163.981 442.977 163.997 442.026 163.795C441.967 163.784 441.907 163.797 441.857 163.831C441.808 163.865 441.774 163.916 441.762 163.975C441.755 164.003 441.754 164.033 441.759 164.061C441.763 164.09 441.774 164.118 441.79 164.142C441.805 164.167 441.826 164.188 441.85 164.205C441.874 164.221 441.901 164.233 441.93 164.238C442.227 164.299 442.527 164.343 442.828 164.37Z" fill="#263238"/>
<path d="M464.704 165.808C462.986 167.503 460.684 168.476 458.271 168.527C455.12 168.527 454.521 165.508 456.21 162.944C457.732 160.644 461.194 157.865 463.974 159.087C466.753 160.309 466.813 163.687 464.704 165.808Z" fill="#B55B52"/>
<path d="M451.478 272.705C451.478 272.705 450.184 284.685 448.519 300.99C446.614 319.439 444.242 343.387 442.744 361.645C442.739 361.729 442.739 361.813 442.744 361.896C442.457 365.359 442.193 368.605 441.99 371.576C439.845 401.347 434.802 487.974 434.802 487.974H418.629C418.629 487.974 412.531 399.574 412.89 369.276C413.238 340.141 417.874 272.705 417.874 272.705H451.478Z" fill="#7E57C2"/>
<path d="M436.167 481.636C436.239 481.636 435.88 488.297 435.88 488.297H417.227L416.76 480.978L436.167 481.636Z" fill="#263238"/>
<path opacity="0.2" d="M448.519 301.026C446.615 319.475 444.242 343.423 442.745 361.681C442.74 361.764 442.74 361.848 442.745 361.932C439.151 344.633 438.085 323.105 439.462 287.656L448.519 301.026Z" fill="black"/>
<path d="M436.072 272.705C436.072 272.705 443.524 341.722 448.172 369.072C453.252 399.022 473.33 487.974 473.33 487.974H490.833C490.833 487.974 479.033 401.442 476.732 371.768C474.229 339.578 469.077 272.681 469.077 272.681L436.072 272.705Z" fill="#7E57C2"/>
<path d="M491.001 482.032C491.073 482.032 491.6 488.297 491.6 488.297H472.372L470.971 481.313L491.001 482.032Z" fill="#263238"/>
<path d="M448.724 154.247C448.532 155.002 447.969 155.529 447.526 155.445C447.082 155.361 446.807 154.642 446.998 153.888C447.19 153.133 447.753 152.594 448.196 152.69C448.64 152.785 448.915 153.492 448.724 154.247Z" fill="#263238"/>
<path d="M440.325 152.402C440.133 153.157 439.57 153.684 439.127 153.6C438.684 153.516 438.408 152.785 438.6 152.031C438.792 151.276 439.355 150.749 439.798 150.833C440.241 150.917 440.517 151.647 440.325 152.402Z" fill="#263238"/>
<path d="M442.901 153.36C441.414 155.48 439.654 157.393 437.666 159.051C438.66 160.584 441.044 160.513 441.044 160.513L442.901 153.36Z" fill="#A02724"/>
<path d="M451.647 153.157C451.582 153.135 451.522 153.099 451.472 153.051C451.423 153.004 451.384 152.946 451.359 152.881C451.203 152.347 450.916 151.859 450.525 151.462C450.134 151.065 449.651 150.77 449.119 150.605C449.062 150.593 449.007 150.568 448.959 150.534C448.911 150.5 448.871 150.456 448.841 150.405C448.81 150.355 448.791 150.299 448.783 150.24C448.775 150.182 448.78 150.123 448.796 150.066C448.832 149.95 448.909 149.851 449.012 149.787C449.116 149.723 449.239 149.699 449.359 149.719C450.036 149.914 450.653 150.276 451.153 150.773C451.653 151.269 452.021 151.883 452.222 152.558C452.25 152.639 452.255 152.726 452.236 152.81C452.217 152.894 452.176 152.971 452.117 153.032C452.057 153.094 451.982 153.139 451.899 153.161C451.816 153.182 451.729 153.181 451.647 153.157Z" fill="#263238"/>
<path d="M469.952 145.981C469.975 145.884 470.023 145.795 470.09 145.722C470.157 145.648 470.241 145.593 470.335 145.561C471.091 145.315 471.773 144.886 472.321 144.311C472.869 143.735 473.265 143.033 473.474 142.267C473.491 142.186 473.524 142.109 473.572 142.04C473.619 141.972 473.68 141.915 473.751 141.871C473.822 141.827 473.9 141.798 473.983 141.786C474.065 141.774 474.149 141.778 474.229 141.8C474.398 141.84 474.545 141.943 474.64 142.087C474.736 142.232 474.773 142.408 474.744 142.578C474.494 143.549 474.004 144.442 473.32 145.175C472.636 145.907 471.778 146.456 470.827 146.771C470.663 146.83 470.482 146.823 470.324 146.752C470.165 146.68 470.04 146.55 469.976 146.388C469.927 146.258 469.918 146.116 469.952 145.981Z" fill="#263238"/>
<path d="M475.463 148.161C475.37 148.19 475.271 148.197 475.176 148.18C475.08 148.163 474.989 148.124 474.912 148.065C474.301 147.558 473.575 147.211 472.797 147.054C472.019 146.897 471.214 146.936 470.455 147.167C470.376 147.197 470.291 147.21 470.207 147.207C470.122 147.203 470.039 147.182 469.963 147.145C469.886 147.108 469.818 147.055 469.763 146.991C469.708 146.927 469.666 146.852 469.64 146.771C469.588 146.609 469.598 146.433 469.669 146.278C469.74 146.122 469.867 145.999 470.024 145.933C470.98 145.622 471.999 145.556 472.988 145.743C473.976 145.929 474.901 146.361 475.678 146.999C475.811 147.109 475.897 147.266 475.92 147.437C475.942 147.608 475.898 147.781 475.798 147.922C475.718 148.038 475.599 148.123 475.463 148.161Z" fill="#263238"/>
<path d="M437.342 149.048C437.277 149.025 437.217 148.993 437.162 148.952C437.12 148.909 437.086 148.859 437.062 148.804C437.039 148.748 437.027 148.689 437.027 148.628C437.027 148.568 437.039 148.509 437.062 148.453C437.086 148.398 437.12 148.347 437.162 148.305C437.641 147.758 438.242 147.331 438.916 147.058C439.59 146.786 440.319 146.675 441.044 146.736C441.102 146.744 441.157 146.764 441.207 146.795C441.256 146.826 441.299 146.868 441.332 146.916C441.364 146.965 441.387 147.019 441.397 147.077C441.407 147.135 441.405 147.194 441.391 147.251C441.371 147.371 441.304 147.478 441.206 147.549C441.107 147.621 440.985 147.651 440.864 147.634C440.29 147.595 439.715 147.69 439.185 147.913C438.654 148.135 438.183 148.479 437.809 148.916C437.751 148.979 437.676 149.024 437.594 149.047C437.512 149.07 437.424 149.071 437.342 149.048Z" fill="#263238"/>
<path d="M481.704 198.705L469.616 206.001C469.616 206.001 484.687 235.507 483.022 240.12C480.746 246.397 477.295 260.174 473.27 267.099C473.653 268.62 475.87 272.154 477.188 272.789C486.772 266.2 497.35 244.96 497.338 238.958C497.326 225.276 481.704 198.705 481.704 198.705Z" fill="#B55B52"/>
<path d="M476.037 185.659C485.01 186.976 493.864 218.292 493.864 218.292L474.408 229.014C474.408 229.014 466.765 214.123 463.171 203.065C459.361 191.469 466.405 184.257 476.037 185.659Z" fill="#7E57C2"/>
<path opacity="0.4" d="M476.037 185.659C485.01 186.976 493.864 218.292 493.864 218.292L474.408 229.014C474.408 229.014 466.765 214.123 463.171 203.065C459.361 191.469 466.405 184.257 476.037 185.659Z" fill="white"/>
<path d="M475.606 501.451C474.961 501.506 474.316 501.332 473.785 500.96C473.622 500.811 473.498 500.623 473.427 500.414C473.356 500.204 473.339 499.98 473.378 499.762C473.385 499.629 473.428 499.5 473.502 499.388C473.576 499.276 473.677 499.186 473.797 499.127C474.864 498.588 477.871 500.481 478.206 500.697C478.241 500.722 478.269 500.757 478.285 500.797C478.302 500.837 478.308 500.881 478.302 500.924C478.291 500.967 478.268 501.007 478.236 501.038C478.205 501.07 478.165 501.093 478.122 501.104C477.3 501.317 476.456 501.433 475.606 501.451ZM474.277 499.475C474.177 499.466 474.077 499.487 473.989 499.535C473.917 499.535 473.845 499.618 473.833 499.798C473.802 499.945 473.811 500.098 473.857 500.24C473.903 500.383 473.986 500.512 474.097 500.613C474.6 501.056 475.846 501.116 477.475 500.792C476.49 500.136 475.381 499.688 474.217 499.475H474.277Z" fill="#7E57C2"/>
<path d="M478.002 501.092H477.906C476.936 500.553 475.127 498.456 475.378 497.39C475.421 497.222 475.518 497.074 475.655 496.967C475.792 496.861 475.96 496.803 476.133 496.803C476.302 496.781 476.474 496.795 476.637 496.845C476.8 496.894 476.951 496.978 477.079 497.091C478.146 498.001 478.277 500.757 478.277 500.876C478.277 500.916 478.267 500.956 478.248 500.991C478.229 501.027 478.202 501.057 478.17 501.08C478.117 501.104 478.057 501.108 478.002 501.092ZM476.265 497.222H476.157C475.869 497.222 475.833 497.402 475.821 497.45C475.666 498.085 476.816 499.666 477.762 500.409C477.74 499.365 477.407 498.351 476.804 497.498C476.735 497.422 476.652 497.361 476.56 497.318C476.467 497.275 476.367 497.25 476.265 497.246V497.222Z" fill="#7E57C2"/>
<path d="M418.102 501.451C417.294 501.529 416.485 501.321 415.814 500.864C415.664 500.727 415.551 500.554 415.486 500.361C415.421 500.169 415.406 499.962 415.443 499.762C415.454 499.636 415.497 499.515 415.568 499.41C415.64 499.305 415.737 499.22 415.85 499.163C417.048 498.516 420.786 500.457 421.205 500.685C421.247 500.707 421.28 500.743 421.3 500.786C421.319 500.829 421.324 500.878 421.313 500.924C421.304 500.972 421.281 501.016 421.247 501.05C421.212 501.084 421.169 501.107 421.121 501.116C420.127 501.318 419.116 501.43 418.102 501.451ZM416.473 499.475C416.324 499.466 416.176 499.495 416.042 499.559C415.999 499.584 415.963 499.619 415.936 499.66C415.909 499.702 415.892 499.749 415.886 499.798C415.863 499.93 415.872 500.066 415.914 500.194C415.956 500.321 416.028 500.436 416.125 500.529C416.689 501.044 418.258 501.14 420.39 500.792C419.174 500.131 417.853 499.685 416.485 499.475H416.473Z" fill="#7E57C2"/>
<path d="M421.097 501.092H421.001C419.875 500.577 417.682 498.516 417.91 497.426C417.97 497.175 418.162 496.863 418.785 496.803C419 496.78 419.218 496.803 419.424 496.869C419.63 496.935 419.82 497.043 419.983 497.187C421.181 498.181 421.288 500.781 421.288 500.864C421.291 500.904 421.284 500.943 421.267 500.979C421.251 501.015 421.225 501.045 421.193 501.068C421.163 501.084 421.13 501.092 421.097 501.092ZM418.952 497.222H418.808C418.401 497.222 418.365 497.426 418.353 497.474C418.221 498.133 419.695 499.75 420.833 500.457C420.786 499.381 420.396 498.348 419.719 497.51C419.502 497.336 419.231 497.243 418.952 497.246V497.222Z" fill="#7E57C2"/>
<path d="M474.9 266.667L465.843 265.972L470.144 276.012C470.144 276.012 478.098 276.359 479.728 270.273L474.9 266.667Z" fill="#B55B52"/>
<path d="M459.385 272.897L461.374 276.946C461.7 277.612 462.273 278.124 462.971 278.375C463.669 278.625 464.436 278.594 465.112 278.288L470.143 276.012L465.842 265.972L460.475 269.195C459.863 269.563 459.411 270.148 459.209 270.833C459.007 271.519 459.07 272.255 459.385 272.897Z" fill="#B55B52"/>
<path d="M379.91 262.594C376.838 263.695 373.637 264.396 370.386 264.679C370.301 264.682 370.217 264.704 370.141 264.743C370.065 264.782 369.999 264.837 369.946 264.904C369.894 264.971 369.857 265.049 369.837 265.132C369.818 265.216 369.817 265.302 369.835 265.385C369.951 265.814 370.177 266.205 370.49 266.52C370.803 266.835 371.192 267.063 371.62 267.182C372.626 267.41 375.214 267.901 375.777 268.009C375.861 268.025 375.939 268.062 376.004 268.117C377.585 269.334 379.48 270.074 381.467 270.249C383.791 270.249 381.467 264.631 380.629 262.882C380.571 262.749 380.463 262.644 380.328 262.59C380.194 262.537 380.043 262.538 379.91 262.594Z" fill="#B55B52"/>
<path d="M179.976 179.501C181.019 185.838 181.917 197.399 177.389 201.46C180.785 206.824 186.141 210.65 192.316 212.122C202.235 207.091 196.94 202.047 196.94 202.047C189.968 200.166 190.303 194.967 191.681 190.067L179.976 179.501Z" fill="#FFC3BD"/>
<path d="M165.684 217.358C164.942 223.42 163.983 229.338 162.797 235.328C161.611 241.318 160.317 247.188 158.592 253.106C157.718 256.077 156.711 259.096 155.621 261.851C154.531 264.607 153.441 267.458 152.291 270.237C150.002 275.784 147.583 281.247 144.959 286.662L139.903 284.853C141.257 279.031 142.779 273.256 144.348 267.518C145.917 261.78 147.642 256.077 148.888 250.578C150.134 245.079 151.284 239.197 152.219 233.411C153.153 227.625 154.076 221.766 154.926 216.028L165.684 217.358Z" fill="#FFC3BD"/>
<path d="M159.024 203.329C154.807 204.934 150.638 221.982 150.638 221.982L167.41 234.729C167.41 234.729 173.4 218.124 171.243 212.686C168.919 207.019 163.84 201.496 159.024 203.329Z" fill="#7E57C2"/>
<path d="M140.934 282.78L133.291 291.322L144.073 291.634C144.073 291.634 147.535 285.763 145.271 282.05L140.934 282.78Z" fill="#FFC3BD"/>
<path opacity="0.2" d="M177.982 290.595L81.5637 304.111C73.0064 305.311 67.0418 313.22 68.2414 321.778L80.0365 405.917C81.2361 414.474 89.1456 420.439 97.7029 419.239L194.122 405.723C202.679 404.523 208.644 396.614 207.444 388.057L195.649 303.917C194.449 295.36 186.54 289.395 177.982 290.595Z" fill="#7E57C2"/>
<path d="M100.956 408.235C98.4653 408.231 96.0594 407.328 94.1801 405.693C92.3008 404.058 91.0742 401.8 90.7253 399.334L80.3267 325.142C80.1373 323.798 80.2145 322.43 80.554 321.117C80.8935 319.803 81.4885 318.569 82.3052 317.485C83.1218 316.402 84.144 315.489 85.3134 314.801C86.4827 314.113 87.7762 313.661 89.12 313.473L173.351 301.649C176.066 301.273 178.818 301.989 181.006 303.64C183.193 305.29 184.637 307.741 185.02 310.454L195.431 384.646C195.81 387.363 195.096 390.118 193.445 392.308C191.794 394.498 189.341 395.944 186.625 396.327L102.406 408.139C101.925 408.2 101.441 408.232 100.956 408.235ZM174.789 302.224C174.336 302.227 173.884 302.259 173.435 302.32L89.2159 314.132C87.9525 314.307 86.736 314.73 85.6363 315.376C84.5365 316.022 83.5751 316.879 82.8072 317.897C82.0392 318.915 81.4798 320.075 81.1611 321.31C80.8423 322.545 80.7705 323.831 80.9497 325.094L91.3603 399.262C91.7227 401.806 93.0783 404.103 95.1305 405.65C97.1827 407.197 99.7643 407.868 102.31 407.516L186.541 395.668C189.089 395.312 191.391 393.958 192.941 391.905C194.491 389.851 195.163 387.266 194.808 384.718L184.397 310.61C184.074 308.29 182.924 306.164 181.159 304.623C179.394 303.082 177.132 302.23 174.789 302.224Z" fill="white"/>
<path d="M132.703 300.211L141.736 299.996L144.072 291.634L133.29 291.322L132.703 300.211Z" fill="#FFC3BD"/>
<path d="M215.785 210.301C216.024 217.01 214.862 232.668 207.806 269.135L164.75 267.853C165.948 250.351 166.331 239.545 159.023 203.329C165.092 202.266 171.23 201.641 177.389 201.46C183.912 201.193 190.445 201.389 196.94 202.047C201.924 202.646 207.291 203.688 210.825 204.443C212.187 204.726 213.415 205.456 214.314 206.518C215.213 207.579 215.731 208.911 215.785 210.301Z" fill="#7E57C2"/>
<path d="M215.162 212.29C217.175 218.065 218.972 223.803 220.661 229.637C222.35 235.471 223.944 241.306 225.369 247.212L225.896 249.428L226.16 250.542L226.292 251.093C226.292 251.093 226.292 250.962 226.292 250.974C226.292 250.986 226.292 251.213 226.627 251.549C226.955 251.976 227.315 252.376 227.705 252.747C229.732 254.567 231.908 256.215 234.21 257.67C239.002 260.821 244.238 263.792 249.377 266.679L247.34 271.651C241.391 269.908 235.596 267.672 230.017 264.966C227.059 263.549 224.25 261.839 221.631 259.863C220.871 259.259 220.151 258.607 219.475 257.91C218.589 256.985 217.86 255.92 217.319 254.759C217.154 254.369 217.014 253.969 216.899 253.561L216.732 253.034L216.42 251.968L215.773 249.824C214.04 244.145 212.267 238.462 210.454 232.776L204.859 215.776L215.162 212.29Z" fill="#FFC3BD"/>
<path d="M211.112 204.491C219.043 206.18 221.607 222.892 221.607 222.892L207.985 235.34C207.985 235.34 196.832 216.399 199.48 211.164C202.235 205.713 204.667 203.125 211.112 204.491Z" fill="#7E57C2"/>
<path d="M246.788 265.625L257.57 269.698L248.825 275.497C248.825 275.497 243.65 272.43 244.033 268.141L246.788 265.625Z" fill="#FFC3BD"/>
<path d="M261.788 275.341L255.151 279.522L248.754 275.497L257.499 269.698L261.788 275.341Z" fill="#FFC3BD"/>
<path d="M203.829 168.048C203.901 168.899 204.416 169.558 205.027 169.51C205.638 169.462 205.986 168.731 205.914 167.88C205.842 167.03 205.339 166.371 204.716 166.419C204.093 166.467 203.769 167.162 203.829 168.048Z" fill="#263238"/>
<path d="M204.476 166.455L206.476 165.7C206.476 165.7 205.554 167.377 204.476 166.455Z" fill="#263238"/>
<path d="M204.715 169.845C205.633 171.73 206.806 173.479 208.201 175.044C207.791 175.39 207.311 175.641 206.793 175.782C206.276 175.923 205.734 175.949 205.206 175.859L204.715 169.845Z" fill="#ED847E"/>
<path d="M200.522 166.035C200.628 166.041 200.733 166.015 200.823 165.959C200.913 165.903 200.984 165.821 201.026 165.724C201.9 163.568 204.811 162.873 204.835 162.861C204.907 162.854 204.976 162.832 205.039 162.796C205.101 162.761 205.155 162.712 205.197 162.654C205.239 162.595 205.268 162.529 205.282 162.458C205.296 162.388 205.295 162.315 205.279 162.245C205.262 162.175 205.231 162.109 205.187 162.052C205.143 161.995 205.087 161.948 205.024 161.915C204.96 161.881 204.89 161.862 204.818 161.857C204.747 161.853 204.675 161.864 204.608 161.89C204.464 161.89 201.157 162.717 200.091 165.341C200.066 165.402 200.053 165.468 200.053 165.534C200.053 165.6 200.066 165.666 200.092 165.727C200.117 165.789 200.155 165.844 200.202 165.891C200.249 165.938 200.305 165.974 200.367 165.999C200.415 166.023 200.468 166.035 200.522 166.035Z" fill="#263238"/>
<path d="M174.728 167.257C176.226 177.68 176.633 182.125 182.372 187.06C190.985 194.5 203.456 190.367 205.134 179.717C206.607 170.133 203.936 154.69 193.309 151.36C190.976 150.614 188.49 150.478 186.089 150.962C183.688 151.447 181.45 152.538 179.589 154.131C177.727 155.723 176.304 157.765 175.453 160.062C174.602 162.36 174.353 164.836 174.728 167.257Z" fill="#FFC3BD"/>
<path d="M192.077 148.485C187.416 142.782 165.493 143.106 171.711 157.793C162.474 159.063 162.582 168.036 163.42 174.805C164.259 181.573 156.34 180.304 154.974 188.546C153.609 196.788 157.107 197.603 151.309 204.12C145.51 210.637 153.872 224.15 164.87 220.664C175.868 217.178 184.613 224.031 198.294 221.311C211.975 218.592 213.293 207.57 210.274 201.376C207.471 195.59 203.589 194.739 204.416 189.217C205.614 181.082 200.295 173.235 195.539 170.744C201.265 165.293 218.241 148.808 192.077 148.485Z" fill="#263238"/>
<path d="M196.053 172.193C196.395 172.91 196.884 173.546 197.489 174.06C198.094 174.574 198.801 174.954 199.563 175.176C201.516 175.679 202.427 173.535 201.828 171.402C201.301 169.474 199.635 166.898 197.707 167.365C195.778 167.832 195.119 170.312 196.053 172.193Z" fill="#FFC3BD"/>
<path d="M120.364 498.121C119.454 498.109 118.576 497.788 117.872 497.211C117.72 497.043 117.611 496.841 117.555 496.622C117.498 496.403 117.496 496.173 117.549 495.953C117.57 495.815 117.626 495.686 117.712 495.576C117.798 495.467 117.911 495.382 118.04 495.33C119.406 494.755 123.395 497.33 123.838 497.618C123.883 497.647 123.918 497.689 123.937 497.738C123.956 497.788 123.96 497.842 123.946 497.893C123.936 497.945 123.909 497.991 123.87 498.025C123.831 498.06 123.782 498.081 123.73 498.085C122.612 498.201 121.485 498.213 120.364 498.121ZM118.711 495.725C118.554 495.68 118.388 495.68 118.232 495.725C118.179 495.744 118.132 495.777 118.098 495.822C118.064 495.867 118.044 495.921 118.04 495.977C118.004 496.121 118.004 496.271 118.039 496.415C118.075 496.559 118.145 496.693 118.244 496.803C118.831 497.438 120.556 497.726 122.928 497.57C121.635 496.729 120.209 496.113 118.711 495.749V495.725Z" fill="#7E57C2"/>
<path d="M123.682 498.085C123.647 498.095 123.609 498.095 123.574 498.085C122.376 497.39 120.124 494.863 120.436 493.688C120.507 493.413 120.747 493.077 121.454 493.077C121.703 493.075 121.951 493.125 122.18 493.224C122.409 493.323 122.614 493.469 122.784 493.653C123.982 494.851 123.982 497.75 123.982 497.869C123.983 497.914 123.972 497.959 123.948 497.997C123.925 498.036 123.891 498.066 123.85 498.085C123.795 498.1 123.737 498.1 123.682 498.085ZM121.598 493.545H121.454C120.987 493.545 120.939 493.724 120.927 493.784C120.735 494.491 122.244 496.444 123.442 497.378C123.467 496.169 123.111 494.983 122.424 493.988C122.215 493.741 121.919 493.583 121.598 493.545Z" fill="#7E57C2"/>
<path d="M122.951 499.81H133.553L139.028 475.251H128.426L122.951 499.81Z" fill="#FFC3BD"/>
<path d="M122.987 497.426L134.787 495.785C134.881 495.766 134.978 495.767 135.071 495.789C135.165 495.811 135.252 495.853 135.327 495.913C135.403 495.972 135.464 496.047 135.507 496.133C135.551 496.218 135.575 496.312 135.578 496.408L136.357 505.812C136.359 506.326 136.18 506.823 135.851 507.218C135.523 507.612 135.065 507.878 134.56 507.969C130.439 508.472 128.474 508.496 123.287 509.226C118.999 509.997 114.664 510.481 110.312 510.676C105.952 510.676 106.503 506.279 108.431 505.884C117.105 504.099 118.267 501.164 121.19 498.385C121.675 497.887 122.303 497.552 122.987 497.426Z" fill="#263238"/>
<g opacity="0.2">
<path d="M139.029 475.251L136.202 487.914H125.6L128.415 475.251H139.029Z" fill="black"/>
</g>
<path d="M164.75 267.853C153.117 284.278 146.384 344.585 142.203 376.871C137.854 410.415 125.096 485.494 125.096 485.494H139.472C139.472 485.494 159.275 409.433 166.786 376.692C175.088 340.56 192.351 267.889 192.351 267.889L164.75 267.853Z" fill="#263238"/>
<path opacity="0.2" d="M176.742 295.767C169.733 316.947 169.434 343.687 170.236 361.657C174.549 343.052 179.916 320.278 184.277 301.829L176.742 295.767Z" fill="black"/>
<path d="M193.49 499.319C194.393 499.399 195.297 499.171 196.054 498.672C196.22 498.523 196.347 498.336 196.427 498.128C196.506 497.92 196.534 497.696 196.509 497.474C196.504 497.337 196.462 497.204 196.388 497.088C196.315 496.973 196.212 496.878 196.09 496.815C194.784 496.096 190.555 498.265 190.1 498.504C190.055 498.531 190.019 498.57 189.996 498.617C189.973 498.664 189.963 498.716 189.968 498.768C189.975 498.819 189.999 498.867 190.036 498.904C190.073 498.94 190.12 498.964 190.172 498.972C191.265 499.19 192.376 499.306 193.49 499.319ZM195.371 497.127C195.537 497.115 195.702 497.148 195.85 497.222C195.899 497.246 195.94 497.284 195.968 497.331C195.996 497.378 196.009 497.432 196.006 497.486C196.032 497.633 196.019 497.785 195.968 497.925C195.918 498.066 195.832 498.191 195.719 498.289C195.084 498.876 193.323 498.972 190.927 498.588C192.311 497.845 193.816 497.351 195.371 497.127Z" fill="#7E57C2"/>
<path d="M190.195 498.948H190.303C191.561 498.373 194.064 496.084 193.897 494.886C193.897 494.599 193.645 494.251 192.95 494.18C192.701 494.154 192.45 494.178 192.211 494.252C191.972 494.327 191.751 494.449 191.561 494.611C190.219 495.725 189.979 498.576 189.967 498.696C189.965 498.74 189.973 498.784 189.992 498.824C190.011 498.863 190.039 498.898 190.075 498.924C190.112 498.942 190.153 498.951 190.195 498.948ZM192.723 494.647H192.878C193.334 494.647 193.358 494.874 193.37 494.934C193.489 495.653 191.788 497.45 190.506 498.229C190.607 497.025 191.08 495.882 191.86 494.958C192.1 494.754 192.407 494.643 192.723 494.647Z" fill="#7E57C2"/>
<path d="M179.629 499.81H190.244L189.729 475.251H179.114L179.629 499.81Z" fill="#FFC3BD"/>
<path d="M191.274 498.588H179.354C179.149 498.583 178.949 498.653 178.792 498.786C178.635 498.918 178.533 499.104 178.503 499.307L177.15 508.735C177.122 508.974 177.146 509.216 177.22 509.445C177.293 509.674 177.414 509.885 177.575 510.064C177.735 510.243 177.932 510.386 178.152 510.483C178.372 510.58 178.61 510.63 178.851 510.628C183.008 510.556 185.008 510.305 190.244 510.305C193.466 510.305 202.727 510.64 207.183 510.64C211.64 510.64 211.88 506.243 210.023 505.848C201.709 504.063 195.838 501.595 193.047 499.247C192.551 498.828 191.924 498.595 191.274 498.588Z" fill="#263238"/>
<g opacity="0.2">
<path d="M189.717 475.251L189.992 487.914H179.378L179.114 475.251H189.717Z" fill="black"/>
</g>
<path d="M207.806 269.135C207.806 269.135 203.409 348.97 200.378 381.184C197.215 414.728 191.992 485.41 191.992 485.41H177.616C177.616 485.41 174.477 413.362 176.813 380.381C179.353 344.441 169.937 294.533 176.202 268.153C182.097 268.201 207.806 269.135 207.806 269.135Z" fill="#263238"/>
<path d="M176.443 485.973H193.275L194.113 479.36L175.76 480.666L176.443 485.973Z" fill="#7E57C2"/>
<path d="M124.102 485.973H140.922L142.611 478.941L123.874 480.678L124.102 485.973Z" fill="#7E57C2"/>
<path d="M164.127 265.314L162.929 269.135C162.773 269.423 163.109 269.746 163.612 269.758L207.938 271.076C208.333 271.076 208.657 270.908 208.693 270.657L209.196 266.823C209.196 266.548 208.896 266.32 208.477 266.308L164.87 265.002C164.73 264.986 164.588 265.007 164.458 265.061C164.328 265.116 164.214 265.203 164.127 265.314Z" fill="#7E57C2"/>
<path d="M169.889 270.357H168.691C168.451 270.357 168.284 270.225 168.296 270.082L169.002 265.086C169.002 264.942 169.23 264.834 169.458 264.834H170.656C170.895 264.834 171.063 264.966 171.051 265.11L170.344 270.106C170.332 270.249 170.116 270.369 169.889 270.357Z" fill="#263238"/>
<path d="M204.668 271.399H203.47C203.23 271.399 203.062 271.268 203.086 271.112L203.781 266.128C203.781 265.984 204.009 265.865 204.236 265.877H205.434C205.662 265.877 205.842 266.008 205.818 266.152L205.123 271.136C205.111 271.292 204.859 271.399 204.668 271.399Z" fill="#263238"/>
<path d="M187.285 270.872H186.087C185.859 270.872 185.679 270.729 185.703 270.585L186.398 265.601C186.398 265.445 186.626 265.338 186.865 265.35H188.063C188.291 265.35 188.471 265.481 188.447 265.637L187.752 270.621C187.716 270.764 187.512 270.884 187.285 270.872Z" fill="#263238"/>
<path d="M142.536 34.5078C142.536 34.0928 142.471 33.7266 142.34 33.4092C142.218 33.0837 141.999 32.7907 141.681 32.5303C141.372 32.2699 140.941 32.0216 140.387 31.7856C139.842 31.5496 139.15 31.3096 138.312 31.0654C137.433 30.805 136.64 30.5161 135.932 30.1987C135.224 29.8732 134.617 29.5029 134.113 29.0879C133.608 28.6729 133.222 28.1968 132.953 27.6597C132.685 27.1226 132.55 26.5081 132.55 25.8164C132.55 25.1247 132.693 24.4858 132.978 23.8999C133.262 23.314 133.669 22.8053 134.198 22.374C134.735 21.9346 135.374 21.5928 136.115 21.3486C136.855 21.1045 137.681 20.9824 138.593 20.9824C139.927 20.9824 141.059 21.2388 141.986 21.7515C142.922 22.256 143.634 22.9193 144.123 23.7412C144.611 24.555 144.855 25.4258 144.855 26.3535H142.511C142.511 25.6862 142.369 25.0962 142.084 24.5835C141.799 24.0627 141.368 23.6558 140.79 23.3628C140.212 23.0617 139.48 22.9111 138.593 22.9111C137.755 22.9111 137.063 23.0373 136.518 23.2896C135.972 23.5418 135.565 23.8836 135.297 24.3149C135.036 24.7463 134.906 25.2386 134.906 25.792C134.906 26.1663 134.984 26.5081 135.138 26.8174C135.301 27.1185 135.549 27.3993 135.883 27.6597C136.225 27.9201 136.656 28.1602 137.177 28.3799C137.706 28.5996 138.336 28.8112 139.069 29.0146C140.078 29.2995 140.949 29.6169 141.681 29.9668C142.414 30.3167 143.016 30.7114 143.488 31.1509C143.968 31.5822 144.322 32.0745 144.55 32.6279C144.786 33.1732 144.904 33.7917 144.904 34.4834C144.904 35.2077 144.757 35.8628 144.464 36.4487C144.171 37.0347 143.752 37.5352 143.207 37.9502C142.662 38.3652 142.007 38.6867 141.242 38.9146C140.485 39.1343 139.639 39.2441 138.703 39.2441C137.881 39.2441 137.071 39.1302 136.273 38.9023C135.484 38.6745 134.764 38.3327 134.113 37.877C133.47 37.4212 132.953 36.8597 132.562 36.1924C132.18 35.5169 131.989 34.7357 131.989 33.8486H134.333C134.333 34.459 134.451 34.9839 134.687 35.4233C134.923 35.8547 135.244 36.2127 135.651 36.4976C136.066 36.7824 136.534 36.994 137.055 37.1323C137.584 37.2625 138.133 37.3276 138.703 37.3276C139.525 37.3276 140.22 37.2137 140.79 36.9858C141.36 36.758 141.791 36.4325 142.084 36.0093C142.385 35.5861 142.536 35.0856 142.536 34.5078ZM153.046 39.2441C152.126 39.2441 151.292 39.0895 150.543 38.7803C149.803 38.4629 149.164 38.0194 148.627 37.4497C148.098 36.88 147.691 36.2046 147.406 35.4233C147.121 34.6421 146.979 33.7876 146.979 32.8599V32.3472C146.979 31.2729 147.138 30.3167 147.455 29.4785C147.772 28.6322 148.204 27.916 148.749 27.3301C149.294 26.7441 149.913 26.3006 150.604 25.9995C151.296 25.6984 152.012 25.5479 152.753 25.5479C153.697 25.5479 154.511 25.7106 155.194 26.0361C155.886 26.3617 156.452 26.8174 156.891 27.4033C157.331 27.9811 157.656 28.6647 157.868 29.4541C158.079 30.2354 158.185 31.0898 158.185 32.0176V33.0308H148.322V31.1875H155.927V31.0166C155.894 30.4307 155.772 29.861 155.561 29.3076C155.357 28.7542 155.032 28.2985 154.584 27.9404C154.136 27.5824 153.526 27.4033 152.753 27.4033C152.24 27.4033 151.768 27.5132 151.337 27.7329C150.906 27.9445 150.535 28.2619 150.226 28.6851C149.917 29.1082 149.677 29.625 149.506 30.2354C149.335 30.8457 149.25 31.5496 149.25 32.3472V32.8599C149.25 33.4865 149.335 34.0765 149.506 34.6299C149.685 35.1751 149.941 35.6553 150.275 36.0703C150.617 36.4854 151.028 36.8109 151.508 37.0469C151.996 37.2829 152.549 37.4009 153.168 37.4009C153.965 37.4009 154.641 37.2381 155.194 36.9126C155.748 36.5871 156.232 36.1517 156.647 35.6064L158.014 36.6929C157.729 37.1242 157.367 37.5352 156.928 37.9258C156.488 38.3164 155.947 38.6338 155.304 38.8779C154.669 39.1221 153.917 39.2441 153.046 39.2441ZM163.275 20.25V39H161.005V20.25H163.275ZM172.382 39.2441C171.462 39.2441 170.628 39.0895 169.879 38.7803C169.139 38.4629 168.5 38.0194 167.963 37.4497C167.434 36.88 167.027 36.2046 166.742 35.4233C166.457 34.6421 166.315 33.7876 166.315 32.8599V32.3472C166.315 31.2729 166.474 30.3167 166.791 29.4785C167.108 28.6322 167.54 27.916 168.085 27.3301C168.63 26.7441 169.249 26.3006 169.94 25.9995C170.632 25.6984 171.348 25.5479 172.089 25.5479C173.033 25.5479 173.847 25.7106 174.53 26.0361C175.222 26.3617 175.788 26.8174 176.227 27.4033C176.667 27.9811 176.992 28.6647 177.204 29.4541C177.415 30.2354 177.521 31.0898 177.521 32.0176V33.0308H167.658V31.1875H175.263V31.0166C175.23 30.4307 175.108 29.861 174.896 29.3076C174.693 28.7542 174.368 28.2985 173.92 27.9404C173.472 27.5824 172.862 27.4033 172.089 27.4033C171.576 27.4033 171.104 27.5132 170.673 27.7329C170.242 27.9445 169.871 28.2619 169.562 28.6851C169.253 29.1082 169.013 29.625 168.842 30.2354C168.671 30.8457 168.585 31.5496 168.585 32.3472V32.8599C168.585 33.4865 168.671 34.0765 168.842 34.6299C169.021 35.1751 169.277 35.6553 169.611 36.0703C169.953 36.4854 170.364 36.8109 170.844 37.0469C171.332 37.2829 171.885 37.4009 172.504 37.4009C173.301 37.4009 173.977 37.2381 174.53 36.9126C175.084 36.5871 175.568 36.1517 175.983 35.6064L177.35 36.6929C177.065 37.1242 176.703 37.5352 176.264 37.9258C175.824 38.3164 175.283 38.6338 174.64 38.8779C174.005 39.1221 173.253 39.2441 172.382 39.2441ZM185.443 37.3887C185.98 37.3887 186.477 37.2788 186.933 37.0591C187.388 36.8394 187.763 36.5382 188.056 36.1558C188.349 35.7651 188.515 35.3216 188.556 34.8252H190.705C190.664 35.6064 190.399 36.3348 189.911 37.0103C189.431 37.6776 188.8 38.2188 188.019 38.6338C187.238 39.0407 186.379 39.2441 185.443 39.2441C184.451 39.2441 183.584 39.0692 182.843 38.7192C182.111 38.3693 181.5 37.8892 181.012 37.2788C180.532 36.6685 180.17 35.9686 179.926 35.1792C179.69 34.3817 179.572 33.5394 179.572 32.6523V32.1396C179.572 31.2526 179.69 30.4144 179.926 29.625C180.17 28.8275 180.532 28.1235 181.012 27.5132C181.5 26.9028 182.111 26.4227 182.843 26.0728C183.584 25.7228 184.451 25.5479 185.443 25.5479C186.477 25.5479 187.38 25.7594 188.153 26.1826C188.926 26.5977 189.533 27.1673 189.972 27.8916C190.42 28.6077 190.664 29.4215 190.705 30.333H188.556C188.515 29.7878 188.361 29.2954 188.092 28.856C187.832 28.4165 187.474 28.0666 187.018 27.8062C186.57 27.5376 186.046 27.4033 185.443 27.4033C184.752 27.4033 184.17 27.5417 183.698 27.8184C183.234 28.0869 182.864 28.4531 182.587 28.917C182.318 29.3727 182.123 29.8813 182.001 30.4429C181.887 30.9963 181.83 31.5618 181.83 32.1396V32.6523C181.83 33.2301 181.887 33.7998 182.001 34.3613C182.115 34.9229 182.306 35.4315 182.575 35.8872C182.851 36.3429 183.222 36.7091 183.686 36.9858C184.158 37.2544 184.743 37.3887 185.443 37.3887ZM198.773 25.792V27.5254H191.632V25.792H198.773ZM194.049 22.5815H196.308V35.7285C196.308 36.1761 196.377 36.5138 196.515 36.7417C196.653 36.9696 196.833 37.1201 197.052 37.1934C197.272 37.2666 197.508 37.3032 197.76 37.3032C197.947 37.3032 198.143 37.2869 198.346 37.2544C198.558 37.2137 198.716 37.1812 198.822 37.1567L198.834 39C198.655 39.057 198.419 39.1099 198.126 39.1587C197.842 39.2157 197.496 39.2441 197.089 39.2441C196.535 39.2441 196.027 39.1343 195.563 38.9146C195.099 38.6948 194.729 38.3286 194.452 37.8159C194.184 37.2951 194.049 36.5952 194.049 35.7163V22.5815ZM215.412 36.7417V29.9424C215.412 29.4215 215.306 28.9699 215.094 28.5874C214.891 28.1968 214.582 27.8957 214.167 27.6841C213.751 27.4725 213.239 27.3667 212.628 27.3667C212.059 27.3667 211.558 27.4644 211.127 27.6597C210.704 27.855 210.37 28.1113 210.126 28.4287C209.89 28.7461 209.772 29.0879 209.772 29.4541H207.514C207.514 28.9821 207.636 28.5142 207.88 28.0503C208.124 27.5864 208.474 27.1673 208.93 26.793C209.394 26.4105 209.947 26.1094 210.59 25.8896C211.241 25.6618 211.965 25.5479 212.763 25.5479C213.723 25.5479 214.569 25.7106 215.302 26.0361C216.042 26.3617 216.62 26.854 217.035 27.5132C217.458 28.1642 217.67 28.9821 217.67 29.9668V36.1191C217.67 36.5586 217.707 37.0265 217.78 37.5229C217.861 38.0194 217.979 38.4466 218.134 38.8047V39H215.778C215.664 38.7396 215.574 38.3937 215.509 37.9624C215.444 37.5229 215.412 37.116 215.412 36.7417ZM215.802 30.9922L215.827 32.5791H213.544C212.901 32.5791 212.327 32.632 211.823 32.7378C211.318 32.8354 210.895 32.986 210.553 33.1895C210.211 33.3929 209.951 33.6493 209.772 33.9585C209.593 34.2596 209.503 34.6136 209.503 35.0205C209.503 35.4355 209.597 35.814 209.784 36.1558C209.971 36.4976 210.252 36.7702 210.626 36.9736C211.009 37.1689 211.477 37.2666 212.03 37.2666C212.722 37.2666 213.332 37.1201 213.861 36.8271C214.39 36.5342 214.809 36.1761 215.119 35.7529C215.436 35.3298 215.607 34.9188 215.631 34.52L216.596 35.6064C216.539 35.9482 216.384 36.3267 216.132 36.7417C215.88 37.1567 215.542 37.5555 215.119 37.938C214.704 38.3123 214.207 38.6257 213.629 38.8779C213.06 39.1221 212.417 39.2441 211.701 39.2441C210.806 39.2441 210.02 39.0692 209.345 38.7192C208.677 38.3693 208.157 37.9014 207.782 37.3154C207.416 36.7214 207.233 36.0581 207.233 35.3257C207.233 34.6177 207.371 33.9951 207.648 33.458C207.925 32.9128 208.323 32.4611 208.844 32.103C209.365 31.7368 209.992 31.4601 210.724 31.2729C211.457 31.0858 212.274 30.9922 213.178 30.9922H215.802ZM232.953 25.792V27.5254H225.812V25.792H232.953ZM228.229 22.5815H230.487V35.7285C230.487 36.1761 230.556 36.5138 230.695 36.7417C230.833 36.9696 231.012 37.1201 231.232 37.1934C231.452 37.2666 231.688 37.3032 231.94 37.3032C232.127 37.3032 232.322 37.2869 232.526 37.2544C232.737 37.2137 232.896 37.1812 233.002 37.1567L233.014 39C232.835 39.057 232.599 39.1099 232.306 39.1587C232.021 39.2157 231.675 39.2441 231.269 39.2441C230.715 39.2441 230.207 39.1343 229.743 38.9146C229.279 38.6948 228.909 38.3286 228.632 37.8159C228.363 37.2951 228.229 36.5952 228.229 35.7163V22.5815ZM243.39 36.7417V29.9424C243.39 29.4215 243.284 28.9699 243.073 28.5874C242.869 28.1968 242.56 27.8957 242.145 27.6841C241.73 27.4725 241.217 27.3667 240.607 27.3667C240.037 27.3667 239.537 27.4644 239.105 27.6597C238.682 27.855 238.349 28.1113 238.104 28.4287C237.868 28.7461 237.75 29.0879 237.75 29.4541H235.492C235.492 28.9821 235.614 28.5142 235.858 28.0503C236.103 27.5864 236.452 27.1673 236.908 26.793C237.372 26.4105 237.925 26.1094 238.568 25.8896C239.219 25.6618 239.944 25.5479 240.741 25.5479C241.701 25.5479 242.548 25.7106 243.28 26.0361C244.021 26.3617 244.599 26.854 245.014 27.5132C245.437 28.1642 245.648 28.9821 245.648 29.9668V36.1191C245.648 36.5586 245.685 37.0265 245.758 37.5229C245.84 38.0194 245.958 38.4466 246.112 38.8047V39H243.756C243.642 38.7396 243.553 38.3937 243.488 37.9624C243.423 37.5229 243.39 37.116 243.39 36.7417ZM243.781 30.9922L243.805 32.5791H241.522C240.88 32.5791 240.306 32.632 239.801 32.7378C239.297 32.8354 238.874 32.986 238.532 33.1895C238.19 33.3929 237.93 33.6493 237.75 33.9585C237.571 34.2596 237.482 34.6136 237.482 35.0205C237.482 35.4355 237.576 35.814 237.763 36.1558C237.95 36.4976 238.231 36.7702 238.605 36.9736C238.987 37.1689 239.455 37.2666 240.009 37.2666C240.701 37.2666 241.311 37.1201 241.84 36.8271C242.369 36.5342 242.788 36.1761 243.097 35.7529C243.415 35.3298 243.585 34.9188 243.61 34.52L244.574 35.6064C244.517 35.9482 244.363 36.3267 244.11 36.7417C243.858 37.1567 243.52 37.5555 243.097 37.938C242.682 38.3123 242.186 38.6257 241.608 38.8779C241.038 39.1221 240.395 39.2441 239.679 39.2441C238.784 39.2441 237.999 39.0692 237.323 38.7192C236.656 38.3693 236.135 37.9014 235.761 37.3154C235.395 36.7214 235.211 36.0581 235.211 35.3257C235.211 34.6177 235.35 33.9951 235.626 33.458C235.903 32.9128 236.302 32.4611 236.823 32.103C237.344 31.7368 237.97 31.4601 238.703 31.2729C239.435 31.0858 240.253 30.9922 241.156 30.9922H243.781ZM249.188 20.25H251.459V36.4365L251.264 39H249.188V20.25ZM260.382 32.2861V32.5425C260.382 33.5028 260.268 34.3939 260.041 35.2158C259.813 36.0296 259.479 36.7376 259.04 37.3398C258.6 37.9421 258.063 38.41 257.428 38.7437C256.793 39.0773 256.065 39.2441 255.243 39.2441C254.405 39.2441 253.668 39.1017 253.034 38.8169C252.407 38.5239 251.878 38.1048 251.447 37.5596C251.015 37.0143 250.67 36.3551 250.409 35.582C250.157 34.8089 249.982 33.9382 249.884 32.9697V31.8467C249.982 30.8701 250.157 29.9953 250.409 29.2222C250.67 28.4491 251.015 27.7899 251.447 27.2446C251.878 26.6912 252.407 26.2721 253.034 25.9873C253.66 25.6943 254.389 25.5479 255.219 25.5479C256.049 25.5479 256.785 25.7106 257.428 26.0361C258.071 26.3535 258.608 26.8092 259.04 27.4033C259.479 27.9974 259.813 28.7095 260.041 29.5396C260.268 30.3615 260.382 31.277 260.382 32.2861ZM258.112 32.5425V32.2861C258.112 31.627 258.051 31.0085 257.929 30.4307C257.807 29.8447 257.611 29.332 257.343 28.8926C257.074 28.445 256.72 28.0951 256.281 27.8428C255.841 27.5824 255.3 27.4521 254.657 27.4521C254.088 27.4521 253.591 27.5498 253.168 27.7451C252.753 27.9404 252.399 28.2049 252.106 28.5386C251.813 28.8641 251.573 29.2384 251.386 29.6616C251.207 30.0767 251.072 30.508 250.983 30.9556V33.8975C251.113 34.4671 251.325 35.0164 251.618 35.5454C251.919 36.0662 252.318 36.4935 252.814 36.8271C253.319 37.1608 253.941 37.3276 254.682 37.3276C255.292 37.3276 255.813 37.2056 256.244 36.9614C256.684 36.7091 257.038 36.3633 257.306 35.9238C257.583 35.4844 257.786 34.9757 257.917 34.3979C258.047 33.8201 258.112 33.2017 258.112 32.5425ZM274.97 25.792V27.5254H267.829V25.792H274.97ZM270.246 22.5815H272.504V35.7285C272.504 36.1761 272.573 36.5138 272.711 36.7417C272.85 36.9696 273.029 37.1201 273.249 37.1934C273.468 37.2666 273.704 37.3032 273.957 37.3032C274.144 37.3032 274.339 37.2869 274.542 37.2544C274.754 37.2137 274.913 37.1812 275.019 37.1567L275.031 39C274.852 39.057 274.616 39.1099 274.323 39.1587C274.038 39.2157 273.692 39.2441 273.285 39.2441C272.732 39.2441 272.223 39.1343 271.759 38.9146C271.295 38.6948 270.925 38.3286 270.648 37.8159C270.38 37.2951 270.246 36.5952 270.246 35.7163V22.5815ZM276.776 32.5425V32.2617C276.776 31.3096 276.915 30.4266 277.191 29.6128C277.468 28.7909 277.867 28.0788 278.388 27.4766C278.909 26.8662 279.539 26.3942 280.28 26.0605C281.02 25.7188 281.85 25.5479 282.77 25.5479C283.698 25.5479 284.532 25.7188 285.272 26.0605C286.021 26.3942 286.656 26.8662 287.177 27.4766C287.706 28.0788 288.109 28.7909 288.385 29.6128C288.662 30.4266 288.8 31.3096 288.8 32.2617V32.5425C288.8 33.4946 288.662 34.3776 288.385 35.1914C288.109 36.0052 287.706 36.7173 287.177 37.3276C286.656 37.9299 286.025 38.4019 285.285 38.7437C284.552 39.0773 283.722 39.2441 282.794 39.2441C281.867 39.2441 281.033 39.0773 280.292 38.7437C279.551 38.4019 278.917 37.9299 278.388 37.3276C277.867 36.7173 277.468 36.0052 277.191 35.1914C276.915 34.3776 276.776 33.4946 276.776 32.5425ZM279.035 32.2617V32.5425C279.035 33.2017 279.112 33.8242 279.267 34.4102C279.421 34.988 279.653 35.5007 279.962 35.9482C280.28 36.3958 280.674 36.7498 281.146 37.0103C281.618 37.2625 282.168 37.3887 282.794 37.3887C283.413 37.3887 283.954 37.2625 284.418 37.0103C284.89 36.7498 285.281 36.3958 285.59 35.9482C285.899 35.5007 286.131 34.988 286.286 34.4102C286.448 33.8242 286.53 33.2017 286.53 32.5425V32.2617C286.53 31.6107 286.448 30.9963 286.286 30.4185C286.131 29.8325 285.895 29.3158 285.578 28.8682C285.268 28.4124 284.878 28.0544 284.406 27.7939C283.942 27.5335 283.397 27.4033 282.77 27.4033C282.152 27.4033 281.606 27.5335 281.134 27.7939C280.67 28.0544 280.28 28.4124 279.962 28.8682C279.653 29.3158 279.421 29.8325 279.267 30.4185C279.112 30.9963 279.035 31.6107 279.035 32.2617ZM305.524 35.4966C305.524 35.1711 305.451 34.87 305.304 34.5933C305.166 34.3084 304.877 34.0521 304.438 33.8242C304.006 33.5882 303.355 33.3848 302.484 33.2139C301.752 33.0592 301.089 32.8761 300.495 32.6646C299.909 32.453 299.408 32.1966 298.993 31.8955C298.586 31.5944 298.273 31.2404 298.053 30.8335C297.833 30.4266 297.724 29.9505 297.724 29.4053C297.724 28.8844 297.838 28.3921 298.065 27.9282C298.301 27.4644 298.631 27.0534 299.054 26.6953C299.486 26.3372 300.002 26.0565 300.604 25.853C301.207 25.6496 301.878 25.5479 302.619 25.5479C303.677 25.5479 304.58 25.735 305.329 26.1094C306.077 26.4837 306.651 26.9842 307.05 27.6108C307.449 28.2293 307.648 28.917 307.648 29.6738H305.39C305.39 29.3076 305.28 28.9536 305.06 28.6118C304.848 28.2619 304.535 27.973 304.12 27.7451C303.713 27.5173 303.213 27.4033 302.619 27.4033C301.992 27.4033 301.483 27.501 301.093 27.6963C300.71 27.8835 300.43 28.1235 300.25 28.4165C300.08 28.7095 299.994 29.0187 299.994 29.3442C299.994 29.5884 300.035 29.8081 300.116 30.0034C300.206 30.1906 300.36 30.3656 300.58 30.5283C300.8 30.6829 301.109 30.8294 301.508 30.9678C301.907 31.1061 302.415 31.2445 303.034 31.3828C304.116 31.627 305.007 31.9199 305.707 32.2617C306.407 32.6035 306.928 33.0226 307.27 33.519C307.611 34.0155 307.782 34.6177 307.782 35.3257C307.782 35.9035 307.66 36.4325 307.416 36.9126C307.18 37.3927 306.834 37.8078 306.378 38.1577C305.931 38.4995 305.394 38.7681 304.767 38.9634C304.149 39.1506 303.453 39.2441 302.68 39.2441C301.516 39.2441 300.531 39.0366 299.726 38.6216C298.92 38.2065 298.31 37.6694 297.895 37.0103C297.479 36.3511 297.272 35.6553 297.272 34.9229H299.542C299.575 35.5413 299.754 36.0337 300.08 36.3999C300.405 36.758 300.804 37.0143 301.276 37.1689C301.748 37.3154 302.216 37.3887 302.68 37.3887C303.298 37.3887 303.815 37.3073 304.23 37.1445C304.653 36.9818 304.975 36.758 305.194 36.4731C305.414 36.1883 305.524 35.8628 305.524 35.4966ZM316.229 39.2441C315.31 39.2441 314.476 39.0895 313.727 38.7803C312.986 38.4629 312.348 38.0194 311.811 37.4497C311.282 36.88 310.875 36.2046 310.59 35.4233C310.305 34.6421 310.163 33.7876 310.163 32.8599V32.3472C310.163 31.2729 310.321 30.3167 310.639 29.4785C310.956 28.6322 311.387 27.916 311.933 27.3301C312.478 26.7441 313.096 26.3006 313.788 25.9995C314.48 25.6984 315.196 25.5479 315.937 25.5479C316.881 25.5479 317.694 25.7106 318.378 26.0361C319.07 26.3617 319.635 26.8174 320.075 27.4033C320.514 27.9811 320.84 28.6647 321.051 29.4541C321.263 30.2354 321.369 31.0898 321.369 32.0176V33.0308H311.505V31.1875H319.11V31.0166C319.078 30.4307 318.956 29.861 318.744 29.3076C318.541 28.7542 318.215 28.2985 317.768 27.9404C317.32 27.5824 316.71 27.4033 315.937 27.4033C315.424 27.4033 314.952 27.5132 314.521 27.7329C314.089 27.9445 313.719 28.2619 313.41 28.6851C313.1 29.1082 312.86 29.625 312.689 30.2354C312.519 30.8457 312.433 31.5496 312.433 32.3472V32.8599C312.433 33.4865 312.519 34.0765 312.689 34.6299C312.868 35.1751 313.125 35.6553 313.458 36.0703C313.8 36.4854 314.211 36.8109 314.691 37.0469C315.18 37.2829 315.733 37.4009 316.352 37.4009C317.149 37.4009 317.825 37.2381 318.378 36.9126C318.931 36.5871 319.416 36.1517 319.831 35.6064L321.198 36.6929C320.913 37.1242 320.551 37.5352 320.111 37.9258C319.672 38.3164 319.131 38.6338 318.488 38.8779C317.853 39.1221 317.1 39.2441 316.229 39.2441ZM329.486 39.2441C328.567 39.2441 327.733 39.0895 326.984 38.7803C326.243 38.4629 325.604 38.0194 325.067 37.4497C324.538 36.88 324.132 36.2046 323.847 35.4233C323.562 34.6421 323.419 33.7876 323.419 32.8599V32.3472C323.419 31.2729 323.578 30.3167 323.896 29.4785C324.213 28.6322 324.644 27.916 325.189 27.3301C325.735 26.7441 326.353 26.3006 327.045 25.9995C327.737 25.6984 328.453 25.5479 329.193 25.5479C330.137 25.5479 330.951 25.7106 331.635 26.0361C332.326 26.3617 332.892 26.8174 333.332 27.4033C333.771 27.9811 334.097 28.6647 334.308 29.4541C334.52 30.2354 334.625 31.0898 334.625 32.0176V33.0308H324.762V31.1875H332.367V31.0166C332.335 30.4307 332.213 29.861 332.001 29.3076C331.798 28.7542 331.472 28.2985 331.024 27.9404C330.577 27.5824 329.966 27.4033 329.193 27.4033C328.681 27.4033 328.209 27.5132 327.777 27.7329C327.346 27.9445 326.976 28.2619 326.667 28.6851C326.357 29.1082 326.117 29.625 325.946 30.2354C325.775 30.8457 325.69 31.5496 325.69 32.3472V32.8599C325.69 33.4865 325.775 34.0765 325.946 34.6299C326.125 35.1751 326.382 35.6553 326.715 36.0703C327.057 36.4854 327.468 36.8109 327.948 37.0469C328.437 37.2829 328.99 37.4009 329.608 37.4009C330.406 37.4009 331.081 37.2381 331.635 36.9126C332.188 36.5871 332.672 36.1517 333.087 35.6064L334.455 36.6929C334.17 37.1242 333.808 37.5352 333.368 37.9258C332.929 38.3164 332.388 38.6338 331.745 38.8779C331.11 39.1221 330.357 39.2441 329.486 39.2441ZM348.993 25.792V27.5254H341.852V25.792H348.993ZM344.269 22.5815H346.527V35.7285C346.527 36.1761 346.597 36.5138 346.735 36.7417C346.873 36.9696 347.052 37.1201 347.272 37.1934C347.492 37.2666 347.728 37.3032 347.98 37.3032C348.167 37.3032 348.362 37.2869 348.566 37.2544C348.778 37.2137 348.936 37.1812 349.042 37.1567L349.054 39C348.875 39.057 348.639 39.1099 348.346 39.1587C348.061 39.2157 347.715 39.2441 347.309 39.2441C346.755 39.2441 346.247 39.1343 345.783 38.9146C345.319 38.6948 344.949 38.3286 344.672 37.8159C344.403 37.2951 344.269 36.5952 344.269 35.7163V22.5815ZM353.9 20.25V39H351.642V20.25H353.9ZM353.363 31.8955L352.423 31.8589C352.431 30.9556 352.566 30.1214 352.826 29.3564C353.087 28.5833 353.453 27.9119 353.925 27.3423C354.397 26.7726 354.958 26.3332 355.609 26.0239C356.269 25.7065 356.997 25.5479 357.794 25.5479C358.445 25.5479 359.031 25.6374 359.552 25.8164C360.073 25.9873 360.517 26.264 360.883 26.6465C361.257 27.029 361.542 27.5254 361.737 28.1357C361.933 28.738 362.03 29.4744 362.03 30.3452V39H359.76V30.3208C359.76 29.6291 359.658 29.0757 359.455 28.6606C359.251 28.2375 358.954 27.9323 358.563 27.7451C358.173 27.5498 357.693 27.4521 357.123 27.4521C356.562 27.4521 356.049 27.5701 355.585 27.8062C355.129 28.0422 354.735 28.3677 354.401 28.7827C354.075 29.1978 353.819 29.6738 353.632 30.2109C353.453 30.7399 353.363 31.3014 353.363 31.8955ZM370.893 39.2441C369.973 39.2441 369.139 39.0895 368.39 38.7803C367.65 38.4629 367.011 38.0194 366.474 37.4497C365.945 36.88 365.538 36.2046 365.253 35.4233C364.968 34.6421 364.826 33.7876 364.826 32.8599V32.3472C364.826 31.2729 364.984 30.3167 365.302 29.4785C365.619 28.6322 366.05 27.916 366.596 27.3301C367.141 26.7441 367.759 26.3006 368.451 25.9995C369.143 25.6984 369.859 25.5479 370.6 25.5479C371.544 25.5479 372.357 25.7106 373.041 26.0361C373.733 26.3617 374.298 26.8174 374.738 27.4033C375.177 27.9811 375.503 28.6647 375.714 29.4541C375.926 30.2354 376.032 31.0898 376.032 32.0176V33.0308H366.168V31.1875H373.773V31.0166C373.741 30.4307 373.619 29.861 373.407 29.3076C373.204 28.7542 372.878 28.2985 372.431 27.9404C371.983 27.5824 371.373 27.4033 370.6 27.4033C370.087 27.4033 369.615 27.5132 369.184 27.7329C368.752 27.9445 368.382 28.2619 368.073 28.6851C367.764 29.1082 367.523 29.625 367.353 30.2354C367.182 30.8457 367.096 31.5496 367.096 32.3472V32.8599C367.096 33.4865 367.182 34.0765 367.353 34.6299C367.532 35.1751 367.788 35.6553 368.122 36.0703C368.463 36.4854 368.874 36.8109 369.354 37.0469C369.843 37.2829 370.396 37.4009 371.015 37.4009C371.812 37.4009 372.488 37.2381 373.041 36.9126C373.594 36.5871 374.079 36.1517 374.494 35.6064L375.861 36.6929C375.576 37.1242 375.214 37.5352 374.774 37.9258C374.335 38.3164 373.794 38.6338 373.151 38.8779C372.516 39.1221 371.763 39.2441 370.893 39.2441ZM390.155 37.3887C390.692 37.3887 391.189 37.2788 391.645 37.0591C392.1 36.8394 392.475 36.5382 392.768 36.1558C393.061 35.7651 393.227 35.3216 393.268 34.8252H395.417C395.376 35.6064 395.111 36.3348 394.623 37.0103C394.143 37.6776 393.512 38.2188 392.731 38.6338C391.95 39.0407 391.091 39.2441 390.155 39.2441C389.162 39.2441 388.296 39.0692 387.555 38.7192C386.823 38.3693 386.212 37.8892 385.724 37.2788C385.244 36.6685 384.882 35.9686 384.638 35.1792C384.402 34.3817 384.284 33.5394 384.284 32.6523V32.1396C384.284 31.2526 384.402 30.4144 384.638 29.625C384.882 28.8275 385.244 28.1235 385.724 27.5132C386.212 26.9028 386.823 26.4227 387.555 26.0728C388.296 25.7228 389.162 25.5479 390.155 25.5479C391.189 25.5479 392.092 25.7594 392.865 26.1826C393.638 26.5977 394.245 27.1673 394.684 27.8916C395.132 28.6077 395.376 29.4215 395.417 30.333H393.268C393.227 29.7878 393.073 29.2954 392.804 28.856C392.544 28.4165 392.186 28.0666 391.73 27.8062C391.282 27.5376 390.757 27.4033 390.155 27.4033C389.464 27.4033 388.882 27.5417 388.41 27.8184C387.946 28.0869 387.576 28.4531 387.299 28.917C387.03 29.3727 386.835 29.8813 386.713 30.4429C386.599 30.9963 386.542 31.5618 386.542 32.1396V32.6523C386.542 33.2301 386.599 33.7998 386.713 34.3613C386.827 34.9229 387.018 35.4315 387.287 35.8872C387.563 36.3429 387.934 36.7091 388.397 36.9858C388.869 37.2544 389.455 37.3887 390.155 37.3887ZM397.357 32.5425V32.2617C397.357 31.3096 397.496 30.4266 397.772 29.6128C398.049 28.7909 398.448 28.0788 398.969 27.4766C399.49 26.8662 400.12 26.3942 400.861 26.0605C401.601 25.7188 402.431 25.5479 403.351 25.5479C404.279 25.5479 405.113 25.7188 405.854 26.0605C406.602 26.3942 407.237 26.8662 407.758 27.4766C408.287 28.0788 408.69 28.7909 408.966 29.6128C409.243 30.4266 409.381 31.3096 409.381 32.2617V32.5425C409.381 33.4946 409.243 34.3776 408.966 35.1914C408.69 36.0052 408.287 36.7173 407.758 37.3276C407.237 37.9299 406.606 38.4019 405.866 38.7437C405.133 39.0773 404.303 39.2441 403.375 39.2441C402.448 39.2441 401.614 39.0773 400.873 38.7437C400.132 38.4019 399.498 37.9299 398.969 37.3276C398.448 36.7173 398.049 36.0052 397.772 35.1914C397.496 34.3776 397.357 33.4946 397.357 32.5425ZM399.616 32.2617V32.5425C399.616 33.2017 399.693 33.8242 399.848 34.4102C400.002 34.988 400.234 35.5007 400.543 35.9482C400.861 36.3958 401.256 36.7498 401.728 37.0103C402.2 37.2625 402.749 37.3887 403.375 37.3887C403.994 37.3887 404.535 37.2625 404.999 37.0103C405.471 36.7498 405.862 36.3958 406.171 35.9482C406.48 35.5007 406.712 34.988 406.867 34.4102C407.029 33.8242 407.111 33.2017 407.111 32.5425V32.2617C407.111 31.6107 407.029 30.9963 406.867 30.4185C406.712 29.8325 406.476 29.3158 406.159 28.8682C405.849 28.4124 405.459 28.0544 404.987 27.7939C404.523 27.5335 403.978 27.4033 403.351 27.4033C402.733 27.4033 402.187 27.5335 401.715 27.7939C401.251 28.0544 400.861 28.4124 400.543 28.8682C400.234 29.3158 400.002 29.8325 399.848 30.4185C399.693 30.9963 399.616 31.6107 399.616 32.2617ZM414.472 28.6118V39H412.213V25.792H414.35L414.472 28.6118ZM413.935 31.8955L412.995 31.8589C413.003 30.9556 413.137 30.1214 413.397 29.3564C413.658 28.5833 414.024 27.9119 414.496 27.3423C414.968 26.7726 415.53 26.3332 416.181 26.0239C416.84 25.7065 417.568 25.5479 418.366 25.5479C419.017 25.5479 419.603 25.6374 420.124 25.8164C420.644 25.9873 421.088 26.264 421.454 26.6465C421.828 27.029 422.113 27.5254 422.309 28.1357C422.504 28.738 422.602 29.4744 422.602 30.3452V39H420.331V30.3208C420.331 29.6291 420.229 29.0757 420.026 28.6606C419.822 28.2375 419.525 27.9323 419.135 27.7451C418.744 27.5498 418.264 27.4521 417.694 27.4521C417.133 27.4521 416.62 27.5701 416.156 27.8062C415.701 28.0422 415.306 28.3677 414.972 28.7827C414.647 29.1978 414.39 29.6738 414.203 30.2109C414.024 30.7399 413.935 31.3014 413.935 31.8955ZM431.562 25.792V27.5254H424.42V25.792H431.562ZM426.837 22.5815H429.096V35.7285C429.096 36.1761 429.165 36.5138 429.303 36.7417C429.442 36.9696 429.621 37.1201 429.84 37.1934C430.06 37.2666 430.296 37.3032 430.548 37.3032C430.736 37.3032 430.931 37.2869 431.134 37.2544C431.346 37.2137 431.505 37.1812 431.61 37.1567L431.623 39C431.444 39.057 431.208 39.1099 430.915 39.1587C430.63 39.2157 430.284 39.2441 429.877 39.2441C429.324 39.2441 428.815 39.1343 428.351 38.9146C427.887 38.6948 427.517 38.3286 427.24 37.8159C426.972 37.2951 426.837 36.5952 426.837 35.7163V22.5815ZM439.691 39.2441C438.772 39.2441 437.938 39.0895 437.189 38.7803C436.448 38.4629 435.81 38.0194 435.272 37.4497C434.743 36.88 434.337 36.2046 434.052 35.4233C433.767 34.6421 433.625 33.7876 433.625 32.8599V32.3472C433.625 31.2729 433.783 30.3167 434.101 29.4785C434.418 28.6322 434.849 27.916 435.395 27.3301C435.94 26.7441 436.558 26.3006 437.25 25.9995C437.942 25.6984 438.658 25.5479 439.398 25.5479C440.342 25.5479 441.156 25.7106 441.84 26.0361C442.532 26.3617 443.097 26.8174 443.537 27.4033C443.976 27.9811 444.302 28.6647 444.513 29.4541C444.725 30.2354 444.831 31.0898 444.831 32.0176V33.0308H434.967V31.1875H442.572V31.0166C442.54 30.4307 442.418 29.861 442.206 29.3076C442.003 28.7542 441.677 28.2985 441.229 27.9404C440.782 27.5824 440.172 27.4033 439.398 27.4033C438.886 27.4033 438.414 27.5132 437.982 27.7329C437.551 27.9445 437.181 28.2619 436.872 28.6851C436.562 29.1082 436.322 29.625 436.151 30.2354C435.98 30.8457 435.895 31.5496 435.895 32.3472V32.8599C435.895 33.4865 435.98 34.0765 436.151 34.6299C436.33 35.1751 436.587 35.6553 436.92 36.0703C437.262 36.4854 437.673 36.8109 438.153 37.0469C438.642 37.2829 439.195 37.4009 439.813 37.4009C440.611 37.4009 441.286 37.2381 441.84 36.9126C442.393 36.5871 442.877 36.1517 443.292 35.6064L444.66 36.6929C444.375 37.1242 444.013 37.5352 443.573 37.9258C443.134 38.3164 442.593 38.6338 441.95 38.8779C441.315 39.1221 440.562 39.2441 439.691 39.2441ZM449.726 28.6118V39H447.467V25.792H449.604L449.726 28.6118ZM449.188 31.8955L448.249 31.8589C448.257 30.9556 448.391 30.1214 448.651 29.3564C448.912 28.5833 449.278 27.9119 449.75 27.3423C450.222 26.7726 450.784 26.3332 451.435 26.0239C452.094 25.7065 452.822 25.5479 453.62 25.5479C454.271 25.5479 454.857 25.6374 455.377 25.8164C455.898 25.9873 456.342 26.264 456.708 26.6465C457.082 27.029 457.367 27.5254 457.562 28.1357C457.758 28.738 457.855 29.4744 457.855 30.3452V39H455.585V30.3208C455.585 29.6291 455.483 29.0757 455.28 28.6606C455.076 28.2375 454.779 27.9323 454.389 27.7451C453.998 27.5498 453.518 27.4521 452.948 27.4521C452.387 27.4521 451.874 27.5701 451.41 27.8062C450.954 28.0422 450.56 28.3677 450.226 28.7827C449.901 29.1978 449.644 29.6738 449.457 30.2109C449.278 30.7399 449.188 31.3014 449.188 31.8955ZM466.815 25.792V27.5254H459.674V25.792H466.815ZM462.091 22.5815H464.35V35.7285C464.35 36.1761 464.419 36.5138 464.557 36.7417C464.695 36.9696 464.875 37.1201 465.094 37.1934C465.314 37.2666 465.55 37.3032 465.802 37.3032C465.989 37.3032 466.185 37.2869 466.388 37.2544C466.6 37.2137 466.758 37.1812 466.864 37.1567L466.876 39C466.697 39.057 466.461 39.1099 466.168 39.1587C465.884 39.2157 465.538 39.2441 465.131 39.2441C464.577 39.2441 464.069 39.1343 463.605 38.9146C463.141 38.6948 462.771 38.3286 462.494 37.8159C462.226 37.2951 462.091 36.5952 462.091 35.7163V22.5815Z" fill="#656769"/>
</svg>
