<svg width="39" height="39" viewBox="0 0 39 39" fill="none" xmlns="http://www.w3.org/2000/svg">
<path d="M24.2607 27.8479C24.2607 27.8479 25.878 28.3073 26.6867 29.9246C26.6867 29.9246 28.4594 25.8812 30.7431 25.0725M21.8347 33.9648L21.026 34.7735L20.2173 35.5822H19.4086H18.5999C17.6489 35.6129 16.0104 35.2943 15.9134 35.2248C15.5883 34.9903 15.3942 34.4355 15.0384 33.368L14.4982 31.7555C14.2507 31.1102 13.8043 30.5619 13.2237 30.1899L12.6803 29.8761C12.0023 29.5283 11.2233 29.4309 10.4806 29.6012L8.50744 30.1575C7.34616 30.4875 6.76552 30.6525 6.2512 30.4422C5.73849 30.2336 5.43604 29.7095 4.83276 28.6615L4.03378 27.277C3.4677 26.2953 3.18466 25.8052 3.23965 25.2812C3.29464 24.7571 3.67311 24.3366 4.43165 23.494L6.09917 21.6307C6.50513 21.1148 6.79625 20.2155 6.79625 19.4069C6.79625 18.5998 6.50674 17.7005 6.09755 17.183L4.43165 15.3198C3.67311 14.4771 3.29464 14.055 3.24127 13.5326C3.18466 13.0101 3.4677 12.5185 4.03378 11.5367L4.83276 10.1506C5.43604 9.10419 5.73849 8.58016 6.2512 8.37152C6.76552 8.16126 7.34616 8.32623 8.50744 8.65618L10.4806 9.21255C11.223 9.384 12.001 9.28695 12.6786 8.93922L13.2237 8.62383C13.8047 8.25128 14.2513 7.70268 14.4982 7.05821L15.0384 5.44731C15.3942 4.37984 15.5705 3.84611 15.9943 3.53881C16.4164 3.23474 16.9776 3.23474 18.1017 3.23474H19.9034C21.0259 3.23474 21.5888 3.23474 22.0141 3.53719C22.4346 3.84287 22.6125 4.37661 22.9684 5.44407L23.5086 7.0566C23.7555 7.70107 24.2021 8.24966 24.7831 8.62221L25.3281 8.93598C26.0058 9.28534 26.7821 9.38238 27.5261 9.21094L29.4993 8.65456C30.6606 8.32462 31.2412 8.15964 31.7556 8.3699C32.2683 8.57854 32.5707 9.10257 33.174 10.1506L33.973 11.5351C34.5391 12.5168 34.8221 13.0085 34.7671 13.5309C34.8383 14.0695 33.5898 15.2761 32.3476 16.1737C31.1054 17.0714 30.7302 17.7911 30.7431 18.5998C30.7559 19.4085 30.7302 19.4085 30.7302 19.4085" stroke="#7F4BC1" stroke-width="2.14732" stroke-linecap="round" stroke-linejoin="round"/>
<path d="M18.6 25.0692C16.6592 25.0692 15.3026 23.8691 14.8669 23.2691C13.8771 22.124 13.353 21.0322 13.353 19.3097C13.353 16.1817 16.012 13.7783 18.9233 13.7395C20.4759 13.7395 21.5434 14.1665 22.902 15.2728C23.6245 16.1122 25.0695 17.791 24.2608 20.2171M35.5822 27.4936C35.5822 29.6384 34.7302 31.6953 33.2136 33.2119C31.697 34.7285 29.6401 35.5805 27.4953 35.5805C25.3506 35.5805 23.2936 34.7285 21.7771 33.2119C20.2605 31.6953 19.4085 29.6384 19.4085 27.4936C19.4085 25.3489 20.2605 23.2919 21.7771 21.7754C23.2936 20.2588 25.3506 19.4068 27.4953 19.4068C29.6401 19.4068 31.697 20.2588 33.2136 21.7754C34.7302 23.2919 35.5822 25.3489 35.5822 27.4936Z" stroke="#7F4BC1" stroke-width="2.14732" stroke-linecap="round" stroke-linejoin="round"/>
</svg>
