<svg width="48" height="46" viewBox="0 0 48 46" fill="none" xmlns="http://www.w3.org/2000/svg">
<path d="M41.6248 13.5125L40.1998 12.1469L26.9998 24.7969C25.3498 26.3782 22.5748 26.3782 20.9248 24.7969L7.72481 12.2188L6.2998 13.5844L16.1248 23L6.2998 32.4157L7.72481 33.7813L17.5498 24.3657L19.4998 26.2344C20.6998 27.3844 22.2748 28.0313 23.9248 28.0313C25.5748 28.0313 27.1498 27.3844 28.3498 26.2344L30.2998 24.3657L40.1248 33.7813L41.5498 32.4157L31.7248 23L41.6248 13.5125Z" fill="#7F4BC1"/>
<path d="M38.85 36.225H9.22495C7.49995 36.225 6.07495 34.8594 6.07495 33.2063V12.9375C6.07495 11.2844 7.49995 9.91876 9.22495 9.91876H38.85C40.575 9.91876 42 11.2844 42 12.9375V33.2063C42 34.8594 40.575 36.225 38.85 36.225ZM9.14995 11.8594C8.54995 11.8594 8.09995 12.2906 8.09995 12.8656V33.1344C8.09995 33.7094 8.54995 34.1406 9.14995 34.1406H38.775C39.375 34.1406 39.825 33.7094 39.825 33.1344V12.8656C39.825 12.2906 39.375 11.8594 38.775 11.8594H9.14995Z" fill="#7F4BC1"/>
</svg>
