<svg width="24" height="25" viewBox="0 0 24 25" fill="none" xmlns="http://www.w3.org/2000/svg">
<path d="M3.28196 21.8631L7.55996 17.5851M7.55996 17.5851L10.753 14.3911M7.55996 17.5851C7.11896 17.3111 6.70796 17.0091 6.32796 16.6901C4.68396 15.3121 3.60096 13.6331 3.09096 12.7301C2.98096 12.5351 2.92496 12.4371 2.89296 12.2851C2.86967 12.1501 2.86967 12.0121 2.89296 11.8771C2.92496 11.7241 2.97996 11.6271 3.08996 11.4311C4.05196 9.73005 7.04396 5.27105 12 5.27105C13.717 5.27105 15.2 5.80705 16.441 6.57705C16.882 6.85005 17.293 7.15205 17.673 7.47105M21.782 3.36305L17.673 7.47105M17.673 7.47105L14.31 10.8341M14.31 10.8341C14.0661 10.3842 13.6968 10.0149 13.247 9.77105C12.9436 9.60729 12.611 9.50489 12.268 9.46968C11.9251 9.43448 11.5786 9.46716 11.2483 9.56587C10.918 9.66458 10.6104 9.82738 10.343 10.045C10.0756 10.2626 9.85371 10.5307 9.68996 10.8341C9.5262 11.1374 9.42379 11.47 9.38859 11.813C9.35338 12.1559 9.38607 12.5024 9.48478 12.8327C9.58349 13.163 9.74628 13.4706 9.96388 13.738C10.1815 14.0054 10.4496 14.2273 10.753 14.3911M14.31 10.8341L10.753 14.3911M19.74 9.66005C20.268 10.3541 20.659 10.9881 20.91 11.4331C21.02 11.6271 21.075 11.7251 21.107 11.8771C21.13 11.9891 21.13 12.1731 21.107 12.2851C21.075 12.4371 21.02 12.5351 20.91 12.7291C19.95 14.4311 16.96 18.8911 12 18.8911C11.524 18.8897 11.066 18.8507 10.626 18.7741" stroke="#8F8D97" stroke-width="1.5" stroke-linecap="round" stroke-linejoin="round"/>
</svg>
