<svg width="36" height="42" viewBox="0 0 36 42" fill="none" xmlns="http://www.w3.org/2000/svg">
<path d="M21.2 21.0931L26.2861 16.835M26.2861 16.835L31.3721 12.577C33.2646 8.98129 29.7162 8.08236 28.5334 9.02855L14.4202 20.5967C14.3058 20.6904 14.1294 20.5959 14.1354 20.4482C14.1962 18.9542 13.7965 15.8369 11.7376 12.577C9.46666 8.98127 7.00644 10.6056 6.06021 11.8673C6.84874 13.3655 7.91733 15.5509 7.24301 19.2006C6.54459 22.9808 2.98495 30.7921 8.18924 36.706C11.7012 40.6969 20.2538 43.8028 29.7162 33.3942C32.3656 30.3662 30.347 28.0322 29.0065 27.2436M26.2861 16.835C28.0602 17.5447 29.4323 20.62 27.3506 22.5124M27.3506 22.5124C25.5403 24.1582 24.4206 25.0883 24.2744 25.3029C24.2513 25.3369 24.2921 25.3357 24.3223 25.3078L25.8129 23.9318L27.3506 22.5124ZM27.3506 22.5124C29.243 22.5124 31.1828 25.3512 29.0065 27.2436M29.0065 27.2436L26.4044 29.3727" stroke="#7F4BC1" stroke-width="2.43247" stroke-linecap="round"/>
<path d="M13.8668 7.84588L11.2646 4.29749" stroke="#7F4BC1" stroke-width="2.43247" stroke-linecap="round"/>
<path d="M17.8882 1.93188V6.66308" stroke="#7F4BC1" stroke-width="2.43247" stroke-linecap="round"/>
<path d="M24.5118 4.29749L21.9097 7.84588" stroke="#7F4BC1" stroke-width="2.43247" stroke-linecap="round"/>
</svg>
