<svg width="20" height="21" viewBox="0 0 20 21" fill="none" xmlns="http://www.w3.org/2000/svg">
<path fill-rule="evenodd" clip-rule="evenodd" d="M10 1.83105C5.16797 1.83105 1.25 5.84668 1.25 10.8037C1.25 14.7686 3.75781 18.1279 7.23438 19.3154C7.67188 19.3975 7.83203 19.1201 7.83203 18.8818C7.83203 18.667 7.82422 18.1045 7.82031 17.3545C5.38672 17.8975 4.87109 16.1514 4.87109 16.1514C4.47266 15.1162 3.89844 14.8389 3.89844 14.8389C3.10547 14.2803 3.95703 14.292 3.95703 14.292C4.83594 14.3545 5.29688 15.2178 5.29688 15.2178C6.07812 16.5889 7.34375 16.1943 7.84375 15.9639C7.92188 15.3857 8.14844 14.9873 8.39844 14.7647C6.45703 14.5381 4.41406 13.7686 4.41406 10.3311C4.41406 9.35059 4.75391 8.54981 5.3125 7.92481C5.22266 7.69824 4.92188 6.78418 5.39844 5.54981C5.39844 5.54981 6.13281 5.30762 7.80469 6.46777C8.50391 6.26856 9.25 6.1709 9.99609 6.16699C10.7383 6.1709 11.4883 6.26856 12.1875 6.46777C13.8594 5.30762 14.5898 5.54981 14.5898 5.54981C15.0664 6.78418 14.7656 7.69824 14.6758 7.92481C15.2344 8.55371 15.5742 9.35449 15.5742 10.3311C15.5742 13.7764 13.5273 14.5342 11.5781 14.7568C11.8906 15.0342 12.1719 15.5811 12.1719 16.417C12.1719 17.6162 12.1602 18.585 12.1602 18.8779C12.1602 19.1162 12.3164 19.3975 12.7617 19.3076C16.2461 18.124 18.75 14.7647 18.75 10.8037C18.75 5.84668 14.832 1.83105 10 1.83105Z" fill="#7F4BC1"/>
</svg>
