<svg width="17" height="18" viewBox="0 0 17 18" fill="none" xmlns="http://www.w3.org/2000/svg">
<g clip-path="url(#clip0_141_775)">
<path d="M16.8342 8.77685C16.8342 8.19905 16.7873 7.61812 16.6874 7.04968H8.66992V10.3229H13.2611C13.0706 11.3785 12.4585 12.3124 11.5621 12.9058V15.0297H14.3012C15.9097 13.5492 16.8342 11.3629 16.8342 8.77685Z" fill="#4285F4"/>
<path d="M8.67003 17.0816C10.9625 17.0816 12.8958 16.3289 14.3044 15.0297L11.5653 12.9058C10.8032 13.4243 9.8194 13.7179 8.67315 13.7179C6.45563 13.7179 4.57541 12.2218 3.90079 10.2104H1.07422V12.3999C2.51717 15.2701 5.45618 17.0816 8.67003 17.0816Z" fill="#34A853"/>
<path d="M3.89755 10.2104C3.5415 9.15474 3.5415 8.01163 3.89755 6.95596V4.76654H1.07411C-0.131474 7.16834 -0.131474 9.99803 1.07411 12.3998L3.89755 10.2104Z" fill="#FBBC04"/>
<path d="M8.67003 3.4454C9.88186 3.42666 11.0531 3.88266 11.9307 4.71969L14.3575 2.29291C12.8209 0.849954 10.7814 0.0566413 8.67003 0.0816275C5.45618 0.0816275 2.51717 1.89313 1.07422 4.76654L3.89766 6.95596C4.56917 4.94145 6.4525 3.4454 8.67003 3.4454Z" fill="#EA4335"/>
</g>
<defs>
<clipPath id="clip0_141_775">
<rect width="17" height="17" fill="white" transform="translate(0 0.0810547)"/>
</clipPath>
</defs>
</svg>
