<svg width="599" height="496" viewBox="0 0 599 496" fill="none" xmlns="http://www.w3.org/2000/svg">
<path d="M599 435.936H0V436.269H599V435.936Z" fill="#EBEBEB"/>
<path d="M102.524 457.336H62.8467V457.669H102.524V457.336Z" fill="#EBEBEB"/>
<path d="M215.436 460.954H205.025V461.286H215.436V460.954Z" fill="#EBEBEB"/>
<path d="M134.176 444.994H103.723V445.326H134.176V444.994Z" fill="#EBEBEB"/>
<path d="M538.98 447.228H505.556V447.561H538.98V447.228Z" fill="#EBEBEB"/>
<path d="M494.893 447.228H468.98V447.561H494.893V447.228Z" fill="#EBEBEB"/>
<path d="M393.735 452.841H332.098V453.173H393.735V452.841Z" fill="#EBEBEB"/>
<path d="M283.926 376.617H52.604C50.7918 376.613 49.055 375.812 47.7747 374.388C46.4944 372.964 45.7754 371.034 45.7754 369.022V8.01372C45.7912 6.0134 46.5172 4.10076 47.7957 2.69125C49.0743 1.28174 50.8022 0.489205 52.604 0.485779H283.926C285.74 0.485779 287.48 1.28591 288.763 2.71014C290.046 4.13438 290.766 6.06605 290.766 8.08022V369.022C290.766 371.037 290.046 372.968 288.763 374.393C287.48 375.817 285.74 376.617 283.926 376.617ZM52.604 0.751785C50.8713 0.755308 49.2106 1.52196 47.9865 2.88345C46.7624 4.24495 46.0749 6.09004 46.0749 8.01372V369.022C46.0749 370.946 46.7624 372.791 47.9865 374.153C49.2106 375.514 50.8713 376.281 52.604 376.284H283.926C285.66 376.281 287.322 375.515 288.548 374.154C289.774 372.792 290.464 370.947 290.467 369.022V8.01372C290.464 6.08882 289.774 4.24376 288.548 2.88264C287.322 1.52152 285.66 0.755301 283.926 0.751785H52.604Z" fill="#EBEBEB"/>
<path d="M543.066 376.617H311.732C309.919 376.613 308.181 375.812 306.899 374.389C305.617 372.965 304.895 371.036 304.892 369.022V8.01372C304.911 6.01218 305.639 4.09956 306.92 2.69042C308.2 1.28128 309.929 0.489168 311.732 0.485779H543.066C544.866 0.492701 546.591 1.28679 547.866 2.69592C549.142 4.10505 549.867 6.01569 549.883 8.01372V369.022C549.883 371.032 549.165 372.96 547.888 374.383C546.61 375.807 544.876 376.61 543.066 376.617ZM311.732 0.751785C309.998 0.755301 308.336 1.52152 307.11 2.88264C305.884 4.24376 305.194 6.08882 305.191 8.01372V369.022C305.194 370.947 305.884 372.792 307.11 374.154C308.336 375.515 309.998 376.281 311.732 376.284H543.066C544.8 376.281 546.462 375.515 547.688 374.154C548.914 372.792 549.604 370.947 549.607 369.022V8.01372C549.604 6.08882 548.914 4.24376 547.688 2.88264C546.462 1.52152 544.8 0.755301 543.066 0.751785H311.732Z" fill="#EBEBEB"/>
<path d="M368.349 23.5351H81.0926C73.4308 23.5351 67.2197 30.4307 67.2197 38.9368V205.456C67.2197 213.962 73.4308 220.858 81.0926 220.858H368.349C376.011 220.858 382.222 213.962 382.222 205.456V38.9368C382.222 30.4307 376.011 23.5351 368.349 23.5351Z" fill="#F5EEFF"/>
<path d="M378.747 205.469V38.9368C378.747 32.5609 374.091 27.3922 368.348 27.3922L81.08 27.3922C75.337 27.3922 70.6814 32.5609 70.6814 38.9368V205.469C70.6814 211.845 75.337 217.014 81.08 217.014L368.348 217.014C374.091 217.014 378.747 211.845 378.747 205.469Z" fill="#FEF9FF"/>
<path d="M92.7731 45.8928C95.1153 45.8928 97.0141 43.7849 97.0141 41.1845C97.0141 38.5842 95.1153 36.4763 92.7731 36.4763C90.431 36.4763 88.5322 38.5842 88.5322 41.1845C88.5322 43.7849 90.431 45.8928 92.7731 45.8928Z" fill="#EBEBEB"/>
<path d="M109.162 45.8928C111.504 45.8928 113.403 43.7849 113.403 41.1845C113.403 38.5842 111.504 36.4763 109.162 36.4763C106.82 36.4763 104.921 38.5842 104.921 41.1845C104.921 43.7849 106.82 45.8928 109.162 45.8928Z" fill="#EBEBEB"/>
<path d="M125.538 45.8928C127.88 45.8928 129.779 43.7849 129.779 41.1845C129.779 38.5842 127.88 36.4763 125.538 36.4763C123.196 36.4763 121.297 38.5842 121.297 41.1845C121.297 43.7849 123.196 45.8928 125.538 45.8928Z" fill="#EBEBEB"/>
<path d="M506.682 52.676H341.538C331.011 52.676 322.478 62.1499 322.478 73.8367V186.57C322.478 198.256 331.011 207.73 341.538 207.73H506.682C517.209 207.73 525.742 198.256 525.742 186.57V73.8367C525.742 62.1499 517.209 52.676 506.682 52.676Z" fill="white"/>
<path d="M506.683 208.608H341.527C336.265 208.598 331.221 206.272 327.5 202.142C323.78 198.011 321.685 192.411 321.676 186.57V73.8234C321.685 67.9816 323.78 62.3822 327.5 58.2514C331.221 54.1207 336.265 51.7954 341.527 51.7849H506.683C511.945 51.7954 516.988 54.1207 520.709 58.2514C524.43 62.3822 526.524 67.9816 526.534 73.8234V186.57C526.524 192.411 524.43 198.011 520.709 202.142C516.988 206.272 511.945 208.598 506.683 208.608ZM341.527 53.5538C336.686 53.5608 332.046 55.6986 328.624 59.4984C325.201 63.2981 323.275 68.4497 323.269 73.8234V186.57C323.275 191.943 325.201 197.095 328.624 200.895C332.046 204.694 336.686 206.832 341.527 206.839H506.683C511.523 206.832 516.163 204.694 519.586 200.895C523.008 197.095 524.934 191.943 524.94 186.57V73.8234C524.934 68.4497 523.008 63.2981 519.586 59.4984C516.163 55.6986 511.523 53.5608 506.683 53.5538H341.527Z" fill="#B9A5E6"/>
<path d="M402.168 188.392C392.974 184.117 384.952 177.238 378.903 168.441L385.349 162.988C390.532 170.538 397.413 176.44 405.302 180.102C413.19 183.764 421.808 185.056 430.289 183.85C438.77 182.644 446.816 178.981 453.618 173.23C460.42 167.478 465.739 159.841 469.041 151.085L476.516 154.556C470.642 169.936 459.536 182.12 445.613 188.456C431.69 194.792 416.076 194.769 402.168 188.392Z" fill="#B9A5E6"/>
<path d="M476.517 154.529L469.041 151.058C471.514 144.505 472.799 137.476 472.823 130.371C472.847 123.267 471.609 116.226 469.18 109.653C466.751 103.08 463.179 97.1036 458.668 92.0647C454.156 87.0258 448.794 83.0237 442.889 80.2873L446.027 71.9614C459.927 78.4185 470.947 90.7401 476.664 106.216C482.382 121.693 482.329 139.057 476.517 154.489V154.529Z" fill="#EBEBEB"/>
<path d="M378.903 168.415C371.327 157.373 367.244 143.864 367.286 129.983C367.329 116.103 371.495 102.625 379.139 91.6407C386.782 80.656 397.476 72.7776 409.563 69.2268C421.65 65.676 434.454 66.6512 445.991 72.0012L442.888 80.2873C433.003 75.745 422.046 74.9402 411.708 77.997C401.37 81.0538 392.226 87.8023 385.685 97.2014C379.144 106.6 375.571 118.128 375.517 130.005C375.462 141.882 378.93 153.449 385.384 162.922L378.903 168.415Z" fill="#F2E7F4"/>
<path d="M299.5 496C427.785 496 531.78 489.259 531.78 480.944C531.78 472.629 427.785 465.888 299.5 465.888C171.215 465.888 67.2197 472.629 67.2197 480.944C67.2197 489.259 171.215 496 299.5 496Z" fill="#F2E7F4"/>
<g opacity="0.3">
<path d="M488.197 61.1216H112.648C106.461 61.1216 101.446 66.6893 101.446 73.5573V390.994C101.446 397.863 106.461 403.43 112.648 403.43H488.197C494.383 403.43 499.398 397.863 499.398 390.994V73.5573C499.398 66.6893 494.383 61.1216 488.197 61.1216Z" fill="white"/>
<path opacity="0.4" d="M488.197 61.1216H112.648C106.461 61.1216 101.446 66.6893 101.446 73.5573V390.994C101.446 397.863 106.461 403.43 112.648 403.43H488.197C494.383 403.43 499.398 397.863 499.398 390.994V73.5573C499.398 66.6893 494.383 61.1216 488.197 61.1216Z" fill="#7E57C2"/>
</g>
<path opacity="0.1" d="M482.351 95.2767H118.494C117.409 95.2767 116.529 96.2533 116.529 97.4579V230.088C116.529 231.293 117.409 232.269 118.494 232.269H482.351C483.436 232.269 484.315 231.293 484.315 230.088V97.4579C484.315 96.2533 483.436 95.2767 482.351 95.2767Z" fill="#7E57C2"/>
<path d="M479.535 92.2974H121.309C120.224 92.2974 119.345 93.274 119.345 94.4787V226.909C119.345 228.114 120.224 229.091 121.309 229.091H479.535C480.62 229.091 481.5 228.114 481.5 226.909V94.4787C481.5 93.274 480.62 92.2974 479.535 92.2974Z" fill="white"/>
<path opacity="0.1" d="M148.516 99.2933H146.12V222.108H148.516V99.2933Z" fill="#7E57C2"/>
<path opacity="0.1" d="M179.136 99.2933H176.74V222.108H179.136V99.2933Z" fill="#7E57C2"/>
<path opacity="0.1" d="M209.757 99.2933H207.361V222.108H209.757V99.2933Z" fill="#7E57C2"/>
<path opacity="0.1" d="M240.378 99.2933H237.982V222.108H240.378V99.2933Z" fill="#7E57C2"/>
<path opacity="0.1" d="M271 99.2933H268.604V222.108H271V99.2933Z" fill="#7E57C2"/>
<path opacity="0.1" d="M301.621 99.2933H299.225V222.108H301.621V99.2933Z" fill="#7E57C2"/>
<path opacity="0.1" d="M332.242 99.2933H329.846V222.108H332.242V99.2933Z" fill="#7E57C2"/>
<path opacity="0.1" d="M362.863 99.2933H360.467V222.108H362.863V99.2933Z" fill="#7E57C2"/>
<path opacity="0.1" d="M393.483 99.2933H391.087V222.108H393.483V99.2933Z" fill="#7E57C2"/>
<path opacity="0.1" d="M424.104 99.2933H421.708V222.108H424.104V99.2933Z" fill="#7E57C2"/>
<path opacity="0.1" d="M454.725 99.2933H452.329V222.108H454.725V99.2933Z" fill="#7E57C2"/>
<path d="M341.705 193.233C341.628 193.236 341.55 193.221 341.478 193.189C341.406 193.157 341.341 193.108 341.286 193.047L281.734 132.265L219.15 167.51C218.985 167.584 218.8 167.584 218.635 167.51L195.573 157.588L129.683 185.346C129.526 185.411 129.352 185.404 129.2 185.326C129.047 185.249 128.928 185.108 128.869 184.934C128.838 184.848 128.823 184.757 128.824 184.665C128.826 184.573 128.844 184.482 128.877 184.398C128.911 184.313 128.959 184.237 129.019 184.174C129.08 184.111 129.151 184.062 129.228 184.029L195.382 156.179C195.529 156.119 195.69 156.119 195.837 156.179L218.863 166.074L281.53 130.828C281.645 130.762 281.776 130.737 281.904 130.756C282.033 130.775 282.153 130.838 282.249 130.935L341.885 191.797L414.28 172.525L470.994 117.262C471.121 117.139 471.287 117.076 471.455 117.089C471.624 117.101 471.781 117.187 471.892 117.329C472.003 117.47 472.06 117.654 472.048 117.841C472.037 118.028 471.959 118.203 471.832 118.326L414.999 173.708C414.918 173.778 414.824 173.828 414.724 173.855L341.849 193.26L341.705 193.233Z" fill="#B9A5E6"/>
<path d="M129.384 201.998C129.25 202.001 129.12 201.954 129.013 201.865C128.945 201.811 128.887 201.742 128.844 201.663C128.8 201.584 128.771 201.496 128.759 201.404C128.746 201.312 128.751 201.218 128.772 201.128C128.793 201.039 128.83 200.954 128.881 200.881L158.136 157.429C158.218 157.306 158.334 157.217 158.466 157.174C158.597 157.131 158.738 157.136 158.867 157.189L228.219 185.998L322.634 139.646C322.724 139.594 322.825 139.567 322.927 139.567C323.029 139.567 323.13 139.594 323.221 139.646L358.382 163.8L382.845 145.286C382.929 145.219 383.029 145.182 383.133 145.179L471.425 135.47C471.593 135.455 471.76 135.513 471.889 135.633C472.019 135.752 472.102 135.923 472.12 136.108C472.133 136.295 472.081 136.48 471.973 136.624C471.866 136.768 471.712 136.86 471.545 136.88L383.36 146.602L358.693 165.223C358.591 165.295 358.473 165.333 358.352 165.333C358.231 165.333 358.112 165.295 358.01 165.223L322.777 141.016L228.435 187.341C228.281 187.408 228.11 187.408 227.956 187.341L158.807 158.613L129.935 201.652C129.878 201.757 129.797 201.844 129.7 201.905C129.604 201.966 129.495 201.998 129.384 201.998Z" fill="#7E57C2"/>
<path opacity="0.2" d="M468.669 251.98H371.308C362.667 251.98 355.662 259.757 355.662 269.35V363.676C355.662 373.269 362.667 381.046 371.308 381.046H468.669C477.31 381.046 484.315 373.269 484.315 363.676V269.35C484.315 259.757 477.31 251.98 468.669 251.98Z" fill="#7E57C2"/>
<path opacity="0.4" d="M259.511 364.62L242.667 363.29L240.379 403.417H259.511V364.62Z" fill="#7E57C2"/>
<path d="M362.79 476.329H265.417C261.176 476.269 257.107 474.456 254.006 471.244C250.905 468.032 248.993 463.652 248.645 458.959L242.655 364.62C242.487 362.399 242.74 360.164 243.398 358.059C244.056 355.953 245.103 354.024 246.474 352.395C247.844 350.766 249.506 349.474 251.353 348.602C253.2 347.729 255.191 347.296 257.198 347.33H354.608C358.838 347.385 362.899 349.186 365.999 352.382C369.099 355.578 371.017 359.94 371.38 364.62L377.37 458.959C377.548 461.189 377.302 463.437 376.647 465.555C375.992 467.672 374.943 469.614 373.568 471.252C372.192 472.89 370.522 474.189 368.665 475.064C366.809 475.938 364.807 476.369 362.79 476.329Z" fill="#7E57C2"/>
<path opacity="0.8" d="M354.608 347.263H257.246C255.239 347.23 253.248 347.663 251.401 348.535C249.554 349.408 247.891 350.7 246.521 352.329C245.151 353.957 244.104 355.887 243.446 357.992C242.788 360.098 242.535 362.333 242.702 364.554L247.494 440.897H376.172L371.38 364.554C371.017 359.874 369.099 355.512 365.999 352.316C362.898 349.12 358.838 347.319 354.608 347.263Z" fill="white"/>
<path d="M311.12 429.938C293.354 429.938 277.888 413.884 276.63 394.16C276.267 389.558 276.778 384.924 278.13 380.555C279.482 376.187 281.644 372.182 284.476 368.799C287.309 365.416 290.749 362.73 294.575 360.915C298.401 359.1 302.527 358.197 306.687 358.263C324.454 358.263 339.92 374.316 341.178 394.04C341.542 398.642 341.032 403.277 339.682 407.646C338.332 412.015 336.172 416.021 333.34 419.405C330.508 422.79 327.069 425.477 323.244 427.293C319.418 429.11 315.292 430.015 311.132 429.951L311.12 429.938ZM306.687 359.699C302.706 359.635 298.756 360.5 295.094 362.238C291.432 363.976 288.14 366.547 285.43 369.787C282.72 373.026 280.652 376.861 279.361 381.044C278.07 385.226 277.585 389.663 277.935 394.067C278.636 403.363 282.424 412.037 288.563 418.406C294.702 424.774 302.755 428.382 311.156 428.528C315.138 428.591 319.087 427.727 322.749 425.989C326.411 424.251 329.704 421.679 332.414 418.44C335.124 415.2 337.191 411.365 338.482 407.183C339.773 403.001 340.259 398.564 339.908 394.16C339.208 384.864 335.42 376.189 329.28 369.821C323.141 363.452 315.089 359.845 306.687 359.699Z" fill="white"/>
<path d="M326.395 394.107L297.631 376.391L299.871 411.823L326.395 394.107Z" fill="#7E57C2"/>
<path d="M431.604 471.089H422.056L422.164 446.536H431.712L431.604 471.089Z" fill="#B55B52"/>
<path d="M488.964 471.089H479.416L475.666 446.536H485.214L488.964 471.089Z" fill="#B55B52"/>
<path d="M478.781 469.865H489.563C489.749 469.859 489.931 469.929 490.074 470.061C490.218 470.193 490.313 470.379 490.342 470.583L491.827 480.013C491.858 480.248 491.843 480.487 491.783 480.715C491.723 480.942 491.62 481.153 491.48 481.332C491.34 481.512 491.167 481.655 490.973 481.753C490.778 481.852 490.567 481.902 490.354 481.902C486.604 481.822 484.795 481.582 480.075 481.582C477.176 481.582 469.293 481.915 465.327 481.915C461.362 481.915 460.991 477.513 462.644 477.114C470.083 475.331 474.792 472.871 477.247 470.463C477.68 470.072 478.223 469.86 478.781 469.865Z" fill="#263238"/>
<path d="M422.175 469.865H432.598C432.785 469.862 432.967 469.932 433.111 470.063C433.256 470.195 433.354 470.379 433.388 470.583L434.862 480.013C434.897 480.246 434.885 480.485 434.828 480.713C434.772 480.94 434.671 481.152 434.533 481.332C434.394 481.511 434.223 481.656 434.029 481.754C433.836 481.853 433.625 481.903 433.412 481.902C429.651 481.822 424.224 481.583 419.492 481.583C413.969 481.583 410.926 481.915 404.445 481.915C400.515 481.915 399.653 477.513 401.282 477.114C408.829 475.305 413.19 475.105 419.839 470.69C420.536 470.185 421.343 469.9 422.175 469.865Z" fill="#263238"/>
<path d="M430.682 140.817L417.636 136.574C417.636 136.574 403.763 175.145 400.337 179.135C395.688 184.548 391.016 196.106 383.421 205.735C383.948 207.451 386.464 211.281 387.806 211.907C397.989 204.166 410.568 191.251 413.167 185C419.013 170.795 430.682 140.817 430.682 140.817Z" fill="#B55B52"/>
<path d="M434.634 134.193C438.348 143.37 427.351 162.855 427.351 162.855L407.823 153.439C410.198 144.362 413.41 135.582 417.407 127.237C423.421 115.227 430.561 124.178 434.634 134.193Z" fill="#7E57C2"/>
<path opacity="0.4" d="M434.634 134.193C438.348 143.37 427.351 162.855 427.351 162.855L407.823 153.439C410.198 144.362 413.41 135.582 417.407 127.237C423.421 115.227 430.561 124.178 434.634 134.193Z" fill="white"/>
<path d="M386.536 202.929L376.664 208.342L384.535 218.809C384.535 218.809 386.847 217.12 389.483 209.925L386.536 202.929Z" fill="#B55B52"/>
<path d="M372.889 220.964L374.938 222.853C375.61 223.466 376.449 223.809 377.319 223.826C378.189 223.843 379.039 223.532 379.73 222.946L384.522 218.809L376.651 208.342L372.218 215.178C371.654 216.059 371.409 217.145 371.534 218.217C371.658 219.289 372.142 220.27 372.889 220.964Z" fill="#B55B52"/>
<path d="M355.725 183.129L262.5 214.299C254.226 217.065 249.539 226.754 252.03 235.94L276.53 326.258C279.022 335.444 287.749 340.648 296.023 337.882L389.249 306.712C397.523 303.946 402.21 294.257 399.718 285.071L375.218 194.753C372.727 185.567 363.999 180.363 355.725 183.129Z" fill="white"/>
<path opacity="0.5" d="M355.725 183.129L262.5 214.299C254.226 217.065 249.539 226.754 252.03 235.94L276.53 326.258C279.022 335.444 287.749 340.648 296.023 337.882L389.249 306.712C397.523 303.946 402.21 294.257 399.718 285.071L375.218 194.753C372.727 185.567 363.999 180.363 355.725 183.129Z" fill="#7E57C2"/>
<path d="M325.916 260.532L287.58 280.376C283.652 271.011 282.615 260.469 284.632 250.384C286.648 240.299 291.604 231.233 298.732 224.592C305.86 217.952 314.762 214.106 324.058 213.652C333.354 213.198 342.526 216.161 350.151 222.081L325.916 260.532Z" fill="#7E57C2"/>
<path d="M350.715 225.859C351.904 226.909 353.04 228.032 354.117 229.223C358.157 233.718 361.278 239.124 363.27 245.076C365.262 251.028 366.078 257.386 365.662 263.718C365.246 270.051 363.609 276.21 360.86 281.778C358.111 287.346 354.316 292.192 349.732 295.989C345.148 299.785 339.882 302.442 334.291 303.781C328.7 305.119 322.916 305.106 317.33 303.744C311.744 302.382 306.488 299.702 301.917 295.885C297.346 292.069 293.568 287.206 290.839 281.627L326.922 263.006L327.509 262.714L327.881 262.128L350.715 225.925M350.164 222.148L325.916 260.599L287.58 280.443C290.205 286.632 294.018 292.108 298.75 296.49C303.481 300.871 309.019 304.052 314.974 305.808C320.929 307.564 327.158 307.854 333.225 306.657C339.292 305.46 345.049 302.805 350.095 298.879C355.14 294.952 359.352 289.849 362.435 283.926C365.517 278.002 367.396 271.403 367.94 264.589C368.484 257.775 367.68 250.911 365.584 244.478C363.488 238.045 360.151 232.199 355.806 227.348C354.071 225.393 352.182 223.613 350.164 222.028V222.148Z" fill="white"/>
<path opacity="0.2" d="M422.163 446.536L422.104 459.198H431.664L431.723 446.536H422.163Z" fill="black"/>
<path opacity="0.2" d="M485.214 446.536H475.666L477.595 459.198H487.155L485.214 446.536Z" fill="black"/>
<path d="M422.499 121.664C422.499 121.664 409.753 158.107 417.899 217.759H468.994C469.725 209.047 466.706 162.15 476.038 121.119C470.424 119.913 464.746 119.114 459.038 118.725C451.805 118.259 444.552 118.259 437.319 118.725C432.319 119.286 427.365 120.269 422.499 121.664Z" fill="#7E57C2"/>
<path opacity="0.4" d="M422.499 121.664C422.499 121.664 409.753 158.107 417.899 217.759H468.994C469.725 209.047 466.706 162.15 476.038 121.119C470.424 119.913 464.746 119.114 459.038 118.725C451.805 118.259 444.552 118.259 437.319 118.725C432.319 119.286 427.365 120.269 422.499 121.664Z" fill="white"/>
<path opacity="0.2" d="M464.501 131.254C463.303 138.01 464.585 154.157 469.581 172.83C470.176 156.804 472.04 140.866 475.151 125.202V125.122C471.809 124.737 465.591 124.923 464.501 131.254Z" fill="black"/>
<path d="M457.169 96.2475C455.468 104.002 454.366 113.618 459.038 118.858C459.038 118.858 455.887 126.732 442.901 126.732C431.041 126.732 437.318 118.858 437.318 118.858C445.201 116.796 445.249 106.09 444.159 100.065L457.169 96.2475Z" fill="#B55B52"/>
<path d="M442.913 126.599C450.568 128.434 452.09 131.919 452.09 131.919C452.09 131.919 461.614 127.623 461.254 118.299C461.254 118.299 459.014 116.77 457.66 115.533C457.637 115.586 456.762 122.848 442.913 126.599Z" fill="white"/>
<path d="M442.912 126.599C436.719 127.024 433.844 130.203 433.844 130.203C433.844 130.203 432.286 127.955 434.898 118.725C436.267 118.115 437.677 117.626 439.115 117.262C439.115 117.262 437.869 124.604 442.912 126.599Z" fill="white"/>
<path opacity="0.2" d="M444.147 99.945C444.806 103.47 445.057 108.603 443.548 112.673C444.771 112.471 445.962 112.072 447.082 111.49C451.574 109.189 453.887 105.571 456.378 100.198C456.606 98.8677 456.87 97.5377 457.169 96.2076L444.147 99.945Z" fill="black"/>
<path d="M433.281 91.4595C433.624 92.6851 434.192 93.8188 434.949 94.7893C435.705 95.7597 436.634 96.546 437.678 97.0988C440.481 98.5618 442.47 95.7687 442.266 92.5235C442.038 89.5442 440.313 85.195 437.235 85.1285C436.555 85.1365 435.887 85.325 435.287 85.6784C434.687 86.0318 434.171 86.5398 433.784 87.1598C433.397 87.7797 433.149 88.4936 433.062 89.2417C432.974 89.9898 433.049 90.7503 433.281 91.4595Z" fill="#B55B52"/>
<path opacity="0.2" d="M433.281 91.4595C433.624 92.6851 434.192 93.8188 434.949 94.7893C435.705 95.7597 436.634 96.546 437.678 97.0988C440.481 98.5618 442.47 95.7687 442.266 92.5235C442.038 89.5442 440.313 85.195 437.235 85.1285C436.555 85.1365 435.887 85.325 435.287 85.6784C434.687 86.0318 434.171 86.5398 433.784 87.1598C433.397 87.7797 433.149 88.4936 433.062 89.2417C432.974 89.9898 433.049 90.7503 433.281 91.4595Z" fill="black"/>
<path d="M443.344 69.647C439.486 68.0909 433.281 83.8118 441.882 84.7162C450.484 85.6206 449.142 72.0145 443.344 69.647Z" fill="#263238"/>
<path d="M463.243 86.7246C460.272 96.886 458.978 102.991 453.132 107.154C444.339 113.432 434.179 105.983 434.407 95.1836C434.623 85.4478 439.451 70.4584 449.346 68.5831C459.242 66.7077 466.214 76.5499 463.243 86.7246Z" fill="#B55B52"/>
<path d="M442.913 75.2331C435.425 68.9288 439.702 56.1473 445.608 55.2828C453.635 54.1655 458.223 71.8283 467.531 72.6396C476.84 73.4509 472.815 89.9299 460.727 94.4653C456.282 96.1544 455.587 89.89 460.02 81.1651C457.169 82.003 447.237 78.8774 442.913 75.2331Z" fill="#263238"/>
<path d="M442.828 97.4845C443.721 97.5712 444.621 97.4594 445.475 97.1557C446.328 96.852 447.119 96.3624 447.8 95.7155C447.822 95.692 447.838 95.6641 447.85 95.6332C447.862 95.6024 447.868 95.5694 447.868 95.536C447.868 95.5026 447.862 95.4695 447.85 95.4387C447.838 95.4079 447.822 95.3799 447.8 95.3564C447.756 95.3116 447.698 95.2867 447.638 95.2867C447.579 95.2867 447.521 95.3116 447.477 95.3564C446.728 96.045 445.849 96.5367 444.905 96.7947C443.961 97.0527 442.977 97.0702 442.026 96.846C441.967 96.8343 441.907 96.8487 441.857 96.886C441.808 96.9233 441.774 96.9806 441.762 97.0456C441.755 97.077 441.754 97.1098 441.759 97.1418C441.763 97.1738 441.774 97.2044 441.79 97.2318C441.805 97.2591 441.826 97.2827 441.85 97.301C441.874 97.3193 441.901 97.3319 441.93 97.3382C442.227 97.4059 442.527 97.4548 442.828 97.4845Z" fill="#263238"/>
<path d="M464.704 99.0805C462.986 100.963 460.684 102.043 458.271 102.1C455.12 102.1 454.521 98.748 456.21 95.9017C457.732 93.3481 461.194 90.2624 463.974 91.619C466.753 92.9757 466.813 96.7263 464.704 99.0805Z" fill="#B55B52"/>
<path d="M451.478 217.759C451.478 217.759 450.184 231.059 448.519 249.161C446.614 269.643 444.242 296.23 442.744 316.5C442.739 316.593 442.739 316.686 442.744 316.779C442.457 320.623 442.193 324.227 441.99 327.526C439.845 360.577 434.802 456.751 434.802 456.751H418.629C418.629 456.751 412.531 358.608 412.89 324.972C413.238 292.626 417.874 217.759 417.874 217.759H451.478Z" fill="#7E57C2"/>
<path d="M436.167 449.715C436.239 449.715 435.88 457.11 435.88 457.11H417.227L416.76 448.984L436.167 449.715Z" fill="#263238"/>
<path opacity="0.2" d="M448.519 249.201C446.615 269.683 444.242 296.27 442.745 316.54C442.74 316.633 442.74 316.726 442.745 316.819C439.151 297.613 438.085 273.713 439.462 234.357L448.519 249.201Z" fill="black"/>
<path d="M436.072 217.759C436.072 217.759 443.524 294.381 448.172 324.746C453.252 357.997 473.33 456.751 473.33 456.751H490.833C490.833 456.751 479.033 360.683 476.732 327.738C474.229 292.001 469.077 217.732 469.077 217.732L436.072 217.759Z" fill="#7E57C2"/>
<path d="M491.001 450.154C491.073 450.154 491.6 457.11 491.6 457.11H472.372L470.971 449.356L491.001 450.154Z" fill="#263238"/>
<path d="M448.724 86.2457C448.532 87.0837 447.969 87.6689 447.526 87.5758C447.082 87.4827 446.807 86.6847 446.998 85.8467C447.19 85.0088 447.753 84.4103 448.196 84.5167C448.64 84.6231 448.915 85.4078 448.724 86.2457Z" fill="#263238"/>
<path d="M440.325 84.1975C440.133 85.0354 439.57 85.6206 439.127 85.5275C438.684 85.4344 438.408 84.6231 438.6 83.7852C438.792 82.9473 439.355 82.3621 439.798 82.4552C440.241 82.5483 440.517 83.3596 440.325 84.1975Z" fill="#263238"/>
<path d="M442.901 85.2615C441.414 87.6142 439.654 89.7385 437.666 91.5792C438.66 93.2816 441.044 93.2018 441.044 93.2018L442.901 85.2615Z" fill="#A02724"/>
<path d="M451.647 85.0354C451.582 85.0111 451.522 84.9711 451.472 84.9182C451.423 84.8653 451.384 84.8009 451.359 84.7295C451.203 84.1358 450.916 83.5944 450.525 83.1535C450.134 82.7126 449.651 82.3859 449.119 82.2025C449.062 82.1886 449.007 82.1618 448.959 82.1237C448.911 82.0856 448.871 82.037 448.841 81.9809C448.81 81.9248 448.791 81.8624 448.783 81.7976C448.775 81.7328 448.78 81.6669 448.796 81.604C448.832 81.475 448.909 81.3648 449.012 81.2939C449.116 81.223 449.239 81.1961 449.359 81.2182C450.036 81.4353 450.653 81.8377 451.153 82.3885C451.653 82.9392 452.021 83.6208 452.222 84.3704C452.25 84.4605 452.255 84.5573 452.236 84.6503C452.217 84.7432 452.176 84.8287 452.117 84.8974C452.057 84.966 451.982 85.0153 451.899 85.0396C451.816 85.064 451.729 85.0625 451.647 85.0354Z" fill="#263238"/>
<path d="M469.952 77.0686C469.975 76.9613 470.023 76.8623 470.09 76.7809C470.157 76.6995 470.241 76.6383 470.335 76.603C471.091 76.3299 471.773 75.8527 472.321 75.2142C472.869 74.5758 473.265 73.7962 473.474 72.9455C473.491 72.8551 473.524 72.7695 473.572 72.6939C473.619 72.6183 473.68 72.5543 473.751 72.5057C473.822 72.4572 473.9 72.4251 473.983 72.4116C474.065 72.398 474.149 72.4032 474.229 72.4268C474.398 72.4713 474.545 72.5855 474.64 72.746C474.736 72.9066 474.773 73.1015 474.744 73.2913C474.494 74.3692 474.004 75.3602 473.32 76.1735C472.636 76.9868 471.778 77.5964 470.827 77.9464C470.663 78.0118 470.482 78.004 470.324 77.9246C470.165 77.8452 470.04 77.7004 469.976 77.5208C469.927 77.3763 469.918 77.2185 469.952 77.0686Z" fill="#263238"/>
<path d="M475.463 79.4892C475.37 79.5215 475.271 79.5287 475.176 79.5102C475.08 79.4917 474.989 79.448 474.912 79.3828C474.301 78.8199 473.575 78.4341 472.797 78.26C472.019 78.0859 471.214 78.1289 470.455 78.3853C470.376 78.4186 470.291 78.4336 470.207 78.4294C470.122 78.4251 470.039 78.4018 469.963 78.3607C469.886 78.3196 469.818 78.2617 469.763 78.1904C469.708 78.1192 469.666 78.0362 469.64 77.9464C469.588 77.7661 469.598 77.5705 469.669 77.3982C469.74 77.2259 469.867 77.0893 470.024 77.0154C470.98 76.6699 471.999 76.5972 472.988 76.8041C473.976 77.0109 474.901 77.4907 475.678 78.1991C475.811 78.3214 475.897 78.495 475.92 78.685C475.942 78.875 475.898 79.0673 475.798 79.2232C475.718 79.3524 475.599 79.4464 475.463 79.4892Z" fill="#263238"/>
<path d="M437.342 80.4734C437.277 80.4485 437.217 80.4126 437.162 80.367C437.12 80.32 437.086 80.2641 437.062 80.2025C437.039 80.1408 437.027 80.0747 437.027 80.0079C437.027 79.9411 437.039 79.875 437.062 79.8134C437.086 79.7517 437.12 79.6958 437.162 79.6488C437.641 79.0416 438.242 78.5676 438.916 78.265C439.59 77.9624 440.319 77.8396 441.044 77.9065C441.102 77.9157 441.157 77.9384 441.207 77.9729C441.256 78.0074 441.299 78.0531 441.332 78.1069C441.364 78.1608 441.387 78.2217 441.397 78.2857C441.407 78.3496 441.405 78.4153 441.391 78.4784C441.371 78.6116 441.304 78.7306 441.206 78.8101C441.107 78.8896 440.985 78.9233 440.864 78.904C440.29 78.8604 439.715 78.9664 439.185 79.2135C438.654 79.4606 438.183 79.842 437.809 80.3271C437.751 80.3967 437.676 80.4471 437.594 80.4729C437.512 80.4987 437.424 80.4989 437.342 80.4734Z" fill="#263238"/>
<path d="M481.704 135.603L469.616 143.703C469.616 143.703 484.687 176.461 483.022 181.582C480.746 188.551 477.295 203.847 473.27 211.534C473.653 213.223 475.87 217.147 477.188 217.852C486.772 210.537 497.35 186.955 497.338 180.292C497.326 165.103 481.704 135.603 481.704 135.603Z" fill="#B55B52"/>
<path d="M476.037 121.119C485.01 122.582 493.864 157.349 493.864 157.349L474.408 169.253C474.408 169.253 466.765 152.72 463.171 140.444C459.361 127.57 466.405 119.563 476.037 121.119Z" fill="#7E57C2"/>
<path opacity="0.4" d="M476.037 121.119C485.01 122.582 493.864 157.349 493.864 157.349L474.408 169.253C474.408 169.253 466.765 152.72 463.171 140.444C459.361 127.57 466.405 119.563 476.037 121.119Z" fill="white"/>
<path d="M475.606 471.714C474.961 471.774 474.316 471.581 473.785 471.168C473.622 471.003 473.498 470.794 473.427 470.562C473.356 470.329 473.339 470.08 473.378 469.838C473.385 469.69 473.428 469.547 473.502 469.423C473.576 469.299 473.677 469.199 473.797 469.133C474.864 468.535 477.871 470.636 478.206 470.876C478.241 470.904 478.269 470.943 478.285 470.987C478.302 471.032 478.308 471.081 478.302 471.128C478.291 471.176 478.268 471.22 478.236 471.255C478.205 471.29 478.165 471.315 478.122 471.328C477.3 471.564 476.456 471.694 475.606 471.714ZM474.277 469.519C474.177 469.51 474.077 469.533 473.989 469.586C473.917 469.586 473.845 469.679 473.833 469.878C473.802 470.041 473.811 470.211 473.857 470.369C473.903 470.528 473.986 470.67 474.097 470.783C474.6 471.275 475.846 471.341 477.475 470.982C476.49 470.253 475.381 469.756 474.217 469.519H474.277Z" fill="#7E57C2"/>
<path d="M478.002 471.315H477.906C476.936 470.716 475.127 468.389 475.378 467.205C475.421 467.019 475.518 466.853 475.655 466.735C475.792 466.617 475.96 466.553 476.133 466.553C476.302 466.529 476.474 466.544 476.637 466.599C476.8 466.654 476.951 466.747 477.079 466.872C478.146 467.883 478.277 470.942 478.277 471.075C478.277 471.12 478.267 471.164 478.248 471.203C478.229 471.242 478.202 471.276 478.17 471.301C478.117 471.328 478.057 471.333 478.002 471.315ZM476.265 467.019H476.157C475.869 467.019 475.833 467.218 475.821 467.271C475.666 467.976 476.816 469.732 477.762 470.557C477.74 469.397 477.407 468.272 476.804 467.325C476.735 467.241 476.652 467.173 476.56 467.125C476.467 467.077 476.367 467.05 476.265 467.045V467.019Z" fill="#7E57C2"/>
<path d="M418.102 471.714C417.294 471.8 416.485 471.569 415.814 471.062C415.664 470.91 415.551 470.718 415.486 470.504C415.421 470.29 415.406 470.061 415.443 469.838C415.454 469.698 415.497 469.563 415.568 469.447C415.64 469.331 415.737 469.236 415.85 469.173C417.048 468.455 420.786 470.61 421.205 470.863C421.247 470.888 421.28 470.927 421.3 470.975C421.319 471.023 421.324 471.077 421.313 471.129C421.304 471.181 421.281 471.23 421.247 471.268C421.212 471.306 421.169 471.332 421.121 471.341C420.127 471.566 419.116 471.69 418.102 471.714ZM416.473 469.519C416.324 469.51 416.176 469.542 416.042 469.612C415.999 469.64 415.963 469.679 415.936 469.725C415.909 469.771 415.892 469.824 415.886 469.878C415.863 470.025 415.872 470.176 415.914 470.317C415.956 470.459 416.028 470.587 416.125 470.69C416.689 471.262 418.258 471.368 420.39 470.982C419.174 470.248 417.853 469.753 416.485 469.519H416.473Z" fill="#7E57C2"/>
<path d="M421.097 471.315H421.001C419.875 470.743 417.682 468.455 417.91 467.245C417.97 466.965 418.162 466.62 418.785 466.553C419 466.528 419.218 466.552 419.424 466.626C419.63 466.699 419.82 466.819 419.983 466.979C421.181 468.083 421.288 470.969 421.288 471.062C421.291 471.106 421.284 471.149 421.267 471.189C421.251 471.229 421.225 471.263 421.193 471.288C421.163 471.306 421.13 471.315 421.097 471.315ZM418.952 467.019H418.808C418.401 467.019 418.365 467.245 418.353 467.298C418.221 468.029 419.695 469.825 420.833 470.61C420.786 469.415 420.396 468.268 419.719 467.338C419.502 467.144 419.231 467.041 418.952 467.045V467.019Z" fill="#7E57C2"/>
<path d="M474.9 211.055L465.843 210.284L470.144 221.43C470.144 221.43 478.098 221.815 479.728 215.059L474.9 211.055Z" fill="#B55B52"/>
<path d="M459.385 217.971L461.374 222.467C461.7 223.206 462.273 223.775 462.971 224.053C463.669 224.331 464.436 224.297 465.112 223.957L470.143 221.43L465.842 210.284L460.475 213.862C459.863 214.27 459.411 214.92 459.209 215.681C459.007 216.442 459.07 217.259 459.385 217.971Z" fill="#B55B52"/>
<path d="M379.91 206.533C376.838 207.755 373.637 208.533 370.386 208.847C370.301 208.851 370.217 208.876 370.141 208.919C370.065 208.962 369.999 209.023 369.946 209.098C369.894 209.173 369.857 209.259 369.837 209.351C369.818 209.444 369.817 209.539 369.835 209.632C369.951 210.108 370.177 210.542 370.49 210.892C370.803 211.241 371.192 211.495 371.62 211.627C372.626 211.88 375.214 212.425 375.777 212.545C375.861 212.563 375.939 212.604 376.004 212.665C377.585 214.016 379.48 214.837 381.467 215.032C383.791 215.032 381.467 208.794 380.629 206.852C380.571 206.705 380.463 206.589 380.328 206.529C380.194 206.469 380.043 206.471 379.91 206.533Z" fill="#B55B52"/>
<path d="M179.976 114.283C181.019 121.319 181.917 134.153 177.389 138.662C180.785 144.617 186.141 148.864 192.316 150.499C202.235 144.913 196.94 139.314 196.94 139.314C189.968 137.226 190.303 131.453 191.681 126.014L179.976 114.283Z" fill="#FFC3BD"/>
<path d="M165.684 156.312C164.942 163.041 163.983 169.612 162.797 176.262C161.611 182.912 160.317 189.429 158.592 195.999C157.718 199.298 156.711 202.65 155.621 205.709C154.531 208.768 153.441 211.933 152.291 215.019C150.002 221.177 147.583 227.242 144.959 233.253L139.903 231.245C141.257 224.781 142.779 218.371 144.348 212C145.917 205.629 147.642 199.298 148.888 193.193C150.134 187.088 151.284 180.558 152.219 174.134C153.153 167.71 154.076 161.206 154.926 154.835L165.684 156.312Z" fill="#FFC3BD"/>
<path d="M159.024 140.737C154.807 142.519 150.638 161.446 150.638 161.446L167.41 175.597C167.41 175.597 173.4 157.163 171.243 151.125C168.919 144.833 163.84 138.702 159.024 140.737Z" fill="#7E57C2"/>
<path d="M140.934 228.944L133.291 238.427L144.073 238.773C144.073 238.773 147.535 232.256 145.271 228.133L140.934 228.944Z" fill="#FFC3BD"/>
<path opacity="0.2" d="M177.982 237.62L81.5637 252.626C73.0064 253.958 67.0418 262.739 68.2414 272.239L80.0365 365.651C81.2361 375.152 89.1456 381.773 97.7029 380.442L194.122 365.436C202.679 364.104 208.644 355.323 207.444 345.822L195.649 252.41C194.449 242.91 186.54 236.288 177.982 237.62Z" fill="#7E57C2"/>
<path d="M100.956 368.225C98.4653 368.22 96.0594 367.218 94.1801 365.403C92.3008 363.587 91.0742 361.081 90.7253 358.342L80.3267 275.974C80.1373 274.482 80.2145 272.964 80.554 271.505C80.8935 270.047 81.4885 268.677 82.3052 267.474C83.1218 266.271 84.144 265.258 85.3134 264.494C86.4827 263.729 87.7762 263.228 89.12 263.02L173.351 249.892C176.066 249.475 178.818 250.27 181.006 252.102C183.193 253.935 184.637 256.656 185.02 259.668L195.431 342.036C195.81 345.052 195.096 348.111 193.445 350.543C191.794 352.974 189.341 354.579 186.625 355.004L102.406 368.118C101.925 368.186 101.441 368.222 100.956 368.225ZM174.789 250.531C174.336 250.533 173.884 250.569 173.435 250.637L89.2159 263.751C87.9525 263.945 86.736 264.415 85.6363 265.132C84.5365 265.849 83.5751 266.8 82.8072 267.931C82.0392 269.061 81.4798 270.349 81.1611 271.72C80.8423 273.091 80.7705 274.519 80.9497 275.921L91.3603 358.263C91.7227 361.087 93.0783 363.638 95.1305 365.355C97.1827 367.073 99.7643 367.817 102.31 367.427L186.541 354.273C189.089 353.877 191.391 352.374 192.941 350.094C194.491 347.815 195.163 344.945 194.808 342.116L184.397 259.841C184.074 257.265 182.924 254.904 181.159 253.194C179.394 251.483 177.132 250.538 174.789 250.531Z" fill="white"/>
<path d="M132.703 248.296L141.736 248.057L144.072 238.773L133.29 238.427L132.703 248.296Z" fill="#FFC3BD"/>
<path d="M215.785 148.478C216.024 155.926 214.862 173.309 207.806 213.795L164.75 212.372C165.948 192.94 166.331 180.944 159.023 140.737C165.092 139.557 171.23 138.863 177.389 138.662C183.912 138.365 190.445 138.583 196.94 139.314C201.924 139.979 207.291 141.136 210.825 141.974C212.187 142.288 213.415 143.098 214.314 144.277C215.213 145.456 215.731 146.934 215.785 148.478Z" fill="#7E57C2"/>
<path d="M215.162 150.686C217.175 157.096 218.972 163.467 220.661 169.944C222.35 176.422 223.944 182.899 225.369 189.456L225.896 191.916L226.16 193.153L226.292 193.765C226.292 193.765 226.292 193.619 226.292 193.632C226.292 193.645 226.292 193.898 226.627 194.27C226.955 194.744 227.315 195.189 227.705 195.601C229.732 197.622 231.908 199.451 234.21 201.067C239.002 204.565 244.238 207.863 249.377 211.069L247.34 216.588C241.391 214.653 235.596 212.17 230.017 209.167C227.059 207.593 224.25 205.695 221.631 203.501C220.871 202.831 220.151 202.107 219.475 201.333C218.589 200.306 217.86 199.124 217.319 197.835C217.154 197.402 217.014 196.958 216.899 196.505L216.732 195.92L216.42 194.736L215.773 192.355C214.04 186.051 212.267 179.742 210.454 173.429L204.859 154.556L215.162 150.686Z" fill="#FFC3BD"/>
<path d="M211.112 142.027C219.043 143.902 221.607 162.456 221.607 162.456L207.985 176.275C207.985 176.275 196.832 155.248 199.48 149.435C202.235 143.384 204.667 140.511 211.112 142.027Z" fill="#7E57C2"/>
<path d="M246.788 209.898L257.57 214.42L248.825 220.858C248.825 220.858 243.65 217.453 244.033 212.691L246.788 209.898Z" fill="#FFC3BD"/>
<path d="M261.788 220.685L255.151 225.327L248.754 220.858L257.499 214.42L261.788 220.685Z" fill="#FFC3BD"/>
<path d="M203.829 101.568C203.901 102.512 204.416 103.244 205.027 103.19C205.638 103.137 205.986 102.326 205.914 101.382C205.842 100.437 205.339 99.7057 204.716 99.7589C204.093 99.8121 203.769 100.584 203.829 101.568Z" fill="#263238"/>
<path d="M204.476 99.7987L206.476 98.9608C206.476 98.9608 205.554 100.823 204.476 99.7987Z" fill="#263238"/>
<path d="M204.715 103.563C205.633 105.655 206.806 107.597 208.201 109.335C207.791 109.718 207.311 109.998 206.793 110.154C206.276 110.31 205.734 110.339 205.206 110.239L204.715 103.563Z" fill="#ED847E"/>
<path d="M200.522 99.3333C200.628 99.34 200.733 99.3105 200.823 99.2486C200.913 99.1867 200.984 99.0955 201.026 98.9875C201.9 96.5934 204.811 95.822 204.835 95.8087C204.907 95.8013 204.976 95.777 205.039 95.7374C205.101 95.6977 205.155 95.6437 205.197 95.5789C205.239 95.5141 205.268 95.44 205.282 95.3617C205.296 95.2834 205.295 95.2026 205.279 95.1249C205.262 95.0471 205.231 94.9742 205.187 94.911C205.143 94.8478 205.087 94.7958 205.024 94.7585C204.96 94.7212 204.89 94.6995 204.818 94.6948C204.747 94.6901 204.675 94.7026 204.608 94.7314C204.464 94.7314 201.157 95.6491 200.091 98.5619C200.066 98.6299 200.053 98.7029 200.053 98.7766C200.053 98.8503 200.066 98.9233 200.092 98.9913C200.117 99.0593 200.155 99.121 200.202 99.1728C200.249 99.2247 200.305 99.2656 200.367 99.2934C200.415 99.319 200.468 99.3327 200.522 99.3333Z" fill="#263238"/>
<path d="M174.728 100.69C176.226 112.261 176.633 117.196 182.372 122.675C190.985 130.935 203.456 126.346 205.134 114.522C206.607 103.882 203.936 86.738 193.309 83.0405C190.976 82.2128 188.49 82.0609 186.089 82.5993C183.688 83.1376 181.45 84.3483 179.589 86.1165C177.727 87.8846 176.304 90.1515 175.453 92.7021C174.602 95.2527 174.353 98.0023 174.728 100.69Z" fill="#FFC3BD"/>
<path d="M192.077 79.8484C187.416 73.5175 165.493 73.8766 171.711 90.1827C162.474 91.5925 162.582 101.554 163.42 109.069C164.259 116.584 156.34 115.174 154.974 124.324C153.609 133.475 157.107 134.379 151.309 141.615C145.51 148.85 153.872 163.853 164.87 159.982C175.868 156.112 184.613 163.72 198.294 160.701C211.975 157.681 213.293 145.445 210.274 138.569C207.471 132.145 203.589 131.201 204.416 125.069C205.614 116.038 200.295 107.327 195.539 104.56C201.265 98.5087 218.241 80.2075 192.077 79.8484Z" fill="#263238"/>
<path d="M196.053 106.17C196.395 106.965 196.884 107.671 197.489 108.242C198.094 108.813 198.801 109.235 199.563 109.481C201.516 110.04 202.427 107.659 201.828 105.292C201.301 103.15 199.635 100.291 197.707 100.81C195.778 101.328 195.119 104.081 196.053 106.17Z" fill="#FFC3BD"/>
<path d="M120.364 468.016C119.454 468.003 118.576 467.646 117.872 467.005C117.72 466.82 117.611 466.595 117.555 466.352C117.498 466.108 117.496 465.853 117.549 465.609C117.57 465.456 117.626 465.312 117.712 465.191C117.798 465.07 117.911 464.975 118.04 464.917C119.406 464.279 123.395 467.138 123.838 467.458C123.883 467.489 123.918 467.536 123.937 467.591C123.956 467.646 123.96 467.706 123.946 467.764C123.936 467.82 123.909 467.872 123.87 467.91C123.831 467.948 123.782 467.972 123.73 467.976C122.612 468.104 121.485 468.118 120.364 468.016ZM118.711 465.356C118.554 465.306 118.388 465.306 118.232 465.356C118.179 465.377 118.132 465.414 118.098 465.464C118.064 465.514 118.044 465.573 118.04 465.636C118.004 465.795 118.004 465.963 118.039 466.122C118.075 466.282 118.145 466.43 118.244 466.553C118.831 467.258 120.556 467.577 122.928 467.404C121.635 466.47 120.209 465.787 118.711 465.383V465.356Z" fill="#7E57C2"/>
<path d="M123.682 467.976C123.647 467.988 123.609 467.988 123.574 467.976C122.376 467.205 120.124 464.399 120.436 463.095C120.507 462.789 120.747 462.417 121.454 462.417C121.703 462.414 121.951 462.47 122.18 462.58C122.409 462.69 122.614 462.852 122.784 463.055C123.982 464.385 123.982 467.604 123.982 467.737C123.983 467.787 123.972 467.836 123.948 467.879C123.925 467.922 123.891 467.955 123.85 467.976C123.795 467.993 123.737 467.993 123.682 467.976ZM121.598 462.936H121.454C120.987 462.936 120.939 463.135 120.927 463.202C120.735 463.986 122.244 466.154 123.442 467.192C123.467 465.85 123.111 464.533 122.424 463.428C122.215 463.154 121.919 462.978 121.598 462.936Z" fill="#7E57C2"/>
<path d="M122.951 469.892H133.553L139.028 442.626H128.426L122.951 469.892Z" fill="#FFC3BD"/>
<path d="M122.987 467.245L134.787 465.423C134.881 465.401 134.978 465.403 135.071 465.428C135.165 465.452 135.252 465.499 135.327 465.565C135.403 465.631 135.464 465.714 135.507 465.809C135.551 465.904 135.575 466.008 135.578 466.114L136.357 476.555C136.359 477.125 136.18 477.678 135.851 478.116C135.523 478.554 135.065 478.849 134.56 478.949C130.439 479.508 128.474 479.534 123.287 480.346C118.999 481.201 114.664 481.739 110.312 481.955C105.952 481.955 106.503 477.074 108.431 476.635C117.105 474.653 118.267 471.395 121.19 468.309C121.675 467.756 122.303 467.384 122.987 467.245Z" fill="#263238"/>
<g opacity="0.2">
<path d="M139.029 442.626L136.202 456.684H125.6L128.415 442.626H139.029Z" fill="black"/>
</g>
<path d="M164.75 212.372C153.117 230.607 146.384 297.56 142.203 333.405C137.854 370.645 125.096 453.998 125.096 453.998H139.472C139.472 453.998 159.275 369.555 166.786 333.205C175.088 293.091 192.351 212.412 192.351 212.412L164.75 212.372Z" fill="#263238"/>
<path opacity="0.2" d="M176.742 243.362C169.733 266.877 169.434 296.563 170.236 316.513C174.549 295.858 179.916 270.574 184.277 250.092L176.742 243.362Z" fill="black"/>
<path d="M193.49 469.346C194.393 469.435 195.297 469.182 196.054 468.628C196.22 468.463 196.347 468.256 196.427 468.024C196.506 467.793 196.534 467.544 196.509 467.298C196.504 467.146 196.462 466.998 196.388 466.87C196.315 466.741 196.212 466.637 196.09 466.567C194.784 465.769 190.555 468.176 190.1 468.442C190.055 468.472 190.019 468.515 189.996 468.567C189.973 468.619 189.963 468.677 189.968 468.735C189.975 468.792 189.999 468.845 190.036 468.885C190.073 468.926 190.12 468.953 190.172 468.961C191.265 469.203 192.376 469.332 193.49 469.346ZM195.371 466.912C195.537 466.899 195.702 466.936 195.85 467.019C195.899 467.045 195.94 467.087 195.968 467.139C195.996 467.191 196.009 467.251 196.006 467.311C196.032 467.475 196.019 467.643 195.968 467.799C195.918 467.955 195.832 468.094 195.719 468.203C195.084 468.854 193.323 468.961 190.927 468.535C192.311 467.71 193.816 467.161 195.371 466.912Z" fill="#7E57C2"/>
<path d="M190.195 468.934H190.303C191.561 468.296 194.064 465.755 193.897 464.425C193.897 464.106 193.645 463.72 192.95 463.641C192.701 463.612 192.45 463.639 192.211 463.721C191.972 463.804 191.751 463.939 191.561 464.119C190.219 465.356 189.979 468.522 189.967 468.655C189.965 468.704 189.973 468.752 189.992 468.796C190.011 468.84 190.039 468.879 190.075 468.907C190.112 468.928 190.153 468.937 190.195 468.934ZM192.723 464.159H192.878C193.334 464.159 193.358 464.412 193.37 464.478C193.489 465.276 191.788 467.271 190.506 468.136C190.607 466.799 191.08 465.53 191.86 464.505C192.1 464.278 192.407 464.155 192.723 464.159Z" fill="#7E57C2"/>
<path d="M179.629 469.892H190.244L189.729 442.626H179.114L179.629 469.892Z" fill="#FFC3BD"/>
<path d="M191.274 468.535H179.354C179.149 468.529 178.949 468.608 178.792 468.755C178.635 468.902 178.533 469.107 178.503 469.333L177.15 479.8C177.122 480.066 177.146 480.334 177.22 480.589C177.293 480.843 177.414 481.077 177.575 481.276C177.735 481.474 177.932 481.633 178.152 481.741C178.372 481.848 178.61 481.903 178.851 481.902C183.008 481.822 185.008 481.543 190.244 481.543C193.466 481.543 202.727 481.915 207.183 481.915C211.64 481.915 211.88 477.034 210.023 476.595C201.709 474.613 195.838 471.873 193.047 469.266C192.551 468.801 191.924 468.542 191.274 468.535Z" fill="#263238"/>
<g opacity="0.2">
<path d="M189.717 442.626L189.992 456.684H179.378L179.114 442.626H189.717Z" fill="black"/>
</g>
<path d="M207.806 213.795C207.806 213.795 203.409 302.428 200.378 338.192C197.215 375.433 191.992 453.905 191.992 453.905H177.616C177.616 453.905 174.477 373.917 176.813 337.301C179.353 297.401 169.937 241.992 176.202 212.705C182.097 212.758 207.806 213.795 207.806 213.795Z" fill="#263238"/>
<path d="M176.443 454.53H193.275L194.113 447.188L175.76 448.638L176.443 454.53Z" fill="#7E57C2"/>
<path d="M124.102 454.53H140.922L142.611 446.723L123.874 448.651L124.102 454.53Z" fill="#7E57C2"/>
<path d="M164.127 209.552L162.929 213.795C162.773 214.114 163.109 214.474 163.612 214.487L207.938 215.95C208.333 215.95 208.657 215.764 208.693 215.484L209.196 211.228C209.196 210.922 208.896 210.67 208.477 210.656L164.87 209.207C164.73 209.189 164.588 209.212 164.458 209.272C164.328 209.333 164.214 209.429 164.127 209.552Z" fill="#7E57C2"/>
<path d="M169.889 215.152H168.691C168.451 215.152 168.284 215.006 168.296 214.846L169.002 209.3C169.002 209.14 169.23 209.021 169.458 209.021H170.656C170.895 209.021 171.063 209.167 171.051 209.326L170.344 214.873C170.332 215.032 170.116 215.165 169.889 215.152Z" fill="#263238"/>
<path d="M204.668 216.309H203.47C203.23 216.309 203.062 216.163 203.086 215.99L203.781 210.457C203.781 210.297 204.009 210.164 204.236 210.178H205.434C205.662 210.178 205.842 210.324 205.818 210.484L205.123 216.016C205.111 216.189 204.859 216.309 204.668 216.309Z" fill="#263238"/>
<path d="M187.285 215.724H186.087C185.859 215.724 185.679 215.564 185.703 215.405L186.398 209.872C186.398 209.699 186.626 209.579 186.865 209.592H188.063C188.291 209.592 188.471 209.739 188.447 209.912L187.752 215.444C187.716 215.604 187.512 215.737 187.285 215.724Z" fill="#263238"/>
</svg>
