<svg width="24" height="24" viewBox="0 0 24 24" fill="none" xmlns="http://www.w3.org/2000/svg">
<path d="M4.266 16.06C5.11187 17.7706 6.48407 19.1649 8.181 20.038C9.86551 20.9034 11.7864 21.1955 13.652 20.87C15.5233 20.5406 17.2377 19.6145 18.539 18.23C19.852 16.832 20.688 15.0539 20.927 13.151C21.1693 11.2437 20.804 9.30863 19.883 7.62098C18.9705 5.94617 17.5441 4.6088 15.814 3.80598C14.0957 3.01014 12.1646 2.79667 10.314 3.19798C8.464 3.59898 6.948 4.51098 5.694 5.95298C5.543 6.11298 4.959 6.75898 4.474 7.73398M7.5 7.99998L3.891 8.71998L3 4.99998M12 8.99998V13L15 15" stroke="#E1C8FF" stroke-width="2" stroke-linecap="round" stroke-linejoin="round"/>
</svg>
