<svg width="24" height="24" viewBox="0 0 24 24" fill="none" xmlns="http://www.w3.org/2000/svg">
<g clip-path="url(#clip0_207_434)">
<path d="M16.2856 0.857117C14.4669 0.857117 12.7228 1.57956 11.4368 2.86553C10.1509 4.15149 9.42843 5.89563 9.42843 7.71426C9.43468 8.64407 9.62097 9.56387 9.977 10.4228L8.57129 13.7143L12.2399 13.2514C13.1143 13.8901 14.1275 14.3127 15.1966 14.4845C16.2657 14.6563 17.3603 14.5725 18.3908 14.2399C19.4213 13.9074 20.3584 13.3354 21.1253 12.571C21.8923 11.8066 22.4673 10.8714 22.8033 9.84206C23.1393 8.81268 23.2268 7.71835 23.0585 6.64867C22.8902 5.57899 22.471 4.56436 21.8352 3.68786C21.1994 2.81135 20.365 2.09788 19.4004 1.60586C18.4358 1.11384 17.3684 0.85726 16.2856 0.857117Z" stroke="#E1C8FF" stroke-width="1.6" stroke-linecap="round" stroke-linejoin="round"/>
<path d="M8.57171 0.857117H2.57171C2.11705 0.857117 1.68102 1.03773 1.35952 1.35922C1.03803 1.68071 0.857422 2.11675 0.857422 2.5714V21.4285C0.857422 21.8832 1.03803 22.3192 1.35952 22.6407C1.68102 22.9622 2.11705 23.1428 2.57171 23.1428H14.5717C15.0264 23.1428 15.4624 22.9622 15.7839 22.6407C16.1054 22.3192 16.286 21.8832 16.286 21.4285V18M7.71456 18.8571H9.42885" stroke="#E1C8FF" stroke-width="1.6" stroke-linecap="round" stroke-linejoin="round"/>
<path d="M14.5717 6H18.8574M12.8574 9.42857H19.7146" stroke="#E1C8FF" stroke-width="1.5" stroke-linecap="round"/>
</g>
<defs>
<clipPath id="clip0_207_434">
<rect width="24" height="24" fill="white"/>
</clipPath>
</defs>
</svg>
