<svg width="550" height="534" viewBox="0 0 550 534" fill="none" xmlns="http://www.w3.org/2000/svg">
<path d="M274.915 533.214C426.747 533.214 549.831 462.152 549.831 374.491C549.831 286.831 426.747 215.768 274.915 215.768C123.084 215.768 0 286.831 0 374.491C0 462.152 123.084 533.214 274.915 533.214Z" fill="#F2E7F4"/>
<path d="M432.798 429.565C414.771 419.157 414.771 402.285 432.798 391.877C450.826 381.469 480.055 381.469 498.082 391.877C516.11 402.285 516.11 419.157 498.082 429.565C480.055 439.973 450.826 439.973 432.798 429.565Z" fill="#EAD9FF"/>
<path d="M66.1356 431.012L18.7159 403.639C16.0439 402.098 16.0439 399.59 18.7159 398.049L294.541 238.801C296.04 238.042 297.697 237.646 299.378 237.646C301.058 237.646 302.715 238.042 304.214 238.801L351.646 266.175C354.318 267.715 354.318 270.224 351.646 271.764L75.8203 431.012C74.3192 431.772 72.6604 432.168 70.978 432.168C69.2955 432.168 67.6367 431.772 66.1356 431.012Z" fill="#EAD9FF"/>
<path d="M236.585 382.216L277.354 358.646C281.554 356.219 283.655 353.045 283.655 349.86C283.655 346.674 283.655 344.189 283.655 344.189L241.369 320.339C240.188 319.575 239.204 318.543 238.499 317.326C237.793 316.109 237.385 314.743 237.309 313.338V263.06L166.132 304.202V354.457C166.214 355.86 166.624 357.225 167.33 358.44C168.035 359.656 169.016 360.69 170.193 361.458L206.178 382.181C214.555 387.07 228.184 387.07 236.585 382.216Z" fill="#7E57C2"/>
<g opacity="0.6">
<path d="M236.585 382.216L277.354 358.646C281.554 356.219 283.655 353.045 283.655 349.86C283.655 346.674 283.655 344.189 283.655 344.189L241.369 320.339C240.188 319.575 239.204 318.543 238.499 317.326C237.793 316.109 237.385 314.743 237.309 313.338V263.06L166.132 304.202V354.457C166.214 355.86 166.624 357.225 167.33 358.44C168.035 359.656 169.016 360.69 170.193 361.458L206.178 382.181C214.555 387.07 228.184 387.07 236.585 382.216Z" fill="black"/>
</g>
<path opacity="0.3" d="M183.203 363.36V369.007L170.158 361.481C168.981 360.714 168.001 359.68 167.297 358.464C166.594 357.248 166.187 355.883 166.109 354.48V304.202L179.667 296.372C179.947 299.815 180.251 303.373 180.542 306.874L171.01 312.358V351.622C171.085 353.026 171.492 354.393 172.198 355.61C172.904 356.827 173.888 357.859 175.07 358.622L183.203 363.36Z" fill="black"/>
<path d="M171.01 351.633C171.09 353.037 171.499 354.402 172.205 355.618C172.91 356.834 173.892 357.868 175.07 358.634L206.131 376.533C214.532 381.375 228.161 381.387 236.574 376.533L277.412 352.963C285.825 348.109 285.825 340.245 277.412 335.391L246.328 317.492C245.152 316.723 244.174 315.689 243.47 314.473C242.767 313.257 242.359 311.893 242.279 310.491V271.216L171.103 312.358L171.01 351.633Z" fill="#7E57C2"/>
<path opacity="0.3" d="M171.01 351.633C171.09 353.037 171.499 354.402 172.205 355.618C172.91 356.834 173.892 357.868 175.07 358.634L206.131 376.533C214.532 381.375 228.161 381.387 236.574 376.533L277.412 352.963C285.825 348.109 285.825 340.245 277.412 335.391L246.328 317.492C245.152 316.723 244.174 315.689 243.47 314.473C242.767 313.257 242.359 311.893 242.279 310.491V271.216L171.103 312.358L171.01 351.633Z" fill="black"/>
<path opacity="0.5" d="M254.555 322.288L246.282 317.515C245.106 316.747 244.127 315.713 243.424 314.497C242.721 313.281 242.313 311.917 242.233 310.514V271.216L171.057 312.358V351.633C171.137 353.037 171.546 354.402 172.252 355.618C172.957 356.834 173.939 357.867 175.117 358.634L183.285 363.301L254.555 322.288Z" fill="black"/>
<path d="M283.667 344.2V349.871C283.667 353.057 281.555 356.219 277.366 358.657L236.527 382.216C232.058 384.601 227.066 385.84 222 385.821V380.174C227.066 380.193 232.058 378.954 236.527 376.568L277.366 352.987C281.555 350.571 283.667 347.386 283.667 344.2Z" fill="#7E57C2"/>
<path opacity="0.5" d="M283.667 344.2V349.871C283.667 353.057 281.555 356.219 277.366 358.657L236.527 382.216C232.058 384.601 227.066 385.84 222 385.821V380.174C227.066 380.193 232.058 378.954 236.527 376.568L277.366 352.987C281.555 350.571 283.667 347.386 283.667 344.2Z" fill="black"/>
<path d="M56.6609 400.441C58.1997 401.185 59.8914 401.556 61.6 401.526C63.3085 401.495 64.986 401.064 66.4973 400.266L341.868 241.287C343.344 240.324 344.573 239.026 345.455 237.5C346.337 235.973 346.847 234.261 346.943 232.501V9.73056C346.891 8.0181 346.434 6.34233 345.611 4.8398C344.787 3.33728 343.621 2.05052 342.206 1.0844C340.669 0.340383 338.978 -0.0304808 337.271 0.00195894C335.564 0.0343987 333.889 0.469226 332.381 1.27109L57.011 160.297C55.5396 161.267 54.3181 162.57 53.4462 164.101C52.5742 165.632 52.0765 167.347 51.9937 169.107V391.842C52.0457 393.54 52.495 395.203 53.3055 396.696C54.1161 398.19 55.2652 399.472 56.6609 400.441Z" fill="#7E57C2"/>
<path d="M66.5322 400.255L341.903 241.275C343.381 240.314 344.611 239.017 345.494 237.49C346.376 235.963 346.884 234.25 346.978 232.489V9.73055C346.978 6.49845 344.703 5.17994 341.903 6.80183L66.5322 165.782C65.055 166.744 63.8256 168.041 62.9437 169.568C62.0618 171.094 61.5523 172.807 61.4565 174.568V397.326C61.4565 400.558 63.7318 401.877 66.5322 400.255Z" fill="#7E57C2"/>
<path opacity="0.5" d="M66.5322 400.255L341.903 241.275C343.381 240.314 344.611 239.017 345.494 237.49C346.376 235.963 346.884 234.25 346.978 232.489V9.73055C346.978 6.49845 344.703 5.17994 341.903 6.80183L66.5322 165.782C65.055 166.744 63.8256 168.041 62.9437 169.568C62.0618 171.094 61.5523 172.807 61.4565 174.568V397.326C61.4565 400.558 63.7318 401.877 66.5322 400.255Z" fill="black"/>
<path d="M65.7855 406.042C64.3415 406.672 62.778 406.982 61.2027 406.95C59.6275 406.918 58.078 406.544 56.6609 405.855C55.2621 404.884 54.111 403.598 53.3003 402.1C52.4897 400.602 52.0421 398.935 51.9937 397.233V376.953L61.5033 382.461V402.74C61.4449 405.692 63.3235 407.034 65.7855 406.042Z" fill="#7E57C2"/>
<path opacity="0.5" d="M65.7855 406.042C64.3415 406.672 62.778 406.982 61.2027 406.95C59.6275 406.918 58.078 406.544 56.6609 405.855C55.2621 404.884 54.111 403.598 53.3003 402.1C52.4897 400.602 52.0421 398.935 51.9937 397.233V376.953L61.5033 382.461V402.74C61.4449 405.692 63.3235 407.034 65.7855 406.042Z" fill="black"/>
<path d="M61.4448 382.461V402.74C61.4448 405.972 63.7785 407.279 66.5205 405.669L341.891 246.689C343.361 245.731 344.586 244.441 345.468 242.923C346.349 241.405 346.863 239.702 346.966 237.95V217.577L61.4448 382.461Z" fill="#7E57C2"/>
<path opacity="0.3" d="M61.4565 382.414V402.74C61.4565 405.972 63.7902 407.279 66.5322 405.669L341.903 246.689C343.371 245.729 344.594 244.439 345.473 242.921C346.353 241.403 346.864 239.701 346.967 237.95V217.577L61.4565 382.414Z" fill="black"/>
<path d="M70.9663 356.966V177.73C71.0206 176.674 71.3237 175.646 71.851 174.729C72.3782 173.813 73.1146 173.034 74 172.456L334.365 22.0872C336.045 21.1187 337.41 21.9005 337.41 23.8374V203.167C337.354 204.223 337.049 205.252 336.519 206.168C335.99 207.085 335.252 207.863 334.365 208.441L74.0117 358.774C72.3315 359.743 70.9663 358.949 70.9663 356.966Z" fill="#7E57C2"/>
<path d="M70.9663 356.966V177.73C71.0206 176.674 71.3237 175.646 71.851 174.729C72.3782 173.813 73.1146 173.034 74 172.456L334.365 22.0872C336.045 21.1187 337.41 21.9005 337.41 23.8374V203.167C337.354 204.223 337.049 205.252 336.519 206.168C335.99 207.085 335.252 207.863 334.365 208.441L74.0117 358.774C72.3315 359.743 70.9663 358.949 70.9663 356.966Z" fill="#BEABE1"/>
<path d="M204.206 306.477C202.82 307.378 201.666 308.594 200.839 310.026C200.012 311.457 199.534 313.064 199.445 314.715C199.445 317.749 201.581 318.985 204.206 317.469C205.593 316.566 206.748 315.348 207.575 313.915C208.403 312.481 208.879 310.872 208.967 309.219C208.967 306.185 206.831 304.96 204.206 306.477Z" fill="#7E57C2"/>
<path opacity="0.7" d="M62.9501 169.55C62.0458 171.07 61.5289 172.789 61.4449 174.556V382.461L51.9937 376.953V169.107C52.0549 167.334 52.5691 165.607 53.4872 164.09L62.9501 169.55Z" fill="black"/>
<path opacity="0.3" d="M346.92 8.89047C346.559 6.27679 344.447 5.39001 341.891 6.80186L66.5209 165.782C65.0279 166.715 63.7955 168.012 62.9388 169.55L53.4175 164.055C54.28 162.517 55.5159 161.22 57.0113 160.286L332.382 1.31779C333.891 0.515813 335.568 0.0809652 337.277 0.0485283C338.987 0.0160914 340.679 0.386979 342.218 1.1311C343.512 2.01247 344.601 3.16132 345.412 4.49998C346.223 5.83864 346.738 7.33588 346.92 8.89047Z" fill="black"/>
<path d="M312.487 175.431L156.868 265.277C156.111 265.768 155.481 266.43 155.029 267.211C154.576 267.992 154.315 268.868 154.266 269.769V314.388C154.315 315.289 154.576 316.165 155.029 316.946C155.481 317.727 156.111 318.389 156.868 318.88L161.407 321.494C162.213 321.902 163.105 322.115 164.009 322.115C164.913 322.115 165.804 321.902 166.611 321.494L322.207 231.649C322.964 231.155 323.594 230.49 324.046 229.708C324.498 228.925 324.759 228.047 324.809 227.145V182.514C324.759 181.613 324.498 180.737 324.046 179.956C323.593 179.175 322.963 178.513 322.207 178.022L317.656 175.408C316.853 175.006 315.967 174.799 315.069 174.803C314.171 174.807 313.286 175.022 312.487 175.431Z" fill="#7E57C2"/>
<path opacity="0.5" d="M324.808 182.117C324.622 180.775 323.537 180.285 322.23 181.044L166.611 270.889C165.843 271.366 165.212 272.033 164.779 272.826L155.036 267.202C155.472 266.421 156.098 265.763 156.856 265.288L312.487 175.443C313.291 175.034 314.181 174.821 315.083 174.821C315.985 174.821 316.875 175.034 317.679 175.443L322.23 178.057C322.924 178.511 323.512 179.108 323.957 179.809C324.402 180.509 324.692 181.296 324.808 182.117Z" fill="#967ACB"/>
<path d="M166.167 321.716C165.405 322.016 164.589 322.153 163.77 322.116C162.952 322.08 162.151 321.872 161.418 321.506L156.868 318.892C156.112 318.4 155.483 317.737 155.031 316.956C154.579 316.176 154.317 315.3 154.266 314.4V269.781C154.301 268.87 154.566 267.983 155.036 267.202L164.779 272.826C164.305 273.597 164.04 274.477 164.009 275.381V320.012C164.009 321.494 164.942 322.183 166.167 321.716Z" fill="#331863"/>
<path d="M166.611 270.889L322.23 181.044C323.665 180.215 324.832 180.88 324.832 182.537V227.168C324.783 228.07 324.521 228.949 324.069 229.731C323.617 230.514 322.987 231.179 322.23 231.672L166.634 321.517C165.199 322.346 164.032 321.669 164.032 320.012V275.393C164.079 274.493 164.337 273.616 164.785 272.834C165.233 272.051 165.858 271.385 166.611 270.889Z" fill="#7E57C2"/>
<path d="M271.229 199.258L156.88 265.288C156.122 265.763 155.496 266.421 155.06 267.202L164.803 272.826C165.236 272.033 165.867 271.366 166.634 270.889L280.983 204.87L271.229 199.258Z" fill="#967ACB"/>
<path d="M280.96 204.87L166.611 270.889C165.854 271.383 165.224 272.048 164.772 272.83C164.32 273.613 164.058 274.491 164.009 275.393V320.001C164.009 321.657 165.176 322.334 166.611 321.506L280.96 255.487V204.87Z" fill="#B69CE5"/>
<path d="M192.981 265.452L251.987 231.392C254.426 229.98 256.409 230.984 256.409 233.632C256.3 235.12 255.842 236.561 255.071 237.838C254.301 239.115 253.24 240.193 251.975 240.983L192.981 275.055C190.542 276.466 188.547 275.463 188.547 272.814C188.657 271.325 189.116 269.883 189.886 268.604C190.656 267.325 191.716 266.245 192.981 265.452Z" fill="#7E57C2"/>
<path d="M205.07 276.735C205.08 276.722 205.094 276.712 205.109 276.706C205.124 276.699 205.141 276.695 205.157 276.695C205.174 276.695 205.19 276.699 205.205 276.706C205.22 276.712 205.234 276.722 205.245 276.735C205.297 276.814 205.321 276.908 205.315 277.003V283.642C205.315 284.284 205.261 284.924 205.151 285.556C205.055 286.133 204.89 286.697 204.661 287.236C204.452 287.73 204.177 288.193 203.844 288.613C203.516 289.003 203.121 289.331 202.678 289.582C202.33 289.808 201.925 289.929 201.511 289.932C201.352 289.919 201.198 289.874 201.058 289.8C200.917 289.726 200.794 289.624 200.694 289.5C200.438 289.157 200.27 288.756 200.204 288.333C200.092 287.768 200.041 287.193 200.052 286.618V279.967C200.052 279.851 200.076 279.735 200.122 279.629C200.151 279.532 200.213 279.45 200.297 279.395L201.032 278.963C201.056 278.941 201.087 278.929 201.12 278.929C201.152 278.929 201.184 278.941 201.207 278.963C201.261 279.042 201.286 279.137 201.277 279.232V285.789C201.268 286.15 201.304 286.511 201.382 286.863C201.415 287.088 201.512 287.299 201.662 287.47C201.715 287.532 201.781 287.582 201.856 287.614C201.931 287.646 202.013 287.661 202.094 287.656C202.294 287.643 202.487 287.579 202.654 287.47C202.862 287.346 203.05 287.192 203.214 287.015C203.396 286.805 203.546 286.569 203.658 286.314C203.789 286.015 203.887 285.702 203.949 285.381C204.017 284.996 204.049 284.605 204.043 284.214V277.645C204.046 277.528 204.074 277.413 204.124 277.307C204.153 277.21 204.215 277.128 204.299 277.073L205.07 276.735Z" fill="#FAFAFA"/>
<path d="M209.643 283.012C209.649 282.927 209.628 282.841 209.584 282.767C209.557 282.737 209.522 282.714 209.483 282.699C209.445 282.685 209.403 282.681 209.363 282.686C209.219 282.666 209.074 282.666 208.931 282.686L208.254 282.814C208.036 282.868 207.807 282.868 207.589 282.814C207.418 282.759 207.27 282.648 207.169 282.499C207.055 282.31 206.98 282.099 206.947 281.881C206.833 281.256 206.833 280.615 206.947 279.99C207.035 279.632 207.16 279.284 207.321 278.952C207.481 278.62 207.676 278.307 207.904 278.018C208.125 277.743 208.394 277.51 208.698 277.33C208.943 277.18 209.217 277.085 209.503 277.05C209.71 277.028 209.918 277.073 210.098 277.178C210.269 277.283 210.403 277.438 210.483 277.622C210.577 277.839 210.628 278.073 210.634 278.31C210.647 278.427 210.622 278.546 210.564 278.648C210.536 278.745 210.474 278.827 210.389 278.882L209.689 279.29C209.657 279.309 209.621 279.318 209.584 279.318C209.547 279.318 209.511 279.309 209.479 279.29L209.328 279.174C209.267 279.126 209.194 279.098 209.118 279.092C208.968 279.109 208.824 279.161 208.698 279.244C208.514 279.354 208.352 279.496 208.219 279.664C208.078 279.847 208.004 280.074 208.009 280.305C207.993 280.394 207.993 280.485 208.009 280.574C208.031 280.607 208.061 280.634 208.095 280.654C208.129 280.675 208.168 280.687 208.207 280.69C208.335 280.712 208.465 280.712 208.593 280.69L209.246 280.574C209.794 280.469 210.168 280.574 210.413 280.877C210.67 281.309 210.788 281.81 210.751 282.312C210.748 282.659 210.701 283.004 210.611 283.339C210.519 283.703 210.386 284.055 210.214 284.389C210.043 284.735 209.827 285.056 209.573 285.346C209.331 285.63 209.043 285.87 208.721 286.058C208.464 286.222 208.172 286.322 207.869 286.349C207.65 286.357 207.433 286.296 207.251 286.174C207.071 286.051 206.932 285.876 206.854 285.673C206.76 285.451 206.712 285.213 206.714 284.973C206.703 284.852 206.727 284.73 206.784 284.623C206.813 284.526 206.875 284.444 206.959 284.389L207.659 283.981C207.752 283.981 207.822 283.923 207.869 283.981L208.021 284.144C208.052 284.179 208.089 284.207 208.132 284.227C208.174 284.247 208.219 284.259 208.266 284.261C208.43 284.262 208.59 284.208 208.721 284.109C208.932 283.99 209.121 283.836 209.281 283.654C209.36 283.558 209.427 283.452 209.479 283.339C209.562 283.247 209.618 283.134 209.643 283.012Z" fill="#FAFAFA"/>
<path d="M212.023 279.85C212.021 279.244 212.072 278.639 212.175 278.042C212.272 277.48 212.425 276.929 212.63 276.396C212.802 275.92 213.037 275.468 213.33 275.055C213.575 274.699 213.893 274.401 214.264 274.179C214.534 273.998 214.864 273.927 215.185 273.981C215.471 274.047 215.72 274.218 215.886 274.46C216.105 274.776 216.26 275.133 216.341 275.51C216.452 276 216.507 276.501 216.504 277.003V277.727C216.508 277.848 216.479 277.969 216.422 278.077C216.394 278.173 216.332 278.256 216.247 278.31L213.213 280.072C213.206 280.277 213.234 280.482 213.295 280.679C213.34 280.811 213.421 280.928 213.529 281.017C213.624 281.093 213.745 281.13 213.867 281.122C214.008 281.105 214.143 281.058 214.264 280.982C214.44 280.886 214.598 280.76 214.73 280.609C214.85 280.474 214.952 280.325 215.034 280.165C215.084 280.073 215.138 279.984 215.197 279.897C215.247 279.838 215.306 279.786 215.372 279.745L216.096 279.325C216.12 279.305 216.151 279.294 216.183 279.294C216.215 279.294 216.246 279.305 216.271 279.325C216.301 279.362 216.323 279.405 216.335 279.452C216.348 279.498 216.349 279.546 216.341 279.594C216.328 279.821 216.281 280.045 216.201 280.259C216.1 280.582 215.967 280.895 215.804 281.192C215.621 281.534 215.402 281.855 215.15 282.149C214.899 282.45 214.6 282.706 214.264 282.907C213.988 283.088 213.658 283.166 213.33 283.129C213.043 283.06 212.793 282.885 212.63 282.639C212.4 282.285 212.246 281.888 212.175 281.472C212.069 280.938 212.018 280.395 212.023 279.85ZM214.264 276.128C214.084 276.225 213.929 276.36 213.809 276.525C213.679 276.688 213.573 276.869 213.494 277.062C213.412 277.254 213.345 277.453 213.295 277.657C213.254 277.841 213.227 278.028 213.213 278.217L215.267 277.05C215.255 276.889 215.232 276.729 215.197 276.571C215.179 276.431 215.123 276.297 215.034 276.186C214.999 276.136 214.954 276.093 214.902 276.061C214.849 276.029 214.791 276.008 214.73 276C214.564 275.986 214.399 276.031 214.264 276.128Z" fill="#FAFAFA"/>
<path d="M220.168 272.873C219.814 273.074 219.536 273.386 219.374 273.759C219.193 274.252 219.11 274.775 219.129 275.3V279.512C219.131 279.632 219.107 279.751 219.059 279.862C219.031 279.958 218.969 280.041 218.884 280.095L218.196 280.492C218.185 280.504 218.171 280.514 218.156 280.521C218.141 280.528 218.125 280.532 218.108 280.532C218.092 280.532 218.075 280.528 218.06 280.521C218.045 280.514 218.032 280.504 218.021 280.492C217.969 280.413 217.944 280.318 217.951 280.224V272.674C217.951 272.554 217.975 272.435 218.021 272.324C218.053 272.23 218.115 272.149 218.196 272.091L218.884 271.694C218.908 271.672 218.939 271.66 218.972 271.66C219.004 271.66 219.036 271.672 219.059 271.694C219.113 271.768 219.138 271.86 219.129 271.951V272.324C219.268 272.011 219.44 271.714 219.643 271.437C219.827 271.182 220.066 270.971 220.343 270.819L220.763 270.574C220.785 270.553 220.814 270.541 220.845 270.541C220.875 270.541 220.904 270.553 220.926 270.574C220.983 270.652 221.011 270.746 221.008 270.842V271.904C221.006 272.025 220.978 272.145 220.926 272.254C220.897 272.347 220.84 272.428 220.763 272.488L220.168 272.873Z" fill="#FAFAFA"/>
<path d="M228.872 272.313C228.883 272.3 228.897 272.29 228.912 272.283C228.927 272.277 228.943 272.273 228.96 272.273C228.976 272.273 228.993 272.277 229.008 272.283C229.023 272.29 229.037 272.3 229.047 272.313C229.1 272.392 229.124 272.486 229.117 272.581V273.748C229.117 273.868 229.093 273.987 229.047 274.098C229.007 274.184 228.947 274.26 228.872 274.319L224.882 276.653C224.858 276.675 224.827 276.688 224.794 276.688C224.762 276.688 224.731 276.675 224.707 276.653C224.655 276.578 224.63 276.487 224.637 276.396V265.895C224.637 265.775 224.661 265.656 224.707 265.545C224.739 265.454 224.801 265.376 224.882 265.323L225.617 264.892C225.641 264.869 225.672 264.857 225.705 264.857C225.737 264.857 225.768 264.869 225.792 264.892C225.844 264.966 225.869 265.057 225.862 265.148V274.028L228.872 272.313Z" fill="#FAFAFA"/>
<path d="M232.454 263.678C232.717 263.496 233.034 263.41 233.353 263.433C233.626 263.455 233.881 263.58 234.065 263.783C234.282 264.033 234.442 264.328 234.531 264.647C234.656 265.06 234.727 265.487 234.741 265.918C234.741 266.012 234.741 266.14 234.741 266.292V267.19C234.741 267.33 234.741 267.459 234.741 267.564C234.718 268.071 234.648 268.575 234.531 269.069C234.424 269.55 234.267 270.019 234.065 270.469C233.88 270.888 233.64 271.28 233.353 271.636C233.107 271.958 232.802 272.232 232.454 272.441C232.184 272.616 231.866 272.702 231.544 272.686C231.275 272.663 231.025 272.537 230.844 272.336C230.62 272.095 230.46 271.802 230.378 271.484C230.253 271.071 230.182 270.644 230.167 270.212C230.167 270.119 230.167 270.002 230.167 269.851V268.952C230.167 268.8 230.167 268.672 230.167 268.579C230.181 268.068 230.248 267.559 230.366 267.062C230.479 266.577 230.64 266.104 230.844 265.65C231.03 265.234 231.265 264.842 231.544 264.483C231.792 264.157 232.101 263.884 232.454 263.678ZM233.551 266.688C233.551 266.43 233.507 266.174 233.423 265.93C233.38 265.781 233.29 265.65 233.166 265.557C233.067 265.49 232.947 265.461 232.828 265.475C232.694 265.5 232.568 265.552 232.454 265.627C232.317 265.702 232.192 265.796 232.081 265.907C231.947 266.046 231.833 266.203 231.743 266.373C231.625 266.586 231.539 266.814 231.486 267.05C231.409 267.348 231.363 267.653 231.346 267.96C231.346 268.054 231.346 268.159 231.346 268.287V269.115C231.346 269.244 231.346 269.349 231.346 269.419C231.357 269.677 231.404 269.932 231.486 270.177C231.529 270.326 231.619 270.457 231.743 270.551C231.791 270.585 231.846 270.609 231.905 270.621C231.963 270.633 232.023 270.633 232.081 270.621C232.213 270.598 232.34 270.551 232.454 270.481C232.59 270.403 232.715 270.309 232.828 270.201C232.958 270.058 233.072 269.902 233.166 269.734C233.278 269.519 233.365 269.292 233.423 269.057C233.499 268.759 233.542 268.454 233.551 268.147C233.558 268.038 233.558 267.929 233.551 267.82V267.004C233.558 266.899 233.558 266.793 233.551 266.688Z" fill="#FAFAFA"/>
<path d="M238.312 270.504C238.461 270.413 238.595 270.299 238.709 270.166C238.849 270.001 238.971 269.821 239.07 269.629C239.186 269.394 239.276 269.148 239.339 268.894C239.41 268.608 239.446 268.314 239.444 268.019V267.424C239.444 267.54 239.327 267.68 239.245 267.844C239.165 268.014 239.072 268.178 238.965 268.334C238.843 268.498 238.711 268.654 238.569 268.8C238.422 268.954 238.253 269.084 238.067 269.185C237.947 269.267 237.812 269.324 237.669 269.352C237.527 269.38 237.38 269.379 237.238 269.349C236.979 269.268 236.756 269.098 236.608 268.87C236.418 268.569 236.28 268.238 236.2 267.89C236.1 267.45 236.046 267 236.037 266.548C236.037 266.397 236.037 266.21 236.037 265.988C236.037 265.767 236.037 265.58 236.037 265.417C236.051 264.904 236.106 264.393 236.2 263.888C236.296 263.392 236.432 262.904 236.608 262.43C236.773 262.018 236.985 261.626 237.238 261.263C237.454 260.941 237.736 260.67 238.067 260.469C238.222 260.376 238.392 260.309 238.569 260.271C238.7 260.247 238.834 260.247 238.965 260.271C239.069 260.3 239.164 260.352 239.245 260.423C239.32 260.48 239.387 260.546 239.444 260.621V260.248C239.444 260.128 239.468 260.009 239.514 259.898C239.546 259.807 239.608 259.729 239.689 259.676L240.377 259.268C240.401 259.245 240.432 259.233 240.465 259.233C240.497 259.233 240.528 259.245 240.552 259.268C240.609 259.345 240.637 259.44 240.634 259.536V267.12C240.665 268.256 240.455 269.386 240.015 270.434C239.671 271.258 239.075 271.953 238.312 272.418C238.052 272.579 237.754 272.672 237.448 272.686C237.206 272.701 236.966 272.639 236.76 272.511C236.563 272.363 236.403 272.172 236.293 271.951C236.18 271.685 236.116 271.4 236.107 271.111C236.096 270.99 236.12 270.868 236.177 270.761C236.205 270.665 236.267 270.582 236.352 270.527L236.97 270.177C236.984 270.162 237.001 270.15 237.021 270.142C237.04 270.133 237.06 270.129 237.081 270.129C237.102 270.129 237.122 270.133 237.141 270.142C237.16 270.15 237.178 270.162 237.192 270.177C237.249 270.238 237.3 270.304 237.343 270.376C237.414 270.501 237.532 270.593 237.67 270.632C237.81 270.737 238.02 270.621 238.312 270.504ZM237.215 264.845C237.215 265.156 237.215 265.459 237.215 265.755C237.182 266.221 237.314 266.684 237.588 267.062C237.692 267.151 237.825 267.201 237.962 267.201C238.099 267.201 238.231 267.151 238.335 267.062C238.674 266.842 238.938 266.525 239.094 266.152C239.306 265.665 239.425 265.142 239.444 264.612C239.444 264.437 239.444 264.226 239.444 263.981C239.444 263.736 239.444 263.526 239.444 263.375C239.467 262.957 239.344 262.544 239.094 262.208C238.99 262.113 238.855 262.06 238.714 262.06C238.574 262.06 238.439 262.113 238.335 262.208C238.003 262.427 237.743 262.74 237.588 263.106C237.349 263.655 237.222 264.246 237.215 264.845Z" fill="#FAFAFA"/>
<path d="M243.353 254.483C243.376 254.464 243.405 254.454 243.434 254.454C243.464 254.454 243.493 254.464 243.516 254.483C243.577 254.559 243.606 254.655 243.598 254.752V256.024C243.599 256.145 243.571 256.265 243.516 256.374C243.483 256.461 243.427 256.538 243.353 256.595L242.571 257.05C242.56 257.063 242.547 257.073 242.531 257.08C242.516 257.086 242.5 257.09 242.483 257.09C242.467 257.09 242.451 257.086 242.435 257.08C242.42 257.073 242.407 257.063 242.396 257.05C242.365 257.016 242.342 256.975 242.328 256.931C242.314 256.886 242.31 256.84 242.314 256.794V255.522C242.313 255.4 242.341 255.28 242.396 255.172C242.429 255.081 242.49 255.003 242.571 254.95L243.353 254.483ZM243.551 265.44C243.551 265.556 243.528 265.672 243.481 265.778C243.444 265.87 243.384 265.95 243.306 266.012L242.606 266.408C242.596 266.421 242.584 266.43 242.57 266.437C242.555 266.444 242.54 266.447 242.524 266.447C242.509 266.447 242.493 266.444 242.479 266.437C242.465 266.43 242.452 266.421 242.443 266.408C242.382 266.333 242.352 266.237 242.361 266.14V258.591C242.36 258.469 242.388 258.349 242.443 258.241C242.476 258.15 242.532 258.069 242.606 258.007L243.306 257.611C243.33 257.588 243.361 257.576 243.394 257.576C243.426 257.576 243.457 257.588 243.481 257.611C243.533 257.685 243.558 257.776 243.551 257.867V265.44Z" fill="#FAFAFA"/>
<path d="M249.688 261.881C249.688 262.001 249.664 262.12 249.618 262.231C249.585 262.322 249.524 262.4 249.443 262.453L248.743 262.861C248.721 262.883 248.692 262.895 248.661 262.895C248.631 262.895 248.601 262.883 248.58 262.861C248.519 262.786 248.489 262.69 248.498 262.593V258.486C248.534 258.001 248.445 257.515 248.241 257.074C248.078 256.782 247.821 256.735 247.459 256.945C247.099 257.188 246.831 257.546 246.701 257.961C246.506 258.511 246.411 259.092 246.421 259.676V263.795C246.42 263.915 246.397 264.034 246.351 264.145C246.322 264.241 246.26 264.324 246.176 264.378L245.488 264.775C245.477 264.787 245.463 264.797 245.448 264.804C245.433 264.811 245.417 264.814 245.4 264.814C245.383 264.814 245.367 264.811 245.352 264.804C245.337 264.797 245.323 264.787 245.313 264.775C245.258 264.701 245.234 264.609 245.243 264.518V256.969C245.241 256.848 245.265 256.729 245.313 256.619C245.341 256.523 245.403 256.44 245.488 256.385L246.176 255.989C246.187 255.976 246.2 255.966 246.215 255.959C246.231 255.953 246.247 255.949 246.263 255.949C246.28 255.949 246.296 255.953 246.312 255.959C246.327 255.966 246.34 255.976 246.351 255.989C246.403 256.068 246.428 256.162 246.421 256.257V256.619C246.575 256.263 246.762 255.923 246.981 255.604C247.173 255.309 247.433 255.065 247.74 254.892C248.005 254.698 248.335 254.614 248.661 254.658C248.79 254.691 248.911 254.75 249.016 254.833C249.12 254.915 249.206 255.019 249.268 255.137C249.437 255.453 249.548 255.797 249.595 256.152C249.657 256.616 249.688 257.084 249.688 257.552V261.881Z" fill="#FAFAFA"/>
<path d="M308.543 227.915L297.213 234.449L298.975 218.557C297.61 217.834 296.747 216.072 296.747 213.54C296.747 209.024 299.5 203.785 302.884 201.871C306.268 199.958 309.01 201.988 309.01 206.539C308.94 209.216 308.176 211.829 306.793 214.123L308.543 227.915Z" fill="#455A64"/>
<path d="M308.555 227.915L298.579 222.162L297.213 234.461L308.555 227.915Z" fill="#331863"/>
<path d="M302.861 201.836C300.394 203.503 298.554 205.947 297.634 208.779L306.77 214.053C308.153 211.759 308.917 209.146 308.987 206.469C309.01 201.953 306.268 199.888 302.861 201.836Z" fill="#331863"/>
<path d="M247.786 148.921C243.901 146.681 238.545 146.996 232.618 150.414C220.786 157.252 211.195 173.856 211.195 187.519C211.195 194.38 213.622 199.188 217.519 201.405L225.068 205.792C228.942 208.032 234.298 207.706 240.237 204.287C252.069 197.461 261.66 180.845 261.66 167.182C261.66 160.356 259.256 155.514 255.382 153.332" fill="#7E57C2"/>
<path d="M240.226 154.813C228.394 161.651 218.803 178.267 218.803 191.918C218.803 205.57 228.394 211.124 240.226 204.287C252.057 197.449 261.66 180.845 261.648 167.182C261.637 153.518 252.046 147.987 240.226 154.813Z" fill="#7E57C2"/>
<path d="M252.046 185.127V186.691C249.211 191.75 245.146 196.013 240.226 199.083C235.617 201.731 231.451 202.023 228.394 200.331V197.111C228.551 193.76 229.507 190.496 231.184 187.591C232.861 184.686 235.209 182.225 238.032 180.414L241.147 178.617C243.901 177.03 246.585 176.82 248.685 178.045C250.785 179.27 252.046 181.849 252.046 185.127Z" fill="#7E57C2"/>
<path opacity="0.4" d="M247.786 148.921L255.371 153.332C251.497 151.08 246.141 151.395 240.202 154.813C232.454 159.294 225.663 167.964 221.906 177.251L214.31 172.853C218.079 163.518 224.811 154.895 232.606 150.415C238.557 147.007 243.912 146.681 247.786 148.921Z" fill="white"/>
<path opacity="0.2" d="M224.8 205.617L217.531 201.405C213.634 199.188 211.207 194.404 211.207 187.52L218.803 191.93C218.849 198.581 221.09 203.318 224.8 205.617Z" fill="black"/>
<path opacity="0.1" d="M214.334 172.853L221.93 177.251C219.984 181.901 218.938 186.878 218.849 191.918L211.253 187.508C211.347 182.472 212.392 177.5 214.334 172.853Z" fill="black"/>
<path d="M237.519 177.882C236.795 177.889 236.082 177.704 235.454 177.345C234.696 176.84 234.089 176.139 233.697 175.318C233.304 174.496 233.141 173.584 233.225 172.677C233.324 170.552 233.931 168.48 234.994 166.637C236.058 164.794 237.548 163.232 239.339 162.083C240.059 161.508 240.935 161.164 241.853 161.096C242.771 161.028 243.688 161.238 244.485 161.699C245.282 162.161 245.921 162.852 246.318 163.682C246.716 164.512 246.853 165.443 246.713 166.353C246.612 168.479 246.005 170.549 244.941 172.392C243.878 174.235 242.389 175.797 240.599 176.948C239.673 177.526 238.61 177.848 237.519 177.882Z" fill="white"/>
<path d="M248.685 178.033C246.585 176.808 243.901 177.018 241.147 178.605L238.032 180.402C235.207 182.214 232.858 184.677 231.181 187.584C229.504 190.492 228.549 193.758 228.394 197.111V200.343C231.451 202.035 235.617 201.743 240.226 199.094C245.146 196.024 249.211 191.762 252.046 186.703V185.139C252.046 181.849 250.832 179.27 248.685 178.033Z" fill="white"/>
<path d="M488.561 379.894C488.561 379.894 490.113 366.265 496.892 355.682C503.671 345.099 512.983 338.506 521.675 337.818C530.368 337.13 537.393 345.134 528.093 350.653C518.793 356.172 502.271 361.75 494.664 382.286L488.561 379.894Z" fill="#7E57C2"/>
<path opacity="0.1" d="M488.561 379.894C488.561 379.894 490.113 366.265 496.892 355.682C503.671 345.099 512.983 338.506 521.675 337.818C530.368 337.13 537.393 345.134 528.093 350.653C518.793 356.172 502.271 361.75 494.664 382.286L488.561 379.894Z" fill="black"/>
<path d="M491.116 376.346H491.023C490.909 376.3 490.817 376.21 490.769 376.096C490.721 375.982 490.72 375.854 490.766 375.74C499.938 353.162 517.393 343.722 525.351 341.902C525.411 341.888 525.473 341.886 525.533 341.896C525.594 341.906 525.651 341.928 525.703 341.961C525.755 341.993 525.801 342.036 525.836 342.086C525.872 342.136 525.897 342.192 525.911 342.252C525.925 342.312 525.927 342.374 525.917 342.434C525.906 342.495 525.884 342.552 525.852 342.604C525.819 342.656 525.777 342.702 525.727 342.737C525.677 342.773 525.621 342.798 525.561 342.812C517.767 344.609 500.649 353.873 491.63 376.101C491.585 376.195 491.509 376.27 491.416 376.314C491.323 376.359 491.217 376.37 491.116 376.346Z" fill="white"/>
<path d="M537.532 376.615C536.751 378.388 534.814 379.322 533.017 380.045C531.22 380.769 529.26 381.551 528.279 383.231C526.319 386.615 529.54 391.399 527.439 394.677C526.945 395.337 526.322 395.891 525.608 396.304C524.894 396.717 524.104 396.981 523.285 397.081C521.944 397.326 520.578 397.326 519.225 397.443C518.577 397.434 517.93 397.383 517.288 397.291C515.402 396.87 513.431 397.079 511.676 397.886C508.98 399.403 508.175 402.798 506.518 405.424C505.506 406.969 504.172 408.278 502.607 409.261C501.042 410.244 499.284 410.877 497.452 411.118C496.285 411.27 493.951 411.491 492.785 410.803C492.693 410.758 492.607 410.703 492.528 410.639C492.353 410.453 492.143 410.208 492.05 410.079C492.044 410.052 492.044 410.025 492.05 409.998C491.571 408.236 492.353 406.416 492.388 404.595V404.269C492.306 402.157 492.248 400.056 492.201 397.956C492.1 394.067 492.061 390.177 492.085 386.288C492.085 383.767 491.805 381.014 492.878 378.645C494.045 376.031 496.985 375.973 498.094 373.418C498.537 372.391 498.77 371.306 499.202 370.267C499.869 368.758 500.938 367.46 502.292 366.515C503.646 365.571 505.233 365.016 506.88 364.912C512.002 364.655 516.588 368.797 521.71 368.412C523.029 368.307 524.324 367.899 525.631 367.665C529.773 366.884 534.569 368.062 536.902 371.574C537.414 372.297 537.74 373.136 537.85 374.015C537.96 374.895 537.851 375.788 537.532 376.615Z" fill="#7E57C2"/>
<path d="M491.536 401.912C491.426 401.879 491.333 401.805 491.276 401.705C491.22 401.604 491.204 401.486 491.233 401.375C498.304 374.841 526.238 371.037 532.807 371.481C532.865 371.484 532.921 371.498 532.973 371.523C533.025 371.549 533.072 371.584 533.11 371.628C533.148 371.671 533.177 371.722 533.195 371.777C533.213 371.832 533.22 371.89 533.215 371.948C533.204 372.061 533.148 372.166 533.061 372.239C532.975 372.313 532.862 372.351 532.749 372.344C526.343 371.889 498.992 375.635 492.073 401.608C492.041 401.719 491.966 401.812 491.866 401.868C491.766 401.925 491.648 401.941 491.536 401.912Z" fill="white"/>
<path d="M522.609 388.47C522.52 388.457 522.438 388.416 522.375 388.353C519.793 386.115 516.748 384.474 513.458 383.549C510.169 382.623 506.715 382.435 503.344 382.997C503.231 383.008 503.117 382.975 503.027 382.906C502.936 382.837 502.874 382.736 502.854 382.624C502.837 382.51 502.866 382.393 502.933 382.3C503.001 382.206 503.102 382.142 503.216 382.122C506.732 381.537 510.333 381.737 513.763 382.707C517.192 383.677 520.364 385.394 523.052 387.735C523.093 387.775 523.126 387.823 523.149 387.876C523.171 387.929 523.183 387.986 523.183 388.044C523.183 388.102 523.171 388.159 523.149 388.212C523.126 388.265 523.093 388.313 523.052 388.353C522.999 388.416 522.928 388.461 522.849 388.482C522.77 388.503 522.686 388.499 522.609 388.47Z" fill="white"/>
<path d="M424.35 59.4256L428.061 60.8491V52.6813C428.061 46.1938 433.23 44.6419 438.842 47.8857C444.466 51.1294 449.017 59.0055 449.017 65.493V66.6599C449.799 66.4209 450.625 66.3618 451.433 66.4871C452.242 66.6124 453.011 66.9187 453.684 67.3833C455.815 68.7729 457.589 70.6457 458.86 72.8496C460.131 75.0534 460.864 77.5261 461 80.0667V80.6034L466.181 83.5905C467.582 84.5054 468.749 85.7373 469.586 87.1867C470.423 88.636 470.908 90.262 471 91.9333C471 95.0137 468.841 96.2622 466.181 94.722L424.35 70.557C422.948 69.6443 421.781 68.4126 420.945 66.9626C420.11 65.5126 419.629 63.8855 419.543 62.2143C419.543 59.1455 421.678 57.897 424.35 59.4256Z" fill="#B291EC"/>
<path d="M474.045 52.9613L480.778 56.8468C480.741 56.5527 480.721 56.2565 480.719 55.9601V54.0115C480.719 50.511 483.146 49.1341 486.157 50.8727C487.45 51.6647 488.557 52.7276 489.4 53.9881C489.89 49.6242 493.321 48.0023 497.475 50.3943C499.849 51.9389 501.825 54.0209 503.244 56.4719C504.663 58.9228 505.485 61.6735 505.643 64.5012V67.4183C505.673 68.5838 505.437 69.7409 504.954 70.8021L510.555 74.0225C511.428 74.6014 512.153 75.3769 512.672 76.2868C513.19 77.1967 513.488 78.2155 513.542 79.2615C513.542 81.1868 512.188 81.9686 510.52 81.0118L474.045 60.0089C473.163 59.4342 472.429 58.6588 471.904 57.7462C471.379 56.8337 471.077 55.8098 471.023 54.7582C471.023 52.7863 472.376 52.0045 474.045 52.9613Z" fill="#B291EC"/>
<path d="M447.979 230.05C443.078 238.335 438.364 245.534 435.05 248.988C428.761 251.905 413.989 256.409 408.213 257.155C407.199 257.285 406.172 257.044 405.32 256.479C403.044 254.985 401.282 254.74 398.89 253.912C397.012 253.27 396.218 252.371 395.868 252.745C395.507 253.169 395.325 253.717 395.362 254.273C395.399 254.829 395.652 255.348 396.067 255.72C396.964 256.573 397.959 257.317 399.03 257.937C396.468 258.573 393.796 258.621 391.213 258.077C386.207 256.759 383.85 259.162 387.234 264.6C388.401 266.537 393.208 269.652 402.869 268.812C406.316 268.626 409.748 268.237 413.149 267.645C422.413 265.662 432.717 263.748 439.052 261.811C441.409 260.884 443.518 259.422 445.213 257.54C455.866 245.394 459.402 236.736 464.069 228.872L463.672 216.037C456.111 215.78 452.074 223.119 447.979 230.05Z" fill="#FFA8A7"/>
<path d="M464.967 215.78C462.775 215.472 460.54 215.769 458.504 216.638C456.468 217.508 454.709 218.918 453.416 220.716C448.235 227.355 439.064 243.294 439.064 243.294C439.064 243.294 442.063 251.286 450.16 252.628L463.171 235.056C463.171 235.056 469.331 222.851 464.967 215.78Z" fill="#455A64"/>
<path d="M493.1 394.934H484.617V410.056H493.1V394.934Z" fill="#FFA8A7"/>
<path d="M463.695 394.129L455.224 394.432L454.792 378.424L463.695 378.12V394.129Z" fill="#FFA8A7"/>
<path d="M494.289 264.028C494.289 272.452 493.053 340.327 493.053 340.327C493.239 342.754 495.386 347.234 494.955 356.557C494.313 369.217 493.461 402.495 493.461 402.495C492.005 403.24 490.398 403.644 488.763 403.677C487.127 403.709 485.506 403.369 484.021 402.682C484.021 402.682 477.137 356.009 475.62 343.512C474.29 332.556 470.883 296.291 470.883 296.291L466.297 339.16C467.27 343.759 467.623 348.468 467.348 353.162C466.951 358.996 464.22 389.193 464.22 389.193C462.755 390.058 461.112 390.577 459.416 390.713C457.72 390.848 456.015 390.596 454.431 389.975C454.431 389.975 449.6 344.469 449.507 339.125C449.39 333.057 452.331 263.958 452.331 263.958L494.289 264.028Z" fill="#37474F"/>
<path d="M484.616 405.692V404.432C483.799 404.794 481.921 412.285 478.549 415.482C475.877 418.025 472.236 420.954 471.303 423.79C470.369 426.625 476.378 428.364 478.887 427.908C481.781 427.372 486.821 425.236 488.082 423.241C489.342 421.246 489.937 418.352 490.964 416.905C491.99 415.458 494.359 413.848 494.908 412.168C495.079 410.596 494.916 409.005 494.429 407.501C494.032 405.937 493.612 404.222 493.099 404.374V405.33C491.903 406.312 490.399 406.841 488.852 406.824C487.615 406.929 484.604 406.672 484.616 405.692Z" fill="#263238"/>
<path d="M455.131 391.702C454.687 391.702 454.326 392.367 453.357 393.464C451.917 394.979 450.233 396.241 448.375 397.198C445.201 398.855 439.04 401.398 436.228 402.717C434.478 403.534 434.56 405.727 436.368 406.976C438.177 408.224 442.529 409.123 447.756 407.909C450.603 407.244 454.314 404.502 456.671 404.654C459.028 404.805 463.404 404.759 465.142 403.487C466.881 402.215 466.181 399.578 465.691 397.303C465.154 394.806 464.524 390.92 463.695 391.095V391.97C462.68 393.581 457.418 394.234 455.177 393.055L455.131 391.702Z" fill="#263238"/>
<path d="M470.883 296.291C466.47 294.846 462.436 292.434 459.075 289.231C459.075 289.231 461.408 293.677 468.129 297.819L466.682 336.103L470.883 296.291Z" fill="#263238"/>
<path d="M489.552 217.017C489.552 217.017 496.553 218.627 496.052 231.275L494.593 251.403V281.624C488.362 288.695 460.755 288.181 451.246 281.064C451.246 281.064 452.319 245.301 452.961 231.532C453.416 221.754 455.668 216.83 465.282 215.757L477.102 216.27L489.552 217.017Z" fill="#455A64"/>
<path d="M480.638 190.74C480.678 192.433 480.383 194.118 479.769 195.696C479.155 197.275 478.235 198.717 477.061 199.938C475.888 201.159 474.484 202.136 472.931 202.813C471.378 203.489 469.706 203.851 468.013 203.878C461.012 203.878 456.905 197.834 455.388 190.74C452.587 177.753 461.035 177.59 468.013 177.59C471.431 177.66 474.68 179.085 477.048 181.551C479.415 184.017 480.707 187.322 480.638 190.74Z" fill="#263238"/>
<path d="M487.079 196.049C487.079 196.049 485.142 205.524 484.36 207.087C483.868 208.028 483.032 208.743 482.026 209.082L482.166 202.42L487.079 196.049Z" fill="#263238"/>
<path d="M484.64 182.479C484.64 182.479 486.029 182.129 487.511 184.439C488.771 186.411 489.063 190.845 487.079 196.107L483.427 196.551L484.64 182.479Z" fill="#263238"/>
<path d="M485.982 184.404L490.463 184.486C490.493 184.196 490.464 183.903 490.376 183.626C490.288 183.348 490.143 183.092 489.952 182.873C489.76 182.653 489.525 182.476 489.261 182.352C488.998 182.228 488.712 182.16 488.421 182.152C487.808 182.161 487.22 182.396 486.77 182.811C486.32 183.227 486.039 183.794 485.982 184.404Z" fill="#263238"/>
<path d="M486.53 183.342L489.844 180.157C489.653 179.932 489.417 179.749 489.152 179.619C488.887 179.49 488.597 179.416 488.303 179.404C488.008 179.392 487.713 179.442 487.438 179.549C487.163 179.656 486.914 179.82 486.705 180.028C486.266 180.458 486.004 181.037 485.971 181.651C485.939 182.265 486.138 182.869 486.53 183.342Z" fill="#263238"/>
<path d="M482.33 196.492C483.065 196.947 484.104 195.489 485.014 194.497C485.924 193.505 488.748 192.595 490.218 195.816C491.688 199.036 489.179 202.221 487.079 203.272C483.31 205.138 482.12 202.42 482.12 202.42L481.805 217.425C476.508 225.593 464.489 225.336 468.818 217.028V212.466C467.038 212.762 465.229 212.856 463.428 212.746C460.487 212.279 458.644 209.864 457.745 206.55C456.322 201.23 455.773 196.936 456.987 186.469C458.317 175.011 471.129 174.883 477.989 179.468C484.85 184.054 482.33 196.492 482.33 196.492Z" fill="#FFA8A7"/>
<path d="M466.368 184.684C469.425 184.381 472.447 183.751 475.515 183.517C476.177 183.437 476.848 183.469 477.499 183.611C479.833 184.252 479.553 186.983 479.926 188.885C480.568 192.175 481.093 197.741 482.33 197.764C482.703 197.764 484.103 195.349 485.013 194.485C485.514 193.741 485.797 192.873 485.83 191.977C486.063 190.623 486.18 189.235 486.285 187.858C486.379 186.691 486.495 185.524 486.495 184.357C486.549 183.039 486.443 181.718 486.18 180.425C485.888 179.325 485.326 178.314 484.547 177.485L484.313 177.228C482.775 175.62 480.909 174.362 478.841 173.541C475.866 172.426 472.745 171.746 469.576 171.522C466.412 171.298 463.261 170.909 460.137 170.355C459.958 170.303 459.767 170.303 459.588 170.355C459.462 170.426 459.355 170.527 459.277 170.649C459.2 170.771 459.154 170.911 459.145 171.056C459.017 171.781 459.097 172.527 459.376 173.209C459.654 173.89 460.121 174.479 460.72 174.906C458.608 175.069 456.181 173.973 454.151 173.413C453.987 173.343 453.81 173.307 453.632 173.307C453.453 173.307 453.277 173.343 453.112 173.413C452.909 173.555 452.764 173.766 452.704 174.008C452.556 174.556 452.536 175.131 452.646 175.688C452.831 177.377 453.459 178.986 454.466 180.355C456.039 182.403 458.26 183.855 460.767 184.474C462.612 184.83 464.501 184.901 466.368 184.684Z" fill="#263238"/>
<path d="M468.83 212.466C468.83 212.466 475.387 211.089 477.674 209.817C479.036 209.072 480.142 207.934 480.848 206.55C480.504 207.94 479.889 209.248 479.039 210.401C477.371 212.641 468.83 214.275 468.83 214.275V212.466Z" fill="#F28F8F"/>
<path d="M470.405 194.777C470.392 195.137 470.522 195.488 470.767 195.752C471.012 196.017 471.351 196.174 471.711 196.189C471.997 196.212 472.284 196.149 472.533 196.007C472.782 195.865 472.983 195.651 473.108 195.393C473.234 195.135 473.278 194.846 473.236 194.562C473.194 194.278 473.068 194.014 472.873 193.803C472.678 193.593 472.424 193.446 472.145 193.382C471.865 193.319 471.572 193.341 471.306 193.446C471.039 193.551 470.81 193.735 470.649 193.972C470.489 194.21 470.403 194.49 470.405 194.777Z" fill="#263238"/>
<path d="M472.505 189.118L475.317 190.74C475.522 190.34 475.568 189.878 475.447 189.445C475.326 189.013 475.046 188.642 474.663 188.406C474.477 188.302 474.271 188.237 474.058 188.216C473.845 188.196 473.63 188.22 473.427 188.287C473.224 188.354 473.037 188.462 472.879 188.605C472.72 188.748 472.593 188.923 472.505 189.118Z" fill="#263238"/>
<path d="M469.413 204.24L466.414 205.407C466.474 205.612 466.576 205.804 466.714 205.968C466.851 206.133 467.02 206.267 467.212 206.364C467.403 206.46 467.613 206.516 467.827 206.528C468.041 206.54 468.255 206.508 468.456 206.434C468.864 206.258 469.19 205.933 469.368 205.526C469.546 205.119 469.562 204.659 469.413 204.24Z" fill="#F28F8F"/>
<path d="M458.34 190.32L460.907 188.266C460.792 188.087 460.64 187.934 460.462 187.817C460.284 187.7 460.083 187.622 459.873 187.588C459.663 187.554 459.448 187.565 459.242 187.619C459.036 187.674 458.844 187.771 458.678 187.905C458.335 188.195 458.111 188.602 458.048 189.048C457.986 189.493 458.09 189.946 458.34 190.32Z" fill="#263238"/>
<path d="M459.471 194.392C459.492 194.647 459.586 194.891 459.743 195.094C459.9 195.296 460.112 195.449 460.354 195.533C460.596 195.617 460.857 195.628 461.106 195.566C461.354 195.504 461.579 195.371 461.753 195.183C461.927 194.995 462.043 194.761 462.086 194.508C462.129 194.256 462.097 193.996 461.995 193.761C461.893 193.526 461.724 193.326 461.51 193.185C461.296 193.045 461.046 192.969 460.79 192.969C460.61 192.975 460.432 193.016 460.268 193.091C460.104 193.166 459.956 193.273 459.834 193.405C459.711 193.538 459.616 193.693 459.554 193.862C459.492 194.032 459.464 194.212 459.471 194.392Z" fill="#263238"/>
<path d="M466.507 193.295L466.356 201.591L461.642 200.518L466.507 193.295Z" fill="#F28F8F"/>
<path d="M354.563 262.78L361.879 258.556L364.773 255.043L357.468 259.267L354.563 262.78Z" fill="#7E57C2"/>
<path opacity="0.4" d="M354.563 262.78L361.879 258.556L364.773 255.043L357.468 259.267L354.563 262.78Z" fill="black"/>
<path d="M374.457 274.261L381.773 270.037L387.875 264.635L380.571 268.847L374.457 274.261Z" fill="#7E57C2"/>
<path opacity="0.4" d="M374.457 274.261L381.773 270.037L387.875 264.635L380.571 268.847L374.457 274.261Z" fill="black"/>
<path d="M436.602 288.835C438.332 291.153 439.379 293.91 439.624 296.792C437.902 294.47 436.856 291.715 436.602 288.835ZM453.603 289.056C451.141 272.312 442.144 255.755 431.433 249.559C426.287 246.584 421.527 246.479 417.711 248.708L410.827 252.675L410.442 252.908C410.135 253.077 409.839 253.264 409.555 253.468C408.99 253.858 408.459 254.295 407.968 254.775L407.735 254.997C407.525 255.207 407.303 255.452 407.105 255.685C406.906 255.919 406.603 256.28 406.37 256.595C405.874 257.247 405.426 257.934 405.028 258.649C404.818 259.011 404.619 259.396 404.433 259.816L344.306 225.115L337.002 229.327V233.994L337.62 234.344L338.204 234.682V235.616L337.037 236.304V239.011L345.87 257.681L354.598 262.733L357.503 259.232L365.204 263.841L369.626 271.414L374.504 274.226L380.606 268.812L388.097 273.141L390.617 283.537L403.208 290.818C403.83 293.464 404.609 296.071 405.541 298.624C405.623 298.881 405.728 299.149 405.833 299.441C410.01 310.409 416.649 319.802 424.14 324.131C425.038 324.664 425.979 325.12 426.952 325.496C427.467 325.701 427.993 325.876 428.528 326.021C428.994 326.146 429.461 326.251 429.928 326.336C431.401 326.605 432.911 326.605 434.385 326.336L434.992 326.185C435.282 326.126 435.567 326.044 435.844 325.94L436.497 325.683C436.728 325.6 436.951 325.494 437.162 325.368C437.378 325.275 437.588 325.17 437.792 325.053L438.096 324.866C438.151 324.848 438.202 324.821 438.247 324.785C439.916 323.828 444.023 321.447 445.143 320.817C450.697 317.597 454.291 309.453 454.291 297.936C454.282 294.963 454.052 291.995 453.603 289.056Z" fill="#7E57C2"/>
<path d="M434.467 302.965C431.573 301.296 429.239 296.349 429.239 291.915C429.239 287.481 431.573 285.229 434.467 286.886C437.36 288.543 439.682 293.502 439.682 297.948C439.682 302.393 437.349 304.634 434.467 302.965ZM446.287 293.269C443.836 276.536 434.84 259.968 424.117 253.783C419.146 250.913 414.549 250.703 410.815 252.675L410.43 252.908C410.124 253.077 409.827 253.264 409.543 253.468C408.978 253.858 408.447 254.295 407.956 254.775L407.723 254.997C407.513 255.207 407.291 255.452 407.093 255.685C406.895 255.919 406.591 256.28 406.358 256.595C405.863 257.247 405.414 257.934 405.016 258.649C404.806 259.011 404.608 259.396 404.421 259.816C403.333 262.071 402.548 264.461 402.087 266.922L336.99 229.327V233.994L337.609 234.344L338.192 234.682V235.616L337.025 236.304V239.011L345.858 257.681L354.586 262.733L357.491 259.232L365.192 263.841L369.615 271.414L374.492 274.226L380.594 268.812L388.085 273.141L390.606 283.537L403.207 290.818C403.83 293.464 404.609 296.071 405.541 298.624C405.623 298.881 405.728 299.15 405.833 299.441C410.01 310.409 416.649 319.802 424.14 324.131C425.038 324.664 425.979 325.12 426.952 325.496C427.467 325.701 427.993 325.876 428.528 326.021C428.994 326.146 429.461 326.251 429.928 326.336C431.401 326.605 432.911 326.605 434.385 326.336L434.992 326.185C435.282 326.126 435.567 326.044 435.844 325.94L436.497 325.683C436.728 325.6 436.951 325.494 437.162 325.368C437.378 325.275 437.588 325.17 437.792 325.053L438.095 324.866C438.15 324.848 438.202 324.821 438.247 324.785C443.568 321.424 446.987 313.396 446.987 302.16C446.967 299.183 446.733 296.212 446.287 293.269Z" fill="#7E57C2"/>
<path opacity="0.4" d="M439.682 297.936C439.682 302.382 437.348 304.633 434.466 302.965C431.584 301.296 429.239 296.361 429.239 291.915C429.239 287.47 431.572 285.218 434.466 286.886C435.299 287.393 436.025 288.059 436.601 288.846C436.852 291.728 437.898 294.483 439.623 296.804C439.666 297.18 439.686 297.558 439.682 297.936Z" fill="black"/>
<path opacity="0.4" d="M454.267 297.924C454.267 309.441 450.674 317.585 445.12 320.806C443.953 321.436 439.892 323.816 438.224 324.773C443.544 321.412 446.963 313.385 446.963 302.148C446.951 299.176 446.725 296.208 446.286 293.269C443.836 276.536 434.84 259.968 424.117 253.783C419.146 250.913 414.549 250.703 410.815 252.675L417.699 248.708C421.515 246.479 426.275 246.584 431.421 249.559C442.144 255.755 451.14 272.313 453.591 289.056C454.035 291.992 454.261 294.956 454.267 297.924Z" fill="white"/>
<path d="M446.963 302.125C446.963 313.361 443.544 321.389 438.224 324.75C439.892 323.793 443.999 321.412 445.12 320.782C450.674 317.562 454.267 309.417 454.267 297.901C454.267 297.481 454.267 297.049 454.267 296.617L446.963 300.841C446.951 301.296 446.963 301.716 446.963 302.125Z" fill="#7E57C2"/>
<path opacity="0.1" d="M446.963 302.125C446.963 313.361 443.544 321.389 438.224 324.75C439.892 323.793 443.999 321.412 445.12 320.782C450.674 317.562 454.267 309.417 454.267 297.901C454.267 297.481 454.267 297.049 454.267 296.617L446.963 300.841C446.951 301.296 446.963 301.716 446.963 302.125Z" fill="black"/>
<path opacity="0.15" d="M402.367 271.694V274.063L337.002 236.328L338.204 235.628V234.647L402.367 271.694Z" fill="black"/>
<path opacity="0.15" d="M402.367 272.674V274.063L337.002 236.328L338.204 235.628V235.616L402.367 272.674Z" fill="black"/>
<path opacity="0.15" d="M430.791 320.794C428.313 320.73 425.898 320.009 423.79 318.705C413.137 312.556 404.467 294.261 404.467 277.925C404.467 268.392 407.349 261.274 412.378 258.369C415.879 256.339 420.021 256.595 424.373 259.104C435.015 265.253 443.684 283.607 443.684 299.943C443.684 309.464 440.802 316.594 435.773 319.487C434.256 320.354 432.538 320.804 430.791 320.794ZM417.431 258.194C415.876 258.185 414.346 258.588 412.997 259.361C408.411 262.01 405.669 268.952 405.669 277.913C405.669 293.875 414.07 311.751 424.408 317.679C428.364 320.012 432.109 320.222 435.225 318.425C439.81 315.777 442.552 308.846 442.552 299.885C442.552 283.911 434.151 266.047 423.825 260.108C421.895 258.933 419.689 258.289 417.431 258.241V258.194Z" fill="black"/>
<path opacity="0.4" d="M404.374 259.793C403.286 262.048 402.502 264.437 402.04 266.898L336.943 229.303L344.248 225.091L404.374 259.793Z" fill="white"/>
<path d="M488.981 263.445C492.388 256.992 496.285 242.5 498.222 235.184C500.976 224.799 496.518 218.265 491.454 217.997C488.292 218.487 477.872 256.374 477.872 256.374C476.706 257.295 460.872 265.335 455.784 267.353C454.875 267.698 453.871 267.698 452.961 267.353C450.522 266.467 448.854 266.63 446.462 266.397C444.583 266.21 443.638 265.545 443.393 265.942C443.17 266.434 443.142 266.992 443.312 267.505C443.483 268.017 443.841 268.447 444.315 268.707C445.345 269.307 446.441 269.785 447.582 270.13C445.537 270.751 443.405 271.038 441.269 270.982C436.369 270.877 434.607 273.001 438.41 277.983C440.744 281.087 444.606 282.067 453.229 279.092C455.703 278.228 459.063 276.56 462.202 275.428C468.666 273.094 470.37 272.814 475.294 271.146C482.47 268.719 487.464 266.315 488.981 263.445Z" fill="#FFA8A7"/>
<path d="M489.552 217.017C492.528 217.425 495.387 218.09 497.149 220.517C498.91 222.944 500.322 226.351 498.595 235.628C497.273 242.151 495.503 248.576 493.298 254.857C493.298 254.857 486.367 257.821 479.004 250.306L484.068 230.727C484.068 230.727 484.885 217.997 489.552 217.017Z" fill="#455A64"/>
</svg>
