<svg width="723" height="661" viewBox="0 0 723 661" fill="none" xmlns="http://www.w3.org/2000/svg">
<g clip-path="url(#clip0_6_1016)">
<mask id="mask0_6_1016" style="mask-type:luminance" maskUnits="userSpaceOnUse" x="0" y="-62" width="723" height="723">
<path d="M0 -62H723V661H0V-62Z" fill="white"/>
</mask>
<g mask="url(#mask0_6_1016)">
<path d="M170.661 303.639C65.5322 365.39 65.5322 465.51 170.662 527.261C275.791 589.013 446.24 589.013 551.369 527.262C656.498 465.51 656.497 365.391 551.368 303.639C446.237 241.887 275.789 241.887 170.661 303.639Z" fill="#F7EFFF"/>
<path d="M549.522 415.068C533.945 424.061 533.945 438.643 549.522 447.637C565.1 456.63 590.356 456.63 605.932 447.637C621.51 438.643 621.51 424.062 605.932 415.068C590.355 406.075 565.099 406.075 549.522 415.068Z" fill="#F1E8C1"/>
<path d="M515.335 435.737L374.032 517.318C371.151 518.982 366.479 518.982 363.597 517.318L124.399 379.218C121.519 377.554 121.519 374.857 124.399 373.193L265.702 291.612C268.585 289.948 273.257 289.948 276.138 291.612L515.335 429.712C518.217 431.375 518.217 434.073 515.335 435.737Z" fill="#D1D1D1"/>
<path d="M158.726 349.962L168.57 344.274C168.57 344.274 174.429 319.928 172.095 298.023C168.812 267.224 152.236 253.805 140.83 258.291C133.242 261.275 130.887 269.909 143.643 288.253C151.17 299.076 160.414 321.618 158.726 349.962Z" fill="#939393"/>
<path d="M158.726 349.962L168.57 344.274C168.57 344.274 174.429 319.928 172.095 298.023C168.812 267.224 152.236 253.805 140.83 258.291C133.242 261.275 130.887 269.909 143.643 288.253C151.17 299.076 160.414 321.618 158.726 349.962Z" fill="#DF9920"/>
<path d="M162.804 338.001C162.773 338 162.742 337.996 162.711 337.991C162.34 337.92 162.095 337.564 162.166 337.194C167.562 308.786 157.639 276.864 145.351 263.581C145.095 263.305 145.111 262.872 145.389 262.616C145.665 262.363 146.099 262.378 146.356 262.655C158.867 276.18 168.984 308.622 163.508 337.448C163.444 337.786 163.138 338.018 162.804 338.001Z" fill="white"/>
<path d="M132.938 364.854C131.384 365.646 127.248 362.107 126.095 361.247C124.122 359.773 122.564 357.749 121.575 355.498C120.425 352.879 120.241 350.124 120.783 347.319C121.065 345.865 121.548 344.456 122.028 343.055C122.5 341.677 122.972 340.301 123.444 338.925C123.91 337.567 124.381 336.161 124.272 334.729C124.049 331.845 121.608 329.709 119.382 327.861C116.921 325.818 114.386 323.155 114.575 319.705C114.72 317.044 116.224 314.642 117.978 312.636C119.734 310.629 121.783 308.882 123.386 306.752C124.539 305.219 125.471 303.397 125.392 301.479C125.344 300.288 124.909 299.146 124.393 298.071C123.289 295.763 121.786 293.626 121.066 291.17C120.348 288.714 120.619 285.717 122.591 284.086C124.208 282.747 126.515 282.664 128.6 282.908C130.531 283.134 132.378 284.103 134.024 285.13C139.348 288.453 142.147 295.097 147.84 297.733C150.036 298.751 152.483 299.072 154.788 299.807C157.094 300.542 159.417 301.857 160.389 304.073C162.308 308.441 158.084 313.494 159.355 318.092C160.48 322.162 164.293 323.892 166.296 327.609C167.171 329.236 167.3 331.07 167.053 332.901C166.635 335.999 166.064 338.26 164.397 341.645C163.019 344.442 159.137 349.729 159.137 349.729C159.137 349.729 133.177 364.733 132.938 364.854Z" fill="#939393"/>
<path d="M132.938 364.854C131.384 365.646 127.248 362.106 126.095 361.245C124.122 359.772 122.564 357.747 121.575 355.496C120.425 352.878 120.241 350.123 120.783 347.318C121.065 345.864 121.548 344.455 122.028 343.054C122.5 341.676 122.972 340.3 123.444 338.924C123.91 337.566 124.381 336.161 124.272 334.729C124.049 331.845 121.608 329.708 119.382 327.86C116.921 325.817 114.386 323.155 114.575 319.705C114.72 317.044 116.224 314.642 117.978 312.636C119.734 310.629 121.783 308.882 123.386 306.752C124.539 305.219 125.471 303.397 125.392 301.479C125.344 300.288 124.909 299.146 124.393 298.071C123.289 295.763 121.786 293.624 121.066 291.169C120.348 288.713 120.619 285.717 122.591 284.086C124.208 282.747 126.515 282.664 128.6 282.908C130.531 283.134 132.378 284.103 134.024 285.13C139.348 288.453 142.147 295.097 147.84 297.733C150.036 298.751 152.483 299.072 154.788 299.807C157.094 300.542 159.417 301.857 160.389 304.073C162.308 308.441 158.084 313.494 159.355 318.092C160.48 322.162 164.293 323.89 166.296 327.608C167.171 329.235 167.3 331.069 167.053 332.9C166.635 335.998 166.064 338.259 164.397 341.644C163.019 344.441 159.137 349.728 159.137 349.728C159.137 349.728 133.177 364.733 132.938 364.854Z" fill="#E9C11C"/>
<path d="M148.005 357.001C147.997 357.001 147.989 357.001 147.989 357.001C147.603 356.965 147.328 356.631 147.361 356.257C149.853 329.237 138.603 298.702 129.764 289.55C129.504 289.279 129.509 288.847 129.78 288.584C130.052 288.322 130.482 288.331 130.746 288.601C139.762 297.937 151.248 328.983 148.722 356.382C148.687 356.748 148.369 357.019 148.005 357.001Z" fill="white"/>
<path d="M145.323 323.686C145.256 323.682 145.189 323.67 145.123 323.645C136.56 320.518 125.742 319.497 125.633 319.487C125.257 319.452 124.981 319.119 125.015 318.744C125.05 318.369 125.35 318.086 125.759 318.126C125.868 318.137 136.859 319.173 145.592 322.362C145.946 322.491 146.128 322.883 145.999 323.237C145.893 323.527 145.615 323.7 145.323 323.686Z" fill="white"/>
<path d="M510.505 420.743C510.505 424.309 507.836 428.74 504.544 430.64L374.779 505.574C371.487 507.476 366.15 507.476 362.858 505.574L134.355 373.647C131.063 371.748 128.395 367.317 128.395 363.752C128.395 360.186 131.061 355.753 134.355 353.853L264.12 278.919C267.412 277.018 272.749 277.018 276.041 278.919L504.545 410.846C507.837 412.746 510.505 417.178 510.505 420.743Z" fill="#2F2B31"/>
<path d="M504.547 417.727L374.78 492.663C371.488 494.563 366.151 494.563 362.859 492.663L134.355 360.736C131.062 358.835 131.062 355.754 134.355 353.854L264.121 278.919C267.412 277.018 272.75 277.018 276.042 278.919L504.547 410.846C507.839 412.746 507.839 415.827 504.547 417.727Z" fill="#484F4D"/>
<path d="M368.814 494.099V506.997C370.975 506.997 373.138 506.529 374.775 505.579L504.548 430.64C507.838 428.741 510.508 424.309 510.508 420.743C510.508 417.398 508.153 413.297 505.153 411.231C507.823 413.145 507.617 415.954 504.548 417.73L374.775 492.669C373.138 493.618 370.975 494.099 368.814 494.099Z" fill="#2F2B31"/>
<path d="M516.096 411.059C519.185 409.277 519.016 406.265 519.016 402.465L519.017 223.225C519.017 219.424 516.348 214.802 513.057 212.901L284.553 80.9743C281.262 79.074 276.091 78.9788 273.001 80.7622C269.914 82.5456 270.08 85.5557 270.08 89.3562V268.595C270.08 272.397 272.749 277.019 276.041 278.92L504.545 410.845C507.837 412.746 513.008 412.841 516.096 411.059Z" fill="#484F4D"/>
<path d="M270.078 89.3504C270.078 85.5571 272.749 84.0195 276.04 85.9113L504.549 217.844C506.194 218.795 507.691 220.43 508.758 222.3L517.264 217.352H517.275C516.195 215.481 514.7 213.846 513.054 212.895L284.557 80.9732C281.265 79.0718 276.094 78.9753 273.006 80.76C269.918 82.5446 270.078 85.5571 270.078 89.3504Z" fill="#2F2B31"/>
<path d="M505.249 411.205C508.539 412.746 513.219 412.718 516.095 411.053C519.179 409.278 519.014 406.265 519.014 402.466V223.219C519.014 221.32 518.353 219.213 517.265 217.355L508.759 222.281V222.294C509.833 224.167 510.507 226.259 510.507 228.158V407.405C510.507 410.929 508.208 412.512 505.249 411.205Z" fill="#2F2B31"/>
<path d="M501.339 224.715L281.032 97.554C279.056 96.4141 277.455 97.3383 277.455 99.6194V256.085C277.455 258.366 279.056 261.139 281.032 262.279L501.339 389.438C503.314 390.579 504.915 389.653 504.915 387.373V230.91C504.915 228.629 503.314 225.856 501.339 224.715Z" fill="#F9F9F9"/>
<path d="M488.051 411.196L275.951 288.741C274.305 287.791 271.635 287.791 269.99 288.742L266.458 290.683C264.812 291.633 264.812 293.173 266.458 294.122L478.591 416.559C480.237 417.508 482.906 417.508 484.553 416.559L488.051 414.637C489.697 413.687 489.697 412.147 488.051 411.196Z" fill="#2F2B31"/>
<path d="M471.415 421.089L259.316 298.634C257.67 297.684 255.232 297.551 253.87 298.337L198.663 330.211C197.303 330.996 197.533 332.406 199.178 333.356L411.03 455.645C412.676 456.595 415.117 456.732 416.483 455.95L471.922 424.225C473.289 423.444 473.061 422.04 471.415 421.089Z" fill="#2F2B31"/>
<path d="M287.629 350.065L280.988 346.232C280.706 346.068 280.682 345.819 280.931 345.674L287.284 342.008C287.536 341.863 287.967 341.879 288.248 342.041L294.89 345.874C295.172 346.037 295.197 346.288 294.947 346.432L288.593 350.099C288.342 350.244 287.911 350.229 287.629 350.065ZM297.325 336.801L303.966 340.635C304.248 340.798 304.274 341.047 304.024 341.192L297.67 344.861C297.419 345.004 296.988 344.99 296.706 344.827L290.064 340.992C289.782 340.829 289.755 340.581 290.006 340.436L296.36 336.768C296.611 336.624 297.042 336.638 297.325 336.801ZM318.78 349.188L330.019 355.677C330.301 355.839 330.325 356.089 330.075 356.234L323.722 359.901C323.471 360.046 323.039 360.03 322.757 359.867L311.519 353.379C311.236 353.216 311.21 352.967 311.462 352.821L317.814 349.154C318.066 349.01 318.499 349.025 318.78 349.188ZM307.032 342.404L313.672 346.24C313.953 346.401 313.98 346.649 313.729 346.794L307.374 350.463C307.124 350.609 306.693 350.592 306.411 350.429L299.77 346.596C299.487 346.434 299.462 346.184 299.712 346.04L306.065 342.373C306.316 342.227 306.75 342.241 307.032 342.404ZM333.082 357.446L339.723 361.279C340.005 361.442 340.032 361.692 339.781 361.837L333.427 365.505C333.176 365.65 332.745 365.634 332.463 365.471L325.822 361.638C325.54 361.476 325.515 361.226 325.766 361.082L332.118 357.412C332.369 357.266 332.802 357.283 333.082 357.446ZM342.789 363.048L349.431 366.884C349.711 367.046 349.738 367.296 349.487 367.44L343.135 371.108C342.884 371.253 342.451 371.238 342.168 371.076L335.529 367.241C335.245 367.079 335.221 366.828 335.473 366.684L341.823 363.017C342.074 362.872 342.507 362.885 342.789 363.048ZM317.886 378.018L311.245 374.183C310.965 374.02 310.937 373.769 311.189 373.626L317.542 369.956C317.793 369.812 318.225 369.827 318.507 369.99L325.147 373.823C325.431 373.986 325.456 374.235 325.205 374.381L318.853 378.05C318.602 378.195 318.168 378.179 317.886 378.018ZM327.594 383.621L320.952 379.786C320.67 379.623 320.644 379.375 320.895 379.23L327.248 375.562C327.498 375.417 327.93 375.432 328.212 375.595L334.855 379.429C335.136 379.592 335.161 379.841 334.91 379.986L328.558 383.652C328.306 383.797 327.876 383.784 327.594 383.621ZM337.298 389.223L330.658 385.39C330.375 385.227 330.351 384.979 330.601 384.833L336.954 381.165C337.205 381.021 337.637 381.035 337.919 381.198L344.56 385.032C344.842 385.196 344.867 385.444 344.617 385.589L338.263 389.257C338.012 389.401 337.581 389.386 337.298 389.223ZM347.004 394.826L340.363 390.994C340.081 390.831 340.056 390.581 340.306 390.437L346.662 386.769C346.912 386.625 347.341 386.638 347.624 386.802L354.265 390.635C354.548 390.798 354.572 391.049 354.322 391.193L347.97 394.861C347.72 395.006 347.286 394.99 347.004 394.826ZM297.334 355.67L290.694 351.837C290.411 351.674 290.387 351.423 290.636 351.279L296.991 347.612C297.241 347.467 297.672 347.482 297.954 347.645L304.595 351.479C304.877 351.642 304.903 351.89 304.653 352.034L298.3 355.704C298.049 355.849 297.617 355.833 297.334 355.67ZM308.18 372.413L293.366 363.86C293.085 363.696 293.06 363.447 293.31 363.302L308.74 354.395C308.991 354.25 309.422 354.265 309.703 354.426L317.367 358.851C317.65 359.014 317.674 359.264 317.425 359.409L309.255 364.125C309.004 364.27 309.029 364.519 309.313 364.682L315.442 368.221C315.723 368.384 315.75 368.633 315.499 368.777L309.145 372.446C308.894 372.592 308.463 372.576 308.18 372.413ZM352.495 368.653L359.136 372.488C359.418 372.651 359.443 372.899 359.192 373.044L352.84 376.713C352.589 376.857 352.158 376.843 351.876 376.679L345.234 372.846C344.952 372.682 344.926 372.433 345.177 372.288L351.53 368.619C351.78 368.474 352.212 368.49 352.495 368.653ZM362.2 374.257L368.842 378.09C369.124 378.253 369.149 378.503 368.899 378.648L362.546 382.317C362.295 382.462 361.863 382.446 361.581 382.284L354.94 378.448C354.658 378.285 354.633 378.037 354.882 377.892L361.236 374.224C361.487 374.08 361.919 374.094 362.2 374.257ZM415.91 434.086C415.66 434.232 415.227 434.217 414.945 434.054L408.305 430.218C408.023 430.056 407.997 429.806 408.248 429.662L414.601 425.994C414.851 425.849 415.284 425.865 415.566 426.027L422.207 429.861C422.489 430.023 422.514 430.274 422.263 430.418L415.91 434.086ZM439.848 419.087L446.489 422.921C446.771 423.084 446.797 423.332 446.545 423.476L440.192 427.144C439.942 427.289 439.51 427.276 439.227 427.113L432.586 423.279C432.305 423.116 432.279 422.865 432.53 422.721L438.884 419.054C439.134 418.909 439.566 418.924 439.848 419.087ZM427.541 430.321C427.291 430.467 426.858 430.451 426.576 430.289L419.935 426.453C419.653 426.29 419.628 426.041 419.879 425.897L426.231 422.228C426.482 422.083 426.913 422.1 427.195 422.262L433.836 426.095C434.119 426.259 434.145 426.508 433.894 426.653L427.541 430.321ZM400.761 436.345L394.12 432.509C393.838 432.346 393.812 432.097 394.063 431.952L400.417 428.284C400.667 428.141 401.099 428.154 401.382 428.318L408.023 432.151C408.303 432.314 408.33 432.566 408.079 432.709L401.725 436.377C401.475 436.522 401.043 436.508 400.761 436.345ZM411.431 441.982C411.181 442.126 410.748 442.112 410.467 441.949L403.826 438.112C403.544 437.95 403.518 437.703 403.769 437.557L410.122 433.889C410.374 433.744 410.805 433.759 411.087 433.923L417.728 437.756C418.01 437.918 418.035 438.169 417.784 438.314L411.431 441.982ZM430.142 413.482L436.782 417.316C437.065 417.48 437.09 417.729 436.839 417.873L430.486 421.542C430.236 421.687 429.804 421.673 429.522 421.509L422.881 417.674C422.598 417.513 422.573 417.262 422.824 417.118L429.176 413.45C429.427 413.305 429.86 413.319 430.142 413.482ZM381.613 385.465L388.253 389.298C388.535 389.462 388.561 389.711 388.31 389.856L381.957 393.524C381.707 393.668 381.275 393.653 380.993 393.49L374.351 389.654C374.069 389.493 374.044 389.245 374.295 389.1L380.649 385.431C380.899 385.286 381.331 385.302 381.613 385.465ZM420.436 407.878L427.077 411.713C427.359 411.875 427.384 412.124 427.134 412.269L420.781 415.938C420.53 416.083 420.098 416.068 419.816 415.904L413.175 412.07C412.893 411.907 412.868 411.659 413.118 411.514L419.471 407.846C419.722 407.702 420.153 407.715 420.436 407.878ZM371.908 379.86L378.547 383.696C378.83 383.857 378.856 384.105 378.605 384.25L372.251 387.919C372 388.065 371.569 388.049 371.287 387.886L364.646 384.052C364.363 383.89 364.338 383.64 364.588 383.496L370.941 379.828C371.193 379.683 371.624 379.698 371.908 379.86ZM391.318 391.067L397.958 394.902C398.242 395.065 398.268 395.314 398.016 395.459L391.662 399.126C391.413 399.27 390.98 399.258 390.698 399.094L384.058 395.26C383.776 395.097 383.749 394.847 384.001 394.702L390.354 391.035C390.604 390.891 391.037 390.903 391.318 391.067ZM401.024 396.671L407.665 400.507C407.947 400.668 407.973 400.919 407.723 401.062L401.369 404.73C401.118 404.875 400.687 404.862 400.405 404.698L393.763 400.865C393.482 400.701 393.455 400.45 393.706 400.305L400.059 396.637C400.309 396.493 400.742 396.509 401.024 396.671ZM410.73 402.276L417.371 406.109C417.653 406.271 417.678 406.522 417.428 406.667L411.075 410.335C410.824 410.48 410.393 410.465 410.111 410.302L403.469 406.467C403.187 406.304 403.162 406.055 403.412 405.91L409.765 402.242C410.017 402.097 410.447 402.113 410.73 402.276ZM366.416 406.035L359.776 402.201C359.492 402.038 359.468 401.789 359.718 401.645L366.072 397.975C366.322 397.83 366.754 397.847 367.036 398.009L373.676 401.843C373.96 402.007 373.985 402.254 373.734 402.4L367.38 406.067C367.13 406.212 366.698 406.197 366.416 406.035ZM275.869 324.412L282.511 328.248C282.793 328.41 282.817 328.66 282.568 328.804L276.214 332.471C275.963 332.616 275.532 332.603 275.248 332.44L268.608 328.604C268.326 328.442 268.302 328.193 268.552 328.049L274.906 324.381C275.157 324.236 275.587 324.251 275.869 324.412ZM287.619 331.196L294.26 335.032C294.542 335.195 294.567 335.443 294.316 335.587L287.964 339.257C287.713 339.401 287.282 339.387 286.998 339.223L280.358 335.39C280.076 335.226 280.05 334.976 280.301 334.832L286.655 331.163C286.906 331.018 287.336 331.034 287.619 331.196ZM266.164 318.81L272.805 322.644C273.085 322.807 273.112 323.055 272.863 323.2L266.507 326.869C266.258 327.014 265.825 326.998 265.545 326.835L258.904 323.002C258.622 322.84 258.595 322.59 258.846 322.444L265.199 318.778C265.449 318.633 265.881 318.647 266.164 318.81ZM319.812 368.648L313.17 364.815C312.888 364.651 312.863 364.4 313.113 364.255L319.467 360.589C319.718 360.444 320.149 360.457 320.431 360.62L327.072 364.456C327.354 364.619 327.379 364.866 327.13 365.011L320.776 368.681C320.524 368.826 320.092 368.81 319.812 368.648ZM255.494 313.173C255.744 313.03 256.176 313.042 256.458 313.204L263.098 317.04C263.38 317.204 263.406 317.452 263.155 317.598L256.802 321.265C256.553 321.411 256.119 321.395 255.838 321.233L249.198 317.398C248.916 317.235 248.889 316.987 249.14 316.842L255.494 313.173ZM356.71 400.431L350.069 396.596C349.787 396.434 349.762 396.186 350.013 396.041L356.367 392.373C356.617 392.228 357.047 392.242 357.329 392.404L363.971 396.239C364.253 396.401 364.279 396.652 364.028 396.797L357.675 400.465C357.425 400.609 356.992 400.593 356.71 400.431ZM237.686 331.712L231.045 327.879C230.762 327.716 230.737 327.466 230.988 327.321L237.342 323.654C237.592 323.51 238.024 323.523 238.306 323.686L244.947 327.521C245.229 327.684 245.255 327.932 245.004 328.077L238.65 331.746C238.4 331.89 237.969 331.876 237.686 331.712ZM256.467 332.076L249.827 328.24C249.545 328.078 249.519 327.83 249.77 327.685L256.123 324.016C256.373 323.871 256.806 323.887 257.087 324.049L263.729 327.883C264.011 328.046 264.037 328.295 263.786 328.44L257.431 332.11C257.182 332.254 256.749 332.237 256.467 332.076ZM246.418 318.414C246.668 318.269 247.1 318.282 247.382 318.445L254.022 322.281C254.304 322.444 254.331 322.693 254.079 322.836L247.726 326.505C247.477 326.65 247.043 326.634 246.762 326.472L240.121 322.638C239.838 322.475 239.813 322.225 240.064 322.08L246.418 318.414ZM244.374 317.234L228.945 326.143C228.694 326.287 228.262 326.271 227.98 326.109L221.339 322.276C221.057 322.113 221.031 321.862 221.281 321.717L236.711 312.809C236.962 312.666 237.393 312.68 237.677 312.843L244.316 316.676C244.599 316.84 244.625 317.089 244.374 317.234ZM266.794 329.654L273.434 333.488C273.717 333.651 273.742 333.9 273.492 334.045L267.138 337.712C266.887 337.856 266.454 337.843 266.174 337.68L259.532 333.845C259.251 333.681 259.224 333.434 259.475 333.289L265.829 329.621C266.08 329.477 266.511 329.491 266.794 329.654ZM339.842 371.829L346.484 375.663C346.768 375.826 346.79 376.075 346.54 376.22L340.189 379.887C339.938 380.031 339.504 380.018 339.223 379.855L332.581 376.02C332.299 375.857 332.274 375.609 332.524 375.464L338.878 371.796C339.129 371.651 339.56 371.666 339.842 371.829ZM248.356 337.348C248.106 337.492 247.673 337.479 247.391 337.317L240.749 333.481C240.469 333.318 240.443 333.07 240.694 332.925L247.047 329.256C247.297 329.112 247.729 329.127 248.012 329.29L254.651 333.123C254.935 333.286 254.96 333.538 254.709 333.681L248.356 337.348ZM330.137 366.224L336.778 370.06C337.06 370.223 337.085 370.47 336.835 370.615L330.482 374.285C330.231 374.429 329.8 374.415 329.517 374.252L322.876 370.418C322.593 370.254 322.57 370.003 322.821 369.86L329.173 366.193C329.424 366.047 329.855 366.062 330.137 366.224ZM406.204 428.482C405.954 428.627 405.522 428.613 405.24 428.451L398.598 424.616C398.317 424.452 398.291 424.203 398.542 424.058L404.896 420.392C405.146 420.247 405.578 420.26 405.86 420.423L412.5 424.258C412.782 424.421 412.808 424.671 412.557 424.815L406.204 428.482ZM417.49 416.657L424.131 420.493C424.413 420.656 424.438 420.905 424.188 421.05L417.835 424.716C417.583 424.861 417.152 424.848 416.87 424.685L410.229 420.851C409.947 420.688 409.922 420.437 410.172 420.293L416.525 416.626C416.776 416.481 417.207 416.495 417.49 416.657ZM395.534 422.846L388.893 419.011C388.611 418.848 388.585 418.6 388.835 418.455L395.189 414.787C395.44 414.643 395.871 414.657 396.155 414.821L402.795 418.654C403.076 418.818 403.103 419.067 402.852 419.212L396.498 422.878C396.247 423.022 395.816 423.01 395.534 422.846ZM385.828 417.242L379.187 413.409C378.905 413.246 378.88 412.995 379.13 412.851L385.483 409.183C385.734 409.038 386.166 409.054 386.448 409.216L393.089 413.051C393.371 413.213 393.397 413.463 393.146 413.607L386.792 417.275C386.542 417.42 386.11 417.404 385.828 417.242ZM376.123 411.64L369.481 407.805C369.199 407.643 369.173 407.392 369.424 407.246L375.778 403.579C376.027 403.434 376.46 403.451 376.742 403.613L383.383 407.448C383.665 407.61 383.691 407.86 383.439 408.003L377.087 411.671C376.836 411.816 376.405 411.802 376.123 411.64ZM407.784 411.055L414.425 414.888C414.707 415.052 414.732 415.302 414.483 415.446L408.129 419.114C407.878 419.259 407.447 419.244 407.163 419.081L400.523 415.247C400.241 415.084 400.215 414.834 400.466 414.69L406.82 411.022C407.069 410.878 407.502 410.891 407.784 411.055ZM398.078 405.451L404.718 409.285C405 409.448 405.027 409.697 404.776 409.842L398.422 413.51C398.172 413.654 397.74 413.639 397.458 413.476L390.816 409.643C390.536 409.48 390.51 409.231 390.761 409.086L397.114 405.417C397.364 405.272 397.796 405.288 398.078 405.451ZM359.255 383.037L365.896 386.871C366.178 387.034 366.203 387.283 365.952 387.428L359.6 391.096C359.348 391.24 358.918 391.225 358.634 391.061L351.995 387.229C351.712 387.066 351.688 386.816 351.938 386.671L358.29 383.003C358.54 382.858 358.973 382.873 359.255 383.037ZM368.96 388.639L375.602 392.473C375.883 392.636 375.909 392.886 375.659 393.031L369.306 396.699C369.054 396.844 368.623 396.828 368.341 396.665L361.7 392.833C361.418 392.669 361.391 392.42 361.643 392.275L367.996 388.607C368.247 388.463 368.678 388.476 368.96 388.639ZM349.549 377.432L356.189 381.266C356.473 381.43 356.497 381.677 356.246 381.822L349.895 385.491C349.644 385.636 349.213 385.62 348.931 385.457L342.287 381.624C342.005 381.462 341.98 381.213 342.231 381.068L348.585 377.4C348.835 377.255 349.267 377.271 349.549 377.432ZM388.371 399.848L395.012 403.682C395.295 403.845 395.321 404.093 395.07 404.237L388.716 407.905C388.467 408.05 388.034 408.037 387.752 407.874L381.111 404.04C380.829 403.877 380.803 403.626 381.055 403.481L387.407 399.814C387.658 399.669 388.091 399.685 388.371 399.848ZM378.666 394.243L385.307 398.077C385.589 398.24 385.616 398.488 385.365 398.634L379.011 402.303C378.762 402.448 378.329 402.431 378.047 402.27L371.406 398.435C371.123 398.273 371.098 398.023 371.348 397.88L377.702 394.212C377.952 394.066 378.384 394.082 378.666 394.243ZM391.055 430.741L384.414 426.907C384.132 426.744 384.107 426.494 384.358 426.349L390.71 422.682C390.961 422.537 391.392 422.551 391.676 422.714L398.316 426.549C398.598 426.712 398.624 426.96 398.373 427.105L392.02 430.773C391.77 430.917 391.338 430.904 391.055 430.741ZM442.235 428.325L448.589 424.656C448.84 424.512 449.272 424.527 449.554 424.691L456.195 428.523C456.477 428.686 456.502 428.935 456.251 429.081L449.899 432.75C449.647 432.895 449.215 432.878 448.934 432.715L442.293 428.883C442.011 428.719 441.985 428.47 442.235 428.325ZM429.584 431.501L435.938 427.832C436.187 427.688 436.62 427.704 436.902 427.866L447.119 433.764C447.401 433.926 447.426 434.177 447.175 434.321L440.823 437.989C440.572 438.134 440.141 438.118 439.857 437.956L429.641 432.057C429.358 431.893 429.333 431.646 429.584 431.501ZM451.718 421.08L458.071 417.413C458.323 417.268 458.754 417.283 459.036 417.445L467.21 422.163C467.492 422.327 467.518 422.576 467.266 422.721L460.914 426.389C460.663 426.534 460.23 426.519 459.95 426.356L451.775 421.638C451.493 421.476 451.468 421.224 451.718 421.08ZM445.452 417.462C445.202 417.607 444.769 417.591 444.488 417.43L437.848 413.595C437.564 413.433 437.539 413.185 437.79 413.04L444.144 409.371C444.393 409.226 444.826 409.242 445.109 409.404L451.748 413.238C452.03 413.401 452.057 413.65 451.806 413.795L445.452 417.462ZM417.953 435.266L424.306 431.598C424.558 431.454 424.989 431.469 425.271 431.632L438.043 439.004C438.325 439.168 438.35 439.417 438.099 439.562L431.747 443.23C431.496 443.375 431.063 443.36 430.781 443.196L418.011 435.823C417.728 435.659 417.702 435.412 417.953 435.266ZM413.475 443.161L419.829 439.493C420.079 439.349 420.511 439.361 420.792 439.525L428.967 444.245C429.249 444.407 429.274 444.658 429.023 444.801L422.671 448.468C422.42 448.614 421.987 448.599 421.705 448.437L413.532 443.717C413.25 443.554 413.225 443.306 413.475 443.161ZM373.288 375.799C373.038 375.944 372.606 375.928 372.324 375.766L365.684 371.931C365.402 371.77 365.375 371.52 365.626 371.376L371.979 367.708C372.229 367.562 372.662 367.578 372.944 367.74L379.585 371.573C379.867 371.737 379.893 371.987 379.642 372.131L373.288 375.799ZM392.7 387.007C392.449 387.152 392.018 387.137 391.736 386.973L385.094 383.139C384.812 382.976 384.788 382.727 385.038 382.582L391.391 378.913C391.642 378.769 392.073 378.783 392.355 378.947L398.996 382.78C399.278 382.944 399.303 383.192 399.054 383.338L392.7 387.007ZM435.747 411.858C435.497 412.002 435.064 411.989 434.782 411.825L428.141 407.991C427.859 407.828 427.833 407.58 428.083 407.435L434.437 403.766C434.688 403.622 435.121 403.637 435.401 403.801L442.043 407.633C442.325 407.797 442.351 408.046 442.1 408.191L435.747 411.858ZM382.993 381.403C382.743 381.547 382.311 381.534 382.03 381.37L375.389 377.536C375.107 377.373 375.08 377.122 375.332 376.978L381.685 373.311C381.936 373.166 382.367 373.18 382.65 373.342L389.29 377.178C389.573 377.341 389.598 377.59 389.347 377.735L382.993 381.403ZM402.406 392.609C402.155 392.754 401.723 392.74 401.441 392.577L394.801 388.742C394.518 388.58 394.493 388.331 394.743 388.187L401.096 384.518C401.347 384.373 401.779 384.389 402.061 384.551L408.702 388.384C408.985 388.547 409.009 388.798 408.759 388.942L402.406 392.609ZM408.708 443.552C408.96 443.407 409.391 443.422 409.673 443.585L419.889 449.485C420.173 449.647 420.198 449.897 419.947 450.042L413.593 453.709C413.343 453.853 412.911 453.839 412.629 453.675L402.412 447.778C402.13 447.614 402.105 447.366 402.355 447.221L408.708 443.552ZM416.335 400.653C416.084 400.797 415.653 400.781 415.369 400.619L408.73 396.784C408.447 396.621 408.421 396.374 408.672 396.228L415.025 392.56C415.277 392.415 415.708 392.431 415.99 392.592L422.631 396.427C422.914 396.59 422.938 396.837 422.689 396.982L416.335 400.653ZM426.041 406.256C425.79 406.4 425.359 406.386 425.077 406.223L418.435 402.389C418.153 402.226 418.128 401.974 418.378 401.831L424.731 398.164C424.982 398.018 425.414 398.034 425.696 398.197L432.337 402.031C432.619 402.194 432.644 402.442 432.394 402.587L426.041 406.256ZM228.895 339.737C229.145 339.593 229.577 339.606 229.86 339.769L246.206 349.206C246.487 349.37 246.514 349.62 246.263 349.764L239.909 353.433C239.659 353.578 239.227 353.564 238.944 353.4L222.598 343.962C222.316 343.799 222.29 343.551 222.542 343.407L228.895 339.737ZM250.35 352.125C250.6 351.98 251.033 351.995 251.315 352.158L257.955 355.992C258.237 356.155 258.263 356.404 258.012 356.548L251.659 360.218C251.408 360.361 250.977 360.346 250.694 360.184L244.053 356.349C243.771 356.187 243.746 355.937 243.997 355.793L250.35 352.125ZM381.35 425.137L374.708 421.304C374.426 421.14 374.401 420.889 374.651 420.745L381.004 417.078C381.255 416.933 381.687 416.948 381.969 417.112L388.61 420.945C388.892 421.106 388.917 421.357 388.667 421.503L382.314 425.171C382.063 425.315 381.631 425.3 381.35 425.137ZM269.762 363.331C270.013 363.187 270.444 363.202 270.726 363.365L277.368 367.198C277.65 367.361 277.675 367.611 277.423 367.756L271.071 371.424C270.82 371.569 270.389 371.554 270.107 371.392L263.466 367.557C263.184 367.395 263.157 367.145 263.408 367L269.762 363.331ZM219.191 334.133C219.441 333.988 219.871 334.004 220.153 334.167L226.794 338C227.076 338.162 227.101 338.413 226.851 338.558L220.498 342.226C220.247 342.37 219.815 342.355 219.534 342.192L212.892 338.359C212.61 338.196 212.585 337.947 212.834 337.802L219.191 334.133ZM203.129 332.199L218.559 323.29C218.81 323.146 219.241 323.159 219.523 323.322L226.165 327.157C226.446 327.32 226.472 327.569 226.222 327.714L210.792 336.621C210.541 336.766 210.11 336.753 209.828 336.59L203.187 332.754C202.904 332.592 202.88 332.342 203.129 332.199ZM306.03 384.273C306.281 384.127 306.715 384.142 306.995 384.304L315.17 389.024C315.453 389.187 315.476 389.435 315.226 389.58L308.873 393.248C308.622 393.392 308.191 393.379 307.909 393.215L299.735 388.496C299.452 388.335 299.427 388.083 299.677 387.94L306.03 384.273ZM281.511 370.114C281.761 369.97 282.193 369.986 282.475 370.148L292.692 376.048C292.974 376.21 292.999 376.46 292.75 376.604L286.396 380.271C286.145 380.416 285.714 380.4 285.431 380.237L275.215 374.34C274.933 374.177 274.906 373.929 275.157 373.783L281.511 370.114ZM328.508 397.25C328.759 397.104 329.19 397.119 329.472 397.282L384.131 428.84C384.414 429.003 384.44 429.251 384.189 429.395L377.835 433.063C377.585 433.208 377.153 433.195 376.871 433.032L322.211 401.473C321.93 401.31 321.904 401.062 322.154 400.918L328.508 397.25ZM386.231 430.575C386.482 430.43 386.915 430.446 387.197 430.609L395.37 435.328C395.652 435.49 395.677 435.738 395.427 435.884L389.074 439.552C388.823 439.697 388.391 439.681 388.109 439.519L379.935 434.8C379.654 434.637 379.628 434.388 379.879 434.243L386.231 430.575ZM317.269 390.759C317.52 390.615 317.954 390.631 318.234 390.793L326.407 395.511C326.69 395.675 326.715 395.923 326.465 396.069L320.111 399.736C319.861 399.881 319.429 399.866 319.147 399.704L310.973 394.985C310.69 394.823 310.666 394.572 310.916 394.427L317.269 390.759ZM397.47 437.064C397.72 436.918 398.152 436.935 398.436 437.098L406.608 441.815C406.891 441.979 406.915 442.229 406.665 442.373L400.312 446.04C400.061 446.185 399.63 446.17 399.348 446.008L391.174 441.29C390.892 441.127 390.866 440.878 391.116 440.733L397.47 437.064ZM294.792 377.784C295.043 377.639 295.474 377.654 295.758 377.817L303.931 382.535C304.212 382.698 304.238 382.947 303.988 383.092L297.635 386.76C297.384 386.906 296.952 386.89 296.67 386.728L288.495 382.009C288.213 381.846 288.189 381.597 288.44 381.452L294.792 377.784ZM260.056 357.727C260.306 357.582 260.738 357.598 261.021 357.761L267.661 361.596C267.944 361.758 267.968 362.008 267.717 362.153L261.366 365.821C261.116 365.965 260.682 365.95 260.4 365.787L253.76 361.954C253.478 361.79 253.451 361.542 253.702 361.396L260.056 357.727ZM238.316 342.556L231.674 338.723C231.392 338.56 231.366 338.309 231.617 338.164L237.971 334.497C238.221 334.352 238.653 334.368 238.935 334.531L245.577 338.364C245.858 338.528 245.884 338.777 245.633 338.922L239.28 342.59C239.03 342.734 238.597 342.72 238.316 342.556ZM277.922 344.463L271.282 340.628C271 340.465 270.974 340.217 271.224 340.072L277.579 336.403C277.828 336.259 278.26 336.273 278.543 336.437L285.182 340.27C285.467 340.434 285.491 340.683 285.24 340.828L278.888 344.495C278.637 344.639 278.204 344.627 277.922 344.463ZM303.703 380.307L284.29 369.101C284.009 368.937 283.982 368.687 284.233 368.543L290.587 364.874C290.838 364.73 291.27 364.744 291.553 364.907L310.963 376.116C311.245 376.278 311.271 376.527 311.02 376.672L304.666 380.339C304.415 380.484 303.985 380.47 303.703 380.307ZM248.985 348.193C248.735 348.337 248.303 348.322 248.023 348.159L241.381 344.326C241.098 344.163 241.072 343.913 241.324 343.768L247.677 340.101C247.926 339.957 248.359 339.97 248.641 340.133L255.283 343.968C255.564 344.131 255.591 344.38 255.341 344.524L248.985 348.193ZM257.098 342.921L250.456 339.085C250.175 338.923 250.148 338.673 250.399 338.53L256.753 334.861C257.004 334.715 257.435 334.732 257.717 334.894L264.358 338.728C264.641 338.891 264.666 339.14 264.415 339.285L258.063 342.952C257.812 343.097 257.379 343.082 257.098 342.921ZM313.41 385.912L306.766 382.076C306.484 381.914 306.46 381.665 306.711 381.521L313.064 377.853C313.314 377.707 313.746 377.723 314.029 377.885L320.67 381.72C320.952 381.882 320.976 382.132 320.725 382.276L314.372 385.943C314.122 386.088 313.693 386.074 313.41 385.912ZM270.442 360.58C270.19 360.725 269.758 360.71 269.476 360.548L262.836 356.713C262.554 356.551 262.528 356.3 262.779 356.155L269.132 352.489C269.382 352.343 269.814 352.357 270.097 352.52L276.738 356.356C277.02 356.518 277.044 356.766 276.793 356.911L270.442 360.58ZM361.937 413.93L355.297 410.095C355.015 409.932 354.989 409.684 355.24 409.539L361.593 405.869C361.843 405.724 362.275 405.74 362.558 405.904L369.199 409.738C369.481 409.901 369.506 410.149 369.255 410.294L362.901 413.962C362.651 414.106 362.219 414.093 361.937 413.93ZM352.231 408.326L345.592 404.492C345.31 404.329 345.283 404.08 345.534 403.935L351.888 400.266C352.138 400.121 352.57 400.136 352.853 400.299L359.492 404.134C359.774 404.296 359.8 404.546 359.549 404.689L353.196 408.357C352.946 408.502 352.513 408.49 352.231 408.326ZM371.644 419.532L365.003 415.699C364.72 415.537 364.694 415.287 364.945 415.143L371.299 411.473C371.55 411.329 371.981 411.344 372.263 411.507L378.904 415.34C379.187 415.503 379.212 415.754 378.962 415.898L372.608 419.566C372.357 419.71 371.926 419.696 371.644 419.532ZM332.821 397.119L326.179 393.285C325.896 393.122 325.872 392.871 326.122 392.727L332.476 389.059C332.726 388.915 333.158 388.93 333.44 389.093L340.081 392.926C340.362 393.088 340.388 393.338 340.138 393.484L333.785 397.152C333.534 397.297 333.102 397.281 332.821 397.119ZM342.527 402.722L335.885 398.887C335.603 398.725 335.578 398.476 335.829 398.332L342.181 394.664C342.431 394.519 342.865 394.532 343.147 394.695L349.789 398.529C350.07 398.692 350.096 398.941 349.845 399.086L343.49 402.755C343.239 402.9 342.809 402.884 342.527 402.722ZM323.115 391.514L316.474 387.681C316.193 387.518 316.165 387.269 316.416 387.124L322.77 383.455C323.021 383.31 323.452 383.325 323.735 383.489L330.375 387.322C330.658 387.484 330.682 387.736 330.431 387.881L324.08 391.548C323.828 391.692 323.397 391.678 323.115 391.514ZM270.149 313.56C269.898 313.705 269.466 313.689 269.184 313.526L262.543 309.693C262.261 309.53 262.237 309.281 262.487 309.136L264.178 308.158C264.429 308.013 264.86 308.029 265.143 308.192L271.783 312.027C272.065 312.19 272.09 312.439 271.839 312.584L270.149 313.56ZM318.39 344.103C318.14 344.248 317.709 344.233 317.426 344.069L310.784 340.236C310.503 340.072 310.478 339.824 310.728 339.68L317.081 336.013C317.332 335.867 317.764 335.881 318.048 336.045L324.687 339.88C324.969 340.042 324.994 340.292 324.744 340.436L318.39 344.103ZM298.978 332.897C298.729 333.041 298.295 333.027 298.014 332.863L291.374 329.03C291.092 328.867 291.065 328.618 291.316 328.472L297.67 324.803C297.921 324.658 298.352 324.674 298.634 324.836L305.276 328.672C305.558 328.835 305.584 329.083 305.332 329.227L298.978 332.897ZM330.243 350.946C329.993 351.091 329.56 351.075 329.277 350.913L322.636 347.079C322.354 346.917 322.329 346.667 322.58 346.522L328.932 342.853C329.183 342.71 329.614 342.725 329.898 342.887L336.538 346.72C336.82 346.883 336.846 347.134 336.595 347.278L330.243 350.946ZM308.684 338.499C308.434 338.644 308.002 338.631 307.72 338.467L301.079 334.632C300.797 334.469 300.772 334.221 301.022 334.076L307.375 330.408C307.626 330.264 308.059 330.278 308.34 330.441L314.981 334.275C315.263 334.439 315.291 334.687 315.04 334.832L308.684 338.499ZM349.654 362.154C349.403 362.299 348.972 362.284 348.69 362.12L342.049 358.287C341.766 358.124 341.742 357.874 341.992 357.729L348.344 354.062C348.594 353.918 349.028 353.93 349.31 354.094L355.951 357.929C356.232 358.092 356.258 358.341 356.008 358.486L349.654 362.154ZM339.948 356.551C339.698 356.695 339.266 356.68 338.984 356.517L332.343 352.683C332.061 352.52 332.035 352.269 332.286 352.125L338.639 348.458C338.889 348.313 339.321 348.327 339.603 348.489L346.243 352.325C346.527 352.489 346.553 352.737 346.302 352.881L339.948 356.551ZM289.56 324.768C289.31 324.912 288.878 324.898 288.595 324.734L281.955 320.898C281.672 320.736 281.648 320.487 281.898 320.343L283.591 319.367C283.841 319.222 284.273 319.235 284.553 319.398L291.195 323.234C291.476 323.398 291.503 323.645 291.252 323.789L289.56 324.768ZM260.443 307.955C260.192 308.1 259.761 308.087 259.477 307.924L252.838 304.089C252.555 303.925 252.531 303.675 252.781 303.531L254.473 302.556C254.724 302.411 255.154 302.425 255.437 302.587L262.078 306.423C262.36 306.585 262.386 306.835 262.134 306.979L260.443 307.955ZM247.097 315.66C246.845 315.805 246.415 315.792 246.132 315.629L239.49 311.793C239.209 311.631 239.184 311.382 239.435 311.238L245.787 307.569C246.038 307.424 246.469 307.44 246.753 307.602L253.393 311.436C253.675 311.598 253.702 311.85 253.45 311.993L247.097 315.66ZM228.609 336.954L221.969 333.118C221.687 332.956 221.661 332.707 221.912 332.562L228.264 328.892C228.515 328.748 228.949 328.765 229.231 328.926L235.871 332.759C236.152 332.923 236.178 333.173 235.927 333.317L229.574 336.986C229.323 337.131 228.892 337.115 228.609 336.954ZM279.856 319.162C279.605 319.307 279.172 319.293 278.89 319.131L272.249 315.296C271.967 315.134 271.942 314.883 272.193 314.738L273.883 313.762C274.134 313.618 274.566 313.633 274.848 313.796L281.489 317.629C281.77 317.793 281.798 318.043 281.546 318.187L279.856 319.162ZM359.36 367.756C359.109 367.901 358.677 367.887 358.395 367.725L351.754 363.889C351.472 363.726 351.447 363.478 351.697 363.334L358.05 359.664C358.301 359.52 358.732 359.536 359.015 359.698L365.656 363.531C365.938 363.694 365.963 363.945 365.713 364.089L359.36 367.756Z" fill="#677672"/>
<path d="M330.636 417.814L329.276 418.599L293.109 439.476L228.791 402.342L227.452 401.578L264.979 379.916L330.636 417.814Z" fill="#4E3658"/>
<path d="M329.275 418.599L293.108 439.476L228.79 402.341L264.979 381.463L329.275 418.599Z" fill="#2F2B31"/>
<path d="M597.215 432.38V429.322H596.46C595.582 427.542 593.936 425.861 591.508 424.46C583.893 420.064 571.551 420.064 563.937 424.46C561.509 425.861 559.863 427.542 558.985 429.322H558.239V432.283C558.178 435.208 560.071 438.145 563.937 440.378C571.551 444.774 583.893 444.774 591.508 440.378C595.331 438.17 597.232 435.273 597.215 432.38Z" fill="#6E5A0A"/>
<path d="M563.939 421.363C571.552 416.967 583.896 416.967 591.509 421.363C599.122 425.759 599.122 432.885 591.509 437.28C583.896 441.676 571.552 441.676 563.939 437.28C556.326 432.885 556.326 425.758 563.939 421.363Z" fill="#6E5A0A"/>
<path d="M572.703 323.33L572.706 427.988C572.706 428.729 573.197 429.47 574.177 430.036C576.136 431.168 579.311 431.168 581.27 430.036C582.25 429.47 582.74 428.729 582.74 427.988L582.738 323.33H572.703Z" fill="#6E5A0A"/>
<path d="M582.74 335.987V345.833L572.705 351.614L572.703 341.794L582.74 335.987Z" fill="#393403"/>
<path d="M533.739 255.163L548.475 246.656C549.129 246.278 549.608 246.182 549.866 246.333C550.174 246.514 551.402 247.224 551.661 247.371C551.973 247.549 551.968 248.083 551.572 248.902L547.987 256.324L550.662 258.778C551.889 259.904 551.714 261.49 550.273 262.322L535.538 270.829L533.739 269.79V255.163Z" fill="#C4A31E"/>
<path d="M533.738 255.163L548.474 246.656C549.128 246.278 549.606 246.182 549.864 246.333C550.173 246.514 551.401 247.224 551.66 247.371C551.972 247.549 551.967 248.083 551.571 248.902L547.986 256.324L550.661 258.778C551.888 259.904 551.713 261.49 550.272 262.322L535.537 270.829L533.738 269.79V255.163Z" fill="#7D7D0E"/>
<path d="M550.273 247.696C551.714 246.864 552.296 247.404 551.573 248.902L547.988 256.324L550.663 258.779C551.89 259.904 551.714 261.491 550.273 262.322L535.537 270.829V256.203L550.273 247.696Z" fill="#C4A31E"/>
<path d="M533.807 302.044C534.763 302.044 535.538 301.269 535.538 300.312V251.365C535.538 250.408 534.763 249.634 533.807 249.634C532.851 249.634 532.075 250.408 532.075 251.365V300.312C532.075 301.269 532.851 302.044 533.807 302.044Z" fill="#6E5A0A"/>
<path d="M546.346 313.967L527.789 324.692C527.885 324.836 528.018 324.981 528.15 325.065L560.613 343.803C560.89 343.96 561.107 343.839 561.107 343.514V320.125C561.107 316.052 560.167 311.521 558.396 307.014L546.346 313.967Z" fill="#DF9920"/>
<path d="M546.346 313.966L527.789 324.691C527.885 324.835 528.018 324.98 528.15 325.064L560.613 343.802C560.89 343.959 561.107 343.838 561.107 343.513V320.124C561.107 316.051 560.167 311.52 558.396 307.013L546.346 313.966Z" fill="#6E5A0A"/>
<path d="M527.648 298.6V324.772L558.392 307.018C558.361 306.934 558.326 306.847 558.292 306.763C554.995 298.528 549.438 291.543 543.413 288.078C540.942 286.647 538.602 285.926 536.46 285.926C531.025 285.926 527.648 290.782 527.648 298.6Z" fill="#DF9920"/>
<path d="M527.648 298.6V324.772L558.392 307.018C558.361 306.934 558.326 306.846 558.292 306.761C554.995 298.526 549.438 291.543 543.413 288.078C540.942 286.647 538.602 285.924 536.46 285.924C531.025 285.924 527.648 290.782 527.648 298.6Z" fill="#CBBE48"/>
<path d="M494.256 353.991L494.257 351.654H494.48V351.987C494.617 351.354 494.817 350.722 495.09 350.096C496.316 347.231 498.902 344.485 502.85 342.205L524.82 329.521C525.734 328.994 527.213 328.994 528.131 329.521L561.721 348.913C562.076 348.597 562.464 348.284 562.789 347.737V350.092C562.789 350.438 562.56 350.784 562.103 351.049L540.133 363.731C534.255 367.127 526.566 368.795 519.12 368.696C512.674 368.612 506.41 367.204 501.637 364.442C496.697 361.603 494.264 357.836 494.264 353.991H494.256Z" fill="#DF9920"/>
<path d="M494.256 353.991L494.257 351.654H494.48V351.987C494.617 351.354 494.817 350.722 495.09 350.096C496.316 347.231 498.902 344.485 502.85 342.205L524.82 329.521C525.734 328.994 527.213 328.994 528.131 329.521L561.721 348.913C562.076 348.597 562.464 348.284 562.789 347.737V350.092V350.093C562.789 350.439 562.56 350.784 562.103 351.049L540.133 363.731C534.255 367.127 526.566 368.795 519.12 368.696C512.674 368.612 506.41 367.204 501.637 364.442C496.697 361.603 494.264 357.836 494.264 353.991H494.256Z" fill="#C4A31E"/>
<path d="M495.089 350.096C496.316 347.231 498.902 344.485 502.849 342.205L524.82 329.521C525.734 328.994 527.214 328.994 528.132 329.521L561.721 348.913L540.134 361.379C534.256 364.775 526.567 366.443 519.12 366.343C512.674 366.256 506.41 364.848 501.637 362.09C497.203 359.539 494.782 356.246 494.335 352.815C494.446 351.904 494.698 350.994 495.089 350.096Z" fill="#DF9920"/>
<path d="M495.09 350.096C496.318 347.231 498.904 344.485 502.85 342.205L524.82 329.521C525.734 328.994 527.214 328.994 528.132 329.521L561.721 348.913L540.134 361.379C534.256 364.775 526.568 366.443 519.121 366.343C512.676 366.256 506.411 364.848 501.638 362.09C497.205 359.539 494.784 356.246 494.337 352.815C494.447 351.904 494.699 350.994 495.09 350.096Z" fill="#E9C11C"/>
<path d="M494.335 352.815C494.446 351.905 494.699 350.994 495.088 350.096C496.316 347.231 498.902 344.485 502.849 342.205L524.818 329.521C525.733 328.994 527.214 328.994 528.131 329.521L561.72 348.913L562.103 348.697C563.018 348.169 563.018 347.312 562.103 346.783L528.131 327.17C527.214 326.643 525.733 326.643 524.818 327.17L502.849 339.853C498.902 342.133 496.316 344.879 495.088 347.743C494.676 348.697 494.416 349.664 494.312 350.632C494.232 351.362 494.24 352.092 494.335 352.815Z" fill="#DF9920"/>
<path d="M494.335 352.815C494.446 351.905 494.699 350.994 495.088 350.096C496.316 347.231 498.902 344.485 502.849 342.205L524.818 329.521C525.733 328.994 527.214 328.994 528.131 329.521L561.72 348.913L562.103 348.697C563.018 348.169 563.018 347.312 562.103 346.783L528.131 327.17C527.214 326.643 525.733 326.643 524.818 327.17L502.849 339.853C498.902 342.133 496.316 344.879 495.088 347.743C494.676 348.697 494.416 349.664 494.312 350.632C494.232 351.362 494.24 352.092 494.335 352.815Z" fill="#C4A31E"/>
<path d="M561.364 346.449L527.392 326.835L528.145 325.06L560.61 343.807L561.364 346.449Z" fill="#DF9920"/>
<path d="M561.364 346.449L527.392 326.835L528.145 325.06L560.61 343.807L561.364 346.449Z" fill="#CBBE48"/>
<path d="M530.641 297.041C530.641 296.525 531.002 295.899 531.449 295.642L572.812 271.762C573.258 271.504 573.982 271.504 574.428 271.762L575.34 272.286C575.786 272.544 576.149 273.172 576.149 273.688V305.391C576.149 305.903 575.785 306.535 575.34 306.793L533.979 330.672C533.534 330.929 532.805 330.929 532.36 330.672L531.449 330.144C531.005 329.888 530.641 329.257 530.641 328.745V297.041Z" fill="#F4F4F4"/>
<path d="M530.878 296.244L533.172 297.568L575.911 272.891C575.766 272.639 575.563 272.416 575.341 272.286L574.428 271.762C573.983 271.502 573.257 271.502 572.813 271.762L531.452 295.642C531.226 295.771 531.024 295.992 530.878 296.244Z" fill="#C4A31E"/>
<path d="M533.361 330.846C533.311 330.858 533.263 330.858 533.204 330.858H533.252C533.3 330.858 533.324 330.858 533.361 330.846Z" fill="#C4A31E"/>
<path d="M533.168 297.564L533.59 297.817C533.336 297.913 533.168 298.166 533.168 298.504V330.207C533.168 330.472 533.264 330.653 533.421 330.737C533.529 330.785 533.662 330.798 533.806 330.749C533.867 330.725 533.927 330.701 533.975 330.677L575.343 306.794C575.789 306.529 576.15 305.902 576.15 305.396V273.693C576.15 273.427 576.054 273.138 575.909 272.885L533.168 297.564Z" fill="#EDEDED"/>
<path d="M533.173 297.567L552.327 304.724C553.693 305.232 555.227 304.727 556.022 303.508L559.098 298.795L576.065 272.802L559.712 298.972L576.149 305.405C576.144 305.665 576.049 305.955 575.896 306.212L559.666 299.046L556.092 304.766C555.269 306.077 553.608 306.59 552.194 305.962L549.649 304.839L533.422 330.736C533.269 330.655 533.173 330.472 533.173 330.205V329.677L549.569 304.804L533.173 297.567Z" fill="#B7AB41"/>
<path d="M540.431 302.651C540.431 302.135 540.793 301.509 541.24 301.251L582.603 277.371C583.049 277.114 583.773 277.114 584.219 277.371L585.131 277.897C585.577 278.155 585.939 278.781 585.939 279.297V311.002C585.939 311.515 585.576 312.145 585.131 312.403L543.769 336.283C543.325 336.539 542.596 336.539 542.151 336.283L541.24 335.756C540.795 335.498 540.431 334.868 540.431 334.356V302.651Z" fill="#F4F4F4"/>
<path d="M540.668 301.856L542.962 303.18L585.701 278.502C585.555 278.25 585.353 278.028 585.131 277.898L584.218 277.374C583.773 277.114 583.046 277.114 582.603 277.374L541.241 301.252C541.016 301.381 540.813 301.604 540.668 301.856Z" fill="#C4A31E"/>
<path d="M543.15 336.456C543.102 336.468 543.054 336.468 542.993 336.468H543.041C543.09 336.468 543.114 336.468 543.15 336.456Z" fill="#C4A31E"/>
<path d="M542.958 303.175L543.38 303.428C543.127 303.525 542.958 303.778 542.958 304.115V335.819C542.958 336.084 543.055 336.265 543.211 336.349C543.32 336.397 543.452 336.409 543.597 336.361C543.657 336.337 543.717 336.313 543.766 336.289L585.133 312.406C585.579 312.14 585.941 311.514 585.941 311.008V279.304C585.941 279.039 585.844 278.75 585.7 278.497L542.958 303.175Z" fill="#EDEDED"/>
<path d="M542.963 303.179L562.118 310.334C563.483 310.844 565.017 310.339 565.812 309.118L568.889 304.407L585.855 278.414L569.502 304.584L585.939 311.015C585.935 311.275 585.839 311.566 585.686 311.822L569.456 304.657L565.882 310.378C565.059 311.689 563.399 312.202 561.984 311.574L559.439 310.451L543.213 336.348C543.06 336.267 542.963 336.084 542.963 335.815V335.287L559.36 310.416L542.963 303.179Z" fill="#B7AB41"/>
<path d="M550.221 308.262C550.221 307.746 550.582 307.12 551.03 306.863L592.391 282.983C592.837 282.725 593.561 282.725 594.007 282.983L594.92 283.507C595.366 283.765 595.729 284.393 595.729 284.909V316.612C595.729 317.126 595.365 317.757 594.92 318.014L553.559 341.893C553.114 342.15 552.385 342.15 551.941 341.893L551.03 341.367C550.585 341.11 550.221 340.48 550.221 339.966V308.262Z" fill="#F4F4F4"/>
<path d="M550.458 307.466L552.753 308.789L595.491 284.112C595.346 283.859 595.143 283.637 594.921 283.507L594.008 282.983C593.563 282.723 592.837 282.723 592.393 282.983L551.032 306.863C550.806 306.992 550.604 307.214 550.458 307.466Z" fill="#C4A31E"/>
<path d="M552.94 342.068C552.892 342.08 552.844 342.08 552.784 342.08H552.832C552.88 342.08 552.904 342.08 552.94 342.068Z" fill="#C4A31E"/>
<path d="M552.748 308.786L553.17 309.039C552.917 309.135 552.748 309.388 552.748 309.726V341.429C552.748 341.694 552.844 341.875 553.001 341.959C553.109 342.008 553.242 342.02 553.387 341.971C553.447 341.947 553.507 341.923 553.555 341.899L594.923 318.016C595.369 317.751 595.73 317.124 595.73 316.618V284.915C595.73 284.65 595.634 284.36 595.489 284.107L552.748 308.786Z" fill="#EDEDED"/>
<path d="M552.753 308.789L571.907 315.945C573.273 316.454 574.807 315.949 575.602 314.729L578.678 310.017L595.645 284.024L579.292 310.194L595.729 316.627C595.724 316.887 595.629 317.177 595.476 317.433L579.246 310.268L575.672 315.988C574.849 317.299 573.188 317.812 571.774 317.185L569.229 316.062L553.002 341.958C552.849 341.877 552.753 341.694 552.753 341.426V340.898L569.149 316.027L552.753 308.789Z" fill="#B7AB41"/>
<path d="M531.946 285.083C535.236 283.36 539.598 283.661 544.369 286.421C549.732 289.506 554.564 295.085 557.95 301.495C558.745 302.977 559.444 304.508 560.071 306.05C561.938 310.702 563.023 315.57 563.023 320.125V346.852C563.625 346.852 564.216 346.707 564.674 346.454L612.264 318.965C613.168 318.435 613.915 317.145 613.915 316.096V290.72C613.915 278.044 605.564 262.958 595.273 257.006C590.393 254.185 585.959 253.956 582.633 255.825L582.621 255.801L531.946 285.083Z" fill="#DF9920"/>
<path d="M531.946 285.083C535.236 283.36 539.598 283.662 544.369 286.421C549.732 289.506 554.564 295.085 557.95 301.496C558.745 302.978 559.444 304.508 560.071 306.05C561.938 310.702 563.023 315.57 563.023 320.125V346.852C563.625 346.852 564.216 346.707 564.674 346.454L612.264 318.966C613.168 318.435 613.915 317.145 613.915 316.096V290.72C613.915 278.044 605.564 262.957 595.273 257.004C590.393 254.184 585.959 253.955 582.633 255.824L582.621 255.799L531.946 285.083Z" fill="#E9C11C"/>
<path d="M612.264 318.966L564.674 346.454C564.216 346.707 563.625 346.852 563.023 346.852V320.125C563.023 317.691 562.705 315.169 562.131 312.637L613.035 283.247C613.603 285.773 613.915 288.291 613.915 290.72V316.098C613.915 317.146 613.168 318.435 612.264 318.966Z" fill="#C4A31E"/>
<path d="M560.071 306.05C561.938 310.702 563.023 315.57 563.023 320.125V346.852C563.228 346.852 563.433 346.828 563.625 346.791C563.637 345.249 563.649 336.669 563.649 320.125C563.649 300.459 548.527 287.963 544.369 286.421C549.732 289.506 554.564 295.085 557.95 301.496C558.745 302.978 559.444 304.508 560.071 306.05Z" fill="#DF9920"/>
<path d="M560.071 306.05C561.938 310.702 563.023 315.57 563.023 320.125V346.852C563.228 346.852 563.433 346.828 563.625 346.791C563.637 345.249 563.649 336.669 563.649 320.125C563.649 300.459 548.527 287.963 544.369 286.421C549.732 289.506 554.564 295.085 557.95 301.496C558.745 302.978 559.444 304.508 560.071 306.05Z" fill="#D9D956"/>
<path d="M560.61 343.805C560.885 343.963 561.107 343.837 561.107 343.52V320.127C561.107 316.049 560.167 311.524 558.393 307.018C558.362 306.934 558.327 306.847 558.293 306.763C557.628 305.098 556.87 303.489 556.029 301.947C552.732 295.85 548.223 290.843 543.415 288.078C540.943 286.647 538.602 285.924 536.46 285.924C535.105 285.924 533.879 286.227 532.799 286.801C529.549 288.533 527.649 292.733 527.649 298.6V324.199C527.649 324.516 527.87 324.901 528.145 325.06L527.392 326.837C527.334 326.802 527.276 326.766 527.222 326.728C526.974 326.556 526.743 326.326 526.54 326.065C526.535 326.065 526.534 326.062 526.534 326.058C526.052 325.45 525.735 324.659 525.735 323.968V298.6C525.735 291.811 528.133 287.087 531.942 285.087C535.24 283.358 539.593 283.66 544.369 286.422C549.728 289.505 554.56 295.081 557.957 301.496C558.74 302.975 559.449 304.502 560.068 306.05C561.935 310.702 563.02 315.567 563.02 320.127V346.847C562.925 346.847 562.827 346.843 562.732 346.836C562.231 346.801 561.745 346.671 561.363 346.449L560.61 343.805Z" fill="#DF9920"/>
<path d="M560.61 343.805C560.885 343.963 561.107 343.836 561.107 343.519V320.126C561.107 316.048 560.167 311.524 558.393 307.018C558.362 306.934 558.327 306.847 558.293 306.763C557.628 305.098 556.87 303.489 556.029 301.947C552.732 295.85 548.223 290.843 543.415 288.078C540.943 286.647 538.602 285.924 536.46 285.924C535.105 285.924 533.879 286.227 532.799 286.801C529.549 288.533 527.649 292.733 527.649 298.6V324.199C527.649 324.516 527.87 324.901 528.145 325.06L527.392 326.835C527.334 326.801 527.276 326.766 527.222 326.728C526.974 326.556 526.743 326.326 526.54 326.065C526.535 326.065 526.534 326.062 526.534 326.058C526.052 325.45 525.735 324.658 525.735 323.966V298.6C525.735 291.811 528.133 287.087 531.942 285.087C535.24 283.358 539.593 283.66 544.369 286.422C549.728 289.505 554.56 295.081 557.957 301.496C558.74 302.975 559.449 304.502 560.068 306.05C561.935 310.702 563.02 315.566 563.02 320.126V346.846C562.925 346.846 562.827 346.842 562.732 346.835C562.231 346.8 561.745 346.67 561.363 346.448L560.61 343.805Z" fill="#C4A31E"/>
<path d="M447.129 275.251C447.129 273.254 445.729 270.827 444 269.828L289.55 180.664C287.821 179.666 285.018 179.666 283.289 180.664L279.762 182.701C278.031 183.699 276.63 186.127 276.63 188.124V310.887C276.63 312.875 278.04 315.315 279.762 316.31L434.209 405.473C435.931 406.467 438.748 406.467 440.47 405.473L443.997 403.435C445.719 402.442 447.129 400.002 447.129 398.013V275.251Z" fill="#8839A7"/>
<path d="M447.129 275.251C447.129 273.254 445.729 270.827 444 269.828L289.551 180.664C287.822 179.666 285.018 179.666 283.289 180.664L279.762 182.703C278.031 183.7 276.63 186.128 276.63 188.125V310.887C276.63 312.875 278.04 315.315 279.762 316.31L434.209 405.473C435.931 406.467 438.748 406.467 440.47 405.473L443.997 403.435C445.719 402.442 447.129 400.002 447.129 398.013V275.251Z" fill="#DDB1F5"/>
<path d="M446.216 272.167L437.33 277.292L277.548 185.039C278.111 184.062 278.896 183.203 279.756 182.699L283.294 180.671C285.012 179.664 287.827 179.664 289.545 180.671L443.995 269.827C444.868 270.331 445.653 271.19 446.216 272.167Z" fill="#8839A7"/>
<path d="M446.216 272.167L437.33 277.292L277.549 185.039C278.112 184.062 278.897 183.203 279.756 182.699L283.295 180.67C285.013 179.662 287.827 179.662 289.545 180.67L443.995 269.827C444.868 270.331 445.653 271.19 446.216 272.167Z" fill="#E9CCF9"/>
<path d="M447.134 275.247V398.008C447.134 400.008 445.728 402.436 443.995 403.428L440.469 405.474C440.203 405.622 439.921 405.754 439.61 405.859C439.21 405.991 438.781 406.096 438.322 406.155C437.507 406.259 436.648 406.228 435.848 406.065C435.641 406.02 435.429 405.973 435.236 405.914C435.102 405.869 434.963 405.828 434.855 405.781C435.432 405.99 435.953 405.932 436.367 405.725C436.959 405.413 437.33 404.704 437.33 403.667V280.906C437.33 279.618 436.678 278.638 435.701 278.239L437.33 277.292L446.216 272.167C446.778 273.146 447.134 274.254 447.134 275.247Z" fill="#D497F5"/>
<path d="M447.134 275.247V398.008C447.134 400.008 445.728 402.436 443.995 403.428L440.469 405.474C440.203 405.622 439.921 405.754 439.61 405.859C439.21 405.991 438.781 406.096 438.322 406.155C437.507 406.259 436.648 406.228 435.848 406.065C435.641 406.02 435.429 405.973 435.236 405.914C435.102 405.869 434.963 405.828 434.855 405.781C435.432 405.99 435.953 405.932 436.367 405.725C436.959 405.413 437.33 404.704 437.33 403.667V280.906C437.33 279.618 436.678 278.638 435.701 278.239L437.33 277.292L446.216 272.167C446.778 273.146 447.134 274.254 447.134 275.247Z" fill="#D497F5"/>
<path d="M437.33 277.291L363.16 305.002C357.873 306.971 351.935 305.016 348.855 300.292L336.943 282.043L277.549 185.038L334.568 282.729L276.631 310.94C276.646 311.948 277.016 313.073 277.608 314.065L334.747 283.015L348.587 305.165C351.772 310.245 358.199 312.23 363.679 309.8L373.534 305.45L436.367 405.725C436.959 405.414 437.33 404.703 437.33 403.667V401.623L373.841 305.313L437.33 277.291Z" fill="#C588E6"/>
<path d="M437.33 277.291L363.16 305.002C357.873 306.971 351.935 305.016 348.855 300.292L336.943 282.043L277.549 185.038L334.568 282.729L276.631 310.94C276.646 311.948 277.016 313.073 277.608 314.065L334.747 283.015L348.587 305.165C351.772 310.245 358.199 312.23 363.679 309.8L373.534 305.45L436.367 405.725C436.959 405.414 437.33 404.703 437.33 403.667V401.623L373.841 305.313L437.33 277.291Z" fill="#C588E6"/>
<path d="M407.969 297.882C407.969 295.885 406.569 293.458 404.839 292.459L250.39 203.296C248.66 202.297 245.858 202.297 244.13 203.295L240.599 205.332C238.87 206.33 237.47 208.758 237.47 210.755V333.518C237.47 335.506 238.877 337.947 240.599 338.941L395.049 428.104C396.771 429.098 399.588 429.098 401.31 428.104L404.837 426.068C406.559 425.073 407.969 422.633 407.969 420.645V297.882Z" fill="#8839A7"/>
<path d="M407.969 297.881C407.969 295.884 406.569 293.457 404.839 292.458L250.39 203.295C248.66 202.296 245.858 202.296 244.13 203.294L240.599 205.331C238.87 206.329 237.47 208.757 237.47 210.754V333.517C237.47 335.505 238.877 337.945 240.599 338.94L395.049 428.103C396.771 429.097 399.588 429.097 401.31 428.103L404.837 426.066C406.559 425.072 407.969 422.632 407.969 420.644V297.881Z" fill="#C87FF0"/>
<path d="M407.055 294.798L398.17 299.922L238.388 207.669C238.952 206.692 239.738 205.833 240.595 205.329L244.136 203.301C245.854 202.294 248.668 202.294 250.385 203.301L404.835 292.458C405.708 292.962 406.493 293.82 407.055 294.798Z" fill="#8839A7"/>
<path d="M407.055 294.798L398.17 299.922L238.388 207.669C238.952 206.692 239.738 205.833 240.595 205.329L244.136 203.301C245.854 202.294 248.668 202.294 250.385 203.301L404.835 292.458C405.708 292.962 406.493 293.82 407.055 294.798Z" fill="#D49AF3"/>
<path d="M407.972 297.878V420.639C407.972 422.639 406.566 425.067 404.833 426.059L401.308 428.104C401.041 428.252 400.759 428.385 400.448 428.49C400.048 428.622 399.619 428.726 399.16 428.785C398.346 428.889 397.487 428.86 396.686 428.696C396.479 428.652 396.272 428.593 396.08 428.533C395.947 428.49 395.827 428.444 395.709 428.385C396.288 428.593 396.791 428.563 397.206 428.356C397.797 428.045 398.169 427.334 398.169 426.297V303.536C398.169 302.248 397.517 301.269 396.539 300.87L398.169 299.922L407.054 294.798C407.617 295.776 407.972 296.887 407.972 297.878Z" fill="#B47DCF"/>
<path d="M398.17 299.922L324 327.633C318.714 329.602 312.775 327.648 309.693 322.923L297.783 304.674L238.388 207.669L295.409 305.36L237.471 333.571C237.486 334.579 237.855 335.704 238.448 336.696L295.587 305.644L309.427 327.796C312.611 332.876 319.039 334.861 324.518 332.431L334.374 328.081L397.207 428.356C397.799 428.046 398.17 427.334 398.17 426.298V424.254L334.681 327.944L398.17 299.922Z" fill="#A14BC2"/>
<path d="M398.17 299.922L324 327.633C318.714 329.602 312.775 327.648 309.693 322.923L297.783 304.674L238.388 207.669L295.409 305.36L237.471 333.571C237.486 334.579 237.855 335.704 238.448 336.696L295.587 305.644L309.427 327.796C312.611 332.876 319.039 334.861 324.518 332.431L334.374 328.081L397.207 428.356C397.799 428.046 398.17 427.334 398.17 426.298V424.254L334.681 327.944L398.17 299.922Z" fill="#A14BC2"/>
<path d="M368.487 321.497L207.764 228.705L201.333 232.418C199.669 233.377 198.309 235.734 198.309 237.654V356.217C198.309 358.137 199.669 360.493 201.333 361.454L356.008 450.756C357.673 451.715 360.393 451.715 362.056 450.756L365.463 448.788C367.127 447.827 368.487 445.472 368.487 443.552V321.497Z" fill="#8839A7"/>
<path d="M368.487 321.497L207.764 228.703L201.333 232.417C199.669 233.376 198.309 235.733 198.309 237.653V356.216C198.309 358.136 199.669 360.492 201.333 361.452L356.008 450.756C357.673 451.715 360.393 451.715 362.056 450.756L365.463 448.788C367.127 447.827 368.487 445.47 368.487 443.551V321.497Z" fill="#643E74"/>
<path d="M208.651 218.28L207.993 217.922L210.49 216.473C210.706 216.347 210.927 216.241 211.154 216.157L281.888 189.947C283.761 189.254 286.192 190.026 287.32 191.673L366.446 307.225C367.574 308.873 368.489 311.826 368.487 313.823V321.496L366.035 322.92L207.764 228.705V221.029C207.764 220.095 208.105 219.124 208.651 218.28Z" fill="#8839A7"/>
<path d="M284.045 192.233C284.358 192.474 284.636 192.775 284.865 193.101L363.996 308.647C364.575 309.503 365.105 310.708 365.466 311.949L367.925 310.527C367.744 309.925 367.527 309.334 367.286 308.78C367.274 308.756 367.274 308.744 367.262 308.732C367.153 308.491 367.045 308.262 366.924 308.033C366.9 307.997 366.888 307.96 366.864 307.924C366.732 307.671 366.587 307.43 366.442 307.225L287.323 191.679C287.202 191.498 287.07 191.353 286.925 191.197C286.792 191.064 286.648 190.932 286.503 190.811L284.045 192.233Z" fill="#724883"/>
<path d="M208.022 217.911C208.239 217.779 208.468 217.67 208.697 217.586L279.442 191.365C280.936 190.811 282.792 191.197 284.045 192.233L286.503 190.811C285.238 189.787 283.394 189.389 281.888 189.944L211.155 216.152C210.926 216.236 210.708 216.345 210.492 216.477L208.022 217.911Z" fill="white"/>
<path d="M366.868 307.919C366.732 307.669 366.591 307.437 366.446 307.225C366.591 307.437 366.732 307.67 366.868 307.919Z" fill="#8839A7"/>
<path d="M286.922 191.196C286.79 191.061 286.647 190.933 286.498 190.812C286.647 190.933 286.792 191.057 286.922 191.196Z" fill="#8839A7"/>
<path d="M367.928 310.529C367.747 309.925 367.528 309.329 367.285 308.777C367.529 309.329 367.747 309.923 367.928 310.529Z" fill="#8839A7"/>
<path d="M367.264 308.727C367.157 308.485 367.04 308.256 366.924 308.035C367.041 308.256 367.157 308.485 367.264 308.727Z" fill="#8839A7"/>
<path d="M287.32 191.673C287.203 191.502 287.065 191.347 286.923 191.196C287.068 191.345 287.203 191.502 287.32 191.673Z" fill="black"/>
<path d="M284.868 193.097L363.994 308.648C365.122 310.296 366.035 313.25 366.035 315.247V322.919L205.311 230.122L205.312 222.453C205.312 220.458 206.829 218.275 208.702 217.581L279.436 191.372C281.308 190.679 283.739 191.45 284.868 193.097Z" fill="#8839A7"/>
<path d="M205.312 222.453C205.312 221.536 205.642 220.585 206.171 219.751L365.466 311.949C365.466 311.949 365.475 311.963 365.482 311.974C365.823 313.12 366.036 314.291 366.035 315.247V322.92L205.311 230.12L205.312 222.453Z" fill="#7C4293"/>
<path d="M212.177 189.883C212.177 189.057 212.464 188.476 212.93 188.2C213.404 187.922 217.364 185.641 217.836 185.368C218.308 185.096 218.96 185.136 219.68 185.551L351.513 261.661C352.952 262.493 354.121 264.516 354.121 266.18L354.12 424.061C354.12 424.893 353.829 425.477 353.357 425.75C352.885 426.023 348.933 428.303 348.461 428.575C347.989 428.849 347.336 428.809 346.615 428.393L214.785 352.284C213.343 351.452 212.176 349.428 212.176 347.765L212.177 189.883Z" fill="#F2F2F2"/>
<path d="M346.615 428.392L214.786 352.284C213.343 351.451 212.176 349.427 212.176 347.764L212.177 189.883C212.177 188.219 213.345 187.546 214.787 188.377L346.617 264.486C348.057 265.317 349.227 267.34 349.227 269.004L349.225 426.886C349.225 428.549 348.057 429.224 346.615 428.392Z" fill="#F9F9F9"/>
<path d="M301.782 282.875C301.182 284.075 300.439 285.13 299.55 286.042C298.657 286.955 297.706 287.717 296.689 288.328C295.673 288.939 294.623 289.401 293.55 289.71C292.475 290.022 291.451 290.173 290.48 290.168C288.747 290.158 287.503 289.922 286.753 289.461C286.001 288.997 285.502 288.496 285.253 287.956C284.837 288.27 284.402 288.587 283.95 288.898C283.498 289.212 282.975 289.493 282.378 289.743C281.782 289.994 281.085 290.195 280.287 290.349C279.489 290.503 278.551 290.577 277.477 290.571C276.194 290.564 275.135 290.328 274.296 289.864C273.459 289.401 272.853 288.74 272.485 287.885C272.115 287.028 271.994 286.009 272.118 284.822C272.241 283.637 272.624 282.318 273.267 280.866C273.907 279.415 274.678 278.098 275.583 276.916C276.487 275.736 277.474 274.72 278.544 273.874C279.613 273.026 280.763 272.366 281.995 271.9C283.227 271.432 284.485 271.202 285.769 271.208C287.19 271.216 288.159 271.419 288.679 271.817C289.198 272.217 289.551 272.717 289.738 273.318L289.926 272.892C290.08 272.546 290.349 272.248 290.737 271.996C291.127 271.745 291.512 271.619 291.894 271.621L294.598 271.638C294.978 271.639 295.253 271.767 295.419 272.023C295.583 272.276 295.591 272.576 295.438 272.923L290.984 283.005C290.649 283.763 290.66 284.349 291.017 284.762C291.373 285.175 291.898 285.385 292.59 285.388C293.285 285.392 293.978 285.181 294.668 284.758C295.359 284.336 295.961 283.618 296.478 282.61C296.923 281.758 297.352 280.867 297.762 279.935C298.173 279.004 298.507 278.128 298.766 277.307C299.324 275.57 299.567 274.037 299.495 272.709C299.422 271.379 298.994 270.278 298.217 269.404C297.439 268.529 296.27 267.866 294.717 267.414C293.159 266.963 291.186 266.73 288.794 266.716C286.783 266.706 284.864 266.955 283.041 267.467C281.215 267.979 279.526 268.698 277.97 269.622C276.415 270.548 275.005 271.654 273.74 272.943C272.475 274.234 271.403 275.637 270.527 277.151C270.275 277.561 269.993 278.103 269.675 278.782C269.359 279.461 269.036 280.172 268.71 280.912C268.381 281.654 268.072 282.373 267.784 283.068C267.494 283.762 267.286 284.328 267.161 284.77C266.7 286.287 266.536 287.679 266.673 288.945C266.809 290.212 267.243 291.314 267.976 292.249C268.71 293.187 269.758 293.92 271.124 294.45C272.488 294.979 274.177 295.25 276.187 295.261C277.609 295.269 278.869 295.212 279.965 295.093C281.059 294.972 282.047 294.802 282.925 294.587C283.802 294.369 284.577 294.128 285.251 293.864C285.923 293.598 286.548 293.326 287.125 293.044C287.618 292.795 288 292.616 288.275 292.505C288.549 292.396 288.877 292.341 289.26 292.344L293.108 292.365C293.488 292.368 293.773 292.487 293.964 292.727C294.155 292.964 294.142 293.29 293.925 293.7C293.813 293.952 293.589 294.188 293.249 294.406C292.227 295.065 291.104 295.74 289.878 296.429C288.653 297.116 287.281 297.727 285.761 298.256C284.24 298.785 282.521 299.22 280.599 299.556C278.677 299.893 276.502 300.056 274.075 300.043C271.057 300.026 268.584 299.607 266.653 298.791C264.72 297.973 263.267 296.874 262.297 295.493C261.324 294.111 260.788 292.51 260.689 290.69C260.589 288.871 260.874 286.967 261.544 284.978C261.704 284.536 261.94 283.944 262.25 283.201C262.558 282.46 262.893 281.688 263.248 280.882C263.603 280.077 263.95 279.313 264.289 278.587C264.627 277.86 264.903 277.291 265.119 276.882C266.158 274.928 267.517 273.045 269.203 271.234C270.889 269.424 272.836 267.83 275.045 266.45C277.251 265.07 279.695 263.97 282.37 263.146C285.042 262.322 287.888 261.92 290.906 261.937C294.443 261.957 297.267 262.366 299.38 263.169C301.494 263.972 303.039 265.057 304.018 266.422C304.993 267.787 305.47 269.389 305.442 271.223C305.414 273.057 305.046 275.017 304.333 277.101C304.039 277.922 303.653 278.876 303.171 279.965C302.69 281.053 302.227 282.025 301.782 282.875ZM278.727 280.897C278.045 282.443 277.843 283.645 278.127 284.501C278.407 285.356 279.154 285.786 280.369 285.793C281.65 285.801 282.798 285.389 283.81 284.556C284.818 283.723 285.674 282.519 286.372 280.94C287.055 279.394 287.266 278.184 287.009 277.313C286.75 276.441 285.979 276.003 284.697 275.996C283.482 275.988 282.355 276.418 281.314 277.282C280.27 278.146 279.41 279.351 278.727 280.897Z" fill="#8839A7"/>
<path d="M349.229 426.886C349.229 427.621 349.002 428.163 348.616 428.476C349.496 427.982 352.919 425.994 353.351 425.753C353.833 425.476 354.122 424.898 354.122 424.066V266.176C354.122 265.345 353.833 264.429 353.351 263.61L348.459 266.429C348.942 267.249 349.229 268.176 349.229 269.008V426.886Z" fill="#E3D5EB"/>
<path d="M202.386 357.795C202.433 357.88 202.483 357.952 202.555 358.036L269.532 336.798C274.792 334.463 280.949 336.366 284.005 341.254L355.606 447.674L358.256 449.204L358.279 449.217C359.081 449.661 359.8 449.722 360.327 449.445L286.689 339.749C283.634 334.859 277.463 332.958 272.202 335.281L202.386 357.795Z" fill="#8839A7"/>
<path d="M290.599 351.7L290.43 351.556L355.608 447.679L358.259 449.21L358.285 449.222C359.079 449.667 359.803 449.716 360.333 449.451L293.179 350.158L290.599 351.7Z" fill="white"/>
<path d="M202.382 357.799C202.43 357.883 202.478 357.956 202.551 358.04L269.536 336.793C274.791 334.456 280.947 336.36 284.008 341.253L286.659 339.71C283.598 334.841 277.454 332.963 272.199 335.276L202.382 357.799Z" fill="#C163EC"/>
<path d="M198.365 236.895H198.377C198.522 236.027 198.98 235.787 199.57 236.197C199.798 236.354 200.064 236.619 200.341 236.992L200.679 237.461L266.773 337.945L276.642 351.693C277.75 353.26 280.184 354.163 282.076 353.73L290.595 351.706L355.629 327.764C356.099 327.656 356.544 327.644 356.954 327.716C357.123 327.752 357.292 327.799 357.448 327.872L354.996 326.456L292.646 349.307L284.438 352.237C282.558 352.682 280.124 351.779 279.003 350.2L269.133 336.462L202.715 235.51C202.498 235.209 202.233 234.992 201.968 234.823L207.716 231.51L205.306 230.124L201.33 232.413C199.884 233.257 198.667 235.148 198.365 236.895Z" fill="#8839A7"/>
<path d="M266.778 337.939L276.646 351.688C277.755 353.255 280.189 354.159 282.081 353.725L290.6 351.7L290.432 351.556L290.022 350.905L284.443 352.231C282.563 352.676 280.129 351.773 279.008 350.194L269.236 336.602L266.778 337.939Z" fill="white"/>
<path d="M201.334 232.409L205.311 230.119L207.721 231.505L201.972 234.819L201.959 234.83L201.968 234.823C202.257 235.007 202.513 235.228 202.715 235.51L269.139 336.458L269.236 336.59V336.603L266.778 337.941L200.684 237.458L200.346 236.988C200.068 236.614 199.803 236.349 199.574 236.192C198.985 235.783 198.527 236.024 198.382 236.891H198.369C198.67 235.144 199.888 233.252 201.334 232.409Z" fill="#8333A2"/>
<path d="M354.308 329.688L368.489 321.497V443.551C368.489 445.47 367.128 447.827 365.464 448.788L362.057 450.756C360.395 451.716 357.671 451.716 356.008 450.756L354.308 449.773V329.688Z" fill="#8839A7"/>
<path d="M354.308 329.688L368.487 321.497V443.551C368.487 445.47 367.127 447.827 365.463 448.788L362.056 450.756C360.393 451.716 357.671 451.716 356.008 450.756L354.308 449.773V329.688Z" fill="#8333A2"/>
<path d="M198.305 237.655V356.214C198.305 357.214 198.667 358.311 199.244 359.275C199.727 360.07 200.329 360.781 201.016 361.263L201.137 361.323C201.209 361.372 201.257 361.42 201.33 361.456L356.002 450.746L356.026 450.758C356.834 451.216 357.557 451.276 358.087 450.999C358.556 450.758 358.882 450.264 358.991 449.553C359.015 449.384 359.027 449.204 359.027 449.011V330.44C359.027 328.524 357.521 327.319 355.629 327.764L290.595 351.706L282.076 353.731C280.184 354.165 277.75 353.261 276.642 351.694L266.772 337.945L200.679 237.462L200.34 236.992C199.221 235.438 198.305 235.727 198.305 237.655Z" fill="#8839A7"/>
<path d="M201.33 361.457C201.26 361.422 201.204 361.375 201.133 361.33L201.016 361.26C200.331 360.782 199.725 360.073 199.247 359.281C198.676 358.33 198.322 357.247 198.31 356.271L266.768 337.947L220.925 372.768L201.33 361.457Z" fill="#8839A7"/>
<path d="M201.331 361.457C201.261 361.422 201.204 361.375 201.133 361.33L201.016 361.26C200.331 360.782 199.725 360.073 199.247 359.281C198.676 358.33 198.322 357.247 198.31 356.271L266.769 337.947L220.925 372.768L201.331 361.457Z" fill="#8333A2"/>
<path d="M359.028 449.005C359.028 450.006 358.669 450.692 358.087 450.994C357.551 451.274 356.83 451.216 356.028 450.762L356.004 450.751L302.75 420.007L290.589 351.703L359.026 447.036L359.028 449.005Z" fill="#8839A7"/>
<path d="M284.032 341.241L358.091 450.994C358.668 450.693 359.029 450.005 359.029 449.006L359.026 447.035L286.682 339.747C286.682 339.735 286.67 339.723 286.659 339.711L284.032 341.241Z" fill="#8333A2"/>
<path d="M199.247 359.28C199.725 360.071 200.331 360.781 201.017 361.258L201.133 361.328L356.005 450.751L356.028 450.762C356.83 451.216 357.552 451.274 358.087 450.994L284.022 341.223C280.952 336.321 274.747 334.418 269.459 336.754L199.247 359.28Z" fill="#8839A7"/>
<path d="M367.923 310.527L365.465 311.949C365.815 313.106 366.031 314.287 366.031 315.251V322.914L368.49 321.492V313.817C368.49 312.865 368.273 311.684 367.923 310.527Z" fill="#643E74"/>
<path d="M354.996 326.456L357.448 327.873L359.931 326.439L366.041 322.92L363.665 321.511L354.996 326.456Z" fill="#8839A7"/>
<path d="M354.889 326.502L363.666 321.511L366.04 322.92L359.932 326.439L357.448 327.873L357.423 327.857C357.274 327.792 357.118 327.745 356.959 327.71C356.549 327.638 356.104 327.651 355.634 327.758L350.692 329.583L293.921 350.481L293.034 349.165L354.889 326.502Z" fill="#8333A2"/>
<path d="M530.304 113.309L519.756 112.249C520.032 111.942 520.296 111.632 520.529 111.309L522.082 109.15C524.847 105.308 523.268 101.809 518.56 101.336C516.653 101.145 514.526 101.487 512.486 102.206C515.418 96.9841 512.922 92.4582 506.405 91.8031C499.361 91.0961 490.297 95.1811 486.162 100.929L483.838 104.157C482.767 105.646 482.141 107.099 481.909 108.449L473.147 107.568C470.535 107.307 467.175 108.821 465.642 110.951C464.108 113.083 464.983 115.023 467.595 115.285L524.751 121.026C527.364 121.288 530.725 119.774 532.258 117.643C533.791 115.512 532.916 113.572 530.304 113.309Z" fill="#EFEFEF"/>
<path d="M454.787 43.9101L441.804 42.6067C442.143 42.2293 442.467 41.8449 442.754 41.4468L444.666 38.7892C448.069 34.0599 446.128 29.7542 440.33 29.172C437.982 28.936 435.365 29.3552 432.852 30.2416C436.46 23.8135 433.39 18.2418 425.368 17.436C416.695 16.5648 405.538 21.5937 400.447 28.6695L397.586 32.6456C396.268 34.4786 395.496 36.2647 395.21 37.9266L384.426 36.8446C381.21 36.5214 377.073 38.3859 375.186 41.0092C373.298 43.6326 374.375 46.021 377.591 46.3442L447.952 53.4106C451.168 53.7338 455.305 51.8683 457.193 49.245C459.079 46.6226 458.003 44.2332 454.787 43.9101Z" fill="#EFEFEF"/>
<path d="M191.407 206.106L148.777 178.806L130 184.834L191.407 206.106Z" fill="#E9C11C"/>
<path d="M191.407 206.107L154.563 175.381L162.751 165.925L191.407 206.107Z" fill="#E9C11C"/>
<path d="M154.563 175.38V182.511L191.407 206.107L154.563 175.38Z" fill="#E9C11C"/>
<path d="M154.563 175.381V182.511L191.407 206.107L154.563 175.381Z" fill="#DF9920"/>
<path d="M269.5 133.5C266.356 131.815 251.584 117.827 248.306 116.418C244.14 114.627 239.857 113.068 235.475 111.904C231.236 110.777 226.885 110.047 222.525 109.568C218.183 109.09 213.798 108.91 209.433 109.042C204.981 109.177 200.524 109.587 196.139 110.365C191.816 111.133 187.529 112.215 183.384 113.665C179.051 115.179 174.824 117.041 170.788 119.229C167.009 121.278 163.285 123.528 160.025 126.329C156.779 129.12 153.798 132.305 151.431 135.872C148.998 139.538 146.893 143.545 145.775 147.801C144.609 152.239 144.058 156.98 144.689 161.525C145.292 165.866 146.968 170.153 149.388 173.809C152.384 178.336 157.876 183.179 160.622 185.601" stroke="#E9C11C" stroke-width="2.41" stroke-dasharray="7.23 3.62"/>
</g>
</g>
<defs>
<clipPath id="clip0_6_1016">
<rect width="723" height="661" fill="white" transform="matrix(-1 0 0 1 723 0)"/>
</clipPath>
</defs>
</svg>
