<svg id="Layer_1" viewBox="0 0 64 64" xmlns="http://www.w3.org/2000/svg" xmlns:xlink="http://www.w3.org/1999/xlink" data-name="Layer 1"><pattern id="New_Pattern_Swatch_6" height="23.25" patternTransform="matrix(.98 0 0 .98 -6.77 -11.16)" patternUnits="userSpaceOnUse" viewBox="0 0 23.63 23.25" width="23.63" data-name="New Pattern Swatch 6"><path d="m0 0h23.63v23.25h-23.63z" fill="none"/><path d="m0 0h23.63v23.25h-23.63z" fill="#d1d1d1"/></pattern><pattern id="New_Pattern_Swatch_5" height="23.25" patternTransform="matrix(.98 0 0 .98 -6.77 -11.16)" patternUnits="userSpaceOnUse" viewBox="0 0 23.63 23.25" width="23.63" data-name="New Pattern Swatch 5"><path d="m0 0h23.63v23.25h-23.63z" fill="none"/><path d="m0 0h23.63v23.25h-23.63z" fill="#ddd"/></pattern><path d="m63.71.4a.23.23 0 0 0 0-.1.39.39 0 0 0 -.08-.1.08.08 0 0 0 0 0h-.08-.14a.41.41 0 0 0 -.41-.15l-62.41 25.43a.49.49 0 0 0 -.31.44.49.49 0 0 0 .26.45l11.4 6.26 9.64 21.44s0 0 0 0a.34.34 0 0 0 .09.12.18.18 0 0 0 .07.05.34.34 0 0 0 .15.06h.06.05.06a.31.31 0 0 0 .13 0h.07a.36.36 0 0 0 .09-.08l7.93-10.61 12.82 7.11a.46.46 0 0 0 .23.06h.17a.5.5 0 0 0 .29-.28l19.9-49.83s0-.06 0-.09 0-.06 0-.09.02-.07.02-.09zm-60.57 26.28-1.22-.68 56.19-22.89-5.37 3.35-40.43 25.25zm18.6 25.32-8.74-19.52 45-28.14 1.63-1-35.82 35-.55.55a.16.16 0 0 0 0 .07l-.06.07v.09s0 0 0 .06zm1 .13 1.26-12.13 5.48 3zm20.46-2.6-18.78-10.4.28-.27 35-34.19 2.26-2.21z"/><g fill="url(#New_Pattern_Swatch_6)"><path d="m29.49 43.08-6.78 9.06 1.3-12.1z"/><path d="m59.63 3.32-36.37 35.58a.16.16 0 0 0 0 .07l-.06.07v.09s0 0 0 .06l-1.46 12.81-8.74-19.52z"/><path d="m61.91 2.46-18.74 47.08-18.75-10.41.28-.27 17.48 9.7 17.47-43.89z"/></g><path d="m59.65 4.67-17.47 43.89-17.48-9.7z" fill="url(#New_Pattern_Swatch_5)"/><path d="m58.1 3.11-5.36 3.35-49.6 20.22-1.22-.67z" fill="url(#New_Pattern_Swatch_6)"/><path d="m52.74 6.46-40.43 25.25-9.17-5.03z" fill="url(#New_Pattern_Swatch_5)"/><path d="m.77 46.6a.51.51 0 0 0 .36-.15c3-3 7.83-8 8.38-8.32a.49.49 0 0 0 -.51-.86c-.69.38-6.76 6.59-8.61 8.49a.5.5 0 0 0 0 .7.51.51 0 0 0 .38.14z"/><path d="m14.44 49-14.02 14.16a.5.5 0 0 0 .35.84.47.47 0 0 0 .35-.15l14-14.17a.48.48 0 0 0 0-.69.49.49 0 0 0 -.68.01z"/><path d="m31.9 52.29-10.71 10.87a.5.5 0 0 0 .35.84.47.47 0 0 0 .35-.15l10.71-10.85a.5.5 0 0 0 0-.7.49.49 0 0 0 -.7-.01z"/></svg>