<svg width="37" height="37" viewBox="0 0 37 37" fill="none" xmlns="http://www.w3.org/2000/svg">
<path d="M2.0002 35.802L2 22.3222C2 22.1945 2.00014 21.8485 2.00023 21.6405C2.00027 21.5493 2.07421 21.4755 2.1654 21.4755H11.2092C11.3008 21.4755 11.3749 21.401 11.3743 21.3094L11.2667 2.47228C11.2626 2.28238 11.4164 2.12622 11.6076 2.12622L35.5209 2.00012C35.7092 2.00012 35.8618 2.15177 35.8618 2.33883L35.8617 25.3023C35.8617 25.4894 35.7091 25.641 35.5208 25.641L15.7973 25.7088C15.7079 25.7091 15.6349 25.7806 15.6328 25.8701L15.4073 35.4648C15.4073 35.6513 15.2556 35.8027 15.0679 35.8035L2.0002 35.8616M7.73681 29.028L27.5684 9.55242M27.5684 9.55242H19.8979M27.5684 9.55242V16.3949" stroke="#7F4BC1" stroke-width="2.14732" stroke-linecap="round"/>
</svg>
