<svg width="24" height="24" viewBox="0 0 24 24" fill="none" xmlns="http://www.w3.org/2000/svg">
<path d="M12 15C13.6569 15 15 13.6569 15 12C15 10.3431 13.6569 9 12 9C10.3431 9 9 10.3431 9 12C9 13.6569 10.3431 15 12 15Z" stroke="#E1C8FF" stroke-width="2"/>
<path d="M13.7655 2.152C13.3985 2 12.9325 2 12.0005 2C11.0685 2 10.6025 2 10.2355 2.152C9.99263 2.25251 9.772 2.3999 9.58617 2.58572C9.40035 2.77155 9.25296 2.99218 9.15245 3.235C9.06045 3.458 9.02345 3.719 9.00945 4.098C9.00294 4.37193 8.92705 4.63973 8.78889 4.87635C8.65073 5.11298 8.45481 5.31069 8.21945 5.451C7.98026 5.58477 7.71104 5.65567 7.43698 5.65707C7.16293 5.65847 6.893 5.59032 6.65245 5.459C6.31645 5.281 6.07345 5.183 5.83245 5.151C5.30677 5.08187 4.77515 5.22431 4.35445 5.547C4.04045 5.79 3.80645 6.193 3.34045 7C2.87445 7.807 2.64045 8.21 2.58945 8.605C2.55509 8.86545 2.57237 9.13012 2.64032 9.38389C2.70826 9.63767 2.82554 9.87556 2.98545 10.084C3.13345 10.276 3.34045 10.437 3.66145 10.639C4.13445 10.936 4.43845 11.442 4.43845 12C4.43845 12.558 4.13445 13.064 3.66145 13.36C3.34045 13.563 3.13245 13.724 2.98545 13.916C2.82554 14.1244 2.70826 14.3623 2.64032 14.6161C2.57237 14.8699 2.55509 15.1345 2.58945 15.395C2.64145 15.789 2.87445 16.193 3.33945 17C3.80645 17.807 4.03945 18.21 4.35445 18.453C4.56289 18.6129 4.80078 18.7302 5.05456 18.7981C5.30833 18.8661 5.573 18.8834 5.83345 18.849C6.07345 18.817 6.31645 18.719 6.65245 18.541C6.893 18.4097 7.16293 18.3415 7.43698 18.3429C7.71104 18.3443 7.98026 18.4152 8.21945 18.549C8.70245 18.829 8.98945 19.344 9.00945 19.902C9.02345 20.282 9.05945 20.542 9.15245 20.765C9.25296 21.0078 9.40035 21.2284 9.58617 21.4143C9.772 21.6001 9.99263 21.7475 10.2355 21.848C10.6025 22 11.0685 22 12.0005 22C12.9325 22 13.3985 22 13.7655 21.848C14.0083 21.7475 14.2289 21.6001 14.4147 21.4143C14.6006 21.2284 14.7479 21.0078 14.8484 20.765C14.9404 20.542 14.9775 20.282 14.9915 19.902C15.0115 19.344 15.2985 18.828 15.7815 18.549C16.0206 18.4152 16.2899 18.3443 16.5639 18.3429C16.838 18.3415 17.1079 18.4097 17.3484 18.541C17.6844 18.719 17.9274 18.817 18.1674 18.849C18.4279 18.8834 18.6926 18.8661 18.9463 18.7981C19.2001 18.7302 19.438 18.6129 19.6465 18.453C19.9615 18.211 20.1944 17.807 20.6604 17C21.1264 16.193 21.3604 15.79 21.4114 15.395C21.4458 15.1345 21.4285 14.8699 21.3606 14.6161C21.2926 14.3623 21.1754 14.1244 21.0154 13.916C20.8674 13.724 20.6605 13.563 20.3395 13.361C20.1054 13.2184 19.9113 13.0187 19.7754 12.7807C19.6395 12.5427 19.5663 12.2741 19.5625 12C19.5625 11.442 19.8665 10.936 20.3395 10.64C20.6605 10.437 20.8684 10.276 21.0154 10.084C21.1754 9.87556 21.2926 9.63767 21.3606 9.38389C21.4285 9.13012 21.4458 8.86545 21.4114 8.605C21.3594 8.211 21.1264 7.807 20.6614 7C20.1944 6.193 19.9615 5.79 19.6465 5.547C19.438 5.38709 19.2001 5.26981 18.9463 5.20187C18.6926 5.13392 18.4279 5.11664 18.1674 5.151C17.9274 5.183 17.6845 5.281 17.3475 5.459C17.107 5.59014 16.8373 5.6582 16.5634 5.6568C16.2896 5.6554 16.0205 5.58459 15.7815 5.451C15.5461 5.31069 15.3502 5.11298 15.212 4.87635C15.0738 4.63973 14.998 4.37193 14.9915 4.098C14.9775 3.718 14.9414 3.458 14.8484 3.235C14.7479 2.99218 14.6006 2.77155 14.4147 2.58572C14.2289 2.3999 14.0083 2.25251 13.7655 2.152Z" stroke="#E1C8FF" stroke-width="2"/>
</svg>
