<svg width="59" height="59" viewBox="0 0 59 59" fill="none" xmlns="http://www.w3.org/2000/svg">
<path d="M43.0258 29.5811L32.6 23.5385L37.8559 10.9248C38.0182 10.5954 38.1092 10.2242 38.1092 9.83333C38.1092 8.47633 37.0152 7.375 35.6582 7.375C35.0461 7.38483 34.5347 7.57904 34.1291 7.90108C34.048 7.965 33.9988 8.00433 33.957 8.04858L15.5195 25.5027C14.9566 26.0362 14.6788 26.8032 14.7673 27.5727C14.8558 28.3421 15.3057 29.0255 15.9743 29.4164L26.4026 35.4639L21.0852 48.2227C20.6353 49.2945 21.0016 50.5335 21.9554 51.1923C22.3807 51.4824 22.8699 51.625 23.3542 51.625C23.9639 51.625 24.5736 51.3964 25.0456 50.9514L43.4831 33.4923C44.046 32.9589 44.3238 32.1919 44.2353 31.4224C44.1444 30.653 43.6945 29.9695 43.0258 29.5811Z" fill="#E9C11C"/>
</svg>
