<svg width="26" height="26" viewBox="0 0 26 26" fill="none" xmlns="http://www.w3.org/2000/svg">
<path d="M18.4163 22.75V20.5833C18.4163 19.4341 17.9598 18.3319 17.1471 17.5192C16.3345 16.7065 15.2323 16.25 14.083 16.25H5.41634C4.26707 16.25 3.16487 16.7065 2.35221 17.5192C1.53955 18.3319 1.08301 19.4341 1.08301 20.5833V22.75M24.9163 22.75V20.5833C24.9156 19.6232 24.5961 18.6905 24.0078 17.9317C23.4196 17.1728 22.596 16.6309 21.6663 16.3908M17.333 3.39083C18.2651 3.62949 19.0913 4.17159 19.6813 4.93167C20.2713 5.69175 20.5915 6.62657 20.5915 7.58875C20.5915 8.55093 20.2713 9.48575 19.6813 10.2458C19.0913 11.0059 18.2651 11.548 17.333 11.7867M14.083 7.58333C14.083 9.97657 12.1429 11.9167 9.74967 11.9167C7.35644 11.9167 5.41634 9.97657 5.41634 7.58333C5.41634 5.1901 7.35644 3.25 9.74967 3.25C12.1429 3.25 14.083 5.1901 14.083 7.58333Z" stroke="#E1C8FF" stroke-width="2" stroke-linecap="round" stroke-linejoin="round"/>
</svg>
