<svg width="22" height="22" viewBox="0 0 22 22" fill="none" xmlns="http://www.w3.org/2000/svg">
<path fill-rule="evenodd" clip-rule="evenodd" d="M18.6339 3.5355C16.6649 1.56425 14.0464 0.478194 11.2566 0.477051C5.5084 0.477051 0.829938 5.15513 0.827695 10.9051C0.82689 12.7432 1.30712 14.5373 2.21978 16.1189L0.740234 21.523L6.26875 20.0728C7.79198 20.9036 9.50703 21.3416 11.2525 21.3421H11.2567C11.2564 21.3421 11.257 21.3421 11.2567 21.3421C17.0043 21.3421 21.6832 16.6636 21.6856 10.9135C21.6866 8.12684 20.6028 5.50667 18.6339 3.5355ZM11.2567 19.5809H11.2532C9.69783 19.5803 8.17226 19.1624 6.84139 18.3726L6.52491 18.1848L3.2442 19.0454L4.11991 15.8467L3.91379 15.5187C3.04613 14.1387 2.58787 12.5436 2.58855 10.9057C2.59041 6.12655 6.47897 2.23841 11.2602 2.23841C13.5754 2.23913 15.7518 3.14197 17.3883 4.7804C19.0249 6.41882 19.9256 8.59666 19.9247 10.9128C19.9228 15.6923 16.0343 19.5809 11.2567 19.5809Z" fill="#E1C8FF"/>
<path fill-rule="evenodd" clip-rule="evenodd" d="M16.0108 13.0889C15.7502 12.9585 14.4691 12.3282 14.2302 12.2412C13.9914 12.1542 13.8176 12.1107 13.6439 12.3716C13.4703 12.6324 12.9708 13.2194 12.8188 13.3933C12.6669 13.5672 12.5148 13.589 12.2543 13.4585C11.9937 13.3281 11.1541 13.0529 10.1588 12.1652C9.38408 11.4742 8.86114 10.6209 8.70907 10.3599C8.5571 10.0991 8.6929 9.95812 8.82337 9.82815C8.94059 9.71136 9.08398 9.52382 9.21428 9.37163C9.34454 9.21953 9.38797 9.11073 9.47484 8.93695C9.56171 8.76301 9.51832 8.61082 9.45312 8.48043C9.38797 8.35 8.86685 7.06739 8.64972 6.54555C8.43814 6.03751 8.22334 6.10634 8.06336 6.09825C7.9116 6.09068 7.73765 6.08911 7.56396 6.08911C7.39027 6.08911 7.1079 6.15435 6.8691 6.41516C6.63026 6.67606 5.95703 7.30653 5.95703 8.58902C5.95703 9.87167 6.89078 11.1108 7.02108 11.2846C7.15134 11.4586 8.85855 14.0906 11.4725 15.2193C12.0943 15.4878 12.5796 15.6481 12.9581 15.7682C13.5823 15.9666 14.1504 15.9385 14.5994 15.8714C15.1 15.7966 16.1411 15.2411 16.3582 14.6325C16.5754 14.0237 16.5754 13.5019 16.5102 13.3933C16.4451 13.2846 16.2714 13.2194 16.0108 13.0889Z" fill="#E1C8FF"/>
</svg>
