<svg width="32" height="32" viewBox="0 0 32 32" fill="none" xmlns="http://www.w3.org/2000/svg">
<g clip-path="url(#clip0_59_27)">
<path fill-rule="evenodd" clip-rule="evenodd" d="M23.3309 19.1915C22.9328 18.9923 20.9755 18.0293 20.6106 17.8963C20.2457 17.7634 19.9803 17.6971 19.7149 18.0955C19.4495 18.494 18.6865 19.3908 18.4543 19.6565C18.2221 19.9222 17.9898 19.9556 17.5917 19.7562C17.1936 19.557 15.9108 19.1366 14.3902 17.7802C13.2067 16.7245 12.4077 15.4208 12.1755 15.0223C11.9432 14.6237 12.1507 14.4083 12.35 14.2098C12.5292 14.0314 12.7482 13.7448 12.9472 13.5123C13.1463 13.2799 13.2126 13.1137 13.3453 12.8482C13.478 12.5824 13.4117 12.35 13.3121 12.1507C13.2126 11.9515 12.4164 9.99184 12.0847 9.19459C11.7615 8.41841 11.4333 8.52353 11.1889 8.51122C10.957 8.49972 10.6912 8.49728 10.4259 8.49728C10.1606 8.49728 9.72919 8.59691 9.36425 8.99534C8.99938 9.39391 7.97094 10.3572 7.97094 12.3166C7.97094 14.2763 9.39744 16.1692 9.5965 16.435C9.79556 16.7007 12.4037 20.7218 16.3975 22.4463C17.3472 22.8565 18.0889 23.1015 18.667 23.2849C19.6207 23.588 20.4886 23.5452 21.1746 23.4427C21.9394 23.3285 23.5299 22.4797 23.8617 21.5498C24.1934 20.6197 24.1934 19.8226 24.0939 19.6565C23.9944 19.4905 23.7291 19.3908 23.3309 19.1915ZM16.0669 29.1098H16.0616C13.6852 29.1089 11.3545 28.4705 9.32125 27.2639L8.83762 26.9769L3.8255 28.2917L5.16331 23.4048L4.8485 22.9038C3.52281 20.7953 2.82263 18.3584 2.82369 15.8561C2.82663 8.55453 8.76744 2.61422 16.0722 2.61422C19.6094 2.61541 22.9344 3.99472 25.4347 6.49791C27.9351 9.00103 29.3112 12.3283 29.3098 15.8668C29.3068 23.1689 23.3661 29.1098 16.0669 29.1098ZM27.3377 4.59584C24.3295 1.58422 20.3291 -0.0750933 16.0667 -0.0768433C7.28462 -0.0768433 0.137062 7.07028 0.1335 15.8551C0.132375 18.6633 0.866 21.4042 2.26038 23.8206L0 32.077L8.44631 29.8613C10.7736 31.1307 13.3938 31.7998 16.0604 31.8007H16.067C24.8482 31.8007 31.9964 24.6528 32 15.8678C32.0016 11.6105 30.3458 7.60747 27.3377 4.59584Z" fill="#7F4BC1"/>
</g>
<defs>
<clipPath id="clip0_59_27">
<rect width="32" height="32" fill="white"/>
</clipPath>
</defs>
</svg>
